<svg width="78" height="73" viewBox="0 0 78 73" fill="none" xmlns="http://www.w3.org/2000/svg">
<ellipse cx="39" cy="36.5" rx="39" ry="36.5" fill="#C4C4C4"/>
<g clip-path="url(#clip0)">
<path d="M52.4851 33.9492C52.4851 27.1526 46.2686 21.6555 38.7966 22.0169C32.028 22.3783 26.6736 27.514 26.5148 33.7338C26.5148 36.8402 27.7702 39.7312 29.9785 41.9759C33.5859 45.5271 33.1246 49.6413 33.1246 49.6413C33.1246 50.4335 33.8355 51.0868 34.6976 51.0868H44.2947C45.1569 51.0868 45.8678 50.4335 45.9434 49.6413C45.9434 49.6413 45.414 45.6314 49.0139 42.0524C51.2222 39.8772 52.4851 36.9862 52.4851 33.9492ZM42.8049 48.2652H36.195C36.0362 45.2978 34.622 42.4068 32.3381 40.1691C30.6062 38.4317 29.7441 36.1939 29.7441 33.8797C29.8197 29.1054 33.8355 25.2067 39.0311 24.9148C44.6955 24.623 49.4147 28.8205 49.4147 33.9492C49.4147 36.1939 48.4693 38.4317 46.7375 40.0926C44.3779 42.4068 42.9637 45.2978 42.8049 48.2652Z" fill="black"/>
<path d="M42.2528 53.1091H36.664C35.8018 53.1091 35.0909 53.7623 35.0909 54.5546C35.0909 55.3468 35.8018 56.0001 36.664 56.0001H42.2528C43.115 56.0001 43.8259 55.3468 43.8259 54.5546C43.8259 53.7623 43.1226 53.1091 42.2528 53.1091Z" fill="black"/>
</g>
<defs>
<clipPath id="clip0">
<rect width="37" height="34" fill="white" transform="translate(21 22)"/>
</clipPath>
</defs>
</svg>
