<svg width="107" height="69" viewBox="0 0 107 69" fill="none" xmlns="http://www.w3.org/2000/svg">
<path d="M0.933594 26V0.40625H10.127C13.4199 0.40625 15.9219 1.00977 17.6328 2.2168C19.3555 3.42383 20.2168 5.17578 20.2168 7.47266C20.2168 8.79688 19.9121 9.92773 19.3027 10.8652C18.6934 11.8027 17.7969 12.4941 16.6133 12.9395C17.9492 13.291 18.9746 13.9473 19.6895 14.9082C20.4043 15.8691 20.7617 17.041 20.7617 18.4238C20.7617 20.9316 19.9648 22.8184 18.3711 24.084C16.7891 25.3379 14.4395 25.9766 11.3223 26H0.933594ZM7.10352 15.1191V21.2539H11.1465C12.2598 21.2539 13.1152 21.002 13.7129 20.498C14.3105 19.9824 14.6094 19.2617 14.6094 18.3359C14.6094 16.2031 13.5488 15.1309 11.4277 15.1191H7.10352ZM7.10352 11.0762H10.3203C11.668 11.0645 12.6289 10.8184 13.2031 10.3379C13.7773 9.85742 14.0645 9.14844 14.0645 8.21094C14.0645 7.13281 13.7539 6.35938 13.1328 5.89062C12.5117 5.41016 11.5098 5.16992 10.127 5.16992H7.10352V11.0762ZM44.2461 0.40625V17.1582C44.2461 19.0566 43.8418 20.7031 43.0332 22.0977C42.2246 23.4805 41.0645 24.5352 39.5527 25.2617C38.041 25.9883 36.2539 26.3516 34.1914 26.3516C31.0742 26.3516 28.6191 25.543 26.8262 23.9258C25.0332 22.3086 24.1191 20.0938 24.084 17.2812V0.40625H30.2891V17.4043C30.3594 20.2051 31.6602 21.6055 34.1914 21.6055C35.4688 21.6055 36.4355 21.2539 37.0918 20.5508C37.748 19.8477 38.0762 18.7051 38.0762 17.123V0.40625H44.2461ZM54.2832 21.2539H65.0234V26H48.1133V0.40625H54.2832V21.2539ZM67.625 26V0.40625H76.8184C80.1113 0.40625 82.6133 1.00977 84.3242 2.2168C86.0469 3.42383 86.9082 5.17578 86.9082 7.47266C86.9082 8.79688 86.6035 9.92773 85.9941 10.8652C85.3848 11.8027 84.4883 12.4941 83.3047 12.9395C84.6406 13.291 85.666 13.9473 86.3809 14.9082C87.0957 15.8691 87.4531 17.041 87.4531 18.4238C87.4531 20.9316 86.6562 22.8184 85.0625 24.084C83.4805 25.3379 81.1309 25.9766 78.0137 26H67.625ZM73.7949 15.1191V21.2539H77.8379C78.9512 21.2539 79.8066 21.002 80.4043 20.498C81.002 19.9824 81.3008 19.2617 81.3008 18.3359C81.3008 16.2031 80.2402 15.1309 78.1191 15.1191H73.7949ZM73.7949 11.0762H77.0117C78.3594 11.0645 79.3203 10.8184 79.8945 10.3379C80.4688 9.85742 80.7559 9.14844 80.7559 8.21094C80.7559 7.13281 80.4453 6.35938 79.8242 5.89062C79.2031 5.41016 78.2012 5.16992 76.8184 5.16992H73.7949V11.0762ZM102.166 17.2637H91.6016V12.6758H102.166V17.2637ZM12.2363 59.2637H1.67188V54.6758H12.2363V59.2637ZM16.1211 58.3145C16.1211 56.416 16.4902 54.7285 17.2285 53.252C17.9668 51.7637 19.0273 50.6211 20.4102 49.8242C21.793 49.0273 23.416 48.6289 25.2793 48.6289C28.127 48.6289 30.3711 49.5137 32.0117 51.2832C33.6523 53.041 34.4727 55.4375 34.4727 58.4727V58.6836C34.4727 61.6484 33.6465 64.0039 31.9941 65.75C30.3535 67.4844 28.127 68.3516 25.3145 68.3516C22.6074 68.3516 20.4336 67.543 18.793 65.9258C17.1523 64.2969 16.2676 62.0938 16.1387 59.3164L16.1211 58.3145ZM22.0449 58.6836C22.0449 60.4414 22.3203 61.7305 22.8711 62.5508C23.4219 63.3711 24.2363 63.7812 25.3145 63.7812C27.4238 63.7812 28.502 62.1582 28.5488 58.9121V58.3145C28.5488 54.9043 27.459 53.1992 25.2793 53.1992C23.2988 53.1992 22.2266 54.6699 22.0625 57.6113L22.0449 58.6836ZM43.7891 63.4297H52.4551V68H36.3008V64.6953L44.7383 53.5508H36.6699V48.9805H52.2617V52.1797L43.7891 63.4297ZM66.043 68C65.832 67.6133 65.6445 67.0449 65.4805 66.2949C64.3906 67.666 62.8672 68.3516 60.9102 68.3516C59.1172 68.3516 57.5938 67.8125 56.3398 66.7344C55.0859 65.6445 54.459 64.2793 54.459 62.6387C54.459 60.5762 55.2207 59.0176 56.7441 57.9629C58.2676 56.9082 60.4824 56.3809 63.3887 56.3809H65.2168V55.3789C65.2168 53.6328 64.4609 52.7598 62.9492 52.7598C61.543 52.7598 60.8398 53.4512 60.8398 54.834H54.916C54.916 52.9941 55.6953 51.5 57.2539 50.3516C58.8242 49.2031 60.8223 48.6289 63.248 48.6289C65.6738 48.6289 67.5898 49.2207 68.9961 50.4043C70.4023 51.5879 71.123 53.2109 71.1582 55.2734V63.6934C71.1816 65.4395 71.4512 66.7754 71.9668 67.7012V68H66.043ZM62.334 64.1328C63.0723 64.1328 63.6816 63.9746 64.1621 63.6582C64.6543 63.3418 65.0059 62.9844 65.2168 62.5859V59.5449H63.4941C61.4316 59.5449 60.4004 60.4707 60.4004 62.3223C60.4004 62.8613 60.582 63.3008 60.9453 63.6406C61.3086 63.9688 61.7715 64.1328 62.334 64.1328ZM85.7832 65.9434C84.5293 67.5488 82.8359 68.3516 80.7031 68.3516C78.6172 68.3516 77.0352 67.748 75.957 66.541C74.8906 65.3223 74.3574 63.5762 74.3574 61.3027V48.9805H80.2812V61.3379C80.2812 62.9668 81.0723 63.7812 82.6543 63.7812C84.0137 63.7812 84.9805 63.2949 85.5547 62.3223V48.9805H91.5137V68H85.959L85.7832 65.9434ZM106.279 54.3418L104.328 54.2012C102.465 54.2012 101.27 54.7871 100.742 55.959V68H94.8184V48.9805H100.373L100.566 51.4238C101.562 49.5605 102.951 48.6289 104.732 48.6289C105.365 48.6289 105.916 48.6992 106.385 48.8398L106.279 54.3418Z" fill="black"/>
</svg>
