<?xml version="1.0" standalone="no"?>
<!DOCTYPE svg PUBLIC "-//W3C//DTD SVG 20010904//EN"
 "http://www.w3.org/TR/2001/REC-SVG-20010904/DTD/svg10.dtd">
<svg version="1.0" xmlns="http://www.w3.org/2000/svg"
 width="750.000000pt" height="500.000000pt" viewBox="0 0 750.000000 500.000000"
 preserveAspectRatio="xMidYMid meet">

<g transform="translate(0.000000,500.000000) scale(0.100000,-0.100000)"
fill="#000000" stroke="none">
<path d="M1 4727 l0 -272 77 -50 c42 -27 79 -50 82 -50 17 -3 80 -40 80 -47 0
-4 6 -8 13 -8 16 0 226 -103 252 -124 17 -13 18 -17 5 -26 -13 -8 -13 -10 -1
-10 11 0 12 -3 4 -11 -8 -8 -19 -6 -42 5 -35 19 -41 31 -11 21 11 -3 20 -2 20
3 0 14 -61 24 -75 12 -9 -8 -12 -5 -11 10 1 16 -15 30 -64 57 -103 56 -241
125 -269 133 -14 4 -35 11 -46 15 -16 6 -17 5 -5 -4 11 -8 12 -13 3 -19 -8 -5
-11 -56 -10 -181 l2 -173 60 -24 c33 -14 190 -74 350 -134 377 -142 378 -142
393 -154 11 -8 13 -56 9 -235 -3 -124 -2 -190 2 -146 7 77 7 74 11 -60 l3
-140 8 135 c4 74 10 198 13 275 5 161 3 145 15 145 5 0 12 -8 14 -17 4 -15 5
-16 6 -2 1 17 35 32 46 21 4 -4 14 -7 23 -7 25 0 29 -111 30 -825 2 -701 11
-1080 25 -1080 5 0 7 16 3 38 -4 23 -3 32 3 22 4 -8 14 -121 20 -249 7 -129
14 -238 17 -242 2 -4 17 -6 33 -4 l30 4 -14 -44 c-16 -54 -31 -70 -68 -72 -21
-1 -27 3 -23 13 4 11 -12 14 -84 14 -50 0 -90 -2 -90 -5 0 -11 34 -44 42 -39
4 3 8 -2 8 -10 0 -10 -6 -13 -17 -9 -12 5 -15 2 -10 -10 7 -20 -19 -37 -57
-37 -24 0 -26 3 -26 45 0 38 3 45 20 45 11 0 20 4 20 8 0 4 -12 7 -27 6 -26
-1 -27 -3 -24 -51 2 -49 2 -50 -30 -57 -17 -3 -63 -6 -102 -6 l-70 0 68 52
c78 59 72 78 -8 25 -28 -19 -55 -33 -59 -30 -16 9 -7 58 14 81 l23 25 -23 -13
c-22 -11 -23 -10 -17 9 5 17 2 21 -16 21 -21 0 -21 1 5 25 30 28 29 25 16 59
-11 31 -45 37 -35 7 7 -23 -19 -91 -35 -91 -6 0 -4 13 6 32 10 20 14 45 11 70
-6 42 -5 43 23 26 10 -7 22 -10 25 -6 3 3 8 45 10 94 7 126 15 187 27 201 6 7
8 22 5 33 -3 13 0 20 9 20 8 0 15 8 16 18 1 9 5 -35 9 -98 3 -63 5 25 3 195
-2 171 -3 326 -3 345 -1 33 -2 35 -37 36 -19 0 -40 7 -45 15 -7 10 -11 11 -17
2 -6 -9 -50 -11 -82 -4 -3 1 6 8 20 16 l25 14 -37 1 c-40 0 -59 -16 -37 -32
11 -7 9 -8 -6 -5 -11 2 -19 9 -17 16 2 10 -4 12 -20 7 -42 -13 -52 -11 -56 9
-5 26 -39 58 -53 49 -6 -3 -8 -12 -5 -20 3 -8 -1 -14 -9 -14 -9 0 -15 10 -15
25 0 29 -2 30 -40 10 l-30 -15 12 25 c8 18 17 23 32 19 12 -2 36 -6 53 -7 18
-1 33 -6 33 -12 0 -5 5 -3 10 5 6 10 10 11 10 3 0 -23 20 -14 21 10 0 12 3 16
6 9 3 -8 10 -5 23 10 l18 23 -5 -28 c-3 -17 -1 -27 7 -27 7 0 10 -7 6 -16 -11
-29 14 -3 28 29 12 27 14 29 15 10 1 -22 1 -22 26 3 17 17 32 23 44 19 14 -4
21 0 26 15 4 11 10 18 15 15 4 -3 13 2 20 10 7 8 23 15 36 15 l24 0 -1 245 -2
245 -23 0 c-13 0 -24 -6 -24 -12 0 -10 -2 -10 -8 -2 -4 7 -18 14 -32 15 -18 3
-27 13 -34 37 -9 32 -11 33 -50 30 -26 -2 -40 1 -39 8 1 6 -8 9 -22 7 -26 -6
-44 -51 -24 -63 16 -11 -27 -24 -68 -21 -18 1 -33 -3 -33 -9 0 -5 -4 -10 -10
-10 -5 0 -10 8 -10 17 0 34 -11 3 -14 -38 l-3 -44 -55 -3 -55 -3 -7 42 c-5 30
-10 39 -21 35 -15 -6 -20 5 -8 18 15 15 9 46 -9 46 -11 0 -17 -4 -13 -9 3 -5
1 -12 -5 -16 -5 -3 -10 1 -10 10 0 8 11 20 24 25 13 4 25 19 28 32 4 23 2 24
-52 26 l-56 2 -2 -51 c-1 -46 0 -50 13 -33 7 10 16 16 19 13 7 -7 -16 -59 -26
-59 -5 0 -8 -7 -8 -16 0 -14 3 -14 15 -4 8 7 15 11 16 9 0 -2 2 -16 3 -31 2
-28 -18 -39 -27 -15 -3 6 -6 -101 -6 -238 -1 -232 0 -251 17 -252 9 -1 32 -3
50 -5 18 -3 35 -1 38 3 5 9 34 1 34 -10 0 -14 -52 -29 -95 -27 l-45 2 0 -734
c0 -584 3 -732 13 -726 6 5 37 25 67 46 54 37 66 55 45 71 -6 5 -4 7 5 4 8 -2
14 -10 12 -17 -1 -6 1 -10 6 -8 15 6 177 109 226 144 51 36 77 45 55 18 -7 -9
-12 -35 -10 -65 2 -43 0 -49 -17 -49 -11 0 -25 -7 -32 -16 -8 -8 -27 -21 -44
-28 -17 -7 -47 -28 -66 -46 -19 -18 -60 -50 -90 -71 -30 -22 -81 -57 -112 -79
l-58 -41 0 -160 0 -160 23 6 c30 10 103 65 217 166 145 128 200 172 208 164 4
-3 -7 -19 -25 -33 -17 -15 -71 -61 -119 -102 -49 -41 -91 -78 -94 -81 -3 -3
-28 -23 -55 -45 -28 -21 -74 -59 -103 -83 l-52 -44 0 -68 c0 -50 6 -78 22
-108 12 -23 25 -41 30 -41 4 0 8 -5 8 -12 0 -6 6 -19 14 -27 21 -25 29 -81 11
-81 -16 0 -18 -9 -9 -34 6 -15 139 -16 1414 -16 775 0 1415 3 1424 6 14 5 16
32 16 200 0 162 2 192 14 188 16 -6 25 -95 29 -276 l2 -118 2262 0 2263 0 0
734 c0 660 -2 734 -16 740 -24 9 -31 7 -12 -5 18 -10 13 -28 -19 -69 -7 -9
-25 -42 -41 -73 -29 -56 -85 -127 -101 -127 -4 0 -18 -9 -31 -20 -13 -11 -28
-20 -34 -21 -6 0 -26 -2 -43 -5 -23 -2 -32 0 -30 9 1 6 -6 11 -15 9 -27 -4
-28 49 -3 141 9 33 -8 36 -23 3 -9 -19 -17 -23 -51 -22 -23 0 -41 3 -41 7 0 8
-72 29 -101 29 -24 0 -59 30 -59 50 0 5 -15 13 -32 18 -28 7 -34 14 -39 45 -3
20 -3 37 1 37 4 0 13 28 20 62 26 132 105 149 341 70 95 -31 114 -40 100 -49
-14 -10 -14 -13 -1 -27 12 -12 23 -13 54 -6 25 5 47 5 59 -1 10 -6 25 -8 33
-5 8 3 31 -1 50 -9 32 -13 34 -13 34 5 0 21 -6 23 -110 45 -88 18 -184 52
-283 99 -83 40 -226 91 -277 100 -19 3 -60 13 -90 22 -51 14 -81 22 -170 44
-19 5 -93 27 -165 49 -88 27 -158 41 -217 45 -48 3 -97 10 -110 14 -13 5 -33
6 -46 3 -33 -8 -232 5 -243 16 -5 5 -32 7 -59 3 -54 -7 -59 -3 -61 53 -2 29
-2 28 -8 -8 -6 -38 -8 -40 -49 -46 -38 -5 -45 -3 -52 15 -7 17 -9 18 -9 4 -1
-20 -1 -20 -54 -23 -31 -2 -40 2 -46 19 l-8 20 -11 -20 c-8 -16 -18 -20 -41
-16 -22 3 -31 0 -31 -9 -1 -9 -4 -8 -11 4 -6 10 -15 14 -22 10 -23 -14 -92
-10 -104 6 -11 14 -12 14 -13 -1 0 -15 -9 -18 -50 -18 -45 0 -50 2 -51 23 0
22 0 22 -9 1 -5 -13 -21 -24 -40 -28 -60 -11 -68 -8 -73 27 l-4 32 -1 -33 c-2
-31 -4 -33 -35 -31 -18 2 -37 0 -44 -4 -6 -4 -19 0 -27 9 -13 13 -16 13 -16 1
0 -23 -92 -16 -100 8 -6 17 -7 17 -13 -4 -5 -21 -9 -22 -54 -15 -26 4 -51 11
-54 16 -4 7 -9 7 -13 0 -6 -11 -87 -9 -106 3 -7 4 -15 2 -19 -4 -10 -16 -90
-11 -100 7 -6 10 -10 11 -15 3 -10 -15 -99 -14 -114 1 -9 9 -12 9 -12 0 0 -7
-11 -12 -25 -12 l-25 0 0 -139 c0 -152 -3 -171 -30 -171 -20 0 -29 74 -32 279
-1 69 -3 105 -5 80 l-4 -45 -39 3 c-63 5 -65 6 -71 48 l-6 40 -1 -42 -2 -43
-49 0 c-28 0 -53 5 -56 10 -4 6 -12 7 -18 3 -16 -11 -97 -11 -97 0 0 4 -4 6
-9 3 -5 -4 -12 0 -14 6 -4 9 -6 8 -6 -2 -1 -11 -13 -15 -46 -15 -25 0 -45 4
-45 8 0 5 -4 5 -10 2 -6 -4 -11 9 -11 32 l-2 38 -6 -40 -6 -40 -45 4 c-25 1
-51 8 -58 14 -10 7 -16 8 -20 0 -8 -13 -92 -22 -92 -10 0 4 -4 6 -9 2 -6 -3
-12 12 -14 32 l-4 38 -1 -37 c-2 -37 -3 -38 -39 -38 -65 0 -81 9 -86 44 -4 29
-4 29 -5 -7 l-2 -37 -47 4 c-27 2 -56 7 -65 11 -11 4 -18 3 -18 -5 0 -6 -3 -9
-8 -7 -4 3 -27 7 -52 8 -41 3 -46 6 -51 34 l-6 30 -2 -32 c-1 -31 -3 -33 -40
-33 -23 0 -46 7 -55 16 -9 8 -16 12 -17 7 -1 -4 -5 3 -9 17 -8 24 -8 24 -9 -6
-1 -28 -3 -30 -33 -27 -61 7 -78 13 -78 27 0 8 6 17 13 19 6 3 2 6 -10 6 -18
1 -23 -4 -23 -25 0 -21 -4 -25 -22 -22 -15 2 -22 9 -22 20 1 10 -2 16 -6 13
-4 -3 -10 2 -14 10 -3 8 -2 16 2 18 4 3 334 5 735 6 661 2 727 1 727 -14 0
-13 4 -13 28 5 15 11 43 21 62 22 19 1 50 11 67 21 27 15 31 22 23 37 -15 29
-83 44 -79 18 3 -26 -2 -38 -20 -47 -12 -7 -233 -11 -607 -11 -956 -2 -891 -3
-915 21 -28 28 -20 42 29 53 23 5 42 12 42 16 0 4 -17 15 -37 23 -36 15 -21
16 245 16 155 1 282 4 282 9 0 4 -74 6 -165 5 -91 0 -165 2 -165 5 0 4 -64 7
-142 7 l-142 0 -7 25 c-4 14 -7 91 -8 173 -1 131 -7 167 -25 139 -3 -5 -6 -80
-7 -167 -1 -101 -5 -152 -11 -141 -5 8 -8 30 -7 48 6 81 -2 248 -11 248 -6 0
-10 -57 -11 -147 -1 -122 -3 -139 -11 -98 -11 61 -13 235 -4 408 6 115 5 127
-9 114 -13 -13 -15 -55 -15 -270 0 -267 -7 -388 -21 -365 -6 8 -9 2 -9 -19 l0
-33 64 0 c58 0 64 -2 70 -22 12 -48 12 -48 -109 -48 -63 0 -115 -4 -115 -9 0
-17 90 -33 169 -29 45 2 81 0 81 -4 0 -5 -9 -8 -20 -8 -13 0 -20 -7 -20 -20 0
-17 -7 -20 -45 -20 -50 0 -61 16 -17 26 50 11 48 12 -17 13 -53 1 -62 -1 -52
-13 15 -18 6 -23 -46 -25 -35 -1 -43 3 -43 17 0 14 -2 15 -10 2 -7 -11 -10 -5
-10 23 0 23 4 36 10 32 6 -3 10 -1 10 4 0 6 -7 11 -14 11 -11 0 -16 -14 -18
-47 -2 -37 -6 -47 -18 -44 -8 2 -24 4 -35 5 -25 0 -45 19 -46 43 -1 13 -3 11
-9 -7 -7 -23 -8 -23 -10 10 l-3 35 -6 -39 -6 -39 -41 39 c-22 21 -43 53 -47
69 -3 17 -11 43 -17 60 -9 23 -13 26 -21 15 -8 -13 -10 -13 -18 0 -13 19 -3
32 19 25 10 -3 21 -1 25 5 4 6 -13 10 -48 10 -38 0 -57 4 -60 14 -3 8 -1 17 6
20 9 3 9 5 0 5 -20 1 -15 21 5 22 13 0 12 2 -5 9 -20 8 -24 14 -23 35 1 13
-33 38 -82 60 -34 15 -48 25 -38 29 8 3 42 15 75 27 68 25 125 77 125 114 0
47 -56 88 -160 116 -59 16 -224 16 -275 0 -57 -18 -122 -51 -141 -72 -10 -11
-23 -19 -31 -19 -7 0 -13 -5 -13 -11 0 -5 5 -7 10 -4 6 3 10 2 10 -3 0 -16
-13 -22 -26 -11 -7 6 -14 6 -18 1 -3 -6 1 -12 9 -16 8 -3 15 -16 15 -30 0 -14
5 -28 10 -31 6 -3 10 -12 10 -18 0 -7 -7 -4 -14 6 -8 10 -20 15 -30 11 -9 -3
-16 -2 -16 4 0 5 -11 13 -24 16 -14 3 -26 16 -30 31 -4 14 -11 25 -16 25 -6 0
-10 8 -10 18 0 10 -4 22 -9 28 -6 5 -11 28 -12 51 -2 34 2 46 21 63 13 11 29
20 37 20 8 0 11 5 8 10 -4 6 7 10 27 10 22 0 37 -7 46 -20 15 -25 29 -26 37
-1 5 18 19 19 251 20 l244 2 10 -23 c9 -22 9 -22 15 -3 6 18 15 20 100 21 73
1 98 5 111 18 13 14 18 56 28 250 7 144 16 239 23 247 17 21 19 237 2 272 -14
32 -2 65 23 58 7 -2 21 -3 32 -3 10 1 20 -8 23 -19 3 -10 9 -19 14 -19 5 0 9
-30 10 -67 1 -128 19 -20 31 195 10 171 14 202 27 202 13 0 13 -2 2 -9 -10 -6
-11 -18 -6 -42 4 -19 8 -58 9 -87 2 -79 16 -62 16 21 l1 72 19 -24 c17 -19 20
-38 20 -115 0 -103 9 -127 25 -69 7 24 17 38 28 39 11 1 12 0 3 -3 -19 -6 -28
-46 -17 -75 l9 -23 6 25 c3 14 7 34 10 45 3 11 3 -218 0 -508 -3 -368 -2 -527
5 -522 6 3 11 25 11 48 l0 42 48 0 c31 0 51 -5 59 -15 16 -21 27 -6 13 19 -10
20 -8 22 15 21 25 -2 40 68 21 98 -10 17 -26 15 -26 -3 0 -9 -6 -12 -16 -8 -8
3 -13 11 -11 17 3 7 -1 20 -9 31 -14 18 -14 18 -29 -1 -13 -17 -14 -17 -15 -1
0 18 -20 25 -20 7 0 -5 -8 -10 -17 -10 -13 0 -14 3 -5 12 8 8 8 17 0 31 -7 13
-8 58 -4 126 3 58 7 223 8 365 l3 260 28 10 c15 6 27 14 27 19 0 4 -4 5 -10 2
-5 -3 -18 -1 -27 5 -13 7 66 9 272 5 309 -6 375 -11 375 -26 0 -5 -6 -9 -13
-9 -7 0 -13 -8 -13 -19 0 -10 5 -17 11 -15 16 6 20 -189 4 -214 -10 -16 -10
-29 -1 -60 8 -25 13 -128 14 -278 1 -223 2 -214 9 141 9 395 13 465 31 465 5
0 8 6 5 13 -4 10 2 13 19 9 13 -2 24 -9 24 -14 0 -5 -4 -6 -10 -3 -5 3 -10 2
-10 -4 0 -5 6 -11 12 -14 14 -4 14 -190 2 -1014 l-7 -433 188 0 187 0 -4 -30
c-3 -23 0 -31 15 -36 10 -3 95 -3 188 1 l169 8 -1 111 c-1 61 -3 103 -6 93 -4
-17 -6 -16 -25 5 -20 23 -21 29 -14 493 3 259 9 532 13 607 5 124 7 135 20
112 7 -15 13 -38 14 -53 1 -17 4 -11 10 18 5 25 13 47 18 50 5 3 11 15 14 26
2 11 3 2 1 -20 -3 -29 -1 -36 6 -24 5 9 10 51 11 93 1 42 5 79 10 82 17 10 1
20 -33 19 -18 -1 -94 -3 -168 -5 l-135 -3 105 -8 c58 -5 124 -6 147 -3 24 3
44 1 48 -6 4 -6 -14 -10 -52 -11 -50 0 -55 -2 -35 -11 28 -14 24 -30 -9 -37
-42 -10 -378 3 -346 13 21 6 25 11 15 17 -10 7 -9 9 5 9 9 0 17 5 17 10 0 6
-24 10 -52 11 -29 1 -73 2 -98 4 -191 10 -643 15 -630 6 8 -6 23 -11 33 -11
11 0 15 -5 11 -11 -3 -6 -1 -15 7 -20 7 -4 -79 -5 -191 -2 -145 4 -208 10
-217 19 -20 19 -16 24 20 24 24 0 28 3 17 10 -8 5 -28 10 -45 10 -23 0 -27 3
-15 10 10 6 11 10 3 10 -7 0 -13 6 -13 14 0 8 -8 13 -17 12 -10 0 -19 7 -21
16 -3 16 19 16 310 11 550 -11 708 -12 593 -3 -55 5 -128 6 -162 3 -48 -4 -63
-3 -63 7 0 11 43 12 218 7 119 -4 272 -7 338 -7 102 0 123 -3 128 -16 5 -14
-11 -15 -147 -10 -141 4 -144 4 -42 -4 61 -5 187 -11 280 -15 147 -5 200 -8
226 -14 3 0 5 -26 4 -56 -1 -35 3 -59 12 -66 10 -9 13 -5 14 17 5 92 17 -100
18 -268 1 -238 18 -277 23 -51 2 114 6 157 16 161 6 2 12 10 12 18 0 9 5 12
10 9 6 -3 10 3 10 14 0 18 6 21 38 21 30 0 45 -7 72 -35 29 -30 41 -35 80 -35
35 0 48 -5 58 -20 7 -12 23 -25 35 -30 15 -6 17 -9 6 -9 -25 -1 -27 -25 -13
-141 8 -63 13 -244 13 -452 1 -192 2 -348 4 -349 1 0 257 -3 569 -6 473 -4
568 -3 572 8 12 43 26 155 28 230 2 64 6 85 16 82 8 -4 12 7 13 33 1 22 5 50
9 64 l8 25 2 -25 c2 -22 3 -23 8 -5 4 11 15 31 25 45 15 21 20 23 37 12 17
-11 20 -10 20 8 0 21 33 29 44 11 4 -5 -4 -7 -16 -4 -21 6 -21 4 5 -20 32 -31
44 -34 49 -12 3 13 6 13 32 0 15 -8 37 -15 47 -15 23 0 49 37 49 70 1 14 7 36
15 50 13 24 13 23 8 -16 l-5 -42 52 -11 c63 -14 91 2 82 44 -2 15 0 25 7 25 6
0 11 8 11 18 0 9 7 26 16 37 12 17 18 18 34 7 17 -10 21 -10 26 3 4 10 19 15
48 13 36 -1 37 -2 9 -5 l-33 -4 0 -334 0 -333 48 -6 c77 -9 352 -35 412 -38
l55 -3 6 150 c4 83 7 253 8 379 l1 229 -97 -7 c-54 -3 -154 -11 -222 -18 -96
-9 -126 -9 -129 0 -2 8 -17 10 -42 6 -32 -5 -39 -3 -45 15 -3 11 -2 28 4 38 5
10 7 31 4 46 -3 16 -1 27 5 27 20 0 32 78 40 254 l8 175 29 32 c49 52 148 93
425 175 47 14 114 36 150 49 118 42 190 65 205 65 8 0 15 4 15 9 0 4 15 11 34
14 18 3 68 16 110 29 l76 23 0 347 c0 268 -3 347 -12 351 -10 4 -10 6 0 6 6 1
12 10 12 21 0 17 -5 19 -27 14 l-28 -6 25 14 c20 11 25 23 28 61 2 31 0 47 -8
47 -7 0 -9 -8 -5 -20 5 -16 2 -20 -14 -20 -12 0 -21 -6 -21 -12 0 -9 -3 -9 -9
1 -8 12 -15 12 -45 -3 -39 -19 -48 -31 -15 -21 15 5 19 4 15 -4 -5 -7 -22 -9
-46 -5 -21 3 -46 1 -56 -5 -17 -9 -17 -10 6 -11 24 -1 24 -1 6 -15 -13 -10
-23 -12 -31 -5 -7 6 -33 12 -59 15 -36 4 -46 2 -46 -10 0 -11 -13 -15 -52 -15
-35 0 -48 3 -39 9 8 5 21 7 30 3 9 -3 13 -2 9 3 -10 11 140 87 154 79 6 -4 8
-3 5 3 -4 5 12 16 34 23 22 8 42 17 45 22 8 12 -60 10 -73 -3 -8 -8 -17 -8
-31 0 -29 15 -40 14 -18 -2 18 -13 18 -14 2 -20 -10 -4 -23 -4 -29 0 -7 3 -9
3 -5 -2 5 -5 -9 -16 -30 -26 -20 -10 -44 -23 -52 -29 -30 -20 -277 -130 -291
-130 -8 1 -3 7 11 15 22 13 23 14 5 15 -11 0 -26 9 -33 21 -12 19 -11 19 8 9
23 -12 64 -4 55 11 -4 5 5 9 20 9 22 0 25 3 19 25 -4 18 -1 27 10 31 9 3 16
12 16 20 0 16 16 19 23 4 3 -6 4 -5 3 2 -2 7 15 23 38 35 41 22 41 22 12 23
-17 0 -84 -28 -159 -66 -71 -36 -132 -63 -135 -60 -3 3 -1 6 4 6 5 0 20 9 34
20 l25 20 -29 -10 c-22 -8 -32 -8 -40 1 -8 9 -7 10 3 4 9 -5 12 -4 7 3 -9 15
-69 -3 -136 -41 -30 -18 -61 -30 -67 -29 -7 2 -13 -2 -13 -8 0 -5 -4 -10 -10
-10 -5 0 -10 7 -10 16 0 8 -5 12 -10 9 -6 -4 -8 -9 -6 -13 2 -4 -9 -7 -26 -8
-27 -1 -24 2 24 27 29 16 60 33 68 38 8 5 47 26 85 46 39 21 75 42 80 47 19
20 -64 0 -95 -22 -17 -12 -37 -23 -45 -24 -8 -1 -18 -5 -21 -9 -4 -4 -16 -7
-26 -7 -11 0 -17 -4 -14 -8 6 -10 -53 -46 -61 -38 -4 3 -1 6 6 6 7 0 9 5 6 11
-4 6 0 9 10 7 10 -2 20 3 22 9 4 12 2 12 -77 -14 -12 -4 -12 -7 4 -19 11 -8
16 -14 10 -14 -19 0 -34 17 -29 32 10 25 -13 31 -32 8 -10 -11 -25 -20 -35
-20 -9 0 -19 -4 -22 -9 -3 -4 -20 -11 -37 -15 -21 -4 -29 -11 -26 -19 4 -10
-2 -13 -20 -9 -15 3 -35 -3 -53 -16 -15 -12 -38 -20 -49 -19 -21 1 -21 2 -4
14 9 8 23 11 30 9 6 -3 10 0 7 7 -4 11 50 51 71 52 6 0 21 10 34 22 13 11 35
27 50 35 14 7 41 23 59 35 l33 22 -66 0 c-36 0 -65 -4 -65 -10 0 -5 -7 -9 -15
-9 -8 0 -12 -6 -10 -12 4 -9 -8 -13 -39 -13 -31 0 -55 -8 -76 -23 -17 -13 -36
-21 -43 -18 -9 3 -9 5 0 5 6 1 26 14 43 29 40 37 26 51 -50 48 -39 -1 -65 -8
-87 -24 -17 -12 -38 -19 -47 -16 -9 3 -16 1 -16 -5 0 -6 -4 -11 -10 -11 -18 0
-10 29 10 35 31 10 24 22 -15 23 -21 1 -33 -3 -30 -8 3 -6 -4 -10 -17 -10 -13
0 -37 -8 -53 -19 -25 -15 -33 -16 -43 -5 -18 20 -15 32 11 37 12 3 -114 5
-280 5 -243 0 -303 -3 -307 -13 -3 -8 -19 -13 -37 -13 -30 1 -31 2 -13 15 16
11 -80 13 -638 13 -639 -1 -656 -2 -661 -21 -3 -10 -10 -19 -17 -19 -7 0 -9 8
-5 20 4 11 2 20 -4 20 -6 0 -11 -4 -11 -9 0 -5 -9 -11 -21 -14 -11 -3 -23 -14
-26 -25 -3 -15 -17 -21 -52 -26 -49 -6 -50 -8 -86 -88 -10 -21 -22 -38 -27
-38 -6 0 -8 -7 -4 -15 4 -10 -1 -15 -14 -15 -11 0 -20 -4 -20 -10 0 -5 -9 -10
-19 -10 -11 0 -22 -6 -24 -12 -3 -8 -6 -6 -6 5 -1 11 6 17 19 17 19 0 20 4 15
38 -4 24 -3 32 3 23 6 -8 12 -9 16 -3 3 6 2 13 -4 17 -5 3 -10 12 -10 18 0 7
4 6 11 -3 7 -11 8 -6 4 20 -4 21 0 53 9 79 9 24 16 45 16 47 0 11 -69 2 -73
-8 -4 -10 -7 -10 -18 0 -10 9 -81 12 -285 12 l-273 0 -4 -42 -4 -43 -1 43 -2
42 -146 0 -146 0 4 -40 c2 -22 0 -40 -4 -40 -5 0 -8 18 -8 40 l0 40 -1315 0
-1315 0 1 -273z m5359 239 c-14 -13 -27 -21 -30 -19 -4 4 40 42 50 43 2 0 -7
-11 -20 -24z m950 10 c0 -2 -12 -11 -27 -20 l-28 -17 24 20 c23 21 31 25 31
17z m-2020 -28 c0 -13 -23 -5 -28 10 -2 7 2 10 12 6 9 -3 16 -11 16 -16z
m1466 -5 c1 -14 -3 -20 -12 -16 -8 3 -14 9 -14 14 0 5 -5 9 -11 9 -6 0 -9 -7
-6 -14 4 -11 1 -13 -10 -9 -14 5 -13 9 7 25 28 22 45 19 46 -9z m-1946 -37 c0
-7 -10 -24 -23 -38 -18 -20 -25 -22 -35 -12 -17 19 -15 32 7 44 14 7 21 6 24
-3 3 -8 7 -6 12 6 9 20 15 22 15 3z m2400 4 c-8 -5 -19 -10 -25 -10 -5 0 -3 5
5 10 8 5 20 10 25 10 6 0 3 -5 -5 -10z m-60 -30 c-24 -19 -40 -25 -40 -15 0 5
51 34 60 34 3 0 -6 -8 -20 -19z m1300 0 c-19 -11 -39 -19 -45 -19 -5 0 6 8 25
19 19 11 40 19 45 19 6 0 -6 -8 -25 -19z m-600 0 c8 -5 12 -11 9 -14 -3 -3
-14 1 -25 9 -21 16 -8 20 16 5z m-4042 -25 c-3 -3 -9 2 -12 12 -6 14 -5 15 5
6 7 -7 10 -15 7 -18z m129 -7 c-3 -7 -5 -2 -5 12 0 14 2 19 5 13 2 -7 2 -19 0
-25z m3763 12 c-20 -13 -33 -13 -25 0 3 6 14 10 23 10 15 0 15 -2 2 -10z m100
0 c-8 -5 -19 -10 -25 -10 -5 0 -3 5 5 10 8 5 20 10 25 10 6 0 3 -5 -5 -10z
m260 -14 c0 -3 -4 -8 -10 -11 -5 -3 -10 -1 -10 4 0 6 5 11 10 11 6 0 10 -2 10
-4z m-289 -29 c-10 -9 -11 -8 -5 6 3 10 9 15 12 12 3 -3 0 -11 -7 -18z m313 2
c-12 -13 -20 -16 -22 -9 -3 7 2 16 9 21 25 16 32 9 13 -12z m373 14 c-9 -2
-14 -9 -11 -15 4 -7 2 -8 -4 -4 -20 12 -13 26 11 25 17 -1 18 -2 4 -6z m-1117
-7 c0 -2 -7 -7 -16 -10 -8 -3 -12 -2 -9 4 6 10 25 14 25 6z m267 -2 c-3 -3
-12 -4 -19 -1 -8 3 -5 6 6 6 11 1 17 -2 13 -5z m-197 -8 c0 -2 -7 -7 -16 -10
-8 -3 -12 -2 -9 4 6 10 25 14 25 6z m570 -15 c0 -5 10 -7 23 -4 18 3 17 1 -6
-12 -16 -9 -39 -14 -50 -12 -12 3 -38 -3 -57 -13 -53 -29 -82 -41 -87 -37 -4
4 157 86 170 87 4 0 7 -4 7 -9z m185 0 c-11 -10 -91 -34 -81 -23 7 7 64 29 81
31 6 1 6 -2 0 -8z m-168 -54 c7 -5 21 -6 30 -3 14 6 15 5 6 -5 -10 -10 -18
-10 -38 -1 -14 7 -37 12 -50 12 -14 0 -25 4 -25 10 0 11 59 2 77 -13z m-6911
-37 c46 -32 56 -45 27 -32 -25 10 -93 53 -93 58 0 11 26 1 66 -26z m6599 0
c-3 -5 -12 -10 -18 -10 -7 0 -6 4 3 10 19 12 23 12 15 0z m-6502 -56 c9 -4 17
-10 17 -15 0 -4 -13 -3 -30 2 -16 6 -30 15 -30 21 0 5 6 7 13 4 6 -3 20 -9 30
-12z m62 -44 c3 -5 2 -10 -4 -10 -5 0 -13 5 -16 10 -3 6 -2 10 4 10 5 0 13 -4
16 -10z m136 -85 c38 -25 69 -48 69 -51 0 -7 -42 16 -58 33 -7 7 -20 13 -28
13 -8 0 -14 5 -14 10 0 6 -6 10 -14 10 -7 0 -19 7 -26 15 -21 26 0 17 71 -30z
m-231 -265 c8 -5 11 -10 5 -10 -5 0 -17 5 -25 10 -8 5 -10 10 -5 10 6 0 17 -5
25 -10z m223 -67 c-7 -2 -19 -2 -25 0 -7 3 -2 5 12 5 14 0 19 -2 13 -5z m-38
-31 c-3 -3 -11 0 -18 7 -9 10 -8 11 6 5 10 -3 15 -9 12 -12z m40 -20 c-3 -3
-11 0 -18 7 -9 10 -8 11 6 5 10 -3 15 -9 12 -12z m40 -20 c-3 -3 -11 0 -18 7
-9 10 -8 11 6 5 10 -3 15 -9 12 -12z m40 -20 c-3 -3 -11 0 -18 7 -9 10 -8 11
6 5 10 -3 15 -9 12 -12z m1352 2 c-3 -3 -12 -4 -19 -1 -8 3 -5 6 6 6 11 1 17
-2 13 -5z m128 -12 c-3 -3 -11 0 -18 7 -9 10 -8 11 6 5 10 -3 15 -9 12 -12z
m195 6 c0 -5 -11 -8 -25 -8 -14 0 -25 3 -25 8 0 4 11 7 25 7 14 0 25 -3 25 -7z
m-97 -5 c-7 -2 -21 -2 -30 0 -10 3 -4 5 12 5 17 0 24 -2 18 -5z m777 -4 c135
-4 349 -10 475 -13 210 -6 502 -17 840 -31 261 -11 500 -26 505 -32 5 -6 -309
6 -319 11 -3 2 -112 7 -241 10 -129 4 -278 9 -330 11 -128 6 -374 14 -605 20
-104 3 -262 7 -350 10 -88 3 -266 7 -395 11 -129 3 -237 8 -240 10 -6 6 372 3
660 -7z m-1023 -35 c-3 -3 -12 -4 -19 -1 -8 3 -5 6 6 6 11 1 17 -2 13 -5z
m126 -1 c-7 -2 -21 -2 -30 0 -10 3 -4 5 12 5 17 0 24 -2 18 -5z m837 -8 c107
-2 267 -6 355 -9 88 -3 322 -10 520 -16 198 -6 430 -15 515 -20 85 -5 200 -12
255 -15 496 -26 617 -33 624 -41 3 -3 -21 -4 -54 0 -33 3 -217 11 -410 17
-406 12 -784 6 -798 -14 -7 -9 -10 -9 -14 1 -6 15 -60 16 -65 1 -3 -9 -10 -9
-27 1 -16 8 -45 10 -90 6 -47 -5 -62 -4 -51 3 8 6 67 11 130 12 63 0 126 5
140 10 20 6 16 7 -15 4 -22 -3 -92 -1 -155 4 -66 5 -125 4 -139 -1 -15 -5 -27
-5 -30 0 -6 9 -251 19 -631 27 -221 5 -448 14 -485 20 -17 3 -113 6 -215 7
-102 1 -171 5 -155 9 28 6 322 4 795 -6z m-2694 -10 c24 -18 7 -19 -26 0 -16
9 -19 14 -9 15 8 0 24 -7 35 -15z m4647 -22 c-13 -2 -33 -2 -45 0 -13 2 -3 4
22 4 25 0 35 -2 23 -4z m68 -11 c-13 -2 -27 0 -32 5 -6 6 3 7 23 4 28 -4 29
-6 9 -9z m109 -1 c0 -6 -17 -7 -37 -4 -52 8 -54 13 -5 13 23 0 42 -4 42 -9z
m69 -7 c2 -2 -7 -4 -22 -4 -14 0 -29 5 -32 10 -6 10 42 4 54 -6z m44 -1 c-7
-2 -19 -2 -25 0 -7 3 -2 5 12 5 14 0 19 -2 13 -5z m264 -9 c-3 -3 -12 -4 -19
-1 -8 3 -5 6 6 6 11 1 17 -2 13 -5z m-2347 -13 c0 -11 -59 -26 -67 -17 -4 3 3
6 15 6 12 0 22 5 22 10 0 6 7 10 15 10 8 0 15 -4 15 -9z m423 2 c-23 -2 -64
-2 -90 0 -26 2 -7 3 42 3 50 0 71 -1 48 -3z m-586 -19 c-3 -3 -12 -4 -19 -1
-8 3 -5 6 6 6 11 1 17 -2 13 -5z m400 -10 c-3 -3 -12 -4 -19 -1 -8 3 -5 6 6 6
11 1 17 -2 13 -5z m276 -1 c-13 -2 -33 -2 -45 0 -13 2 -3 4 22 4 25 0 35 -2
23 -4z m-504 -64 c126 -1 187 -4 156 -9 -62 -8 -563 4 -573 15 -4 4 42 5 102
1 60 -3 202 -7 315 -7z m1241 -36 c0 -9 -229 -8 -237 1 -4 3 48 6 115 6 67 0
122 -3 122 -7z m80 -13 c0 -5 -17 -9 -37 -9 l-38 2 35 7 c19 4 36 8 38 9 1 0
2 -3 2 -9z m-3343 -112 c-3 -8 -6 -5 -6 6 -1 11 2 17 5 13 3 -3 4 -12 1 -19z
m64 -25 c-12 -20 -14 -14 -5 12 4 9 9 14 11 11 3 -2 0 -13 -6 -23z m3008 -29
c41 -3 69 -9 62 -13 -8 -5 -9 -21 -4 -52 l8 -44 7 45 c8 54 0 -943 -9 -1083
-5 -83 -8 -97 -22 -95 -9 2 -21 -3 -28 -12 -10 -12 -11 -10 -9 13 2 19 0 25
-6 19 -6 -6 -10 -40 -9 -77 1 -99 -17 -73 -32 44 -2 13 -12 27 -24 32 -13 5
-23 20 -27 44 -6 30 -3 39 16 54 l23 19 -37 33 c-22 21 -38 46 -41 64 l-4 30
-2 -32 c0 -20 -10 -38 -24 -50 -35 -28 -41 -42 -23 -62 24 -26 9 -95 -22 -99
-19 -3 -22 -10 -22 -51 0 -96 -10 -136 -38 -149 -28 -13 -161 -16 -261 -6
l-61 7 0 98 c0 55 3 99 8 99 7 0 32 47 32 61 0 4 -8 15 -17 25 -17 16 -18 48
-16 398 2 356 3 384 21 421 20 40 16 75 -9 75 -8 0 -10 37 -8 113 4 101 6 113
24 119 19 6 18 6 -2 7 -13 1 -23 6 -23 12 0 10 413 5 579 -7z m-2268 -214 c6
0 7 5 4 10 -3 6 5 10 18 10 31 0 32 -5 35 -240 1 -102 5 -229 8 -282 l7 -98
-49 0 -49 0 1 238 c0 130 3 256 6 280 4 23 2 42 -3 42 -11 0 -12 43 -2 54 4 4
9 2 11 -3 2 -6 8 -11 13 -11z m289 -62 c0 -39 -3 -69 -6 -66 -9 10 -12 138 -2
138 4 0 8 -32 8 -72z m3260 -9 c234 -6 427 -13 429 -15 2 -2 -52 -5 -120 -5
l-124 -2 128 -8 c124 -7 185 -19 99 -19 -24 0 -42 -5 -42 -11 0 -6 7 -8 16 -5
8 3 12 2 9 -3 -3 -5 0 -13 5 -16 6 -4 16 -19 22 -33 9 -22 12 -24 15 -9 3 10
-1 24 -7 32 -12 15 -6 35 11 35 10 0 13 -89 3 -114 -3 -8 -12 -12 -20 -9 -10
3 -14 -2 -14 -19 0 -21 4 -24 29 -20 l29 4 -1 -290 c-1 -160 -4 -293 -7 -296
-5 -4 -549 -9 -909 -7 l-144 1 6 343 c4 188 7 375 7 415 l0 72 78 -5 c42 -3
268 -10 502 -16z m480 -29 c0 -5 -2 -10 -4 -10 -3 0 -8 5 -11 10 -3 6 -1 10 4
10 6 0 11 -4 11 -10z m-3 -57 c-3 -10 -5 -4 -5 12 0 17 2 24 5 18 2 -7 2 -21
0 -30z m-3737 -8 c0 -14 -4 -25 -10 -25 -5 0 -10 11 -10 25 0 14 5 25 10 25 6
0 10 -11 10 -25z m3740 -61 c0 -8 -4 -12 -10 -9 -5 3 -10 10 -10 16 0 5 5 9
10 9 6 0 10 -7 10 -16z m-3730 -45 c0 -31 -4 -48 -10 -44 -5 3 -10 26 -10 51
0 24 5 44 10 44 6 0 10 -23 10 -51z m3991 -31 c8 -14 14 -18 17 -10 2 6 9 12
15 12 5 0 8 -3 5 -6 -8 -7 28 -44 43 -44 5 0 7 -4 4 -10 -9 -15 -42 -12 -60 6
-9 9 -18 14 -21 11 -3 -2 2 -12 11 -20 14 -14 13 -16 -6 -22 -26 -9 -28 -6
-31 36 -1 18 -6 37 -11 40 -11 8 -1 29 13 29 5 0 15 -10 21 -22z m879 -339 l0
-331 -52 6 c-29 3 -111 10 -183 16 -71 6 -145 13 -162 16 l-33 5 0 293 0 293
148 12 c81 7 156 14 167 15 11 2 41 4 68 5 l47 1 0 -331z m-4873 194 c-2 -21
-4 -4 -4 37 0 41 2 58 4 38 2 -21 2 -55 0 -75z m-1595 -105 c-8 -8 -9 -4 -5
13 4 13 8 18 11 10 2 -7 -1 -18 -6 -23z m2225 -73 c0 -8 -4 -15 -9 -15 -4 0
-8 7 -8 15 0 8 4 15 8 15 5 0 9 -7 9 -15z m-2070 -17 c-3 -8 -6 -5 -6 6 -1 11
2 17 5 13 3 -3 4 -12 1 -19z m63 -49 c0 -21 -5 -39 -11 -39 -6 0 -10 10 -9 23
3 37 1 49 -10 42 -5 -3 -10 -2 -10 4 0 11 21 20 33 14 4 -2 7 -22 7 -44z
m2000 22 c0 -6 -4 -12 -8 -15 -5 -3 -9 1 -9 9 0 8 4 15 9 15 4 0 8 -4 8 -9z
m-2001 -118 c0 -34 -1 -36 -11 -16 -6 12 -8 29 -5 37 11 27 17 18 16 -21z
m1264 0 c-7 -2 -21 -2 -30 0 -10 3 -4 5 12 5 17 0 24 -2 18 -5z m137 -61 c11
-13 20 -28 20 -32 0 -14 -36 -17 -48 -3 -10 10 -10 13 0 13 8 0 9 3 3 8 -5 4
-15 17 -22 28 -10 19 -10 21 8 17 11 -3 28 -17 39 -31z m-140 9 c0 -6 -5 -13
-10 -16 -22 -14 3 -24 45 -18 31 4 45 2 45 -6 0 -7 -20 -11 -54 -11 -63 0 -86
7 -86 25 0 8 -10 12 -25 11 -14 -2 -30 3 -36 10 -9 12 0 14 55 14 36 0 66 -4
66 -9z m45 -11 c3 -5 -1 -10 -9 -10 -9 0 -16 5 -16 10 0 6 4 10 9 10 6 0 13
-4 16 -10z m-1305 -50 c0 -5 -4 -10 -10 -10 -5 0 -10 5 -10 10 0 6 5 10 10 10
6 0 10 -4 10 -10z m-441 -173 c15 -19 2 -29 -15 -12 -8 7 -14 16 -14 19 0 11
17 6 29 -7z m3798 -19 c-3 -7 -5 -2 -5 12 0 14 2 19 5 13 2 -7 2 -19 0 -25z
m-3357 -149 c0 -11 -5 -17 -10 -14 -6 4 -8 10 -5 15 3 4 -1 11 -7 13 -8 3 -6
6 5 6 11 1 17 -6 17 -20z m943 1 c29 0 29 -1 13 -19 -12 -13 -14 -21 -6 -26 7
-4 11 -34 10 -73 -4 -195 0 -302 9 -302 6 0 11 -4 11 -9 0 -13 -91 -31 -159
-31 -73 0 -118 9 -124 24 -2 6 1 47 8 91 12 77 12 82 -11 127 -40 79 -25 178
27 178 19 0 19 0 -1 -20 -21 -21 -26 -86 -11 -140 9 -34 16 -18 31 68 12 75
21 84 52 55 16 -14 18 -14 18 -1 0 14 -33 32 -53 29 -4 -1 -4 7 1 16 5 10 7
24 4 32 -4 12 9 13 73 8 43 -4 92 -7 108 -7z m2520 -4 c8 -19 -1 -26 -34 -26
-15 0 -29 7 -33 16 -3 8 -2 13 2 10 4 -2 14 -1 22 5 21 13 37 11 43 -5z
m-1393 -208 c0 -5 -4 -8 -10 -8 -5 0 -10 10 -10 23 0 18 2 19 10 7 5 -8 10
-18 10 -22z m-25 -180 c9 -43 28 -88 37 -88 5 0 8 -6 8 -14 0 -8 3 -16 8 -18
4 -1 18 -18 31 -37 19 -28 21 -33 7 -28 -12 5 -16 3 -13 -5 2 -7 10 -13 18
-13 8 0 24 -9 34 -20 11 -11 18 -19 16 -18 -2 2 -10 -2 -17 -8 -11 -9 -11 -14
2 -26 9 -9 12 -24 9 -37 -4 -12 -3 -16 2 -10 6 9 11 8 20 -1 10 -10 9 -16 -2
-25 -12 -10 -15 -10 -15 1 0 12 -2 12 -9 0 -6 -9 -11 -10 -15 -2 -13 20 -36
12 -36 -13 0 -31 14 -40 40 -26 16 9 25 8 36 -1 26 -21 11 -71 -16 -54 -8 5
-7 11 1 21 7 9 8 14 1 14 -6 0 -12 -5 -14 -11 -2 -7 -17 -8 -41 -4 -28 6 -37
12 -38 29 -1 17 -2 18 -6 3 -3 -10 0 -32 6 -49 6 -17 9 -33 7 -35 -2 -2 -17 9
-34 24 -54 49 -74 62 -88 56 -9 -3 -25 18 -50 68 -33 68 -35 79 -29 137 10
109 67 222 111 222 17 0 24 -8 29 -32z m631 -29 c26 -24 72 -36 189 -49 174
-19 215 -20 245 -5 39 20 128 4 152 -28 18 -24 17 -34 -4 -21 -25 16 -37 12
-49 -19 -13 -31 -13 -31 -19 -7 -3 13 -5 -23 -5 -81 0 -191 -19 -264 -67 -251
-11 3 -24 -1 -29 -9 -8 -12 -10 -12 -18 0 -6 9 -18 11 -40 6 -32 -7 -43 -25
-16 -25 13 0 12 -4 -4 -21 -16 -17 -27 -20 -51 -15 -18 3 -40 1 -50 -4 -13 -7
-20 -6 -23 3 -2 6 -8 9 -12 5 -4 -4 -2 -14 5 -23 12 -15 0 -22 -14 -8 -4 4
-40 8 -79 10 -40 1 -89 9 -111 18 -42 18 -62 11 -32 -11 27 -19 1 -18 -29 2
-14 9 -36 14 -49 12 -28 -6 -27 -13 -5 107 18 99 18 105 4 105 -7 0 -16 -6
-18 -12 -4 -9 -6 -8 -6 2 0 8 10 32 23 52 23 39 23 38 5 181 -4 35 4 59 28 82
34 31 50 31 79 4z m702 -91 c-3 -101 -5 -113 -22 -116 -10 -2 -22 2 -27 10
-10 15 -12 202 -2 211 3 4 17 7 30 7 24 0 24 0 21 -112z m-3766 -66 c20 3 24
-2 30 -42 3 -25 7 -102 7 -171 l1 -126 -35 -1 c-21 -1 -49 -12 -70 -28 l-34
-26 2 29 c2 22 -2 27 -17 25 -14 -3 -17 1 -12 14 5 14 4 15 -9 4 -8 -7 -13
-16 -10 -20 3 -5 1 -11 -4 -15 -13 -8 -12 77 1 93 8 9 6 18 -6 30 -35 39 -13
106 68 210 35 45 43 50 53 36 6 -8 22 -14 35 -12z m1850 -37 c0 -5 -5 -11 -11
-13 -6 -2 -11 4 -11 13 0 9 5 15 11 13 6 -2 11 -8 11 -13z m738 -45 c0 -5 -2
-10 -4 -10 -3 0 -8 5 -11 10 -3 6 -1 10 4 10 6 0 11 -4 11 -10z m-958 -86 c-4
-35 24 -114 41 -114 4 0 7 -13 7 -29 0 -16 5 -31 12 -33 7 -3 8 -9 3 -18 -14
-22 -5 -93 12 -106 9 -6 13 -16 9 -22 -4 -7 -2 -12 3 -12 6 0 11 -9 11 -19 0
-11 4 -21 10 -23 5 -1 10 -26 11 -55 1 -31 6 -50 12 -46 6 4 7 -7 3 -28 -4
-19 -6 -58 -6 -86 1 -45 -2 -53 -18 -53 -23 0 -37 54 -52 208 -7 62 -21 154
-31 205 -54 249 -53 248 -38 258 8 5 14 9 14 9 1 0 -1 -16 -3 -36z m-524 -96
c-2 -6 -10 -14 -16 -16 -7 -2 -10 2 -6 12 7 18 28 22 22 4z m1492 -68 c0 -5
-6 -10 -14 -10 -8 0 -18 5 -21 10 -3 6 3 10 14 10 12 0 21 -4 21 -10z m4153 3
c-7 -2 -21 -2 -30 0 -10 3 -4 5 12 5 17 0 24 -2 18 -5z m-6513 -11 c0 -16 -52
-34 -64 -22 -7 7 -5 10 7 11 30 2 35 4 43 12 10 9 14 9 14 -1z m3320 -38 c0
-2 -7 -4 -15 -4 -8 0 -15 4 -15 10 0 5 7 7 15 4 8 -4 15 -8 15 -10z m18 -18
c30 -1 28 -24 -3 -36 -68 -26 -73 -25 -72 15 1 34 3 36 26 29 15 -4 36 -8 49
-8z m-3658 -15 c0 -6 -4 -13 -10 -16 -5 -3 -10 1 -10 9 0 9 5 16 10 16 6 0 10
-4 10 -9z m790 -21 c-19 -16 -37 -24 -39 -18 -2 6 3 14 10 19 12 7 11 9 -1 10
-8 0 -4 5 10 9 48 15 55 9 20 -20z m2663 -17 c-7 -2 -21 -2 -30 0 -10 3 -4 5
12 5 17 0 24 -2 18 -5z m3032 -61 c19 -16 24 -34 25 -88 0 -16 8 -23 30 -26
16 -3 31 -1 32 3 4 11 88 -65 88 -79 0 -7 6 -15 14 -18 13 -5 21 -25 31 -76 5
-22 -11 -16 -135 51 -92 50 -146 94 -135 111 3 4 -2 10 -10 13 -10 4 -13 19
-11 49 6 78 28 97 71 60z m-2988 -34 c-3 -8 -6 -5 -6 6 -1 11 2 17 5 13 3 -3
4 -12 1 -19z m1576 -31 c75 -22 143 -58 192 -103 22 -20 34 -33 26 -28 -21 11
-82 14 -75 3 3 -5 -60 -9 -153 -9 -87 0 -277 -5 -423 -10 -294 -11 -346 -8
-353 21 -4 15 -36 26 -49 17 -2 -1 -13 4 -25 10 -19 10 -24 9 -36 -9 -13 -17
-18 -19 -37 -9 -18 9 -19 14 -9 27 11 13 7 14 -34 10 l-47 -5 0 48 0 49 43 4
c23 2 240 3 482 2 380 -1 448 -3 498 -18z m-1642 -49 l1 -63 13 35 c9 24 14
29 14 15 1 -17 3 -17 11 -5 8 13 10 13 10 -2 0 -9 -6 -18 -12 -20 -10 -4 -10
-10 0 -32 6 -15 12 -36 12 -46 0 -11 4 -20 10 -20 5 0 7 13 4 30 -7 33 9 41
25 13 6 -11 11 -13 11 -5 0 8 9 10 28 6 26 -6 26 -6 7 9 -18 14 -12 15 74 16
l93 1 -7 -37 c-3 -21 -10 -41 -14 -46 -4 -4 -63 -9 -130 -12 -68 -2 -126 -7
-129 -10 -3 -3 12 -5 33 -5 53 0 33 -18 -25 -22 -40 -3 -45 -6 -44 -25 1 -13
-3 -23 -7 -23 -5 0 -9 5 -9 10 0 6 -14 3 -32 -6 -31 -16 -32 -16 -50 6 -10 12
-18 31 -18 41 0 10 -5 19 -12 19 -6 0 -8 -3 -5 -6 3 -4 -2 -18 -13 -32 -11
-13 -17 -28 -14 -33 3 -5 0 -8 -8 -7 -8 2 -14 -9 -16 -29 l-3 -33 213 -1 c117
-1 233 0 258 2 42 4 130 3 258 -2 53 -2 53 -2 52 -33 -5 -89 -1 -106 24 -106
32 0 40 14 25 42 -9 17 -9 23 1 26 10 4 10 6 -1 12 -7 5 -14 23 -15 41 l-2 32
76 -7 c43 -3 92 -2 110 3 17 5 32 6 32 1 0 -5 -12 -11 -27 -13 -26 -4 -25 -4
5 -6 18 0 42 4 53 9 12 7 19 7 19 1 0 -5 8 -10 18 -10 9 1 50 0 90 -1 69 -2
72 -3 72 -26 0 -21 4 -24 40 -24 29 0 40 -4 40 -15 0 -11 -12 -15 -42 -16 -24
-1 -54 -2 -68 -3 -15 -1 -25 -7 -25 -16 0 -11 17 -15 80 -16 44 -1 91 -7 105
-12 25 -9 12 -13 -145 -36 -66 -10 394 5 590 19 310 22 466 46 502 79 27 23
42 16 17 -9 -13 -13 -14 -19 -5 -25 15 -9 -8 -20 -40 -20 -11 0 -18 -4 -15 -9
8 -12 -18 -21 -64 -21 -21 0 -40 -5 -42 -12 -2 -6 -17 -13 -34 -14 -16 -2 -72
-8 -124 -15 -53 -6 -132 -8 -178 -4 -45 3 -88 3 -95 -2 -6 -4 -46 -9 -87 -10
-41 -1 -154 -8 -250 -14 -96 -6 -179 -10 -185 -10 -5 0 -19 2 -30 3 -11 1
-102 1 -202 0 -146 -2 -184 -5 -197 -17 -17 -18 -30 -20 -20 -3 4 6 3 8 -3 5
-19 -12 -165 -19 -158 -8 3 7 -2 11 -14 11 -10 0 -21 -6 -24 -12 -3 -10 -110
-13 -498 -12 -272 1 -543 3 -604 4 -112 2 -136 0 -145 -12 -3 -3 -23 0 -45 8
-49 17 -72 18 -77 2 -4 -10 -13 -10 -45 0 -22 7 -52 12 -67 12 -37 0 -120 44
-139 74 -32 48 -11 175 49 305 74 161 106 192 231 227 57 16 319 27 796 32
l157 2 1 -62z m363 46 c3 -9 6 -31 6 -50 0 -31 -3 -34 -29 -34 -27 0 -31 4
-38 43 l-9 42 -54 6 c-49 5 -46 6 31 7 71 2 88 -1 93 -14z m226 -21 c0 -21 -4
-43 -8 -48 -4 -6 -44 -12 -89 -13 l-83 -2 0 43 c0 24 3 47 7 50 3 4 44 7 90 7
l83 0 0 -37z m-1968 -13 c2 -14 7 -30 10 -36 9 -13 -15 -97 -25 -88 -4 4 -7 1
-7 -6 0 -11 -4 -10 -17 3 -15 14 -15 24 -5 78 6 35 17 66 24 70 15 10 16 9 20
-21z m-1452 -5 c-24 -29 -141 -117 -147 -111 -3 3 -7 30 -7 58 l-1 53 50 6
c28 3 65 7 84 7 29 2 32 0 21 -13z m2990 5 c0 -5 -4 -10 -10 -10 -5 0 -10 5
-10 10 0 6 5 10 10 10 6 0 10 -4 10 -10z m1856 -37 c-8 -19 8 -16 40 10 24 18
40 22 99 21 38 0 92 -8 118 -17 26 -10 61 -17 77 -17 31 0 50 -18 30 -30 -8
-5 -7 -9 4 -13 24 -10 19 -27 -8 -27 -13 0 -26 -5 -28 -11 -2 -6 -30 2 -71 20
-76 34 -126 46 -155 36 -25 -7 -58 -73 -67 -134 l-7 -43 -28 28 c-25 26 -29
37 -30 99 -3 114 -2 120 15 105 9 -7 14 -19 11 -27z m1643 -26 c-5 -20 -14
-37 -19 -37 -10 0 -5 20 13 57 15 33 18 23 6 -20z m-7179 13 c-14 -11 -29 -20
-35 -20 -5 0 3 9 20 20 38 25 48 25 15 0z m368 -33 c2 -12 -3 -17 -17 -17 -12
0 -21 6 -21 13 0 31 32 34 38 4z m6042 -17 c18 -12 2 -12 -25 0 -13 6 -15 9
-5 9 8 0 22 -4 30 -9z m-1750 -39 c0 -10 -97 -21 -181 -21 -90 0 -70 19 24 23
45 1 99 4 120 5 20 1 37 -2 37 -7z m827 -38 c-8 -7 -37 9 -31 19 3 5 12 4 20
-3 8 -6 13 -14 11 -16z m-364 0 c-13 -2 -33 -2 -45 0 -13 2 -3 4 22 4 25 0 35
-2 23 -4z m-623 -13 c0 -5 -4 -10 -10 -10 -5 0 -10 5 -10 10 0 6 5 10 10 10 6
0 10 -4 10 -10z m157 -7 c2 -6 -4 -13 -14 -16 -10 -2 -5 -3 11 -1 16 2 41 4
57 4 19 0 29 5 29 15 0 8 9 15 20 15 11 0 19 -6 18 -12 -2 -7 7 -14 20 -16 39
-6 24 -19 -30 -27 -97 -13 -306 -16 -313 -4 -10 15 -3 19 44 22 44 3 55 16 24
29 -10 4 15 6 56 5 46 -1 76 -6 78 -14z m276 10 c-7 -2 -19 -2 -25 0 -7 3 -2
5 12 5 14 0 19 -2 13 -5z m350 0 c-13 -2 -33 -2 -45 0 -13 2 -3 4 22 4 25 0
35 -2 23 -4z m-1543 -23 c0 -5 -15 -10 -34 -10 -19 0 -38 5 -41 10 -4 6 10 10
34 10 23 0 41 -4 41 -10z m1210 -10 c0 -5 -11 -10 -25 -10 -14 0 -25 5 -25 10
0 6 11 10 25 10 14 0 25 -4 25 -10z m1900 -36 c8 -1 25 -2 38 -3 16 -1 22 -6
20 -18 -2 -10 5 -19 16 -21 42 -9 51 -37 51 -155 0 -62 -6 -137 -13 -167 -7
-30 -15 -68 -18 -85 -13 -78 -42 -135 -69 -135 -7 0 -16 -7 -19 -16 -8 -21
-95 65 -126 124 -22 42 -22 47 -11 150 24 213 69 358 104 335 7 -5 19 -8 27
-9z m-1245 -24 c3 -5 2 -10 -4 -10 -5 0 -13 5 -16 10 -3 6 -2 10 4 10 5 0 13
-4 16 -10z m51 -98 c-10 -11 -16 -12 -16 -4 0 7 5 12 11 12 6 0 8 9 4 23 -5
20 -5 20 6 3 9 -14 8 -21 -5 -34z m-54 -175 l18 -42 -25 28 c-14 15 -25 35
-25 43 0 27 15 14 32 -29z m-665 -165 c3 -39 -1 -70 -11 -97 l-16 -40 4 40 c3
22 -1 69 -9 105 -10 49 -11 67 -2 72 17 10 28 -17 34 -80z m72 -39 c-6 -35
-15 -63 -20 -63 -14 0 -11 138 3 160 12 19 13 19 20 -7 4 -16 3 -56 -3 -90z
m-122 35 c-2 -13 -4 -5 -4 17 -1 22 1 32 4 23 2 -10 2 -28 0 -40z m228 31
c-55 -11 -75 -11 -75 1 0 6 25 9 58 9 56 -1 57 -1 17 -10z m88 4 c-7 -2 -21
-2 -30 0 -10 3 -4 5 12 5 17 0 24 -2 18 -5z m-1810 -35 c8 -18 26 -39 40 -47
29 -15 35 -42 15 -58 -7 -6 -57 -13 -110 -17 l-98 -6 6 47 c7 67 12 91 19 103
3 5 31 10 60 10 52 0 55 -1 68 -32z m1718 -102 c6 3 19 -4 29 -16 16 -19 22
-21 35 -10 13 11 19 10 35 -5 25 -23 25 -42 0 -50 -11 -3 -20 -13 -20 -22 0
-12 -6 -9 -24 10 -13 14 -26 32 -29 39 -4 9 -6 8 -6 -3 -1 -12 -11 -16 -43
-15 -47 1 -63 15 -53 47 5 13 12 18 25 14 11 -4 20 1 25 12 5 12 9 14 12 5 3
-6 9 -9 14 -6z m56 -18 c-3 -8 -6 -5 -6 6 -1 11 2 17 5 13 3 -3 4 -12 1 -19z
m-512 2 c3 -6 -5 -10 -19 -10 -14 0 -28 5 -31 10 -3 6 5 10 19 10 14 0 28 -4
31 -10z m42 -112 c-3 -8 -6 -5 -6 6 -1 11 2 17 5 13 3 -3 4 -12 1 -19z"/>
<path d="M3938 3973 c12 -2 32 -2 45 0 12 2 2 4 -23 4 -25 0 -35 -2 -22 -4z"/>
<path d="M3828 3613 c7 -3 16 -2 19 1 4 3 -2 6 -13 5 -11 0 -14 -3 -6 -6z"/>
<path d="M3972 2900 c0 -14 2 -19 5 -12 2 6 2 18 0 25 -3 6 -5 1 -5 -13z"/>
<path d="M3842 2891 c-3 -9 -13 -21 -21 -28 -20 -16 2 -18 30 -3 15 8 21 7 25
-3 3 -8 16 -14 30 -13 25 1 25 1 4 18 -11 9 -18 22 -15 30 3 8 -4 14 -21 14
-15 1 -28 -4 -32 -15z"/>
<path d="M3931 2901 c-8 -5 -11 -16 -8 -25 7 -18 27 -22 27 -6 0 6 -5 10 -11
10 -8 0 -8 5 1 15 14 17 11 19 -9 6z"/>
<path d="M3787 2880 c-3 -11 -1 -23 4 -26 5 -3 9 -1 9 5 0 5 3 16 6 25 3 9 2
16 -4 16 -5 0 -12 -9 -15 -20z"/>
<path d="M3849 2819 c-10 -6 -4 -9 19 -9 17 0 32 2 32 4 0 9 -39 13 -51 5z"/>
<path d="M3615 2790 c-4 -16 -11 -30 -17 -30 -6 0 -8 -3 -5 -6 4 -4 15 -1 24
7 10 7 15 9 11 5 -4 -5 -3 -15 3 -23 9 -10 7 -13 -10 -13 -11 0 -21 -4 -21 -9
0 -5 -10 -11 -22 -13 -34 -5 -32 -23 3 -26 46 -4 78 21 74 55 -4 31 -22 83
-29 83 -2 0 -7 -13 -11 -30z"/>
<path d="M3791 2803 c-1 -12 4 -25 9 -28 12 -7 12 2 0 30 -8 19 -9 19 -9 -2z"/>
<path d="M3971 2793 c0 -13 -8 -23 -16 -23 -8 0 -15 -5 -15 -12 0 -6 -7 -3
-15 8 -14 18 -15 18 -11 -8 4 -25 -14 -55 -26 -42 -3 3 -8 -9 -10 -26 -3 -16
-4 -30 -2 -30 1 0 15 7 30 15 16 8 39 15 52 15 17 0 22 6 22 24 0 14 -5 28
-11 32 -8 5 -8 9 1 14 6 4 10 18 7 31 -4 23 -4 23 -6 2z m-14 -75 c-3 -8 -6
-5 -6 6 -1 11 2 17 5 13 3 -3 4 -12 1 -19z"/>
<path d="M3510 2770 c20 -13 33 -13 25 0 -3 6 -14 10 -23 10 -15 0 -15 -2 -2
-10z"/>
<path d="M3870 2736 c0 -2 7 -6 15 -10 8 -3 15 -1 15 4 0 6 -7 10 -15 10 -8 0
-15 -2 -15 -4z"/>
<path d="M3780 2680 c-13 -9 -13 -11 0 -20 9 -6 18 -6 24 0 15 15 -6 31 -24
20z"/>
<path d="M3948 2653 c6 -2 18 -2 25 0 6 3 1 5 -13 5 -14 0 -19 -2 -12 -5z"/>
<path d="M3438 2513 c-1 -21 -2 -71 -3 -110 -1 -83 9 -93 67 -74 18 6 67 17
108 25 62 11 68 14 34 15 -30 1 -47 8 -67 29 -15 15 -27 33 -27 40 0 7 -6 13
-12 14 -7 0 -17 2 -23 3 -5 2 -14 3 -19 4 -5 0 -3 8 4 16 10 12 10 15 0 15 -7
0 -10 7 -6 16 5 13 2 15 -14 11 -13 -3 -20 0 -20 8 0 8 -4 17 -10 20 -6 4 -11
-9 -12 -32z m102 -88 c0 -8 -4 -15 -10 -15 -5 0 -7 7 -4 15 4 8 8 15 10 15 2
0 4 -7 4 -15z"/>
<path d="M3458 2303 c18 -2 45 -2 60 0 15 2 0 4 -33 4 -33 0 -45 -2 -27 -4z"/>
<path d="M1710 3226 c0 -9 5 -16 10 -16 6 0 10 4 10 9 0 6 -4 13 -10 16 -5 3
-10 -1 -10 -9z"/>
<path d="M1680 3221 c0 -6 4 -13 10 -16 6 -3 7 1 4 9 -7 18 -14 21 -14 7z"/>
<path d="M4750 3193 c0 -65 -3 -209 -7 -320 l-6 -203 66 0 67 0 -6 30 c-6 27
-4 30 19 30 15 0 61 -5 103 -11 61 -9 78 -16 81 -30 5 -18 21 -19 289 -19
l284 0 1 98 c0 53 4 189 8 302 4 121 3 208 -2 211 -5 4 -19 4 -31 2 -13 -3
-17 -1 -10 4 7 4 -164 9 -380 10 -215 2 -410 5 -433 8 l-43 6 0 -118z"/>
<path d="M5660 3120 c0 -5 5 -10 11 -10 5 0 7 5 4 10 -3 6 -8 10 -11 10 -2 0
-4 -4 -4 -10z"/>
<path d="M6613 3007 l-143 -9 0 -172 0 -171 128 -3 c70 -1 144 -5 164 -8 20
-3 46 -3 58 1 19 6 20 14 20 191 l0 184 -42 -2 c-24 0 -107 -5 -185 -11z m-43
-137 c0 -5 -5 -10 -11 -10 -5 0 -7 5 -4 10 3 6 8 10 11 10 2 0 4 -4 4 -10z"/>
<path d="M1397 1924 c-4 -4 -7 -14 -7 -23 0 -11 3 -12 11 -4 6 6 10 16 7 23
-2 6 -7 8 -11 4z"/>
<path d="M2717 1533 c-4 -3 -7 -10 -7 -14 0 -9 39 1 46 12 6 10 -29 12 -39 2z"/>
<path d="M3723 1480 c1 -48 6 -79 12 -77 6 2 11 13 13 25 2 12 7 20 12 17 4
-3 7 10 6 27 -2 18 -4 47 -5 63 -1 23 -3 27 -11 15 -6 -10 -10 -11 -10 -2 0 6
-4 12 -10 12 -6 0 -9 -32 -7 -80z"/>
<path d="M3190 1511 c-7 -15 -7 -21 0 -21 12 0 25 28 17 36 -3 3 -10 -4 -17
-15z"/>
<path d="M3432 1001 c-17 -11 -64 -139 -53 -145 16 -10 66 -9 94 3 16 6 40 8
54 5 17 -5 24 -3 20 3 -4 6 -20 13 -37 17 -26 5 -30 9 -24 30 4 19 1 25 -20
30 -14 3 -26 11 -26 17 0 6 -6 7 -12 3 -7 -4 -4 2 6 14 20 24 19 36 -2 23z"/>
<path d="M3681 874 c0 -11 3 -14 6 -6 3 7 2 16 -1 19 -3 4 -6 -2 -5 -13z"/>
<path d="M3570 841 c0 -6 4 -13 10 -16 6 -3 7 1 4 9 -7 18 -14 21 -14 7z"/>
<path d="M3400 818 c0 -19 2 -20 10 -8 13 19 13 30 0 30 -5 0 -10 -10 -10 -22z"/>
<path d="M2853 683 c-18 -7 -16 -40 3 -47 48 -18 113 6 101 38 -5 11 -18 16
-49 15 -24 0 -49 -3 -55 -6z m65 -20 c-10 -2 -26 -2 -35 0 -10 3 -2 5 17 5 19
0 27 -2 18 -5z"/>
<path d="M3957 651 c-3 -16 -4 -39 -2 -52 2 -13 5 -42 7 -64 3 -35 0 -40 -19
-43 -44 -6 -23 -20 25 -16 61 4 60 4 36 14 -17 7 -20 15 -17 56 6 98 -16 175
-30 105z"/>
<path d="M3627 630 c-6 -27 -10 -32 -17 -20 -8 13 -10 13 -10 -2 0 -9 9 -20
21 -23 11 -4 18 -12 16 -19 -7 -17 15 -41 41 -43 24 -3 28 11 12 51 -5 14 -16
26 -23 26 -8 0 -18 15 -24 33 l-9 32 -7 -35z"/>
<path d="M3820 650 c0 -6 -4 -8 -10 -5 -5 3 -10 -1 -10 -9 0 -9 5 -16 10 -16
6 0 10 -10 10 -22 0 -21 0 -21 21 -2 18 16 19 20 5 30 -9 6 -13 13 -10 16 3 4
1 9 -5 13 -6 3 -11 1 -11 -5z"/>
<path d="M3262 600 c-12 -11 -29 -20 -39 -20 -13 0 -14 -3 -5 -12 9 -9 15 -9
24 0 15 15 29 15 26 0 -3 -12 56 -13 75 -1 13 8 7 23 -9 23 -10 0 -14 6 -10
15 8 23 -36 19 -62 -5z m38 -5 c0 -8 -2 -15 -4 -15 -2 0 -6 7 -10 15 -3 8 -1
15 4 15 6 0 10 -7 10 -15z"/>
<path d="M3340 606 c0 -2 7 -6 15 -10 8 -3 15 -1 15 4 0 6 -7 10 -15 10 -8 0
-15 -2 -15 -4z"/>
<path d="M3392 567 c-6 -12 -14 -32 -17 -44 -5 -19 -12 -21 -43 -18 -20 2 -53
4 -72 5 -33 1 -34 1 -16 15 22 17 27 16 -94 16 -33 0 -65 0 -71 0 -17 -1 0
-20 19 -20 9 0 35 -5 57 -12 22 -6 78 -14 125 -16 47 -3 89 -8 93 -12 5 -5 26
0 47 10 61 30 61 86 -1 96 -9 1 -21 -8 -27 -20z"/>
<path d="M4173 513 c-23 -9 -14 -23 15 -22 24 0 24 1 7 8 -19 8 -18 9 5 13 18
4 19 5 5 6 -11 0 -26 -2 -32 -5z"/>
<path d="M4480 508 c0 -4 16 -8 35 -8 19 0 35 2 35 4 0 2 -16 6 -35 8 -19 2
-35 0 -35 -4z"/>
<path d="M3658 503 c12 -2 32 -2 45 0 12 2 2 4 -23 4 -25 0 -35 -2 -22 -4z"/>
<path d="M3645 480 c-4 -6 8 -10 29 -10 19 0 38 5 41 10 4 6 -8 10 -29 10 -19
0 -38 -4 -41 -10z"/>
<path d="M3652 4983 c2 -10 9 -18 16 -17 6 1 23 2 37 3 15 0 25 7 25 16 0 11
-11 15 -41 15 -33 0 -40 -3 -37 -17z"/>
<path d="M5970 4996 c0 -2 7 -7 16 -10 8 -3 12 -2 9 4 -6 10 -25 14 -25 6z"/>
<path d="M7420 4974 c0 -3 7 -12 15 -20 13 -14 15 -13 15 5 0 12 -6 21 -15 21
-8 0 -15 -3 -15 -6z"/>
<path d="M7035 4911 c-3 -5 -2 -12 3 -15 5 -3 9 1 9 9 0 17 -3 19 -12 6z"/>
<path d="M6968 4893 c7 -3 16 -2 19 1 4 3 -2 6 -13 5 -11 0 -14 -3 -6 -6z"/>
<path d="M6180 4850 c-8 -5 -10 -10 -5 -10 6 0 17 5 25 10 8 5 11 10 5 10 -5
0 -17 -5 -25 -10z"/>
<path d="M3560 4789 c0 -5 5 -7 10 -4 6 3 10 8 10 11 0 2 -4 4 -10 4 -5 0 -10
-5 -10 -11z"/>
<path d="M2723 3793 c32 -2 81 -2 110 0 29 2 3 3 -58 3 -60 0 -84 -1 -52 -3z"/>
<path d="M2890 3790 c0 -5 5 -10 10 -10 6 0 10 5 10 10 0 6 -4 10 -10 10 -5 0
-10 -4 -10 -10z"/>
<path d="M2950 3788 c0 -5 75 -7 168 -7 92 1 160 3 152 5 -32 7 -320 9 -320 2z"/>
<path d="M3498 3793 c7 -3 16 -2 19 1 4 3 -2 6 -13 5 -11 0 -14 -3 -6 -6z"/>
<path d="M3360 3779 c-25 -3 38 -6 140 -6 102 -1 178 1 170 3 -30 6 -266 9
-310 3z"/>
<path d="M3878 3733 c23 -2 61 -2 85 0 23 2 4 4 -43 4 -47 0 -66 -2 -42 -4z"/>
<path d="M3321 3654 c0 -11 3 -14 6 -6 3 7 2 16 -1 19 -3 4 -6 -2 -5 -13z"/>
<path d="M2863 3633 c15 -2 37 -2 50 0 12 2 0 4 -28 4 -27 0 -38 -2 -22 -4z"/>
<path d="M2333 3384 c-9 -25 5 -41 34 -40 23 1 28 5 28 26 0 21 -5 25 -28 26
-16 1 -31 -5 -34 -12z"/>
<path d="M2328 3313 c7 -3 16 -2 19 1 4 3 -2 6 -13 5 -11 0 -14 -3 -6 -6z"/>
<path d="M2368 3273 c6 -2 18 -2 25 0 6 3 1 5 -13 5 -14 0 -19 -2 -12 -5z"/>
<path d="M7290 3215 c-85 -7 -163 -14 -172 -14 -17 -1 -18 -25 -18 -361 0
-215 4 -360 9 -360 5 0 17 7 25 16 14 13 16 58 16 338 l0 323 93 7 c275 19
257 16 257 42 0 28 17 27 -210 9z"/>
<path d="M4252 3140 c0 -14 2 -19 5 -12 2 6 2 18 0 25 -3 6 -5 1 -5 -13z"/>
<path d="M7207 3033 c-4 -3 -7 -100 -7 -215 l0 -208 44 0 c33 0 52 7 82 31 22
17 45 34 52 38 10 6 8 18 -8 55 -31 68 -24 76 60 76 l70 0 0 115 0 115 -143 0
c-79 0 -147 -3 -150 -7z"/>
<path d="M833 2960 c0 -25 2 -35 4 -22 2 12 2 32 0 45 -2 12 -4 2 -4 -23z"/>
<path d="M550 2980 c20 -13 33 -13 25 0 -3 6 -14 10 -23 10 -15 0 -15 -2 -2
-10z"/>
<path d="M300 2969 c0 -5 5 -7 10 -4 6 3 10 8 10 11 0 2 -4 4 -10 4 -5 0 -10
-5 -10 -11z"/>
<path d="M2980 2920 c0 -12 28 -21 35 -11 2 5 -4 11 -15 14 -11 3 -20 2 -20
-3z"/>
<path d="M4239 2605 c-3 -176 -4 -322 -2 -324 11 -15 13 41 11 325 l-3 319 -6
-320z"/>
<path d="M2943 2903 c-17 -6 -17 -33 0 -33 7 0 13 9 14 20 1 11 1 20 0 19 -1
0 -8 -3 -14 -6z"/>
<path d="M2845 2870 c-3 -5 -2 -10 4 -10 5 0 13 5 16 10 3 6 2 10 -4 10 -5 0
-13 -4 -16 -10z"/>
<path d="M3124 2863 c15 -4 16 -7 5 -15 -11 -8 -10 -9 4 -4 10 3 17 0 17 -8 0
-21 -10 -24 -46 -13 -27 8 -37 8 -43 -2 -4 -6 -13 -11 -18 -9 -18 5 -17 -5 6
-54 11 -26 21 -52 21 -57 0 -6 5 -11 10 -11 6 0 10 4 10 8 0 11 59 32 74 26 8
-3 16 5 20 22 6 22 9 25 17 13 7 -12 9 -11 9 4 0 12 -8 17 -25 17 -20 0 -25 5
-25 24 0 13 7 26 15 30 8 3 15 13 15 23 0 14 -2 15 -9 4 -6 -10 -13 -11 -29
-2 -11 6 -27 10 -34 10 -7 -1 -4 -4 6 -6z"/>
<path d="M3037 2849 c7 -7 15 -10 18 -7 3 3 -2 9 -12 12 -14 6 -15 5 -6 -5z"/>
<path d="M2524 2710 c0 -58 1 -81 3 -52 2 28 2 76 0 105 -2 28 -3 5 -3 -53z"/>
<path d="M2830 2795 c-15 -18 -13 -21 22 -30 20 -5 29 -2 37 13 8 16 7 21 -5
26 -25 10 -41 7 -54 -9z"/>
<path d="M2917 2784 c-10 -13 -15 -29 -12 -34 3 -6 1 -10 -5 -10 -7 0 -10 -6
-7 -14 3 -8 -2 -17 -11 -21 -14 -5 -14 -7 -2 -15 13 -9 13 -10 0 -10 -9 -1 -5
-6 9 -14 14 -8 30 -13 35 -12 6 2 8 1 3 -1 -4 -3 -4 -10 0 -16 3 -7 3 -9 -2
-5 -4 4 -16 3 -26 -3 -15 -7 -19 -6 -19 5 0 12 -11 14 -51 11 -28 -2 -57 -9
-65 -16 -18 -15 -18 -49 0 -49 17 0 31 -18 21 -28 -3 -3 -10 0 -14 7 -5 8 -14
10 -21 6 -9 -6 -9 -9 1 -16 11 -6 9 -9 -7 -9 -26 0 -36 10 -24 25 6 8 -1 10
-28 7 -33 -4 -34 -6 -14 -13 12 -5 22 -16 21 -26 0 -11 -3 -13 -6 -5 -8 19
-29 14 -30 -8 -2 -24 12 -25 107 -9 108 18 141 19 133 6 -5 -9 -3 -9 8 0 19
15 55 9 51 -8 -8 -32 -24 -40 -48 -24 -13 8 -38 15 -56 14 l-33 -1 28 -11 c18
-7 27 -18 27 -33 0 -12 6 -24 13 -27 8 -3 6 -10 -8 -21 -12 -9 -15 -15 -7 -16
9 0 11 -7 7 -20 -5 -16 -2 -20 19 -20 14 0 26 -5 26 -11 0 -7 -10 -9 -25 -6
-20 3 -25 1 -23 -12 3 -14 25 -16 167 -19 128 -2 162 0 159 10 -3 7 -24 18
-49 25 l-44 11 48 1 47 1 0 108 c-1 84 -3 103 -12 87 -6 -11 -12 -21 -13 -23
-1 -1 -10 0 -19 4 -24 9 -21 37 4 29 14 -5 20 -2 20 10 0 9 5 13 10 10 6 -4
10 11 10 39 0 37 -3 44 -16 39 -13 -5 -13 -7 -2 -14 8 -6 0 -9 -24 -9 -20 0
-40 5 -43 10 -4 6 -15 8 -26 5 -13 -4 -21 -1 -26 12 -9 25 -48 60 -61 55 -7
-2 -12 2 -12 8 0 7 -9 2 -19 -11 l-19 -24 26 -7 c26 -6 26 -7 -3 -5 -25 2 -30
6 -28 25 2 19 1 21 -11 10 -8 -7 -12 -16 -9 -20 2 -4 -2 -5 -10 -2 -9 3 -12
14 -10 28 5 26 43 39 82 29 21 -5 22 -4 9 27 -18 43 -64 50 -91 14z m-11 -211
c-3 -22 -9 -26 -37 -28 -34 -2 -34 -2 -7 8 29 11 46 37 24 37 -7 0 -19 -7 -26
-15 -14 -17 -56 -17 -53 0 1 6 14 11 28 13 14 2 25 7 25 11 0 5 11 6 24 4 19
-4 24 -10 22 -30z m51 21 c-3 -3 -12 -4 -19 -1 -8 3 -5 6 6 6 11 1 17 -2 13
-5z m183 -60 c0 -9 -6 -14 -12 -11 -7 2 -25 -3 -40 -11 -23 -13 -29 -14 -43
-2 -16 13 -14 15 16 26 49 18 79 17 79 -2z m-60 -48 c0 -2 -7 -6 -15 -10 -8
-3 -15 -1 -15 4 0 6 7 10 15 10 8 0 15 -2 15 -4z m-120 -62 c16 3 32 1 35 -3
2 -5 -11 -12 -30 -15 -23 -5 -35 -13 -36 -24 -1 -9 -5 -1 -8 18 -4 19 -5 42
-2 50 4 10 7 8 9 -9 3 -20 8 -22 32 -17z m110 16 c0 -5 -7 -10 -16 -10 -8 0
-12 -4 -9 -10 3 -5 1 -10 -4 -10 -18 0 -12 28 7 33 9 3 18 5 20 6 1 0 2 -3 2
-9z m-33 -95 c26 -11 24 -12 -34 -14 -35 0 -63 3 -63 9 0 5 6 7 14 4 8 -3 23
-1 33 5 11 6 13 11 5 11 -7 0 -10 5 -6 11 4 8 9 7 14 -2 5 -7 21 -18 37 -24z
m133 31 c0 -2 -7 -7 -16 -10 -8 -3 -12 -2 -9 4 6 10 25 14 25 6z"/>
<path d="M3180 2690 c0 -5 -11 -12 -25 -16 -36 -9 -23 -17 14 -9 28 6 45 35
21 35 -5 0 -10 -4 -10 -10z"/>
<path d="M2740 2669 c0 -5 5 -7 10 -4 6 3 10 8 10 11 0 2 -4 4 -10 4 -5 0 -10
-5 -10 -11z"/>
<path d="M2705 2660 c-3 -5 -1 -10 4 -10 6 0 11 5 11 10 0 6 -2 10 -4 10 -3 0
-8 -4 -11 -10z"/>
<path d="M3263 2528 c-7 -8 -9 -26 -4 -48 l8 -35 12 30 c15 36 2 76 -16 53z"/>
<path d="M2706 2474 c-3 -7 -14 -10 -25 -7 -19 5 -21 1 -21 -51 0 -44 3 -56
16 -56 8 0 12 -4 9 -10 -12 -19 35 -10 55 10 24 24 40 19 33 -10 -3 -11 -1
-20 4 -20 5 0 9 36 10 80 l2 80 -39 -2 c-22 -1 -41 -7 -44 -14z m59 -25 c3
-14 -1 -15 -26 -6 -36 14 -38 26 -2 24 15 -1 27 -9 28 -18z"/>
<path d="M743 2400 c0 -25 2 -35 4 -22 2 12 2 32 0 45 -2 12 -4 2 -4 -23z"/>
<path d="M744 2080 c0 -151 2 -213 3 -137 2 75 2 199 0 275 -1 75 -3 13 -3
-138z"/>
<path d="M2703 2323 c-67 -6 -50 -23 22 -23 37 0 65 4 65 10 0 6 -4 10 -9 10
-5 0 -15 1 -23 3 -7 2 -32 2 -55 0z"/>
<path d="M4232 2185 c0 -16 2 -22 5 -12 2 9 2 23 0 30 -3 6 -5 -1 -5 -18z"/>
<path d="M754 1565 c0 -82 2 -115 3 -72 2 43 2 110 0 150 -1 40 -3 5 -3 -78z"/>
<path d="M750 1366 c0 -9 5 -16 10 -16 6 0 10 4 10 9 0 6 -4 13 -10 16 -5 3
-10 -1 -10 -9z"/>
<path d="M710 1350 c-9 -6 -10 -10 -3 -10 6 0 15 5 18 10 8 12 4 12 -15 0z"/>
<path d="M728 1233 c-2 -5 -1 -24 3 -43 l6 -35 2 43 c1 39 -3 52 -11 35z"/>
<path d="M359 1107 c-108 -66 -359 -239 -359 -247 0 -17 7 -12 118 68 59 43
134 94 167 115 59 36 125 86 115 86 -3 1 -21 -9 -41 -22z"/>
</g>
</svg>
