<?xml version="1.0" standalone="no"?>
<!DOCTYPE svg PUBLIC "-//W3C//DTD SVG 20010904//EN"
 "http://www.w3.org/TR/2001/REC-SVG-20010904/DTD/svg10.dtd">
<svg version="1.0" xmlns="http://www.w3.org/2000/svg"
 width="750.000000pt" height="500.000000pt" viewBox="0 0 750.000000 500.000000"
 preserveAspectRatio="xMidYMid meet">

<g transform="translate(0.000000,500.000000) scale(0.100000,-0.100000)"
fill="#000000" stroke="none">
<path d="M3543 4988 c26 -9 38 -28 17 -28 -21 0 -9 -19 20 -28 19 -7 32 -20
36 -36 7 -28 20 -34 27 -13 3 9 16 6 50 -10 31 -15 56 -21 76 -17 16 4 31 1
35 -5 4 -6 31 -11 61 -11 31 0 73 -8 100 -20 26 -11 62 -20 81 -20 27 0 34 -4
34 -20 0 -11 5 -20 12 -20 6 0 22 -10 35 -22 l23 -21 21 24 c18 21 27 24 82
20 34 -1 64 -6 67 -10 3 -4 37 -7 75 -7 39 0 82 -3 98 -7 23 -6 29 -4 37 18
10 26 26 33 32 14 2 -6 34 -10 81 -10 70 0 77 -1 77 -19 0 -16 -7 -20 -30 -20
-34 0 -40 -15 -10 -25 11 -4 18 -10 15 -15 -3 -4 2 -10 10 -14 8 -3 15 -1 15
5 0 14 72 2 82 -14 5 -8 13 -6 25 6 19 17 28 17 171 2 36 -4 42 -2 42 14 0 15
11 20 53 27 28 4 62 7 74 6 32 -4 63 15 57 33 -4 10 0 15 14 15 15 0 22 9 27
30 7 33 51 80 73 80 10 0 12 7 8 24 -5 19 -1 26 24 36 17 7 47 10 72 6 87 -12
158 -15 158 -7 0 4 18 13 40 20 22 6 40 16 40 21 0 6 18 10 40 10 22 0 40 5
40 10 0 7 -380 10 -1122 9 -765 0 -1114 -4 -1095 -11z m427 -138 c0 -5 -4 -10
-10 -10 -5 0 -10 5 -10 10 0 6 5 10 10 10 6 0 10 -4 10 -10z"/>
<path d="M7363 4271 c-57 -58 -78 -72 -128 -87 -79 -24 -120 -51 -105 -70 7
-7 14 -40 17 -73 6 -65 12 -56 -87 -141 -19 -17 -45 -40 -58 -51 -19 -16 -26
-18 -38 -8 -8 7 -12 19 -9 27 7 20 -33 62 -59 62 -37 0 -48 14 -26 33 11 9 20
26 20 36 0 34 18 32 24 -2 11 -61 41 -45 157 80 36 38 36 39 19 60 -9 12 -26
22 -36 21 -11 0 -45 6 -77 13 -44 10 -62 11 -77 2 -14 -9 -19 -9 -23 0 -3 7
-21 21 -40 32 l-36 19 -26 -24 c-29 -27 -59 -119 -52 -156 7 -37 -9 -39 -62
-4 -57 36 -151 53 -151 28 0 -8 29 -43 64 -76 70 -68 99 -76 157 -46 17 8 39
12 50 9 29 -10 20 -14 -54 -30 -36 -8 -76 -20 -89 -28 -13 -8 -38 -18 -55 -22
-18 -4 -36 -11 -39 -17 -9 -14 20 -40 58 -52 36 -12 62 -51 48 -75 -5 -10 -2
-26 8 -44 15 -26 21 -28 57 -23 39 6 39 5 15 -9 -33 -19 -88 -19 -106 0 -18
18 -83 20 -119 3 -37 -17 -31 -28 18 -29 42 -1 42 -1 9 -9 -49 -11 -51 -20 -5
-20 37 0 40 -2 36 -24 -10 -48 62 -54 110 -9 18 17 42 36 54 42 55 28 257 0
302 -43 15 -14 33 -26 39 -26 7 0 30 17 50 38 68 68 354 292 373 292 5 0 9 14
9 31 l0 31 -40 -36 c-22 -20 -41 -36 -43 -36 -1 0 -17 -4 -35 -9 -23 -7 -30
-7 -26 1 5 8 -3 9 -25 5 -46 -9 -37 9 27 57 71 53 56 60 -18 8 -52 -36 -113
-62 -145 -62 -5 0 6 13 25 30 l35 29 -34 -9 c-45 -12 -51 -6 -13 14 17 9 33
25 37 35 4 14 24 25 63 36 31 9 65 18 75 21 24 7 21 21 -8 40 -23 15 -31 15
-66 4 -41 -14 -60 -8 -44 14 74 100 180 266 171 266 -2 0 -35 -31 -73 -69z
m-196 -377 c-3 -3 -12 -4 -19 -1 -8 3 -5 6 6 6 11 1 17 -2 13 -5z m-207 -65
c0 -5 -7 -9 -15 -9 -15 0 -20 12 -9 23 8 8 24 -1 24 -14z m156 -15 c-11 -7
-22 -11 -25 -8 -3 3 3 12 13 20 11 7 22 11 25 8 3 -3 -3 -12 -13 -20z m-305
-53 c-13 -10 -21 -23 -17 -30 10 -16 -9 -14 -23 3 -10 12 -7 17 16 29 40 21
52 20 24 -2z m189 9 c0 -12 -17 -12 -45 0 -17 7 -15 9 13 9 17 1 32 -3 32 -9z
m-73 -6 c-3 -3 -12 -4 -19 -1 -8 3 -5 6 6 6 11 1 17 -2 13 -5z m-103 -73 c6
-9 -35 -24 -43 -15 -6 5 18 24 31 24 4 0 9 -4 12 -9z"/>
<path d="M2414 4197 c4 -19 3 -26 -4 -22 -5 3 -10 2 -10 -3 0 -5 9 -12 21 -15
12 -3 18 -10 15 -16 -4 -6 8 -18 25 -27 26 -13 31 -13 26 -2 -4 11 2 13 22 10
20 -3 28 0 28 12 0 10 -9 16 -26 16 -24 0 -24 0 -5 16 18 15 18 15 -8 11 -18
-3 -29 1 -33 11 -3 8 -8 12 -12 8 -3 -3 -15 2 -26 11 -19 18 -20 17 -13 -10z"/>
<path d="M2225 4190 c-3 -5 -1 -10 4 -10 6 0 11 5 11 10 0 6 -2 10 -4 10 -3 0
-8 -4 -11 -10z"/>
<path d="M2260 4190 c0 -5 5 -10 10 -10 6 0 10 5 10 10 0 6 -4 10 -10 10 -5 0
-10 -4 -10 -10z"/>
<path d="M2300 4181 c0 -12 56 -34 72 -29 7 3 -2 8 -19 12 -18 4 -33 12 -33
17 0 5 -4 9 -10 9 -5 0 -10 -4 -10 -9z"/>
<path d="M2195 4160 c4 -6 11 -8 16 -5 14 9 11 15 -7 15 -8 0 -12 -5 -9 -10z"/>
<path d="M2300 4145 c14 -8 32 -14 40 -14 8 0 0 6 -19 14 -42 19 -54 19 -21 0z"/>
<path d="M2400 4112 c8 -5 26 -13 40 -16 17 -5 20 -4 10 2 -8 5 -26 13 -40 16
-17 5 -20 4 -10 -2z"/>
<path d="M2610 3993 c0 -66 -2 -169 -5 -229 -3 -76 -2 -97 4 -69 11 48 17 402
8 412 -4 3 -7 -48 -7 -114z"/>
<path d="M7449 4028 c-9 -17 -2 -66 10 -75 30 -23 41 -15 41 32 0 41 -2 45
-25 45 -14 0 -26 -1 -26 -2z"/>
<path d="M7473 3818 c-13 -13 -23 -28 -23 -34 -1 -5 -15 -20 -33 -34 -17 -14
-68 -60 -113 -103 -58 -56 -84 -89 -93 -117 -11 -38 -14 -40 -51 -40 -46 0
-130 -34 -130 -53 0 -7 -12 -20 -26 -27 -23 -13 -24 -15 -7 -21 27 -11 108
-10 137 1 29 11 36 -3 10 -18 -21 -12 -10 -32 17 -32 12 0 57 13 102 29 140
48 197 52 90 5 -82 -36 -175 -84 -194 -100 -21 -19 -59 -18 -87 2 -17 11 -20
19 -13 28 8 10 -2 18 -39 36 -49 23 -78 24 -185 4 -26 -5 -32 -1 -43 23 -24
54 -75 96 -165 138 -52 23 -62 25 -162 18 -58 -3 -108 -9 -110 -13 -4 -6 9
-36 35 -76 12 -19 10 -25 -23 -58 -20 -20 -46 -36 -59 -36 -17 0 -19 -3 -10
-12 22 -22 14 -39 -15 -32 -56 12 -63 16 -63 30 0 13 2 13 16 0 21 -22 41 -20
22 2 -8 9 -18 25 -21 35 -8 23 -22 22 -48 -4 -15 -15 -24 -18 -32 -10 -6 6
-17 11 -24 11 -14 0 -1 -44 21 -70 19 -22 26 -61 15 -81 -8 -15 -14 -17 -35
-9 -14 6 -36 10 -50 10 -23 0 -20 -4 28 -50 54 -51 59 -54 91 -51 9 1 18 -4
18 -11 1 -7 2 -17 4 -23 1 -5 3 -14 3 -20 1 -5 9 1 18 13 8 12 13 26 10 31 -3
5 1 14 9 21 7 6 12 17 10 23 -2 7 18 29 46 50 47 36 71 36 29 0 -11 -10 -20
-21 -20 -25 0 -9 62 9 70 21 8 14 52 1 47 -13 -2 -6 -19 -12 -38 -14 -77 -6
-77 -6 -213 -197 -12 -18 -17 -19 -46 -8 -39 15 -75 1 -67 -25 21 -64 21 -62
-11 -62 -50 0 -57 27 -16 68 19 19 33 37 30 39 -2 2 -27 -8 -56 -22 -49 -25
-51 -27 -33 -41 16 -14 15 -15 -24 -11 -24 3 -52 -1 -67 -8 -30 -16 -33 -10
-10 16 20 22 10 59 -15 59 -10 0 -35 -11 -56 -25 -23 -17 -44 -23 -57 -20 -18
6 -18 7 4 27 13 11 24 15 26 9 6 -19 22 -12 22 9 0 10 -13 35 -30 53 -33 39
-37 49 -15 41 21 -9 51 16 33 27 -7 5 -21 6 -31 3 -12 -4 -28 3 -43 17 l-24
22 25 44 c14 24 22 43 17 43 -5 0 -30 -17 -55 -37 -51 -41 -50 -44 16 -86 15
-10 27 -22 27 -28 0 -18 -43 2 -72 33 -16 17 -34 28 -41 25 -13 -5 -44 45 -66
106 -6 15 -16 27 -22 27 -6 0 -9 -6 -6 -14 24 -61 29 -96 18 -110 -8 -9 -10
-28 -5 -52 6 -35 6 -37 -17 -31 -20 5 -18 1 14 -24 43 -36 45 -44 15 -54 -21
-6 -20 -8 16 -24 24 -12 33 -21 25 -24 -11 -4 -9 -10 6 -23 15 -12 16 -15 4
-11 -17 6 -99 -47 -99 -63 0 -14 49 -21 70 -10 10 5 28 10 39 10 24 0 27 10 9
29 -11 10 -9 11 7 5 11 -4 25 -10 30 -14 6 -5 19 -10 30 -13 15 -3 12 -5 -10
-7 -16 -1 -24 -4 -17 -7 6 -2 12 -13 12 -23 0 -23 -18 -35 -47 -32 -22 3 -128
-42 -138 -59 -12 -19 -27 -8 -21 15 11 45 -61 82 -148 74 l-38 -3 22 -27 c12
-16 29 -28 37 -28 9 0 52 -21 96 -46 49 -28 87 -44 99 -41 12 4 18 1 15 -6 -5
-15 -110 -12 -115 3 -2 5 -19 10 -38 10 -27 0 -34 -4 -34 -20 0 -13 10 -24 26
-30 14 -6 45 -26 68 -45 50 -41 57 -42 94 -15 34 25 99 40 87 20 -5 -8 -1 -18
10 -26 18 -13 18 -17 2 -83 -9 -38 -17 -74 -17 -80 0 -20 50 20 56 45 3 13 10
24 15 24 12 0 11 -17 -1 -41 -8 -13 -7 -25 0 -39 17 -33 38 -24 45 20 4 22 11
42 16 46 13 7 11 -23 -2 -48 -8 -15 -8 -22 1 -28 9 -6 7 -11 -8 -19 -26 -14
-85 -14 -99 0 -5 5 -32 12 -59 15 -43 4 -58 12 -67 37 -1 4 -9 9 -17 10 -25 4
-39 17 -34 30 6 16 -82 100 -96 92 -6 -4 -9 -3 -8 2 2 4 -3 32 -11 61 -14 49
-16 52 -48 52 -18 0 -33 -4 -33 -9 0 -6 -20 -13 -45 -17 -43 -6 -63 -24 -27
-24 14 0 15 -2 2 -10 -11 -7 -8 -10 16 -10 16 0 36 -6 43 -13 10 -10 11 -9 5
6 -5 13 -2 16 10 11 11 -4 16 -1 16 10 0 9 7 16 15 16 8 0 15 -4 15 -10 0 -5
-5 -10 -11 -10 -5 0 -7 -4 -4 -10 3 -5 -3 -15 -14 -21 -10 -7 -17 -18 -14 -25
5 -14 -35 -39 -45 -28 -4 4 -1 9 6 11 6 3 9 9 6 15 -4 7 -9 7 -13 -1 -4 -7
-19 0 -40 19 -28 26 -34 28 -47 16 -20 -21 -17 -36 7 -36 20 0 49 -21 49 -36
0 -4 -8 -12 -17 -19 -15 -11 -15 -13 6 -25 19 -10 25 -9 32 1 6 10 9 8 9 -7 0
-21 73 -104 91 -104 5 0 9 -6 9 -14 0 -8 6 -16 14 -19 12 -5 12 -11 3 -31 -10
-21 -19 -26 -50 -26 -33 0 -38 -3 -32 -19 3 -11 1 -22 -5 -26 -14 -9 -3 -64
18 -88 14 -15 13 -20 -4 -52 -18 -34 -18 -35 1 -49 23 -18 8 -20 -30 -6 -22 9
-24 13 -15 31 7 11 9 24 5 27 -4 4 -64 7 -133 7 -95 0 -138 4 -172 17 -43 17
-45 16 -78 -4 -32 -19 -36 -20 -61 -6 -14 8 -38 18 -52 22 -15 3 -29 13 -33
21 -4 12 3 11 35 -6 23 -11 48 -18 56 -15 21 9 8 23 -29 30 -18 4 -58 25 -88
49 -30 23 -67 48 -82 56 -34 17 -27 34 9 20 34 -13 37 -8 18 27 -8 16 -15 41
-15 56 0 35 -19 46 -39 22 -9 -11 -23 -23 -33 -26 -15 -6 -17 8 -20 140 -1 81
-2 189 0 240 l3 92 32 -1 c68 -2 74 -8 75 -74 0 -33 -5 -66 -11 -73 -8 -10 -7
-12 4 -10 12 2 14 -19 14 -124 -1 -127 4 -145 32 -117 16 16 72 -7 75 -30 4
-38 15 235 14 349 l-1 125 -255 43 c-140 23 -451 76 -690 118 -717 125 -1010
174 -1105 184 -49 5 -105 12 -124 16 -20 4 -32 3 -28 -2 5 -8 -356 -213 -390
-222 -23 -6 -14 -31 13 -38 23 -6 25 -10 20 -43 -3 -20 -6 -227 -8 -460 -2
-333 0 -425 10 -428 8 -3 12 11 13 49 1 29 5 64 10 78 6 17 8 3 6 -50 l-2 -74
59 -33 c66 -38 66 -38 66 -20 0 14 -60 47 -86 47 -13 0 -14 44 -12 338 3 502
5 535 30 551 19 12 20 11 14 -11 -4 -12 -8 -41 -10 -63 -9 -86 -26 -342 -26
-382 l0 -42 43 -4 42 -4 -42 -1 -43 -2 1 -117 c1 -65 4 -145 8 -178 6 -59 6
-60 39 -63 l33 -3 -3 90 c-2 66 0 92 10 96 8 3 12 30 12 85 0 44 3 80 8 80 4
0 6 -39 4 -88 -3 -75 -1 -91 16 -110 l20 -22 6 25 c5 21 12 25 41 25 19 0 35
1 35 3 10 330 11 567 4 567 -13 0 -41 -20 -29 -20 7 0 7 -3 0 -8 -15 -11 -35
-50 -35 -69 -1 -16 -2 -16 -15 1 -8 11 -18 16 -22 12 -10 -10 -22 -157 -18
-238 1 -37 -2 -68 -6 -68 -5 0 -9 69 -9 154 0 88 -4 157 -10 161 -5 3 -7 12
-3 20 3 8 0 15 -6 15 -6 0 -11 -6 -12 -12 0 -7 -4 -5 -7 4 -11 28 2 161 16
166 6 2 12 9 12 16 0 36 27 63 84 86 l61 25 5 49 c5 46 7 50 42 62 l37 13 -5
-567 c-2 -312 -6 -616 -8 -675 l-4 -108 76 6 c42 4 88 9 102 12 14 3 68 11
120 19 52 7 140 20 195 28 55 8 124 17 152 20 87 9 439 55 588 76 77 11 190
24 250 30 61 6 160 18 220 26 61 8 164 22 230 30 110 15 160 28 117 31 -9 1
-36 5 -60 9 l-43 7 3 76 c3 57 7 75 17 73 8 -2 2 11 -13 28 -14 18 -26 39 -26
48 0 10 10 2 25 -21 14 -20 30 -37 35 -37 6 0 10 -8 10 -17 0 -9 16 -34 36
-54 39 -40 41 -69 3 -69 -35 0 -16 -24 26 -32 22 -5 42 -12 45 -17 3 -4 31
-20 63 -35 62 -29 80 -56 21 -31 -53 22 -67 20 -62 -10 4 -21 1 -26 -21 -31
-43 -9 -81 -26 -81 -35 0 -12 13 -12 26 0 5 5 27 12 49 16 37 6 39 5 20 -8
-18 -14 -12 -15 65 -10 47 3 87 9 90 14 3 4 18 11 33 14 22 6 26 4 21 -8 -6
-16 -34 -27 -70 -27 -31 0 -67 -43 -59 -70 4 -13 10 -18 14 -12 8 14 63 3 58
-12 -2 -6 -16 -12 -30 -14 -15 -2 -27 -5 -27 -7 0 -2 -9 -27 -20 -55 -14 -35
-16 -50 -7 -50 17 1 61 39 54 47 -4 3 -13 0 -22 -7 -11 -9 -15 -9 -15 -1 0 6
11 16 25 21 14 5 48 28 77 50 50 40 53 41 115 37 62 -5 64 -4 78 23 17 33 42
54 32 27 -7 -17 -4 -19 45 -22 15 -1 34 -8 43 -15 28 -23 37 2 15 45 l-20 40
25 -28 c32 -36 33 -89 4 -118 -18 -18 -29 -20 -67 -15 -25 3 -53 13 -62 21
-17 16 -30 11 -30 -12 0 -7 11 -13 24 -13 20 0 22 -4 18 -25 -2 -14 -1 -25 4
-23 5 1 19 -1 31 -6 12 -4 31 -2 43 4 11 6 20 8 20 5 0 -3 -29 -20 -65 -36
-64 -30 -76 -44 -82 -99 -1 -14 -5 -46 -9 -71 -6 -44 -4 -48 29 -73 40 -30
101 -37 90 -9 -6 16 2 17 122 1 13 -2 19 2 17 12 -2 8 5 41 15 74 14 47 25 63
55 82 41 26 77 31 96 12 10 -10 15 -10 22 2 5 8 10 23 10 33 0 20 39 38 78 36
15 -1 50 4 77 10 28 6 67 14 88 18 20 3 37 10 37 15 0 6 -10 8 -21 5 -21 -6
-69 18 -69 33 0 5 10 12 22 16 12 3 44 20 71 37 48 30 50 30 64 11 25 -34 26
-61 4 -85 -12 -13 -20 -28 -20 -33 3 -25 -2 -36 -16 -36 -8 0 -15 -8 -15 -19
0 -10 -9 -21 -20 -24 -14 -3 -20 -14 -20 -31 0 -31 34 -68 55 -60 9 4 15 1 15
-8 0 -15 39 -43 48 -34 3 4 0 12 -6 18 -18 18 -14 38 8 38 11 0 20 -4 20 -10
0 -5 5 -10 11 -10 5 0 7 5 4 10 -3 6 1 10 10 10 14 0 14 -2 -1 -25 -9 -14 -20
-25 -24 -25 -5 0 -24 -22 -44 -50 -36 -50 -52 -58 -84 -40 -9 5 -39 18 -66 29
-44 19 -48 23 -44 50 4 26 2 28 -13 21 -9 -5 -19 -17 -23 -25 -9 -24 -28 -7
-20 18 21 66 82 129 149 152 19 7 19 7 -3 16 -15 5 -31 5 -42 -1 -10 -5 -32
-7 -49 -4 -20 4 -37 1 -47 -7 -9 -8 -22 -14 -28 -14 -29 -2 -67 -27 -76 -50
-5 -13 -18 -30 -30 -37 -11 -7 -20 -18 -20 -25 0 -7 -3 -13 -7 -13 -5 0 -21
-23 -38 -51 -16 -28 -37 -60 -47 -72 l-16 -22 -25 23 -24 23 -27 -31 c-14 -17
-26 -37 -26 -43 0 -7 -5 -19 -10 -27 -7 -12 -13 -11 -34 10 -18 16 -26 19 -26
9 -1 -11 -3 -11 -13 1 -22 29 -61 50 -91 50 -27 0 -28 -2 -23 -35 5 -33 4 -35
-19 -29 -31 8 -33 -17 -4 -46 11 -11 20 -29 20 -39 0 -11 10 -27 22 -35 l22
-16 -25 0 c-14 0 -30 5 -36 11 -12 12 -66 1 -57 -12 3 -5 1 -16 -4 -25 -6 -11
-11 -13 -16 -5 -9 14 -76 15 -76 1 0 -5 -4 -10 -10 -10 -5 0 -10 20 -10 45 0
29 4 45 13 45 8 0 7 4 -3 10 -24 15 -40 12 -40 -9 0 -11 -4 -23 -10 -26 -11
-7 -9 -33 4 -53 4 -7 5 -16 2 -19 -7 -7 48 -43 65 -43 7 0 9 11 7 24 -4 22 -3
23 19 13 12 -5 23 -16 23 -24 0 -7 4 -13 9 -13 14 0 43 -94 35 -113 -9 -24
-20 -21 -67 16 -23 19 -63 44 -89 56 -55 26 -98 78 -98 120 0 36 18 55 65 71
19 6 35 16 35 21 0 5 6 9 12 9 18 0 200 91 194 97 -2 3 -42 -13 -88 -35 -149
-71 -229 -104 -243 -98 -7 2 -16 -2 -19 -10 -3 -8 -14 -14 -24 -14 -11 0 -30
-8 -43 -18 -25 -18 -38 -25 -134 -67 -33 -15 -159 -72 -280 -127 -301 -136
-305 -138 -345 -155 -19 -9 -80 -37 -135 -62 -155 -73 -240 -104 -270 -99 -20
4 -25 2 -21 -9 3 -7 -1 -16 -10 -20 -21 -8 -32 6 -14 18 11 8 8 8 -10 3 -14
-4 -38 -10 -55 -14 -16 -4 -64 -23 -105 -43 -69 -32 -183 -77 -196 -77 -3 0
-2 5 1 11 4 6 1 10 -6 8 -26 -3 -40 1 -34 10 3 5 -8 9 -25 9 -17 -1 -30 -7
-30 -13 0 -7 -8 -22 -17 -34 l-18 -22 -26 25 c-18 17 -33 22 -52 19 -26 -5
-37 9 -17 22 5 3 10 11 10 17 0 6 -7 5 -17 -4 -10 -9 -32 -23 -50 -32 -38 -19
-54 -5 -27 25 16 17 16 22 4 29 -20 13 -26 12 -28 -2 -2 -23 -7 -43 -15 -55
-5 -8 -1 -23 7 -35 15 -21 14 -23 -20 -40 -20 -10 -41 -15 -46 -12 -5 3 -24
-8 -44 -25 -38 -34 -64 -40 -64 -16 0 13 -2 13 -14 3 -9 -8 -10 -15 -4 -19 6
-4 8 -11 4 -17 -3 -6 -2 -13 3 -17 16 -9 1 -35 -30 -50 -17 -10 -30 -11 -34
-5 -3 6 -11 10 -16 10 -6 0 -7 -5 -3 -11 18 -29 -78 -109 -131 -109 -25 0 -8
18 24 25 16 3 32 13 35 21 7 18 -8 18 -24 -1 -20 -24 -32 -17 -15 8 8 13 42
43 74 67 56 40 78 66 66 78 -3 3 -15 -4 -28 -15 -30 -27 -82 -40 -74 -19 14
35 -40 8 -61 -30 -6 -12 -28 -29 -48 -39 -30 -14 -40 -15 -59 -5 -23 13 -45 7
-45 -11 0 -6 5 -7 11 -3 7 4 10 2 8 -5 -3 -7 -8 -12 -13 -11 -5 1 -12 -2 -15
-7 -9 -13 -59 -33 -81 -33 -11 0 -20 -4 -20 -10 0 -5 -11 -10 -25 -10 -28 0
-32 12 -10 30 8 7 15 25 15 41 0 29 2 30 55 33 11 1 19 6 18 12 -1 6 10 17 25
25 56 28 78 48 80 73 l2 26 -36 -17 c-30 -15 -33 -19 -20 -29 19 -14 10 -24
-21 -24 -12 0 -23 -4 -23 -10 0 -5 -18 -10 -40 -10 -35 0 -40 -3 -40 -23 0
-39 -57 -76 -75 -48 -6 11 21 41 38 41 7 0 4 5 -5 11 -12 7 -24 6 -37 -1 -12
-6 -22 -6 -26 -1 -3 5 3 11 12 13 10 3 -2 8 -26 12 l-43 8 43 20 c24 10 65 26
92 35 32 10 46 20 43 29 -3 8 11 22 34 35 32 18 37 25 28 37 -10 11 -8 17 7
28 10 8 15 14 9 14 -5 0 -2 4 6 10 8 5 11 12 7 16 -3 4 -13 1 -22 -6 -9 -7
-13 -15 -11 -18 3 -2 -1 -11 -9 -18 -8 -8 -11 -22 -8 -32 6 -16 5 -16 -13 -1
-23 20 -44 14 -44 -12 0 -10 -4 -19 -10 -19 -5 0 -10 7 -10 15 0 12 -3 13 -19
3 -11 -7 -17 -16 -14 -21 3 -5 9 -3 14 4 7 11 9 10 9 -3 0 -11 -13 -21 -40
-29 -22 -7 -40 -17 -40 -23 0 -6 -4 -5 -9 3 -5 7 -14 10 -20 7 -6 -4 -9 -12
-6 -17 4 -5 -1 -9 -10 -9 -9 0 -13 5 -10 10 3 6 -1 10 -9 10 -22 0 -20 8 7 32
12 11 15 16 7 12 -13 -7 -13 -6 -1 10 13 15 13 19 0 26 -11 8 -11 12 6 24 11
9 23 16 26 16 10 0 18 39 9 45 -4 3 -10 -2 -14 -10 -3 -8 -12 -15 -21 -15 -8
0 -15 -4 -15 -10 0 -24 -29 -7 -35 21 -5 21 -10 27 -15 19 -9 -15 -17 -3 -25
40 -7 37 -34 94 -42 87 -3 -3 0 -21 6 -39 19 -61 61 -228 60 -240 0 -7 -7 8
-15 35 -13 43 -34 64 -34 35 -1 -9 -5 -8 -13 2 -7 9 -29 29 -49 44 -29 21 -38
36 -38 57 0 39 -27 38 -71 -2 -19 -17 -47 -35 -62 -41 -26 -10 -27 -11 -10
-25 10 -8 12 -12 6 -8 -7 3 -13 1 -13 -5 0 -7 7 -9 16 -6 9 3 18 6 20 6 3 0 3
4 0 8 -7 11 51 68 60 59 8 -8 -32 -64 -70 -100 -27 -25 -81 -47 -115 -47 -9 0
-2 14 20 36 22 24 27 33 13 26 -11 -6 -26 -18 -34 -26 -7 -9 -34 -22 -60 -30
-27 -8 -58 -19 -69 -25 -11 -6 -46 -14 -77 -17 -47 -4 -64 -11 -96 -39 -21
-19 -44 -35 -51 -35 -6 1 2 12 18 27 l30 25 -35 -20 c-50 -28 -113 -47 -117
-35 -5 13 -96 -15 -133 -39 -14 -9 -38 -20 -55 -24 -16 -4 -36 -13 -43 -21 -7
-7 -21 -13 -30 -13 -15 1 -14 3 3 15 53 40 105 90 105 102 0 7 4 13 9 13 9 0
101 85 101 94 0 2 -18 -3 -40 -11 -24 -10 -39 -21 -36 -29 7 -18 -37 -54 -70
-56 -16 -1 -39 -11 -52 -22 -28 -25 -124 -66 -136 -59 -12 8 52 61 82 69 12 3
22 12 22 20 0 7 8 18 18 24 14 9 10 10 -18 7 -19 -2 -44 -8 -55 -12 -15 -6
-14 -3 5 12 32 26 99 55 111 48 19 -12 78 -14 85 -3 5 8 2 9 -11 4 -16 -6 -16
-4 -4 10 12 15 11 16 -10 9 -17 -5 -22 -4 -16 5 7 12 -7 10 -52 -7 -7 -3 -13
0 -13 6 0 12 43 25 62 19 7 -3 28 6 47 19 18 13 40 23 47 23 8 0 14 7 14 16 0
20 -35 10 -73 -22 -29 -24 -67 -32 -67 -14 0 6 4 10 8 10 13 0 95 61 89 66 -3
3 -20 -4 -38 -15 -43 -27 -68 -29 -48 -4 12 14 12 16 -1 11 -9 -3 -40 -2 -70
3 -60 10 -100 5 -100 -13 0 -6 -8 -17 -18 -24 -16 -13 -16 -14 3 -7 11 3 26
11 34 17 18 14 41 16 41 4 0 -6 7 -7 16 -4 9 3 27 9 41 12 22 6 24 4 21 -17
-1 -13 -16 -34 -33 -47 -16 -12 -32 -32 -35 -44 -6 -23 -110 -77 -110 -57 0 5
15 16 33 24 17 8 25 14 17 15 -8 0 -32 -9 -53 -20 -39 -21 -83 -27 -72 -10 4
6 -6 10 -22 10 -28 1 -28 1 9 20 20 11 40 24 43 30 3 5 21 10 40 10 22 0 43 9
60 25 l27 24 -51 -21 c-53 -23 -81 -17 -46 8 19 14 18 15 -10 8 -34 -9 -54 -9
-110 -1 -33 5 -47 1 -80 -20 -44 -30 -125 -43 -104 -17 6 8 20 14 30 14 23 0
69 20 88 38 9 8 25 12 42 8 19 -3 32 1 45 15 18 20 18 20 -10 10 -34 -14 -49
-14 -41 -1 3 6 -1 10 -9 10 -9 0 -16 -7 -16 -15 0 -10 -10 -15 -32 -14 -18 0
-26 3 -18 6 8 3 20 10 25 17 17 19 72 46 94 46 12 0 29 9 38 20 10 11 21 20
26 20 5 0 39 13 77 30 38 16 74 30 81 30 23 0 -15 -30 -57 -45 -34 -13 -36
-14 -12 -15 15 0 29 4 33 9 3 6 26 13 51 17 30 4 41 9 33 15 -7 4 -17 5 -22 2
-5 -3 -6 4 -2 16 8 26 9 26 -71 -4 -80 -30 -112 -33 -66 -5 18 11 41 20 52 20
10 0 22 4 25 10 3 5 1 10 -4 10 -6 0 -11 5 -11 10 0 6 9 10 20 10 11 0 20 6
20 14 0 11 -8 12 -41 5 -23 -6 -43 -8 -45 -6 -3 2 58 18 133 36 297 70 469
111 498 120 43 13 2 13 -50 0 -31 -8 -49 -8 -63 0 -13 7 -23 7 -27 2 -3 -5 3
-12 12 -15 10 -2 -2 -4 -27 -4 -25 1 -56 0 -70 -1 -23 -2 -23 -3 -5 -10 15 -6
8 -11 -35 -20 -72 -16 -222 -52 -238 -57 -6 -2 -12 0 -12 5 0 5 21 12 48 17
33 6 40 9 22 11 -14 2 -56 -8 -95 -22 -38 -14 -104 -35 -145 -46 -41 -11 -84
-22 -95 -26 -16 -5 -18 -3 -8 9 28 33 124 60 473 133 69 15 133 29 142 31 19
6 25 20 33 84 3 24 14 96 25 158 11 63 18 117 15 122 -2 4 -26 3 -52 -2 -52
-9 -368 -66 -421 -75 -42 -7 -44 17 -2 35 17 8 28 17 25 22 -3 4 2 11 11 14
11 4 14 13 10 31 -4 16 -2 25 5 25 8 0 8 4 1 13 -14 17 6 43 47 60 18 8 32 18
31 23 0 5 8 10 20 12 11 2 20 7 20 11 0 18 -30 32 -57 26 -20 -4 -24 -3 -13 3
24 16 110 30 359 62 129 16 237 32 240 36 3 3 -12 4 -34 0 -22 -3 -98 -13
-170 -21 -71 -8 -161 -20 -200 -25 -152 -21 -213 -23 -213 -9 1 8 0 81 0 163
l-2 149 -85 -7 c-47 -4 -85 -3 -86 1 0 4 -2 19 -4 33 -5 38 5 67 23 74 38 12
102 55 93 61 -23 14 -9 23 29 21 50 -4 60 8 20 23 -17 5 -30 13 -30 17 0 3 7
3 16 0 8 -3 24 -1 34 4 15 8 21 6 28 -7 9 -15 15 -13 63 15 30 16 53 35 52 40
-1 6 5 8 15 6 9 -3 31 5 47 16 l30 20 -26 0 c-15 0 -32 7 -39 15 -11 14 -10
14 14 5 33 -12 36 -12 36 -2 0 4 -19 16 -42 27 -28 13 -36 21 -24 23 9 2 40
-8 67 -23 28 -14 53 -24 56 -22 2 3 -3 17 -13 31 -9 15 -19 24 -22 22 -3 -3 1
-12 8 -21 17 -21 9 -19 -41 10 -44 25 -44 25 -14 26 17 0 23 3 15 6 -38 12
-59 27 -53 37 4 6 -1 5 -10 -2 -9 -8 -24 -12 -34 -9 -16 4 -15 6 4 12 13 4 20
12 16 18 -4 6 0 8 9 5 8 -4 21 -2 29 3 11 7 11 9 -3 9 -9 0 -29 5 -43 10 -22
8 -25 13 -15 25 9 11 8 14 -8 12 -12 0 -18 -6 -15 -14 6 -15 1 -16 -49 -4 -27
6 -42 5 -57 -6 -14 -9 -21 -10 -21 -3 0 6 -5 8 -10 5 -6 -3 -10 -2 -10 3 0 5
-11 7 -25 4 -14 -2 -25 0 -25 6 0 6 -9 8 -20 5 -14 -4 -20 0 -20 11 0 12 6 15
25 10 16 -4 25 -2 25 5 0 7 10 9 25 6 14 -3 36 -7 50 -10 23 -5 24 -4 13 15
-14 22 -54 29 -42 8 4 -8 3 -10 -2 -5 -5 5 -9 14 -9 20 0 7 -12 17 -26 24 -21
10 -25 18 -21 38 5 27 27 34 35 11 4 -10 1 -13 -9 -9 -7 3 -14 0 -14 -6 0 -6
9 -11 19 -11 10 0 22 -7 25 -16 4 -10 14 -14 26 -11 11 3 23 1 26 -4 8 -14 24
-11 24 5 0 18 -47 49 -55 36 -3 -6 -1 -10 4 -10 6 0 11 -5 11 -12 0 -6 -9 -3
-20 7 -11 10 -19 24 -18 31 2 7 -1 14 -7 15 -5 1 -20 5 -32 10 -14 5 -32 3
-53 -7 -16 -9 -36 -13 -43 -11 -7 3 -5 6 6 6 9 1 17 8 17 16 0 15 -11 19 -38
16 -10 -2 -12 7 -8 30 3 23 0 37 -12 47 -9 7 -11 10 -3 6 9 -4 12 -2 9 7 -3 8
-11 13 -17 11 -6 -1 -11 5 -11 14 0 12 -5 14 -18 9 -9 -4 -27 -10 -39 -12 -34
-8 -28 -20 12 -27 24 -5 35 -12 35 -24 0 -10 -3 -13 -8 -6 -13 19 -42 25 -42
9 0 -8 7 -15 16 -15 8 0 12 -5 9 -10 -5 -8 -12 -7 -22 2 -9 7 -39 25 -67 39
-44 22 -51 30 -52 57 -1 18 0 32 3 32 13 0 32 -31 27 -44 -5 -13 1 -16 27 -16
32 1 33 1 15 15 -19 14 -18 15 10 17 114 6 114 6 114 73 l0 56 108 -6 c59 -3
119 -8 135 -11 l27 -6 -2 159 -2 158 -6 -125 c-8 -145 -7 -139 -20 -120 -9 13
-11 13 -19 0 -8 -11 -12 -8 -21 15 -7 17 -15 51 -19 78 -8 45 -7 47 13 42 12
-3 15 -2 8 1 -6 3 -10 10 -6 15 3 5 -2 16 -11 25 -14 15 -18 15 -40 0 -14 -9
-25 -12 -25 -7 0 5 5 13 10 16 15 9 12 25 -3 19 -8 -3 -22 12 -36 36 -12 22
-27 40 -33 40 -7 0 -6 -5 2 -15 6 -8 10 -20 7 -27 -4 -8 -6 -7 -6 5 -2 33 -20
17 -23 -21 -3 -39 -3 -39 -23 -19 -11 11 -14 17 -8 13 9 -5 11 -2 7 8 -10 27
-25 7 -21 -28 2 -18 -2 -41 -9 -50 -11 -16 -13 -15 -16 11 -2 15 -6 26 -9 23
-4 -3 -16 4 -28 14 -12 11 -21 14 -21 8 0 -6 6 -13 13 -16 9 -5 9 -7 0 -12 -8
-3 -10 -16 -6 -35 8 -43 -13 -36 -25 9 l-10 37 -2 -40 -2 -40 -29 60 c-17 33
-28 52 -25 43 3 -10 1 -18 -4 -18 -8 0 -6 -51 5 -97 3 -13 1 -23 -5 -23 -5 0
-10 5 -10 10 0 6 -5 10 -12 10 -7 0 -25 12 -40 27 l-29 28 22 -50 c12 -28 25
-54 29 -58 12 -13 0 -46 -19 -51 -9 -2 -31 -7 -49 -11 -17 -4 -32 -13 -32 -20
0 -13 -82 -68 -105 -71 -5 0 -20 -2 -32 -2 -23 -2 -23 -4 -23 -132 0 -97 3
-130 13 -130 8 0 9 -3 1 -8 -6 -4 -12 -28 -12 -53 -2 -44 0 -47 30 -55 17 -5
33 -15 36 -22 3 -10 -3 -10 -26 2 -17 9 -33 16 -36 16 -3 0 -5 -204 -6 -452 0
-249 3 -448 8 -442 4 6 17 17 30 23 14 8 21 18 18 27 -3 9 1 14 13 14 10 0 30
9 45 21 l26 20 0 -70 c0 -69 -1 -71 -25 -71 -26 0 -34 -15 -12 -23 7 -4 6 -6
-4 -6 -9 -1 -22 -7 -28 -15 -7 -8 -26 -18 -42 -21 l-29 -7 0 -94 c0 -91 1 -94
23 -95 l22 0 -22 -9 c-23 -9 -23 -10 -23 -245 l0 -235 26 6 c20 5 25 4 19 -6
-6 -9 0 -10 26 -5 41 9 36 2 -9 -13 -22 -8 -31 -8 -26 -1 4 7 -1 10 -12 7 -13
-2 -20 -13 -22 -37 -3 -28 -1 -33 13 -27 9 3 28 9 42 13 39 9 20 -13 -22 -27
l-35 -12 0 -63 c0 -59 1 -63 26 -69 29 -8 28 -27 -4 -41 -12 -5 -22 -19 -22
-29 0 -19 1 -19 13 -2 16 22 120 56 138 46 7 -5 19 -5 28 -2 14 5 14 4 2 -11
-9 -12 -17 -14 -26 -7 -8 6 -24 3 -49 -11 -21 -11 -44 -18 -51 -15 -7 2 -16
-2 -19 -10 -3 -8 -12 -14 -21 -14 -8 0 -15 -9 -15 -19 0 -15 5 -18 22 -13 14
3 19 2 14 -6 -4 -7 -14 -12 -22 -12 -8 0 -14 -9 -14 -19 0 -18 2 -19 28 -5 15
7 38 14 52 14 25 0 25 0 -5 -20 -16 -11 -40 -20 -52 -20 -20 0 -23 -5 -23 -39
0 -22 5 -42 13 -44 9 -4 8 -8 -3 -16 -26 -18 -3 -23 35 -7 47 20 61 20 45 1
-7 -8 -30 -20 -51 -27 -33 -9 -39 -15 -39 -38 0 -24 3 -27 28 -23 l27 4 -28
-23 c-23 -20 -27 -31 -27 -76 l0 -52 95 0 c84 0 98 3 131 25 21 14 44 34 51
45 20 29 70 53 79 38 7 -11 -21 -38 -41 -38 -6 0 -22 -12 -36 -26 -13 -14 -33
-30 -44 -34 -11 -5 257 -9 596 -9 536 -1 618 1 629 14 7 8 17 15 23 15 6 0 18
7 28 16 10 9 19 11 23 5 3 -5 -6 -19 -20 -30 l-27 -21 75 0 c45 0 79 5 87 12
11 10 14 11 18 0 3 -9 37 -12 121 -12 l116 0 30 34 c17 19 36 42 42 53 6 10
23 24 37 31 15 7 32 23 39 35 17 32 39 46 73 45 17 0 41 3 55 7 24 6 23 5 -8
-24 -18 -17 -43 -31 -56 -31 -16 0 -32 -11 -46 -29 -12 -18 -31 -31 -48 -33
-16 -2 -26 -8 -24 -16 1 -7 -7 -27 -19 -43 l-21 -30 48 3 c43 3 50 7 68 38
l20 35 -22 -19 c-12 -11 -22 -14 -22 -8 0 14 19 26 45 29 11 1 32 5 48 9 36 8
36 -13 1 -55 l-26 -31 52 0 c46 0 55 4 84 35 44 46 64 46 36 0 l-22 -35 31 0
c17 0 31 5 31 12 0 9 3 9 12 0 9 -9 118 -12 430 -12 411 0 418 0 418 20 0 11
5 20 11 20 6 0 8 -9 4 -20 -6 -19 -2 -20 85 -20 l92 0 -23 21 -24 21 38 -21
c38 -21 47 -21 673 -21 655 0 656 0 592 36 -9 5 -30 27 -48 48 -36 47 -84 78
-105 70 -21 -9 -10 -20 25 -27 16 -4 30 -12 30 -18 0 -6 -7 -9 -15 -5 -9 3
-15 0 -15 -9 0 -18 -5 -18 -31 -5 -10 6 -19 20 -19 30 0 16 -7 20 -32 21 -18
1 -25 3 -15 6 18 5 24 33 7 33 -5 0 -10 4 -10 10 0 6 9 6 26 -1 15 -5 29 -7
32 -5 3 3 -6 10 -20 15 -13 5 -30 17 -38 26 -14 16 -13 17 10 10 14 -4 31 -10
38 -12 20 -8 14 10 -14 40 -19 21 -33 27 -48 23 -12 -3 -32 1 -43 9 -15 10
-29 12 -44 6 -22 -8 -22 -9 13 -21 24 -9 34 -18 31 -28 -4 -10 -8 -11 -13 -1
-12 18 -88 5 -111 -20 -23 -24 -35 -26 -72 -8 -37 17 -38 54 -2 49 20 -3 20
-3 0 13 -13 9 -16 17 -10 22 6 5 18 20 28 35 17 27 17 28 -8 50 -27 24 -32 43
-12 52 6 3 -3 3 -20 0 -27 -4 -33 -2 -33 11 0 11 -5 15 -15 11 -11 -4 -15 2
-15 24 0 16 4 32 10 35 5 3 9 16 9 28 -1 17 -2 18 -6 4 -2 -9 -9 -17 -14 -17
-6 0 -7 -5 -3 -11 15 -24 -81 -3 -110 24 -16 15 -37 25 -49 24 -14 -1 -23 6
-30 28 -13 39 -16 42 -27 25 -8 -13 -16 -13 -58 3 -28 9 -61 17 -76 17 -14 0
-26 5 -26 10 0 7 -6 7 -19 0 -26 -13 -31 -13 -31 4 0 8 11 17 25 20 22 6 38
28 18 25 -5 -1 -21 0 -38 1 -27 1 -24 4 35 33 113 55 144 66 173 60 15 -3 27
-1 27 5 0 6 -10 8 -22 5 -18 -4 -20 -3 -12 6 6 7 18 13 25 14 8 2 20 6 28 11
8 5 17 3 23 -5 8 -11 9 -11 5 2 -4 12 6 22 36 34 23 10 85 38 137 63 52 24
133 62 180 84 47 21 106 50 132 63 32 17 58 23 80 20 28 -4 29 -3 8 3 -23 8
-19 11 45 41 l70 32 21 -24 c11 -13 34 -29 50 -34 16 -6 29 -17 28 -25 -1 -7
7 -15 17 -15 21 -2 26 13 7 20 -7 3 -8 6 -3 6 16 1 75 -38 75 -49 0 -5 -11
-10 -25 -10 -32 0 -41 3 -38 12 2 5 -2 8 -7 8 -6 0 -10 -6 -10 -14 0 -15 42
-46 62 -46 15 0 17 -48 4 -69 -5 -8 -4 -16 5 -22 11 -7 10 -9 -3 -9 -10 0 -25
15 -34 32 -18 37 -53 78 -66 78 -15 0 -8 -38 13 -74 12 -20 26 -36 32 -36 6 0
2 -7 -10 -15 -16 -11 -28 -13 -48 -5 -14 5 -52 10 -83 9 -51 0 -54 -2 -32 -12
14 -6 31 -17 38 -24 17 -16 37 -16 62 -1 23 15 37 4 21 -16 -20 -24 -1 -64 53
-111 41 -37 48 -47 36 -55 -8 -5 -25 -10 -37 -10 -28 0 -103 -29 -103 -40 0
-4 10 -10 23 -14 13 -3 29 -17 35 -31 7 -14 19 -28 27 -32 14 -5 13 -9 -6 -29
l-22 -24 36 -15 c20 -8 46 -15 57 -15 26 0 25 -6 -5 -42 -30 -36 -34 -78 -6
-78 16 0 19 -7 18 -48 0 -53 10 -92 24 -92 17 0 89 72 111 111 21 38 48 46 27
8 -5 -11 -7 -39 -4 -62 6 -39 4 -43 -25 -60 -36 -19 -60 -22 -60 -6 0 5 -5 7
-11 4 -7 -5 -4 -14 8 -27 18 -21 18 -21 -11 -14 -20 5 -34 2 -47 -9 -10 -10
-23 -14 -28 -10 -7 3 -11 -2 -11 -14 0 -15 -6 -21 -21 -21 -11 0 -17 -4 -14
-10 10 -16 20 -12 56 20 40 35 37 35 90 14 35 -14 42 -15 50 -3 6 9 4 15 -6
17 -24 5 -17 24 8 20 12 -2 21 -9 19 -17 -2 -11 0 -12 11 -2 12 9 16 8 21 -5
9 -23 7 -31 -4 -14 -8 13 -10 12 -10 -3 0 -10 -5 -15 -10 -12 -13 8 -100 -33
-100 -47 0 -5 -9 -6 -20 -3 -16 5 -20 2 -20 -15 0 -17 -4 -21 -17 -15 -10 3
-31 9 -47 12 -25 5 -28 4 -23 -11 4 -10 7 -22 7 -27 0 -6 50 -9 121 -8 111 2
120 4 116 20 -3 10 0 20 7 23 6 2 3 5 -7 5 -14 1 -17 6 -11 24 7 24 26 40 35
29 3 -4 10 -19 17 -34 10 -23 9 -26 -5 -21 -11 4 -14 3 -9 -6 5 -7 15 -10 23
-6 9 3 24 -2 33 -10 10 -9 20 -13 23 -8 2 4 -1 50 -7 101 -12 92 -11 93 9 88
13 -4 26 2 37 16 l16 23 7 -28 c4 -15 0 -66 -9 -114 -9 -49 -16 -91 -16 -95 0
-5 383 -8 851 -8 773 0 849 1 835 16 -9 8 -16 27 -16 40 0 21 3 23 19 14 25
-13 61 -13 61 0 0 6 -8 10 -17 10 -15 0 -16 2 -3 10 8 5 36 10 63 10 43 0 49
3 58 28 6 15 13 47 16 72 l5 45 -55 -3 c-42 -3 -60 -9 -77 -27 -21 -22 -21
-25 -6 -40 17 -17 13 -35 -7 -35 -20 1 -66 47 -73 74 -3 15 -10 29 -15 32 -18
11 -8 21 24 21 67 1 193 21 214 34 20 12 25 11 48 -11 14 -13 25 -27 25 -32 0
-11 -50 1 -69 16 -11 8 -13 8 -9 -3 7 -22 69 -69 103 -77 l29 -7 -17 27 c-18
27 -18 27 6 20 14 -3 28 -1 31 5 4 6 13 11 21 11 24 0 98 -56 134 -100 33 -41
33 -41 11 -47 -13 -3 -44 -17 -69 -31 -25 -14 -70 -29 -99 -33 -59 -8 -67 -12
-57 -28 7 -12 301 -16 329 -5 22 8 20 23 -6 51 -18 20 -19 23 -5 23 10 0 26
-6 37 -12 17 -11 22 -10 30 2 5 8 8 21 5 28 -3 7 1 21 7 32 9 14 9 25 0 45
-16 34 -15 45 3 45 13 0 15 44 15 339 l0 340 -52 19 c-29 11 -70 22 -91 26
-83 15 -71 99 23 150 39 21 60 27 86 23 l34 -6 0 90 c0 86 -1 89 -19 77 -15
-9 -25 -9 -46 0 -34 16 -23 32 21 32 19 0 34 3 34 6 0 3 -16 24 -35 47 -19 23
-45 55 -58 71 -21 26 -30 29 -73 28 -27 -1 -76 6 -109 15 -33 8 -91 17 -130
18 -38 1 -97 8 -130 15 -33 6 -91 15 -130 19 -55 5 -85 15 -139 46 -131 73
-220 165 -203 208 3 8 23 17 45 19 70 10 181 50 207 75 13 14 32 23 42 21 16
-3 18 -13 14 -90 -4 -115 3 -144 39 -157 36 -12 45 -2 55 59 4 25 14 57 21 72
8 15 15 39 16 52 3 30 22 40 49 26 14 -8 17 -15 10 -28 -26 -51 -42 -92 -45
-113 -2 -13 -9 -36 -16 -51 -17 -36 -2 -73 34 -82 14 -3 42 -17 62 -31 20 -14
40 -25 43 -25 4 0 12 14 18 31 10 26 16 30 36 25 16 -4 28 1 40 15 16 18 16
21 -5 49 -21 28 -21 30 -4 49 14 15 15 24 7 40 -6 11 -11 31 -11 45 l0 25 113
-6 c97 -5 114 -4 126 11 7 9 19 16 25 16 15 0 60 -86 51 -99 -4 -7 -46 -11
-105 -11 -94 0 -134 -11 -90 -25 11 -4 18 -10 16 -14 -3 -4 3 -7 12 -8 9 0 53
-6 97 -13 58 -10 85 -19 97 -34 17 -20 18 -15 18 125 0 160 -3 169 -56 149
-32 -13 -101 -13 -109 -1 -11 18 36 33 81 26 68 -10 81 -2 82 50 0 50 13 44
-128 65 -36 5 -87 16 -115 23 -27 8 -94 26 -148 41 -54 14 -103 28 -108 32
-21 13 -6 19 39 16 43 -3 53 1 102 38 30 22 65 43 78 47 22 5 135 -1 235 -13
l47 -6 0 101 c0 85 -2 101 -16 101 -8 0 -65 -11 -126 -25 -120 -27 -158 -31
-158 -15 0 6 11 16 25 22 32 14 28 30 -10 34 -15 2 -31 8 -34 13 -4 6 -27 0
-61 -15 -76 -36 -295 -89 -323 -78 -23 8 -69 109 -92 199 -41 164 -8 297 97
385 25 22 58 45 73 52 23 10 24 14 12 23 -14 10 -14 15 0 43 19 39 37 31 30
-14 -3 -19 -4 -34 -1 -34 17 0 220 62 228 70 7 7 -7 10 -39 10 -82 1 -31 16
96 29 67 7 153 9 207 5 l92 -7 0 95 0 95 -56 -18 c-77 -26 -89 -37 -68 -60 24
-27 11 -49 -29 -49 -18 0 -59 -7 -90 -15 -91 -24 -97 -22 -82 22 8 24 27 46
56 66 24 16 55 39 69 52 54 49 140 74 140 40 0 -18 2 -18 35 -3 23 10 25 16
25 81 0 67 -1 69 -22 64 -13 -3 -41 -9 -63 -13 l-39 -7 51 45 c28 25 56 47 62
49 8 3 11 47 9 142 l-3 139 -22 -24z m-103 -223 c15 -18 5 -35 -21 -35 -24 0
-37 29 -18 41 19 12 25 11 39 -6z m-915 -235 c3 -6 -1 -13 -9 -16 -28 -11 -17
-19 25 -20 30 -1 48 -9 66 -27 25 -25 25 -25 4 -32 -30 -9 -26 -25 7 -25 15
-1 41 -7 57 -16 25 -12 26 -13 5 -8 -62 15 -93 16 -101 3 -6 -11 -11 -11 -21
-1 -6 6 -26 12 -42 12 -23 0 -27 3 -17 9 12 8 10 16 -12 45 -21 27 -24 37 -14
43 8 4 16 16 20 26 7 19 22 22 32 7z m-221 -196 l20 -14 -21 0 c-47 0 -82 12
-76 27 7 17 44 11 77 -13z m-5804 -54 c0 -5 -2 -10 -4 -10 -3 0 -8 5 -11 10
-3 6 -1 10 4 10 6 0 11 -4 11 -10z m225 0 c3 -5 1 -10 -4 -10 -6 0 -11 5 -11
10 0 6 2 10 4 10 3 0 8 -4 11 -10z m-138 -39 c-1 -31 -3 -36 -14 -25 -17 16
-17 51 0 57 6 3 13 6 14 6 1 1 1 -16 0 -38z m2242 -208 c-4 -131 -7 -392 -8
-580 0 -202 -5 -344 -10 -348 -6 -3 -8 85 -5 232 2 131 7 394 10 586 4 191 9
347 13 347 3 0 3 -107 0 -237z m274 181 l187 -29 0 -112 0 -112 -27 8 c-16 4
-63 8 -106 9 -43 1 -82 4 -87 7 -5 3 -22 -2 -37 -12 -23 -15 -26 -15 -15 -2
11 14 8 17 -19 23 -38 7 -58 -2 -38 -18 32 -25 20 -36 -41 -36 l-60 0 0 156 0
157 28 -6 c15 -2 111 -18 215 -33z m3357 26 c0 -5 -2 -10 -4 -10 -3 0 -8 5
-11 10 -3 6 -1 10 4 10 6 0 11 -4 11 -10z m-5925 -9 c3 -5 1 -12 -5 -16 -5 -3
-10 1 -10 9 0 18 6 21 15 7z m-108 -33 c-3 -8 -6 -5 -6 6 -1 11 2 17 5 13 3
-3 4 -12 1 -19z m5921 -25 c4 -10 16 -18 27 -18 14 0 19 -6 17 -19 -4 -19 14
-20 63 -1 18 7 18 6 5 -7 -18 -17 -89 -42 -97 -34 -3 3 0 12 6 20 14 17 0 29
-23 20 -11 -4 -14 -14 -9 -35 6 -32 -10 -39 -41 -16 -17 12 -17 15 5 60 25 50
35 57 47 30z m-2928 -112 l0 -97 -35 -1 -35 -1 0 102 0 102 35 -4 35 -4 0 -97z
m2380 62 c0 -18 -3 -17 -36 12 l-29 25 33 -12 c17 -7 32 -18 32 -25z m-5208
-16 c-7 -8 -9 -17 -5 -20 3 -4 1 -7 -5 -7 -7 0 -12 2 -12 5 0 10 24 44 29 40
2 -3 -1 -11 -7 -18z m3039 8 c57 -8 119 -17 137 -20 l32 -6 0 -80 0 -80 -61 3
c-41 2 -64 8 -70 18 -8 11 -11 12 -15 3 -11 -26 -103 -11 -105 16 0 10 -2 11
-6 4 -13 -34 -23 -4 -23 72 0 47 1 85 3 85 2 0 50 -7 108 -15z m-3161 -27 c0
-19 -16 -5 -17 14 -2 18 0 20 7 8 5 -8 10 -18 10 -22z m230 18 c0 -2 -7 -9
-15 -16 -13 -11 -14 -10 -9 4 5 14 24 23 24 12z m-405 -46 c4 -16 13 -30 21
-30 8 0 14 -7 14 -15 0 -8 -6 -15 -13 -15 -17 0 -49 39 -42 50 4 6 1 10 -4 10
-6 0 -11 7 -11 15 0 28 28 15 35 -15z m2026 -285 l-8 -290 -1 300 c-1 177 2
295 7 290 5 -6 6 -131 2 -300z m1567 222 c3 -72 1 -77 -18 -77 -18 0 -20 6
-20 81 0 71 2 80 18 77 14 -3 17 -16 20 -81z m216 63 c72 -12 140 -23 151 -25
16 -3 20 -13 22 -52 3 -78 3 -78 -134 -64 -65 6 -135 14 -155 17 l-38 6 0 69
c0 47 4 69 12 69 6 0 71 -9 142 -20z m-3774 -5 c-7 -9 -15 -13 -17 -11 -7 7 7
26 19 26 6 0 6 -6 -2 -15z m130 11 c0 -3 -4 -8 -10 -11 -5 -3 -10 -1 -10 4 0
6 5 11 10 11 6 0 10 -2 10 -4z m-195 -37 c16 -29 15 -31 -2 -27 -11 2 -19 14
-21 31 -4 35 4 34 23 -4z m6416 -26 c27 -25 48 -48 45 -50 -2 -2 -22 -1 -45 3
-32 5 -45 14 -62 40 -20 32 -19 54 2 54 5 0 32 -21 60 -47z m-6171 12 c0 -12
-19 -12 -23 0 -4 9 -1 12 9 8 7 -3 14 -7 14 -8z m-264 -33 c14 -35 1 -45 -16
-12 -8 15 -15 18 -28 11 -22 -12 -62 7 -41 20 8 5 17 3 21 -4 6 -9 11 -7 19 6
14 24 28 18 45 -21z m5664 23 c0 -8 11 -17 24 -21 13 -3 35 -17 48 -31 l23
-26 -40 26 c-22 14 -55 28 -72 32 -39 8 -45 35 -8 35 15 0 25 -6 25 -15z
m-5415 -23 c-3 -3 -11 0 -18 7 -9 10 -8 11 6 5 10 -3 15 -9 12 -12z m-160 -2
c3 -5 1 -10 -4 -10 -6 0 -11 5 -11 10 0 6 2 10 4 10 3 0 8 -4 11 -10z m4179 4
l46 -7 0 -70 c0 -67 -1 -69 -22 -62 -13 4 -44 12 -70 18 l-48 11 0 58 c0 65
-1 65 94 52z m-1474 -43 c0 -4 -11 -6 -25 -3 -14 2 -25 6 -25 8 0 2 11 4 25 4
14 0 25 -4 25 -9z m3426 -18 c4 -16 11 -34 17 -41 7 -9 7 -16 -1 -24 -12 -12
-42 38 -42 72 0 29 19 25 26 -7z m-3363 10 c-7 -2 -19 -2 -25 0 -7 3 -2 5 12
5 14 0 19 -2 13 -5z m3567 -41 c-15 -5 -40 17 -40 36 0 12 6 10 26 -9 14 -13
20 -25 14 -27z m-763 22 c-3 -3 -12 -4 -19 -1 -8 3 -5 6 6 6 11 1 17 -2 13 -5z
m-3040 -41 c-3 -10 -5 -4 -5 12 0 17 2 24 5 18 2 -7 2 -21 0 -30z m748 27 c3
-5 -1 -10 -9 -10 -9 0 -16 5 -16 10 0 6 4 10 9 10 6 0 13 -4 16 -10z m2236 -6
c7 -8 26 -22 43 -31 17 -9 25 -18 19 -20 -7 -3 -13 -8 -13 -13 0 -10 57 -40
79 -41 9 -1 5 -4 -9 -8 -19 -6 -31 -2 -50 15 -26 24 -26 24 -43 4 -26 -31 -49
-26 -41 8 5 20 4 24 -5 16 -6 -6 -14 -24 -17 -40 -5 -28 -33 -68 -41 -60 -3 2
3 18 12 36 16 31 16 32 -6 37 -18 5 -19 8 -8 17 16 13 53 76 44 76 -3 0 -3 5
0 10 9 14 21 12 36 -6z m449 -4 c0 -5 -7 -10 -15 -10 -8 0 -15 5 -15 10 0 6 7
10 15 10 8 0 15 -4 15 -10z m-5906 -24 c24 -20 26 -24 11 -30 -14 -5 -15 -9
-5 -21 15 -18 5 -20 -14 -3 -7 7 -11 21 -8 31 3 12 -2 20 -17 24 -11 3 -21 9
-21 14 0 16 27 9 54 -15z m3343 2 c-3 -8 -6 -5 -6 6 -1 11 2 17 5 13 3 -3 4
-12 1 -19z m37 7 c-4 -8 -10 -15 -15 -15 -4 0 -6 7 -3 15 4 8 10 15 15 15 4 0
6 -7 3 -15z m2313 -22 c13 -9 23 -21 23 -28 0 -7 12 -23 28 -34 41 -31 0 -27
-100 11 -26 10 -53 59 -40 73 9 8 63 -5 89 -22z m545 6 l47 -10 6 -57 c11
-109 44 -242 67 -269 6 -7 22 -13 37 -13 22 -1 21 -3 -13 -15 -68 -24 -127
-27 -230 -10 -104 17 -124 24 -145 49 -21 25 30 39 117 33 39 -3 72 -3 72 0 0
4 -13 27 -30 53 -56 87 -73 168 -47 223 13 28 32 38 57 30 8 -2 36 -9 62 -14z
m-6392 -19 c0 -5 -2 -10 -4 -10 -3 0 -8 5 -11 10 -3 6 -1 10 4 10 6 0 11 -4
11 -10z m2627 -37 c-3 -10 -5 -2 -5 17 0 19 2 27 5 18 2 -10 2 -26 0 -35z
m2888 41 c13 -5 14 -8 3 -15 -7 -5 -21 -9 -32 -9 -15 0 -16 3 -6 15 14 17 13
17 35 9z m-1617 -31 c3 -10 -12 -13 -55 -13 -54 1 -57 2 -38 16 23 17 86 15
93 -3z m2062 -8 c14 -25 7 -47 -9 -29 -14 14 -23 54 -13 54 5 0 15 -11 22 -25z
m-2437 -15 c-3 -11 -13 -20 -22 -20 -14 0 -14 2 -1 10 8 5 11 10 7 10 -11 0 2
20 13 20 4 0 6 -9 3 -20z m797 2 c0 -10 -3 -21 -6 -25 -4 -3 -7 -46 -7 -94 0
-48 -2 -81 -4 -72 -2 10 -15 16 -34 17 -17 0 -33 3 -36 6 -9 8 17 36 33 36 26
0 14 20 -21 37 -34 16 -47 42 -22 44 6 1 -1 4 -18 8 -21 4 -31 13 -33 28 -3
19 2 22 45 26 104 8 103 8 103 -11z m-1460 -23 c0 -5 -16 -9 -35 -9 -19 0 -35
4 -35 9 0 5 16 9 35 9 19 0 35 -4 35 -9z m71 1 c6 0 8 -4 5 -8 -7 -12 -66 -13
-66 -2 0 11 22 19 38 14 8 -2 18 -4 23 -4z m969 1 c0 -5 -7 -12 -16 -15 -34
-13 -94 -3 -94 15 0 5 25 9 55 9 30 0 55 -4 55 -9z m1230 -1 c0 -5 -5 -10 -11
-10 -5 0 -7 5 -4 10 3 6 8 10 11 10 2 0 4 -4 4 -10z m-2471 -92 l-1 -93 -15
35 c-9 19 -18 61 -21 93 -4 53 -3 57 17 57 20 0 21 -5 20 -92z m3431 71 l51
-11 -7 -56 c-4 -34 -14 -65 -25 -78 -23 -25 -24 -52 -3 -82 14 -20 14 -22 -4
-22 -10 0 -45 16 -78 36 -32 20 -78 48 -101 61 -64 37 -69 47 -41 82 12 17 27
30 31 30 5 1 21 10 36 20 14 10 37 21 51 24 14 2 28 5 32 6 4 0 30 -4 58 -10z
m-3335 -19 c-3 -5 -10 -10 -16 -10 -5 0 -9 5 -9 10 0 6 7 10 16 10 8 0 12 -4
9 -10z m-2842 -7 c-7 -2 -21 -2 -30 0 -10 3 -4 5 12 5 17 0 24 -2 18 -5z m82
-3 c4 -6 -6 -7 -27 -3 -44 8 -48 13 -10 13 17 0 34 -4 37 -10z m434 -16 c17
-4 31 -10 31 -15 0 -10 -61 0 -74 12 -12 11 -1 11 43 3z m-48 -73 c1 -9 1 -22
0 -30 -2 -8 3 -10 11 -5 7 4 9 3 5 -2 -4 -4 9 -13 30 -20 30 -9 34 -13 21 -19
-10 -4 -26 -4 -35 1 -10 4 -21 6 -25 6 -5 -1 -8 5 -8 13 0 8 -6 15 -14 15 -20
0 -26 12 -20 37 6 23 33 27 35 4z m2819 -81 c0 -65 -1 -70 -22 -70 -17 0 -19
3 -10 12 7 7 12 38 12 70 0 32 4 58 10 58 6 0 10 -30 10 -70z m289 64 c33 -4
61 -11 61 -16 0 -5 -4 -7 -9 -4 -5 3 -11 -17 -13 -45 -2 -37 1 -53 12 -60 9
-5 -31 -9 -105 -9 -66 -1 -130 -3 -142 -6 -22 -4 -23 -1 -23 71 l0 75 79 0
c43 0 106 -3 140 -6z m-262 -386 c-1 -73 -3 -16 -3 127 0 143 2 203 3 133 2
-70 2 -187 0 -260z m413 372 c0 -5 -9 -10 -20 -10 -11 0 -20 5 -20 10 0 6 9
10 20 10 11 0 20 -4 20 -10z m230 0 c0 -5 -11 -10 -25 -10 -22 0 -25 -5 -27
-37 l-1 -38 -4 38 c-3 28 -9 37 -23 37 -10 0 -22 5 -25 10 -4 6 15 10 49 10
31 0 56 -4 56 -10z m10 -334 c-8 -8 -10 -3 -6 19 2 17 6 98 7 180 l3 150 3
-169 c2 -113 0 -173 -7 -180z m50 334 c8 -5 11 -10 5 -10 -5 0 -17 5 -25 10
-8 5 -10 10 -5 10 6 0 17 -5 25 -10z m-3451 -9 c9 -6 5 -8 -13 -8 -15 0 -29 3
-32 8 -7 11 27 11 45 0z m4737 -22 c33 -18 73 -35 89 -39 26 -7 24 -8 -20 -9
-27 -1 -61 -4 -75 -7 -23 -5 -24 -4 -7 9 24 20 22 24 -17 37 -19 6 -40 18 -46
26 -21 24 12 17 76 -17z m654 12 c0 -4 24 -18 53 -31 28 -12 47 -24 40 -27 -6
-2 -37 10 -69 27 -70 37 -73 40 -46 40 12 0 22 -4 22 -9z m-5511 -17 c7 5 9 1
5 -8 -3 -9 -12 -16 -19 -16 -8 0 -11 -8 -8 -20 3 -11 0 -20 -6 -20 -13 0 -13
6 -5 50 4 19 10 27 14 20 4 -7 13 -10 19 -6z m-429 -4 c0 -5 -4 -10 -10 -10
-5 0 -10 5 -10 10 0 6 5 10 10 10 6 0 10 -4 10 -10z m3073 -9 c35 -1 47 -5 47
-16 0 -13 -24 -15 -160 -15 -125 0 -160 -3 -160 -13 0 -21 22 -37 50 -36 l25
1 -25 8 c-17 5 1 8 55 8 75 0 207 -14 157 -17 -13 0 -20 -5 -17 -11 3 -5 -1
-10 -9 -10 -9 0 -16 -5 -16 -11 0 -8 -13 -9 -42 -4 -24 4 -56 9 -73 11 -16 2
-42 6 -57 9 -26 4 -26 3 -21 -33 3 -20 10 -42 15 -49 6 -7 4 -13 -4 -16 -30
-10 1 -15 46 -6 76 14 93 6 98 -47 2 -24 0 -44 -4 -44 -5 0 -8 16 -8 36 0 33
-2 36 -22 30 -13 -3 -42 -6 -65 -6 -48 0 -60 -13 -66 -74 l-4 -37 53 5 c41 4
54 1 58 -11 5 -13 22 -15 101 -11 61 2 94 0 92 -6 -2 -6 -46 -20 -98 -33 -196
-48 -221 -55 -207 -64 7 -5 9 -9 3 -9 -5 0 -3 -5 5 -10 25 -16 76 -11 176 15
136 36 150 36 126 -2 -8 -12 -133 -31 -247 -37 -33 -2 -90 -7 -127 -11 l-66
-8 -7 54 c-7 58 1 172 13 177 30 11 48 56 32 82 -7 12 -12 12 -22 2 -9 -9 -9
-12 5 -12 24 0 21 -17 -3 -23 -19 -5 -20 0 -20 123 l0 128 173 -3 c94 -1 193
-3 220 -4z m-812 -14 c-1 -4 -2 -40 -3 -79 -1 -53 -3 -61 -5 -28 -3 24 -10 48
-16 53 -9 7 -9 10 1 14 6 2 12 9 12 14 0 6 -4 7 -10 4 -11 -7 -14 18 -3 29 8
8 25 3 24 -7z m3479 -21 c0 -30 -3 -34 -30 -38 -17 -3 -30 0 -30 6 0 9 49 66
57 66 2 0 3 -15 3 -34z m-1446 13 c3 -2 -6 -9 -20 -16 -21 -10 -24 -9 -24 8 0
13 6 18 20 16 11 -2 22 -5 24 -8z m63 5 c-3 -3 -12 -4 -19 -1 -8 3 -5 6 6 6
11 1 17 -2 13 -5z m-3724 -12 c3 7 6 0 6 -15 1 -31 -12 -28 -31 6 -10 19 -9
20 4 9 13 -10 17 -10 21 0z m137 -22 c0 -5 -5 -10 -11 -10 -5 0 -7 5 -4 10 3
6 8 10 11 10 2 0 4 -4 4 -10z m2438 -7 c-5 -26 -38 -29 -38 -4 0 15 6 21 21
21 14 0 19 -5 17 -17z m2112 -14 c0 -11 -3 -11 -24 -3 -23 9 -20 23 4 17 11
-3 20 -9 20 -14z m-1003 -33 c-2 -34 1 -40 21 -45 13 -3 23 -10 22 -15 -1 -5
2 -12 7 -15 5 -3 7 -32 5 -63 l-4 -58 -33 0 c-18 0 -47 -3 -65 -6 l-32 -7 4
116 c2 73 7 112 13 106 12 -12 45 -12 45 1 0 6 -4 10 -10 10 -5 0 -10 4 -10 9
0 6 9 9 20 8 17 -1 19 -8 17 -41z m-3832 4 c-3 -5 -14 -10 -23 -9 -14 0 -13 2
3 9 27 11 27 11 20 0z m5865 -4 c19 -7 36 -20 38 -29 3 -14 -6 -17 -55 -16
-80 1 -107 10 -111 37 -3 20 1 22 45 21 26 0 64 -6 83 -13z m-5667 -13 c18 -6
24 -23 8 -23 -21 0 -61 20 -61 31 0 7 7 8 18 4 9 -4 25 -10 35 -12z m2952
-271 c-3 -7 -9 -10 -15 -7 -5 3 -45 2 -87 -4 -43 -6 -106 -12 -140 -15 l-63
-6 0 90 c0 50 3 90 8 91 4 0 16 2 27 4 11 2 50 5 88 7 85 3 104 13 39 22 -28
4 -52 11 -54 16 -2 6 -23 14 -48 18 -31 5 -46 13 -48 25 -3 15 10 17 142 17
132 0 146 2 148 18 1 9 4 -46 5 -123 2 -76 1 -145 -2 -153z m2055 278 c0 -5
-7 -7 -15 -4 -8 4 -15 8 -15 10 0 2 7 4 15 4 8 0 15 -4 15 -10z m1195 -6 c23
-24 13 -39 -27 -40 -19 -1 -40 -4 -45 -7 -16 -10 -47 18 -40 36 3 9 21 17 39
20 18 2 38 5 45 5 6 1 19 -5 28 -14z m-1335 -36 c0 -13 -43 15 -48 31 -3 9 5
7 22 -4 14 -10 26 -22 26 -27z m-4798 17 c0 -5 -5 -11 -11 -13 -6 -2 -11 4
-11 13 0 9 5 15 11 13 6 -2 11 -8 11 -13z m-180 -13 c7 -10 32 -29 56 -42 24
-14 39 -26 33 -28 -5 -2 -19 2 -30 8 -14 7 -21 7 -21 0 0 -19 -19 -10 -22 12
-2 12 -16 28 -35 37 -18 9 -33 19 -33 24 0 15 39 6 52 -11z m3158 -9 c0 -15 9
-37 21 -49 18 -19 20 -29 13 -66 -4 -24 -7 -49 -5 -55 5 -31 -20 -53 -59 -53
l-40 0 1 125 1 125 34 0 c30 0 34 -3 34 -27z m-3235 7 c-3 -5 -12 -7 -20 -3
-21 7 -19 13 6 13 11 0 18 -4 14 -10z m290 0 c3 -5 1 -10 -4 -10 -6 0 -11 5
-11 10 0 6 2 10 4 10 3 0 8 -4 11 -10z m-118 -17 c0 -14 -8 -16 -31 -7 -23 9
-19 19 7 19 13 0 24 -6 24 -12z m48 -3 c13 -6 15 -9 5 -9 -8 0 -22 4 -30 9
-18 12 -2 12 25 0z m4669 -11 c13 -16 26 -20 52 -17 19 2 34 2 34 1 0 -11 -91
-43 -123 -43 -21 0 -50 -8 -65 -17 -26 -17 -26 -17 -13 0 14 18 2 24 -15 7 -6
-6 -8 4 -6 30 4 44 16 57 35 42 8 -7 20 -6 37 3 34 19 43 18 64 -6z m390 8
c16 -12 16 -15 -8 -50 -14 -20 -22 -37 -18 -37 4 0 0 -5 -10 -10 -9 -6 -30 -7
-47 -4 -26 5 -29 9 -19 21 9 11 9 16 -1 23 -9 5 -10 9 -2 14 6 4 9 12 6 17 -4
5 -2 9 4 9 5 0 11 -5 13 -12 7 -19 38 -1 38 22 0 23 18 26 44 7z m-5219 -15
c-3 -3 -11 0 -18 7 -9 10 -8 11 6 5 10 -3 15 -9 12 -12z m5665 3 c0 -3 -7 -16
-16 -30 -10 -16 -31 -27 -65 -34 -94 -20 -139 -53 -139 -100 0 -10 -11 -23
-25 -29 -43 -20 -29 20 34 97 23 28 57 54 96 73 53 25 115 37 115 23z m-6060
-25 c0 -5 -5 -10 -11 -10 -5 0 -7 5 -4 10 3 6 8 10 11 10 2 0 4 -4 4 -10z
m288 4 c12 -4 22 -10 22 -14 0 -10 -49 0 -56 11 -6 10 2 11 34 3z m129 0 c-3
-3 -12 -4 -19 -1 -8 3 -5 6 6 6 11 1 17 -2 13 -5z m2448 -54 c-3 -5 -11 -10
-16 -10 -6 0 -7 5 -4 10 3 6 11 10 16 10 6 0 7 -4 4 -10z m245 -74 c0 -94 -4
-100 -67 -110 l-42 -6 1 82 c0 46 -1 88 -2 93 -5 20 1 22 55 24 l55 1 0 -84z
m-133 22 c-2 -13 -4 -5 -4 17 -1 22 1 32 4 23 2 -10 2 -28 0 -40z m2329 20
c17 -18 38 -46 48 -61 16 -26 19 -27 34 -14 30 26 61 30 99 12 30 -15 33 -19
20 -27 -22 -12 -22 -47 -1 -55 9 -3 24 -1 33 5 22 16 89 52 96 52 13 0 -51
-46 -98 -70 -26 -14 -62 -39 -80 -57 -18 -18 -37 -33 -42 -33 -17 0 -36 -39
-30 -63 7 -28 -17 -52 -60 -60 -33 -6 -67 8 -50 21 6 4 10 14 10 22 0 16 4 16
48 6 15 -4 27 -2 27 3 0 15 -69 31 -130 30 -30 -1 -46 -3 -35 -6 39 -10 40
-23 1 -23 -29 0 -37 3 -33 14 5 12 -2 14 -31 10 -34 -4 -35 -4 -12 7 14 6 31
14 39 18 13 6 59 129 61 159 0 17 -55 15 -91 -4 -34 -17 -48 -12 -30 10 6 7
36 17 66 21 42 5 58 12 66 28 12 21 11 21 -8 5 -11 -10 -29 -18 -40 -18 -34 0
-17 35 23 49 19 7 40 21 47 32 16 25 18 25 53 -13z m1414 -9 c0 -12 -118 -47
-215 -64 -83 -14 -143 -9 -185 18 -29 17 -25 30 8 24 44 -9 283 10 327 26 40
14 65 13 65 -4z m-6395 1 c-27 -12 -35 -12 -35 0 0 6 12 10 28 9 24 0 25 -1 7
-9z m2502 -42 c-3 -7 -5 -2 -5 12 0 14 2 19 5 13 2 -7 2 -19 0 -25z m1113 28
c0 -2 -9 -6 -20 -9 -11 -3 -20 -1 -20 4 0 5 9 9 20 9 11 0 20 -2 20 -4z m-305
-46 c-3 -5 -13 -10 -21 -10 -8 0 -14 5 -14 10 0 6 9 10 21 10 11 0 17 -4 14
-10z m131 -17 c-5 -6 -116 -21 -116 -16 0 11 65 29 91 25 16 -2 28 -6 25 -9z
m67 10 c-7 -2 -21 -2 -30 0 -10 3 -4 5 12 5 17 0 24 -2 18 -5z m1247 -23 c0
-5 -4 -10 -10 -10 -5 0 -10 5 -10 10 0 6 5 10 10 10 6 0 10 -4 10 -10z m-1583
-22 c-3 -8 -6 -5 -6 6 -1 11 2 17 5 13 3 -3 4 -12 1 -19z m1013 2 c0 -5 -7
-10 -15 -10 -8 0 -15 5 -15 10 0 6 7 10 15 10 8 0 15 -4 15 -10z m1252 -36
c-14 -24 -21 -3 -9 26 8 20 11 22 14 8 2 -10 0 -25 -5 -34z m-922 17 c0 -4
-11 -6 -25 -3 -14 2 -25 6 -25 8 0 2 11 4 25 4 14 0 25 -4 25 -9z m345 -20
c-3 -12 -13 -21 -21 -21 -9 0 -12 5 -8 13 23 40 41 46 29 8z m-4768 -113 c-2
-13 -4 -3 -4 22 0 25 2 35 4 23 2 -13 2 -33 0 -45z m4708 52 c3 -5 -1 -10 -10
-10 -9 0 -13 5 -10 10 3 6 8 10 10 10 2 0 7 -4 10 -10z m-68 -26 c-3 -3 -12
-4 -19 -1 -8 3 -5 6 6 6 11 1 17 -2 13 -5z m-32 -84 c-55 -25 -69 -25 -55 0 8
15 20 20 53 19 l42 0 -40 -19z m2190 -71 c0 -7 -8 -15 -17 -17 -18 -3 -25 18
-11 32 10 10 28 1 28 -15z m-2095 -7 c0 -20 -231 -104 -246 -90 -5 6 172 78
191 78 9 0 13 5 10 10 -4 6 5 10 19 10 14 0 26 -4 26 -8z m-5273 -28 c-3 -3
-12 -4 -19 -1 -8 3 -5 6 6 6 11 1 17 -2 13 -5z m5493 1 c0 -28 -152 -216 -165
-204 -3 4 6 20 20 37 14 16 25 36 25 44 0 8 11 20 25 26 14 6 25 18 25 26 0 7
7 16 15 20 8 3 20 17 27 31 10 22 28 35 28 20z m-50 -222 c0 -7 -4 -13 -10
-13 -5 0 -10 12 -10 28 0 21 2 24 10 12 5 -8 10 -21 10 -27z m-5077 -10 c-7
-2 -19 -2 -25 0 -7 3 -2 5 12 5 14 0 19 -2 13 -5z m5437 -8 c20 -24 5 -28 -21
-6 -19 16 -20 20 -8 21 9 0 22 -7 29 -15z m-5273 -1 c-3 -3 -12 -4 -19 -1 -8
3 -5 6 6 6 11 1 17 -2 13 -5z m6600 -11 c3 -10 17 -33 30 -50 l24 -33 -28 0
c-57 0 -94 55 -61 88 17 17 28 15 35 -5z m-6807 -3 c-8 -5 -19 -10 -25 -10 -5
0 -3 5 5 10 8 5 20 10 25 10 6 0 3 -5 -5 -10z m5138 -58 c-14 -16 -28 2 -28
37 l0 23 19 -23 c14 -18 16 -27 9 -37z m-5065 1 c-7 -2 -19 -2 -25 0 -7 3 -2
5 12 5 14 0 19 -2 13 -5z m66 -14 c-7 -4 -17 -5 -22 -2 -5 3 -3 9 4 14 7 4 17
5 22 2 5 -3 3 -9 -4 -14z m5435 -17 c6 -18 33 -55 60 -82 27 -28 46 -53 43
-56 -3 -4 -35 -1 -70 5 -35 6 -80 11 -99 11 -20 0 -46 9 -61 20 -14 11 -32 20
-40 20 -47 0 -4 55 75 97 56 30 78 26 92 -15z m-5694 18 c10 -6 6 -9 -18 -8
-17 1 -29 5 -26 10 7 11 25 10 44 -2z m6067 -12 c22 -24 39 -78 25 -78 -18 0
-42 27 -57 63 -12 30 -13 37 -2 37 7 0 23 -10 34 -22z m-5867 1 c-27 -12 -97
-23 -89 -15 6 7 78 24 99 24 8 1 4 -4 -10 -9z m-276 -14 c-10 -8 -23 -14 -29
-14 -5 0 -1 6 9 14 11 8 24 15 30 15 5 0 1 -7 -10 -15z m5336 5 c0 -5 -2 -10
-4 -10 -3 0 -8 5 -11 10 -3 6 -1 10 4 10 6 0 11 -4 11 -10z m1138 -58 c12 -7
22 -21 22 -32 0 -14 9 -21 35 -26 37 -7 58 -24 29 -24 -21 0 -199 93 -238 125
-29 23 -29 23 50 -4 43 -15 89 -33 102 -39z m-6441 42 c-3 -3 -12 -4 -19 -1
-8 3 -5 6 6 6 11 1 17 -2 13 -5z m154 -19 c-39 -17 -51 -19 -51 -6 0 10 27 17
65 19 13 1 8 -4 -14 -13z m99 5 c0 -5 -10 -10 -22 -10 -19 0 -20 2 -8 10 19
13 30 13 30 0z m-295 -10 c-3 -5 -11 -10 -16 -10 -6 0 -7 5 -4 10 3 6 11 10
16 10 6 0 7 -4 4 -10z m6615 -14 c0 -8 -4 -17 -10 -21 -15 -9 0 -35 31 -51 16
-8 29 -21 29 -29 0 -11 -8 -9 -35 8 -19 12 -34 27 -35 34 0 6 -3 13 -7 15 -5
2 -19 15 -32 31 l-24 27 41 0 c30 0 42 -4 42 -14z m-6695 -16 c-3 -5 -10 -10
-16 -10 -5 0 -9 5 -9 10 0 6 7 10 16 10 8 0 12 -4 9 -10z m5244 -37 c1 -7 -10
-13 -24 -13 -29 0 -32 16 -8 42 17 19 18 19 24 1 4 -10 8 -24 8 -30z m935 24
c6 -9 7 -19 3 -23 -9 -9 -37 15 -37 33 0 18 20 12 34 -10z m-655 -21 c9 -11 7
-15 -11 -20 -13 -3 -26 -6 -30 -6 -13 0 -9 28 5 33 20 9 24 8 36 -7z m-159
-67 c0 -5 -6 -6 -14 -3 -17 6 -27 40 -19 61 4 11 10 6 19 -17 8 -18 14 -36 14
-41z m-314 24 c3 -10 10 -27 16 -38 8 -14 8 -20 -1 -23 -6 -2 -18 -10 -25 -18
-37 -37 -65 38 -29 78 20 23 32 23 39 1z m-91 -23 c25 -48 20 -67 -19 -68 -40
-2 -50 19 -31 64 13 30 19 25 29 -26 2 -14 4 -6 3 18 -2 23 -1 42 0 42 1 0 9
-13 18 -30z m265 5 c7 -8 17 -12 22 -8 6 3 8 0 4 -8 -3 -8 -9 -21 -12 -30 -9
-26 -45 -40 -79 -31 -41 11 -39 40 4 69 40 27 45 28 61 8z m1410 5 c0 -5 -6
-10 -14 -10 -8 0 -18 5 -21 10 -3 6 3 10 14 10 12 0 21 -4 21 -10z m-1747 -69
c3 -11 -1 -25 -9 -32 -12 -9 -14 -5 -14 25 0 38 14 42 23 7z m1468 9 c38 -20
39 -22 33 -58 -12 -69 -20 -68 -98 3 -56 52 -61 69 -14 44 15 -8 19 -8 14 0
-4 6 -2 11 4 11 6 0 8 5 5 10 -10 16 12 12 56 -10z m-1054 -22 c-3 -8 -6 -5
-6 6 -1 11 2 17 5 13 3 -3 4 -12 1 -19z m743 -18 c0 -5 -7 -7 -15 -4 -8 4 -15
8 -15 10 0 2 7 4 15 4 8 0 15 -4 15 -10z m-1269 -45 c23 -13 27 -18 17 -29 -9
-9 -23 -11 -52 -4 -58 13 -82 31 -31 23 37 -5 39 -4 21 10 -18 13 -18 15 -2
15 9 0 30 -7 47 -15z m508 6 c16 -10 6 -31 -14 -31 -17 0 -28 17 -20 30 8 12
16 12 34 1z m-4412 -37 c-3 -3 -12 -4 -19 -1 -8 3 -5 6 6 6 11 1 17 -2 13 -5z
m5475 -51 c27 -24 22 -33 -19 -33 -27 0 -34 3 -26 11 6 6 9 18 6 25 -7 19 17
18 39 -3z m-452 -15 c21 -15 26 -24 18 -29 -10 -7 -10 -11 0 -21 17 -17 15
-48 -3 -48 -9 0 -32 10 -53 23 -20 12 -46 27 -56 33 -32 17 -30 33 6 49 45 19
54 19 88 -7z m647 6 c-3 -3 -12 -4 -19 -1 -8 3 -5 6 6 6 11 1 17 -2 13 -5z
m-47 -17 c0 -7 -6 -25 -12 -40 -10 -20 -18 -25 -33 -21 -42 13 -47 25 -20 50
28 26 65 32 65 11z m-460 -37 c10 -10 24 -20 31 -22 8 -3 11 -9 7 -13 -4 -4
-21 -2 -38 5 -17 7 -41 13 -53 14 -12 0 -23 8 -25 16 -4 22 56 22 78 0z m-377
-10 c3 -11 3 -20 1 -20 -2 0 -8 9 -14 20 -6 11 -7 20 -2 20 6 0 12 -9 15 -20z
m577 -29 c0 -6 -4 -13 -10 -16 -16 -10 -12 -36 8 -51 9 -8 12 -14 5 -14 -18 0
-63 52 -63 72 0 13 8 18 30 18 17 0 30 -4 30 -9z m-6210 -15 c0 -16 -53 -32
-58 -18 -1 5 -15 7 -30 4 -15 -3 -24 -1 -20 3 7 7 61 21 96 24 6 0 12 -5 12
-13z m135 4 c-28 -12 -37 -12 -30 0 3 6 16 10 28 9 21 0 21 -1 2 -9z m153 -2
c-7 -20 -79 -40 -118 -32 l-35 6 54 14 c30 8 57 17 60 19 10 11 42 4 39 -7z
m-241 -24 c-3 -3 -12 -4 -19 -1 -8 3 -5 6 6 6 11 1 17 -2 13 -5z m278 -14 c-3
-5 -11 -10 -16 -10 -6 0 -7 5 -4 10 3 6 11 10 16 10 6 0 7 -4 4 -10z m-285
-20 c-20 -13 -33 -13 -25 0 3 6 14 10 23 10 15 0 15 -2 2 -10z m95 1 c-6 -5
-21 -12 -35 -15 -24 -7 -24 -6 -6 8 21 17 57 23 41 7z m5945 -11 c6 -11 8 -20
6 -20 -3 0 -10 9 -16 20 -6 11 -8 20 -6 20 3 0 10 -9 16 -20z m761 -11 c63
-19 74 -28 70 -53 -3 -16 30 -44 74 -61 39 -15 46 -21 55 -58 6 -23 17 -54 26
-70 14 -25 14 -28 -1 -33 -29 -12 -124 4 -153 25 -60 42 -122 108 -137 143
-14 36 -21 128 -9 128 3 0 37 -9 75 -21z m-6941 1 c-8 -5 -19 -10 -25 -10 -5
0 -3 5 5 10 8 5 20 10 25 10 6 0 3 -5 -5 -10z m380 1 c0 -8 -52 -31 -71 -31
-20 0 -7 19 19 28 35 13 52 14 52 3z m-273 -17 c-3 -3 -12 -4 -19 -1 -8 3 -5
6 6 6 11 1 17 -2 13 -5z m7213 -20 c5 -5 11 -25 12 -44 3 -32 1 -35 -22 -32
-61 7 -170 61 -170 85 0 12 167 4 180 -9z m-4020 -33 c0 -10 -42 -23 -49 -15
-7 6 20 24 37 24 6 0 12 -4 12 -9z m1475 -61 c3 -5 2 -10 -4 -10 -5 0 -13 5
-16 10 -3 6 -2 10 4 10 5 0 13 -4 16 -10z m-4669 -15 c-25 -19 -36 -19 -36 0
0 10 10 15 28 15 26 -1 26 -1 8 -15z m1514 0 c-14 -17 -40 -20 -40 -6 0 8 18
16 44 20 5 0 3 -6 -4 -14z m-100 -35 c-19 -12 -30 -12 -30 -1 0 10 31 20 40
14 2 -2 -2 -8 -10 -13z m-1505 0 c-3 -5 -11 -10 -16 -10 -6 0 -7 5 -4 10 3 6
11 10 16 10 6 0 7 -4 4 -10z m60 0 c-3 -5 -11 -10 -16 -10 -6 0 -7 5 -4 10 3
6 11 10 16 10 6 0 7 -4 4 -10z m2870 0 c-3 -5 -11 -10 -16 -10 -6 0 -7 5 -4
10 3 6 11 10 16 10 6 0 7 -4 4 -10z m-2525 -8 c0 -7 -79 -52 -92 -52 -20 0 -4
22 30 39 39 21 62 26 62 13z m-114 -17 c-11 -8 -27 -15 -35 -14 -9 0 -2 7 14
14 39 18 45 18 21 0z m1401 -7 c-3 -8 -6 -5 -6 6 -1 11 2 17 5 13 3 -3 4 -12
1 -19z m1098 8 c15 -8 34 -12 41 -9 8 3 14 2 14 -1 0 -8 -105 -56 -122 -56 -7
0 -6 5 2 15 7 9 11 18 8 20 -10 10 -33 -5 -53 -35 -11 -16 -27 -31 -37 -33
-42 -11 -1 44 60 83 55 35 52 34 87 16z m-2649 -35 c-4 -5 -1 -12 4 -14 6 -3
5 -4 -2 -3 -15 3 -23 26 -8 26 6 0 9 -4 6 -9z m3824 -1 c0 -5 -5 -10 -11 -10
-5 0 -7 5 -4 10 3 6 8 10 11 10 2 0 4 -4 4 -10z m-2060 -10 c0 -5 -8 -10 -17
-10 -15 0 -16 2 -3 10 19 12 20 12 20 0z m714 -32 c-17 -18 -65 -48 -79 -48
-3 0 -5 5 -5 11 0 12 38 45 74 66 28 15 34 -2 10 -29z m3904 20 c19 -19 15
-72 -7 -85 -20 -13 -36 -1 -60 44 -17 33 -14 41 17 46 15 2 29 5 33 6 3 0 10
-4 17 -11z m-6322 -19 c-25 -20 -77 -39 -105 -39 -25 0 1 19 55 40 64 25 83
25 50 -1z m3772 -18 c5 -30 -18 -24 -29 8 -7 18 -6 22 9 19 9 -2 19 -14 20
-27z m-3882 4 c-19 -15 -46 -20 -46 -10 0 6 40 24 55 24 6 0 1 -6 -9 -14z
m322 -7 c-6 -18 -87 -58 -117 -58 -19 0 -22 3 -14 11 6 6 9 17 6 24 -6 16 30
29 57 20 11 -3 28 -2 37 4 24 14 35 14 31 -1z m3612 -55 c0 -20 -18 -15 -30 6
-15 28 -12 33 10 19 11 -7 20 -18 20 -25z m-3590 17 c0 -10 -41 -30 -61 -30
-20 0 -8 19 19 28 36 14 42 14 42 2z m2105 0 c7 -11 -54 -45 -63 -35 -7 7 34
45 49 45 4 0 10 -4 14 -10z m-2031 -15 c-4 -8 -10 -15 -15 -15 -5 0 -9 -9 -9
-20 0 -11 -11 -25 -27 -33 -29 -15 -117 -38 -130 -35 -21 4 -88 -17 -104 -33
-11 -11 -29 -19 -41 -19 -12 0 -41 -12 -65 -26 -24 -14 -51 -24 -61 -22 -11 3
5 16 45 36 35 18 66 31 70 30 15 -4 53 13 48 21 -2 5 -17 6 -32 4 -27 -4 -27
-3 7 16 19 11 42 20 51 21 9 0 36 9 60 20 24 11 65 20 92 20 29 0 46 4 45 11
-3 9 18 21 69 38 1 1 0 -6 -3 -14z m1253 -1 c2 -6 -8 -16 -22 -22 -14 -6 -25
-7 -25 -2 0 5 9 12 21 15 11 4 18 9 15 12 -3 3 -21 -4 -41 -16 -44 -26 -69
-17 -28 10 29 20 74 22 80 3z m-1538 2 c-9 -10 -116 -46 -134 -46 -38 0 9 31
61 39 61 11 79 12 73 7z m2059 -25 c-15 -24 -52 -45 -69 -39 -8 3 3 15 26 31
47 32 60 34 43 8z m-2118 -25 c0 -2 -7 -7 -16 -10 -8 -3 -12 -2 -9 4 6 10 25
14 25 6z m360 -22 c0 -4 -8 -13 -17 -20 -10 -7 -15 -16 -10 -20 4 -4 13 -2 19
4 7 7 26 12 43 12 l30 -1 -38 -20 c-29 -15 -42 -17 -52 -9 -9 8 -19 8 -32 1
-94 -52 -106 -40 -20 21 49 34 77 46 77 32z m1948 -3 c10 -6 5 -12 -18 -21
-22 -9 -34 -10 -42 -2 -24 24 27 44 60 23z m-1819 -30 c-24 -19 -103 -61 -114
-61 -17 0 13 24 63 50 66 34 85 38 51 11z m-513 -27 c-11 -8 -26 -14 -33 -14
-8 0 -31 -9 -53 -20 -22 -11 -47 -20 -57 -20 -28 1 22 35 72 50 22 7 49 16 60
20 28 10 34 1 11 -16z m4164 11 c0 -8 -4 -15 -10 -15 -5 0 -10 7 -10 15 0 8 5
15 10 15 6 0 10 -7 10 -15z m-2142 -7 c-3 -7 -12 -14 -21 -16 -12 -2 -15 1
-11 12 7 19 38 22 32 4z m-408 -8 c0 -12 -40 -33 -48 -25 -4 4 2 13 12 21 23
16 36 18 36 4z m273 3 c-7 -2 -19 -2 -25 0 -7 3 -2 5 12 5 14 0 19 -2 13 -5z
m-1699 -39 c-15 -19 -46 -45 -68 -56 -23 -11 -48 -27 -57 -35 -10 -8 -37 -16
-60 -18 -24 -2 -57 -8 -72 -14 -37 -14 -70 -14 -65 1 8 22 72 49 108 45 30 -3
39 1 60 27 l25 31 -36 -23 c-39 -23 -49 -27 -49 -14 0 8 52 39 89 53 21 8 22
8 12 -5 -11 -13 -9 -14 16 -7 15 5 44 18 63 30 53 32 65 26 34 -15z m1606 16
c0 -5 -4 -10 -10 -10 -5 0 -10 5 -10 10 0 6 5 10 10 10 6 0 10 -4 10 -10z m83
-7 c-7 -2 -19 -2 -25 0 -7 3 -2 5 12 5 14 0 19 -2 13 -5z m-1557 -39 c-28 -24
-45 -27 -31 -4 6 10 41 28 55 29 3 0 -8 -11 -24 -25z m1714 17 c0 -12 -54 -51
-69 -51 -36 0 21 55 62 59 4 1 7 -3 7 -8z m2710 -7 c0 -8 -5 -12 -10 -9 -6 4
-8 11 -5 16 9 14 15 11 15 -7z m-2690 -27 c0 -12 -12 -21 -62 -45 -5 -2 -8 1
-8 7 0 7 8 15 18 18 9 4 23 13 30 20 17 16 22 16 22 0z m2050 -23 c0 -8 -4
-12 -10 -9 -5 3 -10 10 -10 16 0 5 5 9 10 9 6 0 10 -7 10 -16z m-4220 0 c0
-12 -35 -33 -55 -33 -19 0 -19 1 4 19 22 19 51 27 51 14z m4294 -24 c7 0 23
-11 36 -25 28 -30 11 -34 -38 -9 -24 12 -31 21 -28 37 6 32 8 34 13 15 2 -10
10 -18 17 -18z m-2624 6 c0 -3 -4 -8 -10 -11 -5 -3 -10 -1 -10 4 0 6 5 11 10
11 6 0 10 -2 10 -4z m4961 -19 c9 -7 19 -22 23 -35 6 -18 4 -22 -12 -22 -29 0
-67 34 -59 53 7 20 26 21 48 4z m-3511 -11 c0 -3 -4 -8 -10 -11 -5 -3 -10 -1
-10 4 0 6 5 11 10 11 6 0 10 -2 10 -4z m-2990 -26 c0 -13 -74 -50 -100 -50
-49 0 -5 38 60 51 19 4 36 7 38 8 1 0 2 -3 2 -9z m3135 0 c3 -5 2 -10 -4 -10
-5 0 -13 5 -16 10 -3 6 -2 10 4 10 5 0 13 -4 16 -10z m1207 -7 c17 -15 25 -43
13 -43 -11 0 -65 44 -65 52 0 14 33 9 52 -9z m315 -35 c-3 -8 -6 -5 -6 6 -1
11 2 17 5 13 3 -3 4 -12 1 -19z"/>
<path d="M6482 3280 c-14 -23 -15 -30 -3 -30 8 0 24 41 18 47 -2 1 -8 -7 -15
-17z"/>
<path d="M2860 2796 c0 -2 7 -7 16 -10 8 -3 12 -2 9 4 -6 10 -25 14 -25 6z"/>
<path d="M5797 2679 c7 -7 15 -10 18 -7 3 3 -2 9 -12 12 -14 6 -15 5 -6 -5z"/>
<path d="M4420 2580 c0 -5 5 -10 10 -10 6 0 10 5 10 10 0 6 -4 10 -10 10 -5 0
-10 -4 -10 -10z"/>
<path d="M6183 2553 c-4 -10 -11 -21 -16 -24 -5 -4 -3 -15 4 -28 10 -14 20
-19 34 -15 26 8 26 9 26 30 -1 44 -5 54 -23 54 -10 0 -22 -8 -25 -17z"/>
<path d="M525 2450 c-3 -5 1 -10 10 -10 9 0 13 5 10 10 -3 6 -8 10 -10 10 -2
0 -7 -4 -10 -10z"/>
<path d="M2835 2290 c3 -5 8 -10 11 -10 2 0 4 5 4 10 0 6 -5 10 -11 10 -5 0
-7 -4 -4 -10z"/>
<path d="M2851 2204 c0 -11 3 -14 6 -6 3 7 2 16 -1 19 -3 4 -6 -2 -5 -13z"/>
<path d="M2865 2130 c1 -11 4 -23 8 -26 12 -12 8 -22 -10 -27 -11 -3 -7 -5 10
-6 25 -1 27 2 22 20 -5 15 -4 19 4 15 7 -5 11 3 10 21 0 25 -1 26 -9 8 -7 -17
-9 -17 -9 -2 -1 9 -7 17 -14 17 -8 0 -13 -9 -12 -20z"/>
<path d="M5438 2186 c-21 -16 -13 -26 19 -26 25 0 26 1 17 24 -7 19 -14 20
-36 2z"/>
<path d="M5526 2034 c-12 -31 -6 -44 19 -44 14 0 25 -4 25 -10 0 -5 -13 -10
-30 -10 -38 0 -37 -6 1 -53 l31 -38 24 22 23 22 -19 25 c-11 13 -20 31 -20 38
0 8 -4 14 -10 14 -5 0 -12 11 -16 25 -7 28 -19 32 -28 9z"/>
<path d="M5640 1964 c6 -14 10 -37 10 -51 0 -21 2 -24 15 -13 15 12 21 4 16
-23 -1 -5 3 -6 9 -2 5 3 10 15 10 26 0 10 5 19 10 19 6 0 10 -5 10 -11 0 -8 5
-7 16 1 13 12 13 15 0 28 -8 8 -26 15 -41 15 -17 0 -25 4 -21 12 3 8 -2 16
-10 19 -28 11 -34 6 -24 -20z"/>
<path d="M5612 1878 c-14 -14 -16 -48 -3 -48 9 0 25 49 18 56 -2 2 -9 -2 -15
-8z"/>
<path d="M5552 1848 c-14 -14 -16 -28 -3 -28 9 0 24 30 18 36 -2 2 -9 -2 -15
-8z"/>
<path d="M440 310 c-9 -6 -10 -10 -3 -10 6 0 15 5 18 10 8 12 4 12 -15 0z"/>
<path d="M1297 3779 c7 -24 -17 -45 -29 -26 -5 8 -8 5 -8 -8 -1 -19 -2 -19
-14 -3 -7 10 -16 15 -19 12 -10 -11 -62 -12 -74 -2 -7 5 -17 8 -22 6 -6 -1 12
-29 39 -61 28 -32 50 -64 50 -71 0 -25 27 -47 63 -52 35 -4 52 9 25 19 -7 2
-9 8 -5 13 5 5 14 1 21 -9 7 -9 23 -17 36 -17 19 0 20 2 10 15 -11 13 -8 15
14 15 16 0 26 -6 26 -15 0 -8 6 -12 14 -9 8 3 17 1 21 -5 3 -6 -1 -11 -9 -11
-9 0 -16 -5 -16 -11 0 -5 5 -7 10 -4 6 3 10 -4 11 -17 0 -13 3 -17 6 -10 8 21
23 13 23 -12 0 -13 3 -32 6 -41 6 -14 10 -11 20 14 10 23 17 29 30 24 12 -4
15 -3 10 5 -4 7 -4 18 1 25 8 13 10 22 17 75 4 26 2 32 -10 28 -8 -3 -14 0
-14 7 0 8 -4 7 -11 -3 -8 -12 -10 -9 -6 12 5 35 -8 59 -17 30 -10 -31 -58 -25
-67 8 -4 14 -7 19 -8 12 -1 -10 -6 -10 -21 -2 -11 6 -20 7 -20 3 0 -4 -7 1
-16 12 -13 17 -16 18 -24 5 -5 -8 -10 -10 -11 -5 -1 6 -2 17 -3 25 -2 8 -3 23
-4 33 -1 9 -8 17 -16 17 -9 0 -12 -7 -9 -21z m123 -154 c0 -5 -5 -3 -10 5 -5
8 -10 20 -10 25 0 6 5 3 10 -5 5 -8 10 -19 10 -25z"/>
<path d="M2280 3763 c8 -31 -1 -45 -15 -23 -3 6 -11 10 -17 10 -6 0 -3 -9 6
-19 17 -19 17 -20 -6 -24 -18 -3 -17 -5 8 -6 23 -1 33 -7 37 -21 3 -11 13 -20
22 -20 14 0 15 3 5 15 -9 10 -9 15 -1 15 6 0 11 18 11 42 0 33 -3 39 -12 30
-10 -10 -16 -8 -30 10 -18 23 -18 23 -8 -9z"/>
<path d="M2260 3680 c0 -5 5 -10 11 -10 5 0 7 5 4 10 -3 6 -8 10 -11 10 -2 0
-4 -4 -4 -10z"/>
<path d="M73 3569 c-40 -23 -73 -45 -73 -50 0 -13 1 -13 93 32 l83 40 82 -14
c45 -8 84 -11 88 -8 6 6 -145 39 -181 40 -11 0 -53 -18 -92 -40z"/>
<path d="M430 3586 c0 -14 5 -26 10 -26 6 0 10 9 10 19 0 11 -4 23 -10 26 -6
4 -10 -5 -10 -19z"/>
<path d="M1651 3563 c-12 -14 -19 -29 -16 -32 4 -3 10 1 15 9 7 10 10 11 10 3
0 -7 5 -13 10 -13 6 0 10 8 10 18 0 10 12 23 28 29 l27 11 -32 1 c-23 1 -37
-6 -52 -26z"/>
<path d="M2115 3570 c28 -12 37 -12 30 0 -3 6 -16 10 -28 9 -21 0 -21 -1 -2
-9z"/>
<path d="M360 3566 c0 -8 51 -13 56 -5 3 5 -9 9 -25 9 -17 0 -31 -2 -31 -4z"/>
<path d="M1395 3560 c3 -5 8 -10 11 -10 2 0 4 5 4 10 0 6 -5 10 -11 10 -5 0
-7 -4 -4 -10z"/>
<path d="M1695 3540 c-7 -12 2 -12 30 0 19 8 19 9 -2 9 -12 1 -25 -3 -28 -9z"/>
<path d="M2098 3543 c6 -2 18 -2 25 0 6 3 1 5 -13 5 -14 0 -19 -2 -12 -5z"/>
<path d="M195 3511 l30 -29 158 -4 c86 -2 157 0 157 4 0 5 -7 20 -16 33 -16
25 -17 25 -187 25 l-172 0 30 -29z"/>
<path d="M1361 3520 c14 -31 19 -36 19 -24 0 6 -7 19 -16 30 -14 18 -14 18 -3
-6z"/>
<path d="M1391 3460 c14 -31 19 -36 19 -24 0 6 -7 19 -16 30 -14 18 -14 18 -3
-6z"/>
<path d="M1450 3470 c-1 -8 -4 -24 -5 -35 -1 -11 -5 -35 -9 -52 -7 -29 -5 -33
12 -33 15 0 21 9 26 41 4 23 4 44 1 47 -3 3 -6 -6 -7 -19 0 -13 -4 -4 -8 21
-4 25 -8 38 -10 30z"/>
<path d="M1421 3444 c0 -11 3 -14 6 -6 3 7 2 16 -1 19 -3 4 -6 -2 -5 -13z"/>
<path d="M838 3393 c7 -3 16 -2 19 1 4 3 -2 6 -13 5 -11 0 -14 -3 -6 -6z"/>
<path d="M2516 3345 c-27 -19 -46 -35 -42 -35 8 0 96 61 96 67 0 6 -5 3 -54
-32z"/>
<path d="M2434 3284 c-18 -14 -18 -15 4 -4 12 6 22 13 22 15 0 8 -5 6 -26 -11z"/>
<path d="M1430 3280 c0 -5 7 -10 16 -10 8 0 12 5 9 10 -3 6 -10 10 -16 10 -5
0 -9 -4 -9 -10z"/>
<path d="M742 3245 c0 -16 2 -22 5 -12 2 9 2 23 0 30 -3 6 -5 -1 -5 -18z"/>
<path d="M1436 3244 c-4 -9 -1 -24 6 -33 7 -9 13 -17 14 -19 1 -1 8 0 16 3 25
10 10 47 -16 40 -21 -6 -21 -6 -2 9 16 13 17 16 4 16 -9 0 -19 -7 -22 -16z"/>
<path d="M1414 3205 c11 -8 22 -12 25 -9 6 6 -19 24 -34 24 -5 -1 -1 -7 9 -15z"/>
<path d="M2309 3193 c-13 -16 -12 -17 4 -4 9 7 17 15 17 17 0 8 -8 3 -21 -13z"/>
<path d="M305 3190 c3 -5 8 -10 11 -10 2 0 4 5 4 10 0 6 -5 10 -11 10 -5 0 -7
-4 -4 -10z"/>
<path d="M420 3170 c0 -5 5 -10 11 -10 5 0 7 5 4 10 -3 6 -8 10 -11 10 -2 0
-4 -4 -4 -10z"/>
<path d="M1440 3160 c-8 -5 -18 -6 -24 -3 -5 3 -6 1 -2 -5 5 -9 13 -9 27 -2
13 7 19 7 19 0 0 -5 -5 -10 -12 -10 -6 0 -3 -8 8 -19 19 -18 34 -19 34 0 0 5
-7 9 -15 9 -8 0 -12 6 -9 14 7 18 -8 27 -26 16z"/>
<path d="M3646 3155 c-39 -39 -5 -79 62 -73 46 4 57 33 17 48 -14 5 -23 14
-20 20 3 5 2 10 -4 10 -5 0 -16 3 -24 6 -8 3 -22 -2 -31 -11z"/>
<path d="M5937 3164 c-4 -4 -4 -10 -1 -15 6 -10 34 0 34 12 0 10 -24 12 -33 3z"/>
<path d="M210 3131 c0 -5 5 -13 10 -16 6 -3 10 -2 10 4 0 5 -4 13 -10 16 -5 3
-10 2 -10 -4z"/>
<path d="M1430 3080 c0 -13 11 -13 30 0 12 8 11 10 -7 10 -13 0 -23 -4 -23
-10z"/>
<path d="M7376 3065 c5 -20 2 -25 -20 -31 -14 -3 -26 -13 -26 -21 0 -16 -4
-16 -79 12 -24 9 -60 15 -80 13 -35 -3 -36 -5 -43 -53 -5 -27 -10 -72 -12
-100 -2 -27 -20 -95 -40 -150 -81 -220 -105 -305 -85 -305 7 0 49 21 95 46 59
33 87 56 100 80 10 19 21 34 25 34 4 0 16 23 28 51 12 27 29 53 37 56 18 7 84
-27 84 -42 0 -6 -17 -17 -37 -24 -34 -13 -73 -45 -73 -60 0 -3 17 -14 38 -23
34 -16 41 -16 81 -2 25 8 52 23 60 33 9 9 24 15 34 13 19 -4 23 -17 7 -27 -5
-3 -10 -1 -10 4 0 6 -5 11 -11 11 -6 0 -8 -8 -4 -20 5 -16 -4 -24 -55 -50 -58
-29 -120 -78 -120 -95 0 -16 92 6 123 29 18 13 49 27 70 30 l37 7 0 163 0 164
-35 -8 c-60 -14 -56 25 5 50 l30 12 0 108 c0 121 1 120 -88 120 -40 0 -42 -1
-36 -25z m-18 -257 c20 -20 14 -35 -19 -47 -41 -14 -39 -14 -39 8 0 47 30 67
58 39z"/>
<path d="M1456 3054 c-10 -27 -7 -44 10 -44 10 0 14 6 10 15 -3 8 -1 15 4 15
6 0 10 7 10 15 0 20 -26 19 -34 -1z"/>
<path d="M4404 2985 c-12 -29 4 -46 38 -42 41 4 47 28 11 45 -35 16 -42 15
-49 -3z"/>
<path d="M5496 2961 c-4 -5 3 -7 14 -4 23 6 26 13 6 13 -8 0 -17 -4 -20 -9z"/>
<path d="M783 2920 c0 -25 2 -35 4 -22 2 12 2 32 0 45 -2 12 -4 2 -4 -23z"/>
<path d="M5415 2904 c-25 -25 -45 -49 -45 -53 0 -3 26 -5 57 -5 55 2 58 3 61
29 4 34 -5 75 -18 75 -5 0 -30 -21 -55 -46z"/>
<path d="M2170 2858 c-10 -451 -11 -848 -2 -848 6 0 13 3 15 8 3 4 6 211 8
461 3 338 1 455 -8 458 -8 3 -12 -21 -13 -79z"/>
<path d="M2426 2923 c-4 -9 -2 -21 4 -27 7 -7 10 -7 10 1 0 6 3 18 6 27 3 9 2
16 -4 16 -5 0 -13 -8 -16 -17z"/>
<path d="M914 2915 c-3 -8 -4 -20 -2 -27 3 -7 7 -1 10 15 6 29 1 36 -8 12z"/>
<path d="M5316 2900 c22 -36 40 -45 47 -21 3 13 -5 23 -30 35 l-34 16 17 -30z"/>
<path d="M5113 2865 c0 -22 2 -30 4 -17 2 12 2 30 0 40 -3 9 -5 -1 -4 -23z"/>
<path d="M5525 2889 c-12 -19 5 -23 22 -6 16 16 16 17 1 17 -9 0 -20 -5 -23
-11z"/>
<path d="M4983 2855 c0 -22 2 -30 4 -17 2 12 2 30 0 40 -3 9 -5 -1 -4 -23z"/>
<path d="M5033 2855 c0 -22 2 -30 4 -17 2 12 2 30 0 40 -3 9 -5 -1 -4 -23z"/>
<path d="M4883 2845 c0 -22 2 -30 4 -17 2 12 2 30 0 40 -3 9 -5 -1 -4 -23z"/>
<path d="M4913 2845 c0 -22 2 -30 4 -17 2 12 2 30 0 40 -3 9 -5 -1 -4 -23z"/>
<path d="M4933 2845 c0 -22 2 -30 4 -17 2 12 2 30 0 40 -3 9 -5 -1 -4 -23z"/>
<path d="M1430 2843 c0 -32 -17 -53 -29 -36 -10 15 -51 23 -51 10 0 -9 -2 -9
-8 0 -11 18 -51 12 -58 -9 -3 -10 -11 -15 -20 -11 -7 3 -14 0 -14 -6 0 -8 -15
-10 -50 -5 -42 6 -50 4 -50 -10 0 -9 7 -16 15 -16 11 0 15 -11 15 -36 0 -20
11 -55 27 -81 23 -39 28 -43 34 -27 6 16 8 14 8 -8 1 -16 4 -27 9 -27 19 3 26
-2 13 -10 -10 -6 -22 -2 -39 14 -41 38 -52 23 -54 -71 -2 -142 -4 -158 -21
-191 -14 -26 -17 -61 -16 -200 1 -151 2 -165 14 -138 8 17 14 42 15 57 0 15 5
30 11 34 7 4 9 22 5 48 -5 29 -3 37 4 26 7 -11 12 -12 18 -4 4 7 37 15 75 19
l67 7 6 -31 c4 -17 10 -31 15 -31 4 0 4 14 -1 30 -9 30 -8 30 33 30 23 1 125
5 227 10 126 6 189 5 197 -2 9 -7 14 -5 19 8 3 11 9 26 13 34 12 25 2 52 -17
44 -10 -4 -29 -7 -44 -7 -16 0 -28 -4 -28 -8 0 -5 -5 -9 -11 -9 -5 0 -7 5 -3
12 4 7 3 8 -5 4 -6 -4 -27 -2 -47 4 -56 19 -27 33 76 38 l90 4 0 118 0 117
-67 6 c-38 4 -96 7 -131 7 -39 0 -61 4 -57 10 3 5 1 18 -4 28 -16 30 -61 17
-62 -17 -2 -22 -2 -23 -6 -4 -8 41 -53 56 -53 17 0 -8 -4 -14 -10 -14 -5 0
-10 -5 -10 -11 0 -6 7 -9 15 -5 13 4 15 -7 15 -70 0 -50 -4 -73 -10 -69 -6 4
-8 15 -5 26 4 10 2 19 -4 19 -7 0 -9 15 -6 40 4 30 2 40 -9 40 -15 0 -16 16
-3 37 4 6 2 13 -4 15 -19 6 -1 45 24 52 17 4 19 8 10 17 -9 9 -16 9 -28 -1
-13 -11 -14 -8 -8 21 3 19 10 36 15 37 17 7 7 22 -14 22 -21 1 -22 2 -6 14 13
10 15 15 6 24 -9 9 -9 12 0 12 19 0 14 35 -8 61 l-19 24 -1 -32z m-196 -89 c3
-8 2 -12 -4 -9 -6 3 -10 10 -10 16 0 14 7 11 14 -7z m67 -38 c7 -14 22 -27 36
-31 21 -5 22 -7 9 -20 -8 -8 -23 -15 -32 -15 -14 0 -15 -3 -6 -12 19 -19 14
-35 -11 -35 -16 0 -27 9 -38 36 -17 40 -15 61 6 61 8 0 12 8 10 20 -5 28 13
25 26 -4z m53 -92 c9 -3 16 -17 16 -29 0 -28 -18 -80 -26 -73 -12 13 -9 64 6
76 8 8 10 11 4 8 -7 -3 -14 1 -18 9 -6 17 -4 18 18 9z m73 -30 c-9 -9 -28 6
-21 18 4 6 10 6 17 -1 6 -6 8 -13 4 -17z m-38 -178 c-3 -3 -11 5 -18 17 -13
21 -12 21 5 5 10 -10 16 -20 13 -22z m212 -43 c-12 -20 -14 -14 -5 12 4 9 9
14 11 11 3 -2 0 -13 -6 -23z m-91 -103 c0 -45 1 -44 -37 -29 -27 10 -27 11 -9
25 11 8 16 14 12 14 -5 0 -3 7 4 15 21 25 30 17 30 -25z"/>
<path d="M5082 2850 c0 -14 2 -19 5 -12 2 6 2 18 0 25 -3 6 -5 1 -5 -13z"/>
<path d="M2048 2843 c7 -3 16 -2 19 1 4 3 -2 6 -13 5 -11 0 -14 -3 -6 -6z"/>
<path d="M1823 2809 c-24 -12 -43 -25 -43 -30 0 -11 76 26 85 41 8 14 6 13
-42 -11z"/>
<path d="M5370 2820 c8 -5 22 -10 30 -10 13 0 13 1 0 10 -8 5 -22 10 -30 10
-13 0 -13 -1 0 -10z"/>
<path d="M1950 2757 c-14 -6 -27 -12 -29 -14 -2 -1 -7 -130 -11 -285 -4 -156
-11 -291 -15 -300 -6 -15 -2 -18 23 -18 36 0 62 -9 62 -21 0 -5 -12 -9 -26 -9
-14 0 -23 -4 -19 -10 3 -5 17 -10 31 -10 14 0 42 -9 64 -20 43 -22 50 -24 50
-12 0 4 -20 21 -45 36 l-45 29 0 323 c0 178 -3 324 -7 323 -5 0 -19 -5 -33
-12z m20 -109 c0 -34 -3 -58 -7 -55 -11 12 -14 117 -3 117 6 0 10 -27 10 -62z
m-13 -320 c-2 -24 -4 -7 -4 37 0 44 2 63 4 43 2 -21 2 -57 0 -80z"/>
<path d="M5210 2721 c-21 -2 -17 -6 25 -22 47 -18 51 -18 63 -2 6 9 12 21 12
25 0 8 -42 8 -100 -1z"/>
<path d="M1478 2683 c7 -3 16 -2 19 1 4 3 -2 6 -13 5 -11 0 -14 -3 -6 -6z"/>
<path d="M4588 2653 c7 -3 16 -2 19 1 4 3 -2 6 -13 5 -11 0 -14 -3 -6 -6z"/>
<path d="M4879 2588 c0 -13 -3 -62 -5 -110 l-5 -88 25 0 c28 0 35 -8 42 -47 3
-15 11 -31 17 -35 9 -6 9 -10 -2 -17 -9 -6 -10 -14 -3 -27 5 -11 7 -25 5 -31
-3 -7 0 -13 6 -13 13 0 80 -71 81 -85 0 -5 -12 5 -26 23 -14 17 -33 32 -41 32
-9 0 -35 19 -57 43 -38 39 -41 40 -44 20 -2 -13 -7 -23 -11 -23 -15 0 -20 13
-11 31 7 13 6 22 -6 33 -22 23 -44 20 -44 -6 0 -34 -10 -43 -63 -58 -54 -15
-66 -26 -37 -35 11 -3 20 -10 20 -15 0 -10 27 -21 70 -26 19 -3 39 -9 44 -14
6 -6 20 -10 32 -10 13 0 60 -14 106 -31 65 -24 87 -28 101 -19 10 6 22 8 27 5
5 -3 11 -1 15 5 3 5 14 10 25 10 20 0 78 75 111 145 12 25 25 48 30 51 12 7
12 54 0 54 -8 0 -57 -31 -172 -106 -43 -29 -45 -29 -53 -1 -3 12 -18 36 -34
54 -28 30 -29 35 -21 79 5 26 6 50 3 53 -8 9 -34 -30 -34 -51 0 -10 -7 -18
-15 -18 -10 0 -14 9 -13 24 1 14 6 22 10 20 8 -5 10 6 10 59 1 16 6 27 14 27
8 0 14 -11 14 -26 0 -22 2 -25 15 -14 26 21 18 47 -16 54 -17 3 -35 3 -40 0
-5 -3 -9 -1 -9 5 0 5 17 12 38 14 31 3 33 5 15 11 -31 11 -36 44 -10 58 19 9
20 9 11 -3 -9 -11 -9 -17 2 -27 11 -10 17 -8 34 10 11 12 20 25 20 29 0 5 -29
7 -65 6 -36 -1 -65 -6 -65 -11 0 -6 -5 -5 -12 2 -18 18 -28 15 -29 -10z m37
-56 c-10 -10 -29 15 -21 28 6 9 10 8 17 -4 6 -10 7 -20 4 -24z m31 -94 c-2
-13 -4 -5 -4 17 -1 22 1 32 4 23 2 -10 2 -28 0 -40z m57 -181 c11 -15 17 -30
13 -33 -9 -10 -47 26 -47 43 0 8 -5 11 -12 7 -7 -4 -8 -3 -4 5 11 17 26 10 50
-22z m37 -60 c-1 -12 -15 -9 -19 4 -3 6 1 10 8 8 6 -3 11 -8 11 -12z"/>
<path d="M5060 2600 c0 -5 5 -10 10 -10 6 0 15 -11 20 -25 11 -30 45 -33 60
-6 5 11 17 27 26 35 14 15 10 16 -50 16 -37 0 -66 -4 -66 -10z"/>
<path d="M4560 2590 c0 -5 9 -14 21 -20 19 -11 20 -10 9 9 -11 22 -30 29 -30
11z"/>
<path d="M5037 2540 c-12 -14 -13 -20 -4 -20 14 0 37 20 37 32 0 14 -15 9 -33
-12z"/>
<path d="M745 2518 c4 -18 9 -35 10 -36 7 -8 45 10 40 18 -3 5 0 12 6 16 7 4
-1 12 -21 20 -43 19 -43 19 -35 -18z"/>
<path d="M4573 2535 c0 -8 4 -15 9 -15 4 0 8 4 8 9 0 6 -4 12 -8 15 -5 3 -9
-1 -9 -9z"/>
<path d="M810 2490 c0 -5 10 -10 23 -10 18 0 19 2 7 10 -19 13 -30 13 -30 0z"/>
<path d="M5566 2395 c4 -8 10 -15 15 -15 4 0 6 7 3 15 -4 8 -10 15 -15 15 -4
0 -6 -7 -3 -15z"/>
<path d="M892 2384 c-7 -8 -8 -14 -3 -14 10 0 25 19 20 25 -2 1 -10 -3 -17
-11z"/>
<path d="M1866 2194 c-8 -22 -7 -34 3 -34 5 0 11 11 13 25 6 28 -6 34 -16 9z"/>
<path d="M5215 2143 c-31 -33 -49 -63 -38 -63 24 1 98 90 75 90 -6 0 -23 -12
-37 -27z"/>
<path d="M2413 2143 c-7 -3 -13 -11 -13 -18 0 -14 27 -28 33 -17 8 13 -8 39
-20 35z"/>
<path d="M4846 2095 c-3 -8 -1 -15 4 -15 6 0 10 7 10 15 0 8 -2 15 -4 15 -2 0
-6 -7 -10 -15z"/>
<path d="M1371 2085 c0 -11 7 -38 15 -60 l14 -40 -6 44 c-5 48 -24 93 -23 56z"/>
<path d="M1401 1964 c0 -11 3 -14 6 -6 3 7 2 16 -1 19 -3 4 -6 -2 -5 -13z"/>
<path d="M1411 1937 c-2 -21 63 -257 70 -257 13 0 13 0 -22 118 -32 109 -47
153 -48 139z"/>
<path d="M1075 1910 c-3 -6 5 -10 19 -10 14 0 28 5 31 10 3 6 -5 10 -19 10
-14 0 -28 -4 -31 -10z"/>
<path d="M5835 1790 c3 -5 8 -10 11 -10 2 0 4 5 4 10 0 6 -5 10 -11 10 -5 0
-7 -4 -4 -10z"/>
<path d="M4850 1760 c-20 -12 -5 -24 16 -12 9 5 12 12 7 15 -5 3 -15 2 -23 -3z"/>
<path d="M4994 1758 c-10 -15 0 -18 32 -9 l29 8 -28 5 c-15 3 -30 1 -33 -4z"/>
<path d="M5035 1729 c-11 -4 -35 -8 -52 -8 -33 -1 -33 -2 -33 -48 0 -79 11
-80 64 -7 27 36 47 66 45 68 -2 2 -13 0 -24 -5z"/>
<path d="M4833 1710 c-13 -5 -23 -16 -23 -25 0 -14 3 -14 25 1 14 9 25 20 25
25 0 5 -1 9 -2 8 -2 0 -13 -4 -25 -9z"/>
<path d="M7225 1680 c3 -5 14 -10 23 -10 15 0 15 2 2 10 -20 13 -33 13 -25 0z"/>
<path d="M1373 1673 c9 -2 23 -2 30 0 6 3 -1 5 -18 5 -16 0 -22 -2 -12 -5z"/>
<path d="M5697 1605 c-15 -14 -22 -25 -15 -25 14 1 58 34 58 44 0 12 -16 5
-43 -19z"/>
<path d="M5433 1603 c-14 -5 -17 -29 -5 -36 4 -3 20 6 35 19 28 24 28 24 5 23
-13 0 -29 -3 -35 -6z"/>
<path d="M7464 1525 c21 -32 21 -34 -14 -48 l-29 -13 39 -44 39 -45 1 88 0 87
-26 0 c-26 0 -26 -1 -10 -25z"/>
<path d="M60 1510 c0 -5 5 -10 11 -10 5 0 7 5 4 10 -3 6 -8 10 -11 10 -2 0 -4
-4 -4 -10z"/>
<path d="M5820 1475 c-10 -12 -10 -15 3 -15 8 0 17 7 21 15 3 8 2 15 -3 15 -5
0 -14 -7 -21 -15z"/>
<path d="M2054 1415 c15 -19 24 -40 21 -45 -4 -6 -2 -9 4 -8 7 2 27 -17 46
-42 29 -39 32 -46 17 -52 -14 -5 -13 -7 5 -7 12 -1 24 3 27 7 6 10 -122 182
-136 182 -6 0 2 -16 16 -35z"/>
<path d="M1820 1419 c-11 -7 -4 -8 25 -3 50 8 58 14 19 14 -16 0 -36 -5 -44
-11z"/>
<path d="M1560 1379 c-298 -56 -270 -47 -265 -83 2 -17 4 -35 4 -39 1 -5 5 -6
10 -3 5 4 7 19 5 34 l-5 29 158 28 c87 15 196 36 243 46 143 30 23 20 -150
-12z"/>
<path d="M2605 1335 c-5 -2 -55 -13 -110 -25 -55 -12 -140 -32 -190 -45 -49
-12 -117 -28 -150 -35 -79 -17 -154 -38 -135 -39 18 -1 339 69 520 114 74 18
122 33 105 33 -16 0 -34 -1 -40 -3z"/>
<path d="M1590 1281 c0 -6 4 -13 10 -16 6 -3 7 1 4 9 -7 18 -14 21 -14 7z"/>
<path d="M2042 1248 c-24 -5 -42 -12 -39 -14 5 -5 107 16 107 22 0 6 -17 4
-68 -8z"/>
<path d="M2878 1253 c7 -3 16 -2 19 1 4 3 -2 6 -13 5 -11 0 -14 -3 -6 -6z"/>
<path d="M1297 1228 c-6 -21 4 -48 19 -48 8 0 14 7 14 15 0 8 5 15 10 15 6 0
10 4 10 10 0 5 -7 7 -15 4 -8 -4 -15 -1 -15 5 0 15 -17 14 -23 -1z"/>
<path d="M1890 1215 c-30 -7 -91 -20 -135 -29 -44 -9 -90 -20 -102 -23 -20 -4
-23 -1 -23 21 0 14 -4 26 -9 26 -6 0 -9 -12 -8 -27 2 -23 -3 -28 -38 -35 -21
-5 -45 -6 -53 -3 -7 2 -11 1 -8 -4 3 -5 -7 -11 -23 -14 -16 -3 -42 -9 -57 -12
l-29 -6 28 16 c51 30 27 25 -33 -7 -59 -30 -95 -31 -55 -1 20 15 20 15 0 11
-14 -2 -20 3 -20 16 0 11 -6 21 -13 24 -8 2 -12 -10 -12 -44 l0 -47 43 6 c129
18 157 19 84 3 -15 -4 -26 -10 -23 -15 3 -4 -13 -14 -35 -20 -51 -16 -45 -26
7 -12 22 5 62 11 91 13 28 2 49 6 47 10 -2 3 24 13 58 21 l63 14 11 -26 c7
-14 17 -37 22 -51 9 -22 10 -19 9 22 -1 27 -6 48 -12 48 -25 1 29 20 113 40
51 12 91 24 88 27 -3 3 -25 1 -48 -5 -107 -28 -160 -34 -169 -21 -4 7 -7 14
-6 15 1 0 67 16 147 34 80 18 149 37 155 41 5 5 7 9 5 8 -3 -1 -30 -7 -60 -14z
m-260 -90 c0 -8 -4 -15 -9 -15 -5 0 -18 -3 -28 -6 -15 -5 -16 -4 -3 6 12 10
11 11 -10 6 -14 -3 -43 -8 -65 -11 -29 -4 -21 0 25 13 83 25 90 25 90 7z"/>
<path d="M2400 1200 c0 -5 5 -10 10 -10 6 0 10 5 10 10 0 6 -4 10 -10 10 -5 0
-10 -4 -10 -10z"/>
<path d="M1940 1180 c-20 -6 -21 -8 -5 -8 11 0 31 4 45 8 20 6 21 8 5 8 -11 0
-31 -4 -45 -8z"/>
<path d="M1430 1166 c0 -2 15 -6 34 -8 19 -2 32 0 30 4 -5 8 -64 12 -64 4z"/>
<path d="M2816 1141 c-3 -5 -23 -12 -43 -15 -55 -10 -104 -28 -135 -48 -18
-13 -29 -15 -33 -7 -4 6 -19 9 -34 6 -20 -4 -34 2 -63 31 -47 45 -49 31 -5
-22 30 -35 35 -38 56 -27 29 16 44 10 46 -17 1 -18 -2 -21 -23 -15 -22 5 -24
3 -17 -18 4 -16 3 -19 -3 -11 -7 10 -15 8 -38 -11 -31 -25 -59 -39 -84 -42
-36 -4 -59 -17 -65 -36 -4 -10 -11 -17 -16 -14 -5 4 -9 -3 -9 -14 0 -12 -7
-21 -15 -21 -17 0 -20 -16 -6 -25 5 -3 16 2 24 10 9 8 20 15 26 15 6 0 11 3
11 8 0 6 41 8 67 3 3 0 -2 -10 -12 -21 -10 -12 -25 -18 -32 -16 -7 3 -13 2
-13 -3 0 -5 -16 -16 -35 -25 -19 -9 -35 -18 -35 -19 0 -2 15 -3 34 -4 26 -1
33 3 29 13 -6 16 11 18 37 4 13 -7 27 -6 45 2 21 9 28 9 34 -1 6 -9 13 -9 34
0 30 14 37 32 10 23 -15 -5 -16 -4 -3 5 8 6 22 8 30 6 8 -2 22 0 30 5 11 7 7
10 -17 10 -25 0 -31 4 -27 15 4 11 0 15 -16 15 -16 0 -20 -4 -16 -16 4 -11 -5
-19 -30 -30 -20 -8 -39 -13 -41 -10 -6 6 37 45 50 46 4 0 7 7 7 15 0 9 -7 15
-16 13 -53 -9 8 47 112 103 17 10 46 27 65 38 47 29 60 28 46 -4 -7 -14 -16
-25 -22 -25 -5 0 -16 -12 -22 -27 -10 -21 -10 -28 0 -35 20 -13 32 -9 13 5
-16 12 -15 14 8 35 29 24 76 40 76 24 0 -6 -6 -13 -12 -15 -7 -3 -5 -6 6 -6
18 -1 18 -2 1 -21 -17 -19 -12 -26 18 -21 10 1 9 -4 -5 -34 -6 -14 -17 -25
-25 -25 -22 0 -15 -18 9 -22 l23 -3 -24 -22 c-19 -18 -22 -25 -12 -37 18 -21
-45 -66 -98 -71 -23 -2 -52 -13 -66 -23 -14 -11 -34 -18 -44 -15 -10 3 -22 0
-25 -6 -9 -14 -43 -14 -48 0 -2 6 -17 -2 -33 -17 -25 -23 -26 -26 -7 -20 13 4
22 3 22 -3 0 -5 -17 -13 -37 -17 -21 -4 -49 -15 -62 -25 -13 -11 -32 -19 -42
-19 -10 0 -49 -11 -86 -25 -79 -30 -107 -51 -53 -40 33 7 47 12 134 50 21 9
49 15 62 12 15 -3 28 1 33 10 4 9 21 16 38 17 16 1 37 9 47 19 10 9 27 17 39
17 20 0 19 -2 -8 -20 -24 -16 -26 -20 -12 -25 27 -11 10 -65 -35 -108 -22 -20
-42 -36 -46 -33 -4 2 -16 -6 -27 -17 l-20 -20 20 7 c11 4 32 10 47 13 16 3 25
10 22 18 -6 15 62 65 88 65 23 0 23 -8 1 -33 -17 -19 -17 -19 3 -7 12 7 26 21
33 31 9 16 8 19 -9 19 -25 0 -25 5 1 31 25 25 19 35 -11 19 -37 -20 -37 0 0
30 19 16 35 34 35 40 0 6 7 15 15 20 21 13 90 12 90 -1 0 -6 16 -2 35 10 31
18 37 19 42 6 4 -13 8 -12 23 6 16 17 22 19 41 9 19 -11 21 -10 16 4 -4 10 -3
14 2 11 5 -3 12 -1 16 5 3 5 2 10 -4 10 -6 0 -8 8 -4 18 5 15 4 14 -9 -2 -8
-10 -20 -16 -26 -12 -20 12 -13 24 17 31 32 7 64 35 40 35 -8 -1 -25 -7 -39
-15 -14 -8 -31 -14 -38 -15 -22 0 10 39 40 49 40 14 35 56 -6 56 -32 0 -29 23
3 30 17 3 29 12 28 18 -1 6 8 16 21 22 12 5 22 13 22 18 0 10 -57 -20 -62 -32
-1 -5 -16 -11 -33 -13 -24 -2 -30 1 -30 17 0 16 10 22 48 28 36 7 47 13 47 28
0 12 -7 18 -17 17 -39 -3 -54 3 -63 27 -8 21 -14 24 -40 19 -19 -4 -30 -2 -30
5 0 6 5 11 10 11 6 0 10 6 10 14 0 8 16 20 35 27 19 7 35 17 35 21 0 11 -27
10 -34 -1z m3 -400 c12 -8 11 -12 -4 -27 -17 -17 -17 -17 -10 6 7 24 7 24 -12
8 -11 -10 -27 -18 -36 -18 -9 0 -19 -5 -22 -10 -7 -11 -25 -4 -25 10 0 8 66
39 85 39 6 1 16 -3 24 -8z"/>
<path d="M2515 1130 c3 -5 8 -10 11 -10 2 0 4 5 4 10 0 6 -5 10 -11 10 -5 0
-7 -4 -4 -10z"/>
<path d="M4565 1130 c3 -5 8 -10 11 -10 2 0 4 5 4 10 0 6 -5 10 -11 10 -5 0
-7 -4 -4 -10z"/>
<path d="M2541 1103 c-1 -18 13 -23 29 -11 12 8 12 9 -2 5 -9 -3 -19 -1 -22 6
-3 9 -5 9 -5 0z"/>
<path d="M2856 1094 c-21 -21 -20 -22 8 -17 16 3 23 10 19 19 -7 18 -8 17 -27
-2z"/>
<path d="M4568 1103 c7 -3 16 -2 19 1 4 3 -2 6 -13 5 -11 0 -14 -3 -6 -6z"/>
<path d="M4650 1101 c0 -5 9 -11 21 -14 16 -4 18 -3 8 9 -13 16 -29 19 -29 5z"/>
<path d="M4560 1075 c33 -19 49 -19 24 0 -10 8 -26 14 -34 14 -9 0 -4 -6 10
-14z"/>
<path d="M4490 1066 c0 -2 7 -9 15 -16 9 -7 15 -8 15 -2 0 5 -7 12 -15 16 -8
3 -15 4 -15 2z"/>
<path d="M2490 1050 c0 -5 5 -10 10 -10 6 0 10 5 10 10 0 6 -4 10 -10 10 -5 0
-10 -4 -10 -10z"/>
<path d="M2900 1050 c-8 -5 -10 -10 -5 -10 6 0 17 5 25 10 8 5 11 10 5 10 -5
0 -17 -5 -25 -10z"/>
<path d="M4531 1034 c0 -11 3 -14 6 -6 3 7 2 16 -1 19 -3 4 -6 -2 -5 -13z"/>
<path d="M2395 1024 c-19 -16 -19 -16 5 -9 31 9 50 25 30 25 -8 0 -24 -8 -35
-16z"/>
<path d="M4450 1030 c8 -5 24 -10 34 -10 26 0 18 6 -19 14 -22 5 -26 4 -15 -4z"/>
<path d="M1485 1020 c-13 -6 -15 -9 -5 -9 8 0 22 4 30 9 18 12 2 12 -25 0z"/>
<path d="M4286 1012 c-2 -4 4 -8 14 -8 10 0 16 4 14 8 -3 4 -9 8 -14 8 -5 0
-11 -4 -14 -8z"/>
<path d="M1410 999 c0 -5 5 -7 10 -4 6 3 10 8 10 11 0 2 -4 4 -10 4 -5 0 -10
-5 -10 -11z"/>
<path d="M4438 1003 c7 -3 16 -2 19 1 4 3 -2 6 -13 5 -11 0 -14 -3 -6 -6z"/>
<path d="M1680 973 c0 -13 5 -23 10 -23 13 0 13 11 0 30 -8 12 -10 11 -10 -7z"/>
<path d="M4350 986 c0 -2 7 -6 15 -10 8 -3 15 -1 15 4 0 6 -7 10 -15 10 -8 0
-15 -2 -15 -4z"/>
<path d="M885 960 c-13 -6 -15 -9 -5 -9 8 0 22 4 30 9 18 12 2 12 -25 0z"/>
<path d="M4196 961 c-4 -7 -5 -15 -2 -18 9 -9 19 4 14 18 -4 11 -6 11 -12 0z"/>
<path d="M4310 960 c-23 -6 -21 -7 17 -17 33 -8 40 -8 36 2 -6 18 -23 23 -53
15z"/>
<path d="M1470 950 c-8 -5 -12 -11 -9 -14 3 -3 14 1 25 9 21 16 8 20 -16 5z"/>
<path d="M2728 943 c7 -3 16 -2 19 1 4 3 -2 6 -13 5 -11 0 -14 -3 -6 -6z"/>
<path d="M1494 916 c-11 -8 -34 -14 -50 -14 -17 1 -40 -4 -52 -11 -12 -6 -34
-10 -49 -9 -15 1 -42 -6 -59 -15 -17 -9 -34 -13 -38 -10 -3 4 -6 1 -6 -5 0
-17 35 -15 50 3 7 8 17 15 23 15 6 0 -14 -18 -43 -40 -32 -24 -65 -40 -81 -40
-15 0 -36 -3 -46 -7 -14 -6 -8 -9 22 -14 32 -4 36 -7 20 -13 -53 -20 -60 -26
-25 -20 55 9 71 15 65 25 -4 5 -1 9 4 9 6 0 10 5 8 11 -1 7 13 16 31 21 18 5
30 13 27 18 -4 6 -1 10 4 10 6 0 11 -5 11 -10 0 -14 37 5 72 37 15 14 38 25
55 25 49 1 68 7 81 28 14 23 5 26 -24 6z"/>
<path d="M1695 914 c4 -11 10 -33 12 -50 5 -31 4 -32 -47 -43 -28 -6 -58 -11
-65 -11 -8 0 -15 -4 -15 -10 0 -14 20 -12 70 5 56 20 71 19 77 -5 3 -11 9 -20
13 -20 11 0 5 50 -11 85 -7 17 -13 36 -13 44 -1 8 -7 16 -15 19 -11 4 -12 0
-6 -14z"/>
<path d="M4125 918 c8 -20 57 -45 77 -41 14 4 15 7 5 17 -6 7 -21 15 -32 18
-11 3 -28 9 -38 13 -12 5 -16 3 -12 -7z"/>
<path d="M4232 921 c-21 -6 -21 -7 -4 -18 11 -7 24 -8 33 -2 20 12 -1 27 -29
20z"/>
<path d="M4480 920 c0 -5 5 -10 10 -10 6 0 10 5 10 10 0 6 -4 10 -10 10 -5 0
-10 -4 -10 -10z"/>
<path d="M1537 914 c-8 -8 1 -24 14 -24 5 0 9 7 9 15 0 15 -12 20 -23 9z"/>
<path d="M4087 886 c16 -22 53 -32 53 -15 0 15 -32 39 -51 39 -19 0 -19 -1 -2
-24z"/>
<path d="M4447 891 c-3 -13 -10 -21 -14 -18 -5 3 -15 2 -23 -4 -13 -7 -12 -9
2 -9 9 0 23 -3 31 -6 18 -6 27 14 17 40 -6 19 -7 18 -13 -3z"/>
<path d="M2712 868 c5 -15 28 -23 28 -10 0 5 -7 13 -16 16 -10 4 -14 1 -12 -6z"/>
<path d="M4270 876 c0 -2 7 -7 16 -10 8 -3 12 -2 9 4 -6 10 -25 14 -25 6z"/>
<path d="M680 864 c-8 -3 -20 -16 -27 -30 -10 -22 -10 -25 3 -20 9 3 22 6 29
6 8 0 16 9 20 19 3 11 14 22 23 24 10 3 7 5 -8 5 -14 0 -32 -2 -40 -4z"/>
<path d="M1525 850 c-22 -5 -58 -11 -80 -15 -22 -5 -57 -16 -77 -26 -21 -11
-43 -19 -50 -19 -7 0 -26 -10 -43 -21 l-30 -21 28 6 c19 5 26 3 22 -4 -3 -5
-13 -10 -21 -10 -8 0 -37 -11 -64 -25 -27 -14 -57 -25 -67 -25 -24 0 -123 -42
-118 -50 2 -3 -8 -5 -24 -2 -17 2 -32 -2 -40 -12 -12 -14 -10 -15 20 -10 l34
6 -30 -21 c-47 -33 -58 -39 -93 -52 -18 -6 -31 -13 -29 -15 2 -3 23 3 47 11
23 8 46 12 51 9 5 -3 30 8 56 25 46 31 91 42 77 20 -4 -8 3 -9 25 -4 40 9 41
-10 1 -24 -35 -12 -41 -26 -7 -15 20 6 42 23 130 100 15 13 24 24 20 24 -13 0
21 20 35 20 6 0 12 -7 12 -16 0 -13 3 -14 14 -4 8 6 12 19 9 27 -5 12 -2 15
10 10 14 -5 84 33 97 54 10 14 94 49 121 49 33 0 41 9 24 26 -7 8 -15 13 -17
13 -2 -1 -21 -5 -43 -9z m-285 -175 c-7 -8 -20 -15 -29 -15 -11 1 -8 5 9 15
32 18 35 18 20 0z"/>
<path d="M3966 846 c7 -19 27 -26 44 -16 18 11 3 30 -25 30 -17 0 -23 -4 -19
-14z"/>
<path d="M4060 845 c14 -8 34 -14 45 -14 20 0 20 0 1 14 -11 8 -31 15 -45 15
l-26 -1 25 -14z"/>
<path d="M4230 850 c0 -5 4 -10 9 -10 6 0 13 5 16 10 3 6 -1 10 -9 10 -9 0
-16 -4 -16 -10z"/>
<path d="M1768 843 c7 -3 16 -2 19 1 4 3 -2 6 -13 5 -11 0 -14 -3 -6 -6z"/>
<path d="M2280 830 c19 -13 30 -13 30 0 0 6 -10 10 -22 10 -19 0 -20 -2 -8
-10z"/>
<path d="M4157 829 c7 -7 23 -13 37 -14 18 -2 23 1 19 12 -5 12 -7 12 -14 1
-6 -10 -11 -10 -21 0 -6 6 -16 12 -22 12 -6 0 -5 -5 1 -11z"/>
<path d="M4625 830 c-3 -5 -2 -10 4 -10 5 0 13 5 16 10 3 6 2 10 -4 10 -5 0
-13 -4 -16 -10z"/>
<path d="M2250 821 c0 -5 5 -13 10 -16 6 -3 10 -2 10 4 0 5 -4 13 -10 16 -5 3
-10 2 -10 -4z"/>
<path d="M3943 804 c16 -9 32 -13 35 -9 9 9 -19 25 -43 24 -16 0 -15 -2 8 -15z"/>
<path d="M4014 809 c-9 -15 15 -35 51 -43 l30 -7 -32 22 c-40 26 -42 32 -5 19
25 -9 26 -9 8 5 -23 18 -42 19 -52 4z"/>
<path d="M2562 778 c-20 -20 -13 -28 13 -16 14 6 25 15 25 20 0 12 -24 10 -38
-4z"/>
<path d="M1483 773 c-7 -2 -13 -12 -13 -20 0 -10 -6 -13 -16 -9 -8 3 -12 2 -9
-4 3 -6 1 -10 -4 -10 -6 0 -11 -4 -11 -9 0 -5 24 -1 52 10 61 22 58 22 58 10
0 -5 -14 -14 -31 -22 -18 -7 -43 -23 -57 -36 -19 -17 -28 -20 -33 -11 -6 9
-13 8 -28 -6 -15 -14 -30 -17 -58 -13 -24 4 -47 1 -63 -8 -14 -8 -21 -14 -17
-15 5 0 0 -16 -12 -35 -20 -34 -20 -35 -1 -25 10 5 29 10 42 10 13 0 33 7 45
15 12 9 44 17 70 20 26 2 47 8 46 14 -4 14 36 39 78 51 29 8 32 8 17 -4 -30
-22 -20 -25 19 -5 21 10 42 19 49 19 9 0 47 61 41 66 -1 1 -15 4 -30 8 -19 4
-26 3 -22 -4 3 -5 2 -10 -4 -10 -5 0 -13 5 -17 11 -6 10 -23 8 -71 -7 -10 -3
-7 1 7 10 22 14 23 15 5 15 -11 0 -26 -3 -32 -6z"/>
<path d="M2430 770 c-13 -8 -12 -10 3 -10 9 0 17 5 17 10 0 12 -1 12 -20 0z"/>
<path d="M3903 766 c-9 -11 -9 -18 2 -32 13 -18 14 -18 15 -1 0 20 11 22 28 5
7 -7 12 -8 12 -4 0 7 -40 47 -44 46 -1 -1 -6 -7 -13 -14z"/>
<path d="M3968 764 c28 -19 28 -31 1 -39 -14 -5 -18 -10 -11 -17 7 -7 19 -4
37 10 l26 20 -22 21 c-13 12 -30 21 -38 21 -11 0 -9 -5 7 -16z"/>
<path d="M750 760 c19 -13 30 -13 30 0 0 6 -10 10 -22 10 -19 0 -20 -2 -8 -10z"/>
<path d="M2670 755 c-7 -8 -9 -15 -6 -15 4 0 14 7 22 15 9 8 11 15 6 15 -5 0
-15 -7 -22 -15z"/>
<path d="M1990 751 c0 -6 -5 -11 -11 -11 -17 0 -34 -23 -46 -62 -6 -21 -10
-38 -9 -38 2 0 19 16 39 35 39 38 54 70 37 80 -5 3 -10 1 -10 -4z"/>
<path d="M3830 751 c-35 -7 -35 -7 -11 -20 14 -8 21 -8 17 -2 -9 14 -4 14 29
1 24 -9 25 -8 15 10 -6 11 -12 19 -13 19 -1 -1 -18 -5 -37 -8z"/>
<path d="M2590 739 c0 -5 5 -7 10 -4 6 3 10 8 10 11 0 2 -4 4 -10 4 -5 0 -10
-5 -10 -11z"/>
<path d="M3736 741 c-4 -5 3 -15 15 -21 17 -10 20 -9 14 1 -6 9 -3 11 8 6 10
-3 17 -2 17 3 0 6 -4 10 -9 10 -5 0 -16 3 -24 6 -8 3 -18 1 -21 -5z"/>
<path d="M4127 734 c6 -17 29 -18 36 -1 3 7 -5 13 -19 13 -15 1 -21 -3 -17
-12z"/>
<path d="M740 730 c0 -5 -22 -10 -50 -10 -27 0 -50 -4 -50 -9 0 -9 -17 -21
-80 -53 -14 -7 -32 -19 -40 -27 -12 -12 -11 -13 10 -6 14 5 32 8 40 8 8 0 20
6 25 14 6 7 24 15 40 17 43 6 75 17 75 26 0 4 11 5 24 3 27 -5 39 7 30 31 -7
18 -24 22 -24 6z"/>
<path d="M2015 719 c-4 -6 -4 -13 -1 -16 8 -8 36 5 36 17 0 13 -27 13 -35 -1z"/>
<path d="M2390 710 c-13 -8 -12 -10 3 -10 9 0 17 5 17 10 0 12 -1 12 -20 0z"/>
<path d="M1795 700 c3 -5 11 -10 16 -10 6 0 7 5 4 10 -3 6 -11 10 -16 10 -6 0
-7 -4 -4 -10z"/>
<path d="M4035 700 c-4 -6 -13 -9 -20 -6 -17 6 -16 -40 1 -55 11 -9 14 -6 14
14 0 14 6 27 15 29 9 2 12 8 6 17 -6 10 -10 10 -16 1z"/>
<path d="M2946 682 c-4 -7 -4 -12 0 -12 4 0 0 -6 -11 -13 -12 -9 -14 -16 -7
-21 12 -7 35 29 29 47 -2 8 -5 8 -11 -1z"/>
<path d="M3800 683 c8 -3 18 -11 22 -17 4 -6 10 -7 15 -3 9 10 -16 27 -37 26
-13 -1 -13 -1 0 -6z"/>
<path d="M4145 680 c3 -5 11 -10 16 -10 6 0 7 5 4 10 -3 6 -11 10 -16 10 -6 0
-7 -4 -4 -10z"/>
<path d="M3900 660 c0 -5 7 -7 15 -4 8 4 15 8 15 10 0 2 -7 4 -15 4 -8 0 -15
-4 -15 -10z"/>
<path d="M498 653 c7 -3 16 -2 19 1 4 3 -2 6 -13 5 -11 0 -14 -3 -6 -6z"/>
<path d="M948 653 c7 -3 16 -2 19 1 4 3 -2 6 -13 5 -11 0 -14 -3 -6 -6z"/>
<path d="M3007 653 c-4 -3 -7 -11 -7 -17 0 -6 5 -5 12 2 6 6 9 14 7 17 -3 3
-9 2 -12 -2z"/>
<path d="M3169 643 c-13 -17 -13 -17 6 -3 11 8 22 16 24 17 2 2 0 3 -6 3 -6 0
-17 -8 -24 -17z"/>
<path d="M3087 643 c-4 -3 -7 -11 -7 -17 0 -6 5 -5 12 2 6 6 9 14 7 17 -3 3
-9 2 -12 -2z"/>
<path d="M4040 625 c0 -5 5 -17 10 -25 5 -8 10 -10 10 -5 0 6 -5 17 -10 25 -5
8 -10 11 -10 5z"/>
<path d="M3976 612 c-2 -4 -1 -14 5 -22 7 -12 9 -10 9 8 0 23 -5 28 -14 14z"/>
<path d="M3070 599 c0 -5 5 -7 10 -4 6 3 10 8 10 11 0 2 -4 4 -10 4 -5 0 -10
-5 -10 -11z"/>
<path d="M1396 581 c-3 -4 6 -6 19 -3 14 2 25 6 25 8 0 8 -39 4 -44 -5z"/>
<path d="M2373 548 c-35 -12 -63 -25 -63 -30 0 -5 5 -6 10 -3 26 16 5 -14 -36
-52 -34 -32 -42 -44 -31 -49 9 -3 25 -1 36 5 26 15 91 81 91 94 0 6 3 7 6 4
10 -9 64 25 64 40 0 16 -1 16 -77 -9z"/>
<path d="M1351 551 c-14 -4 -26 -12 -28 -18 -3 -9 3 -9 26 0 17 6 31 15 31 19
0 4 -1 8 -2 7 -2 -1 -14 -4 -27 -8z"/>
<path d="M1081 515 c-24 -19 -40 -35 -35 -35 5 0 29 16 53 35 24 19 40 35 35
35 -5 0 -29 -16 -53 -35z"/>
<path d="M1285 540 c-3 -5 1 -10 9 -10 9 0 16 5 16 10 0 6 -4 10 -9 10 -6 0
-13 -4 -16 -10z"/>
<path d="M4000 540 c0 -5 5 -10 11 -10 5 0 7 5 4 10 -3 6 -8 10 -11 10 -2 0
-4 -4 -4 -10z"/>
<path d="M620 530 c0 -5 7 -7 15 -4 8 4 15 8 15 10 0 2 -7 4 -15 4 -8 0 -15
-4 -15 -10z"/>
<path d="M1133 495 c-15 -13 -23 -25 -17 -25 6 0 21 11 34 25 30 32 19 32 -17
0z"/>
<path d="M2256 505 c-15 -11 -16 -15 -5 -15 8 0 24 7 35 15 14 11 15 14 4 14
-8 0 -24 -6 -34 -14z"/>
<path d="M2110 465 c-7 -9 -10 -18 -7 -22 8 -7 37 15 37 28 0 14 -16 11 -30
-6z"/>
<path d="M1015 461 c-3 -6 -20 -11 -37 -11 -33 0 -110 -41 -89 -48 6 -2 23 3
36 12 13 9 37 16 53 16 28 0 61 24 49 36 -3 3 -8 1 -12 -5z"/>
<path d="M1977 406 c-16 -12 -16 -14 -2 -20 9 -3 25 3 37 14 21 19 21 20 2 20
-10 0 -27 -7 -37 -14z"/>
<path d="M4386 325 c4 -8 11 -15 16 -15 6 0 5 6 -2 15 -7 8 -14 15 -16 15 -2
0 -1 -7 2 -15z"/>
<path d="M4440 305 c7 -9 15 -13 17 -11 7 7 -7 26 -19 26 -6 0 -6 -6 2 -15z"/>
<path d="M4550 299 c26 -17 70 -40 70 -35 0 5 -69 46 -78 46 -4 0 0 -5 8 -11z"/>
<path d="M4560 216 c0 -2 8 -10 18 -17 15 -13 16 -12 3 4 -13 16 -21 21 -21
13z"/>
<path d="M6908 60 c15 -6 22 -18 22 -35 0 -24 3 -25 53 -25 76 0 95 17 29 26
-36 5 -56 13 -63 25 -6 12 -20 19 -37 18 -26 0 -26 -1 -4 -9z"/>
<path d="M4695 10 c3 -5 8 -10 11 -10 2 0 4 5 4 10 0 6 -5 10 -11 10 -5 0 -7
-4 -4 -10z"/>
<path d="M4990 10 c0 -5 5 -10 11 -10 5 0 7 5 4 10 -3 6 -8 10 -11 10 -2 0 -4
-4 -4 -10z"/>
</g>
</svg>
