<?xml version="1.0" standalone="no"?>
<!DOCTYPE svg PUBLIC "-//W3C//DTD SVG 20010904//EN"
 "http://www.w3.org/TR/2001/REC-SVG-20010904/DTD/svg10.dtd">
<svg version="1.0" xmlns="http://www.w3.org/2000/svg"
 width="787.000000pt" height="500.000000pt" viewBox="0 0 787.000000 500.000000"
 preserveAspectRatio="xMidYMid meet">

<g transform="translate(0.000000,500.000000) scale(0.100000,-0.100000)"
fill="#000000" stroke="none">
<path d="M2 4499 c1 -277 4 -424 5 -326 3 153 6 178 18 173 8 -3 15 0 15 7 0
8 3 8 9 -2 6 -10 21 -11 58 -6 63 8 83 19 65 37 -6 6 -12 22 -12 35 0 13 -4
23 -9 23 -5 0 -13 14 -16 32 -4 18 -20 56 -36 85 -16 30 -29 60 -29 68 0 18
41 61 55 57 5 -1 2 4 -7 11 -10 8 -18 22 -18 32 0 11 -5 15 -15 11 -12 -4 -15
3 -16 32 l-2 37 -7 -35 c-6 -33 -7 -34 -13 -10 -4 14 -8 39 -10 55 -2 17 -5
-26 -6 -94 0 -68 -3 -122 -5 -120 -2 2 -6 91 -10 198 -3 107 -8 197 -11 199
-3 3 -4 -222 -3 -499z m66 76 c0 -16 -2 -15 -8 5 -4 14 -8 34 -8 45 0 16 2 15
8 -5 4 -14 8 -34 8 -45z"/>
<path d="M7540 4050 c-41 -6 -39 -7 25 -8 39 0 81 4 95 8 32 10 -54 10 -120 0z"/>
<path d="M7358 4033 c6 -2 18 -2 25 0 6 3 1 5 -13 5 -14 0 -19 -2 -12 -5z"/>
<path d="M6455 3999 c-84 -8 -144 -13 -360 -29 -212 -15 -301 -20 -473 -25
-89 -3 -213 -9 -275 -15 -243 -20 -605 -44 -652 -43 -27 1 -52 -2 -55 -7 -3
-4 -45 -13 -95 -18 l-90 -11 87 5 c65 4 87 2 91 -8 4 -9 8 -10 14 -2 5 7 56
14 123 18 63 4 144 9 180 11 36 3 139 9 230 15 240 14 458 29 510 35 121 13
797 55 881 55 5 0 6 7 3 15 -4 8 -14 14 -23 14 -9 -1 -52 -5 -96 -10z"/>
<path d="M7603 3973 c15 -2 39 -2 55 0 15 2 2 4 -28 4 -30 0 -43 -2 -27 -4z"/>
<path d="M6538 3940 c2 -16 7 -30 11 -30 4 0 6 14 3 30 -2 17 -7 30 -11 30 -4
0 -6 -13 -3 -30z"/>
<path d="M7753 3963 c9 -2 23 -2 30 0 6 3 -1 5 -18 5 -16 0 -22 -2 -12 -5z"/>
<path d="M7578 3953 c6 -2 18 -2 25 0 6 3 1 5 -13 5 -14 0 -19 -2 -12 -5z"/>
<path d="M7624 3706 c-2 -559 -10 -797 -27 -795 -28 3 -40 -4 -17 -10 18 -5
26 -15 28 -34 4 -34 -6 -34 -41 -1 -28 26 -53 24 -42 -3 4 -12 3 -13 -8 -5 -8
7 -17 9 -21 5 -3 -4 -5 10 -4 30 2 20 4 37 5 37 1 0 13 -4 27 -10 29 -10 36 6
14 28 -9 9 -8 12 5 12 9 0 17 5 17 10 0 19 -48 10 -63 -12 l-16 -23 0 28 c-1
15 -3 27 -6 27 -3 0 -17 -12 -30 -27 -19 -23 -26 -26 -36 -15 -9 9 -10 12 -1
12 8 0 9 7 2 26 -18 46 -14 57 15 38 29 -19 33 -10 8 20 -13 15 -14 17 -2 8
12 -9 19 -9 35 4 15 12 16 15 2 10 -14 -4 -15 0 -8 25 5 17 5 29 -1 29 -5 0
-9 8 -10 18 0 13 -2 13 -9 -4 -5 -12 -13 -25 -19 -29 -6 -3 -11 -15 -11 -26 0
-17 -3 -18 -20 -7 -19 12 -19 13 3 28 28 19 32 43 10 61 -15 13 -16 11 -9 -15
6 -25 5 -28 -7 -18 -12 10 -16 8 -21 -10 -3 -13 -6 -37 -6 -55 0 -38 -17 -80
-36 -87 -23 -9 -16 32 6 44 14 7 19 19 17 35 -4 35 -17 43 -17 11 l0 -27 -32
24 c-53 39 -65 42 -34 9 17 -18 25 -32 18 -32 -7 0 -9 -7 -5 -17 5 -12 2 -15
-10 -10 -15 5 -16 2 -11 -21 4 -15 12 -31 18 -35 6 -5 -22 -6 -62 -3 -57 5
-73 3 -70 -6 3 -7 22 -16 44 -19 21 -3 29 -7 17 -8 -29 -2 -53 -11 -53 -22 0
-4 6 -6 14 -3 19 7 31 -28 13 -41 -8 -5 -14 -14 -14 -20 0 -5 -7 -11 -16 -13
-9 -2 -17 1 -17 6 0 6 -7 13 -17 16 -18 7 -63 -29 -63 -51 0 -7 -7 -13 -16
-13 -11 0 -14 6 -8 22 6 20 5 21 -10 9 -14 -12 -16 -12 -10 3 3 9 1 16 -4 16
-6 0 -14 -10 -17 -21 -6 -17 -9 -19 -16 -8 -6 10 -9 6 -9 -13 0 -14 -6 -29
-12 -31 -10 -4 -10 -6 -1 -6 7 -1 10 -9 7 -18 -5 -15 -3 -15 10 1 20 25 21 8
1 -18 -15 -20 -14 -22 -30 29 -2 8 0 17 5 20 5 3 7 12 4 20 -5 13 -8 12 -21 0
-8 -9 -18 -13 -21 -11 -4 2 -7 -10 -7 -27 0 -27 -4 -32 -22 -31 -13 0 -23 -3
-23 -7 0 -5 -7 -6 -15 -3 -18 7 -19 0 -5 -27 6 -10 18 -19 27 -19 14 0 15 -2
4 -12 -11 -10 -14 -10 -18 0 -3 6 -9 12 -14 12 -6 0 -7 -4 -4 -10 3 -5 2 -10
-4 -10 -12 0 -7 98 6 111 6 6 19 12 29 13 11 2 28 17 40 34 16 23 24 28 33 19
8 -8 11 -8 11 0 0 24 -22 24 -48 2 -21 -19 -23 -19 -9 -3 22 26 22 25 -7 59
-26 30 -61 29 -70 -3 -2 -9 -4 -3 -3 13 1 17 11 38 22 47 19 17 19 17 1 18
-15 0 -16 3 -6 15 10 12 16 13 28 3 13 -11 15 -10 9 5 -4 10 -7 20 -7 23 0 2
-7 1 -15 -2 -8 -4 -15 -1 -15 6 0 6 -4 8 -10 5 -5 -3 -10 -15 -10 -26 0 -11
-4 -18 -9 -15 -5 4 -11 1 -13 -5 -2 -7 -9 -5 -17 5 -11 13 -11 16 2 16 35 0
23 49 -15 63 -10 4 -11 7 0 18 6 7 12 20 12 29 0 10 -8 5 -25 -14 -15 -18 -23
-36 -20 -47 3 -9 2 -20 -2 -22 -4 -3 -9 6 -10 20 -1 29 -23 47 -37 33 -15 -15
-26 -12 -20 5 4 8 1 15 -5 15 -6 0 -11 -7 -11 -15 0 -8 -4 -15 -10 -15 -5 0
-10 -4 -10 -10 0 -5 9 -10 20 -10 11 0 20 -5 20 -11 0 -5 -4 -8 -9 -5 -5 3
-14 -1 -20 -8 -10 -12 -7 -15 16 -19 l28 -4 -27 -2 c-16 0 -28 -7 -29 -13 -4
-44 -3 -55 3 -74 4 -12 1 -27 -5 -34 -9 -10 -8 -12 8 -8 17 4 20 -1 21 -26 5
-102 7 -116 20 -116 8 0 14 9 14 20 0 11 4 20 9 20 11 0 24 -31 16 -38 -3 -3
-5 1 -5 8 0 7 -3 11 -6 8 -3 -4 1 -17 10 -30 12 -19 14 -32 6 -58 -5 -19 -6
-37 -2 -41 6 -6 411 -15 447 -10 6 1 3 6 -5 11 -13 8 -13 10 1 10 9 0 21 11
27 25 11 23 17 25 81 25 38 0 81 4 95 10 14 5 33 7 41 3 14 -5 14 -8 -3 -27
-10 -11 -19 -31 -20 -43 -1 -23 1 -23 114 -23 106 0 114 1 99 16 -10 10 -13
24 -10 38 6 17 2 16 -19 -9 -14 -16 -25 -24 -26 -17 0 7 -3 11 -7 9 -9 -6 -11
10 -15 105 -2 38 -5 68 -8 68 -3 0 -6 11 -6 25 -2 30 11 33 19 5 3 -11 10 -20
16 -20 9 0 9 5 1 20 -9 18 -8 20 15 20 14 0 25 5 25 12 0 6 3 8 6 5 4 -4 2
-12 -3 -19 -6 -7 -7 -22 -3 -33 4 -11 5 -26 2 -34 -4 -9 -1 -12 7 -7 7 5 10
14 7 22 -8 20 10 26 24 9 13 -15 12 -80 -6 -657 l-7 -208 -80 0 c-69 0 -78 -2
-73 -16 4 -9 11 -37 18 -61 11 -45 27 -58 88 -70 35 -6 40 -18 40 -103 0 -41
7 -93 14 -115 14 -40 14 -40 25 -15 5 14 15 69 20 123 6 54 15 104 21 111 8
11 19 11 58 1 26 -7 71 -16 100 -20 l52 -7 0 45 0 45 -114 7 c-79 5 -113 11
-111 19 3 6 11 200 19 431 14 394 20 630 31 1356 l5 296 -38 0 -37 0 -1 -251z
m23 182 c-3 -8 -6 -5 -6 6 -1 11 2 17 5 13 3 -3 4 -12 1 -19z m-247 -918 c0
-5 -8 -7 -17 -5 -10 2 -22 4 -27 4 -5 1 -3 8 4 16 10 12 16 13 26 4 8 -6 14
-15 14 -19z m-674 -16 c-4 -9 -9 -15 -11 -12 -3 3 -3 13 1 22 4 9 9 15 11 12
3 -3 3 -13 -1 -22z m627 -8 c6 -15 -1 -26 -15 -26 -4 0 -8 9 -8 20 0 23 15 27
23 6z m26 -12 c-6 -7 -8 -18 -4 -24 3 -5 2 -10 -4 -10 -5 0 -9 13 -9 29 1 21
5 28 15 24 10 -4 11 -9 2 -19z m73 4 c-7 -7 -12 -8 -12 -2 0 14 12 26 19 19 2
-3 -1 -11 -7 -17z m-727 -28 c3 -5 12 -7 19 -4 7 3 16 -2 19 -10 4 -9 2 -16
-3 -16 -6 0 -10 5 -10 11 0 5 -3 8 -7 6 -5 -3 -21 1 -38 8 -26 12 -27 13 -8
14 12 1 24 -3 28 -9z m-17 -32 c-6 -18 -25 -20 -31 -3 -5 10 0 15 14 15 12 0
19 -5 17 -12z m72 -55 c0 -7 -5 -13 -11 -13 -5 0 -8 4 -5 9 3 5 -1 11 -8 14
-8 3 -20 16 -26 27 -12 22 -11 22 19 -1 17 -12 31 -29 31 -36z m530 22 c-7 -8
-22 -15 -34 -15 -17 1 -16 3 9 15 39 18 40 18 25 0z m-630 -29 c0 -6 3 -22 7
-36 6 -23 6 -24 -10 -8 -9 9 -17 22 -17 28 0 6 -4 9 -9 6 -5 -4 -7 3 -4 13 5
21 33 18 33 -3z m430 14 c0 -5 -5 -10 -11 -10 -5 0 -7 5 -4 10 3 6 8 10 11 10
2 0 4 -4 4 -10z m-342 -44 c10 -19 11 -31 3 -40 -6 -7 -8 -16 -4 -19 3 -4 1
-7 -5 -7 -7 0 -12 -5 -12 -11 0 -5 5 -7 10 -4 6 3 10 -3 10 -15 0 -15 -5 -20
-17 -18 -15 3 -18 15 -20 76 -1 78 10 90 35 38z m662 24 c0 -5 -5 -10 -11 -10
-5 0 -7 5 -4 10 3 6 8 10 11 10 2 0 4 -4 4 -10z m-43 -26 c-9 -9 -28 6 -21 18
4 6 10 6 17 -1 6 -6 8 -13 4 -17z m-530 10 c-3 -3 -12 -4 -19 -1 -8 3 -5 6 6
6 11 1 17 -2 13 -5z m270 -31 c-8 -7 -37 9 -31 19 3 5 12 4 20 -3 8 -6 13 -14
11 -16z m-33 -38 c-4 -8 -10 -12 -15 -9 -11 6 -2 24 11 24 5 0 7 -7 4 -15z
m286 5 c0 -5 -5 -10 -11 -10 -5 0 -7 5 -4 10 3 6 8 10 11 10 2 0 4 -4 4 -10z
m-495 -40 c3 -6 -4 -10 -17 -10 -18 0 -20 2 -8 10 19 12 18 12 25 0z m232 -22
c-3 -8 -6 -5 -6 6 -1 11 2 17 5 13 3 -3 4 -12 1 -19z m-200 -29 c-9 -6 -17
-16 -17 -23 0 -9 -9 -12 -25 -8 -21 3 -23 7 -14 18 7 8 14 12 17 10 2 -3 14 1
25 9 12 8 23 12 26 9 3 -3 -2 -10 -12 -15z m553 11 c0 -5 -5 -10 -11 -10 -5 0
-7 5 -4 10 3 6 8 10 11 10 2 0 4 -4 4 -10z m-10 -36 c0 -8 -4 -12 -10 -9 -5 3
-10 10 -10 16 0 5 5 9 10 9 6 0 10 -7 10 -16z"/>
<path d="M6493 3913 c9 -2 23 -2 30 0 6 3 -1 5 -18 5 -16 0 -22 -2 -12 -5z"/>
<path d="M6537 3884 c-4 -4 -7 -205 -7 -446 0 -489 7 -453 -76 -418 -26 11
-49 18 -51 16 -3 -3 12 -12 33 -21 31 -13 36 -18 24 -25 -12 -7 -9 -10 13 -10
15 0 27 -5 27 -11 0 -6 -7 -8 -16 -5 -17 7 -84 -29 -84 -45 0 -13 14 -11 29 4
11 10 13 9 8 -5 -4 -13 1 -18 21 -20 26 -4 26 -4 -8 -15 -23 -7 -28 -12 -15
-13 16 -1 14 -4 -10 -15 l-30 -13 28 -1 c16 -1 37 4 48 9 31 17 22 -3 -16 -33
-19 -15 -35 -32 -35 -37 0 -20 27 -9 60 25 43 44 56 45 30 3 -25 -42 -27 -73
-2 -41 16 22 17 19 17 -81 l0 -104 -165 1 c-144 1 -169 -1 -200 -18 -19 -10
-48 -20 -64 -22 -16 -2 -32 -6 -35 -9 -3 -4 8 -5 24 -2 l31 4 -4 -61 c-4 -66
9 -104 47 -139 12 -11 21 -31 21 -48 0 -25 -4 -29 -22 -26 -15 2 -28 15 -37
36 l-15 32 -99 0 -99 0 3 43 4 42 -128 -1 c-71 -1 -137 0 -148 3 -18 5 -19 15
-19 149 l0 144 38 2 c20 0 44 0 52 -1 60 -7 290 0 314 9 24 9 31 8 38 -5 7
-12 28 -15 93 -15 74 0 85 2 86 18 0 10 3 12 6 5 5 -14 52 -16 92 -4 23 6 23
7 7 24 -10 9 -25 17 -34 17 -11 0 -13 3 -5 11 8 8 17 8 32 -1 16 -8 21 -8 19
1 -2 6 3 14 11 16 9 4 11 0 6 -16 -5 -18 -2 -21 19 -21 l25 0 -23 25 c-14 15
-34 25 -52 25 -36 0 -50 9 -56 35 -5 18 -6 18 -16 -5 -6 -14 -11 -20 -12 -15
0 6 -5 3 -10 -5 -9 -13 -12 -13 -21 3 -5 9 -15 17 -21 17 -6 0 -5 -7 3 -17 13
-15 12 -15 -11 -3 l-25 13 20 -23 c18 -21 18 -23 2 -17 -10 4 -23 7 -28 7 -6
0 -8 4 -5 8 3 5 -18 3 -46 -4 -46 -12 -54 -12 -70 3 -10 9 -18 21 -18 27 0 6
5 4 10 -4 9 -13 10 -13 11 0 6 57 5 77 -5 89 -9 12 -7 13 7 8 10 -4 21 -7 23
-7 3 0 2 -5 -1 -11 -4 -6 -8 -30 -9 -53 -1 -39 1 -43 21 -42 15 1 23 7 23 20
0 16 -2 17 -17 5 -15 -13 -15 -12 -4 9 7 12 16 20 20 17 5 -2 11 6 13 20 3 13
1 26 -4 27 -14 5 2 38 18 38 21 0 54 -37 48 -53 -3 -8 2 -20 11 -27 10 -8 15
-9 15 -1 0 6 -4 11 -10 11 -5 0 -10 5 -10 10 0 7 6 7 20 0 27 -14 25 -5 -5 28
-14 15 -25 32 -25 39 0 7 -9 13 -20 13 -11 0 -20 5 -20 11 0 5 -4 7 -10 4 -5
-3 -7 0 -4 9 3 8 -3 19 -14 25 -16 8 -21 7 -26 -6 -4 -9 -9 -13 -12 -10 -12
12 20 44 40 40 20 -3 20 -3 1 5 -23 11 -45 5 -45 -11 0 -6 -7 -1 -16 11 -8 12
-22 22 -30 22 -8 0 -13 4 -9 10 3 5 13 6 23 3 16 -6 16 -6 -1 11 -9 10 -15 21
-12 26 3 5 1 11 -4 14 -5 3 -7 14 -4 25 6 25 -26 58 -39 39 -7 -10 -9 -10 -7
2 1 8 1 22 0 30 -1 13 -2 13 -11 0 -8 -13 -10 -13 -10 1 0 9 -6 19 -14 22 -10
4 -12 0 -9 -14 3 -10 0 -19 -6 -19 -6 0 -11 5 -11 10 0 6 -7 10 -15 10 -8 0
-15 -4 -15 -10 0 -5 5 -9 12 -7 12 2 43 -71 34 -80 -3 -3 -14 12 -25 34 -17
31 -20 34 -18 13 1 -14 6 -31 10 -37 5 -7 5 -18 1 -25 -5 -8 0 -9 15 -5 17 4
21 2 17 -10 -3 -8 -6 -17 -6 -19 0 -2 -8 -4 -17 -4 -16 0 -16 -2 -3 -11 11 -8
9 -9 -10 -4 -14 4 -29 11 -34 16 -5 4 -21 5 -36 2 -15 -3 -38 0 -51 7 -17 8
-14 3 10 -18 23 -19 30 -31 22 -36 -6 -4 -9 -12 -6 -17 9 -14 25 -11 25 6 0
17 25 20 35 5 3 -5 1 -10 -5 -10 -6 0 -23 -13 -37 -30 -13 -16 -31 -30 -38
-30 -20 0 -55 -40 -55 -62 0 -16 -17 -23 -43 -19 -5 1 -6 -3 -2 -9 4 -6 1 -17
-5 -26 -10 -11 -16 -11 -26 -3 -8 6 -12 15 -9 19 3 5 1 11 -5 15 -6 4 -10 170
-10 480 0 461 -1 474 -20 480 -10 3 -35 3 -55 -1 l-35 -6 0 -394 c0 -399 -3
-435 -38 -449 -21 -8 -30 4 -12 15 11 7 12 10 2 10 -9 0 -12 11 -10 33 2 26 7
31 23 29 17 -2 17 -1 5 8 -13 9 -13 12 3 21 25 15 22 32 -4 18 -17 -8 -20 -8
-14 1 5 8 3 11 -6 8 -7 -2 -21 5 -31 16 -17 21 -17 21 -11 -4 l6 -25 -20 20
c-11 12 -27 41 -37 65 l-16 45 6 -40 c3 -22 14 -49 23 -60 15 -16 41 -75 41
-91 0 -2 -7 -4 -16 -4 -10 0 -14 -6 -10 -15 3 -8 1 -15 -4 -15 -9 0 -15 30
-11 53 1 4 -10 13 -25 19 -20 10 -24 17 -19 37 l6 24 -35 -26 c-31 -24 -35
-25 -39 -9 -3 12 -5 10 -6 -7 -1 -24 -1 -24 -22 -5 -21 19 -22 19 -15 -2 5
-16 0 -27 -19 -42 -33 -26 -32 -29 8 -25 l32 3 -28 -11 c-24 -9 -26 -13 -15
-27 11 -13 10 -15 -15 -10 -15 3 -30 1 -33 -3 -3 -5 0 -9 5 -9 22 0 10 -18
-16 -26 -20 -5 -23 -8 -11 -11 11 -3 15 -10 11 -21 -6 -15 -5 -15 13 -3 18 14
18 14 2 -4 -16 -17 -16 -19 4 -37 22 -19 21 -19 -25 -22 -19 -1 -26 2 -22 11
15 37 17 47 10 41 -4 -4 -17 -1 -29 7 -24 17 -40 20 -31 5 12 -20 -12 -9 -35
15 -13 14 -28 24 -34 24 -6 -1 -26 2 -43 6 -48 11 -28 28 26 22 30 -4 39 -3
26 3 -17 7 -17 9 -2 9 20 1 23 21 3 21 -8 0 -26 -4 -40 -10 -15 -5 -26 -6 -26
-1 0 5 16 15 35 21 44 14 46 28 3 22 -26 -4 -30 -2 -25 12 4 10 7 20 7 22 0 2
9 4 21 4 11 0 18 4 14 9 -3 5 2 17 11 25 8 9 11 16 6 16 -5 0 -26 -17 -46 -37
-25 -26 -36 -32 -36 -21 0 9 5 20 10 23 7 4 7 12 0 24 -5 10 -6 22 -2 26 4 5
1 5 -6 1 -7 -4 -12 -13 -11 -19 3 -28 -2 -48 -11 -42 -9 5 -8 -49 1 -84 2 -7
-2 -16 -10 -19 -9 -3 -11 0 -6 7 5 8 1 11 -11 9 -16 -2 -19 4 -21 37 -1 22 -2
46 -2 53 -1 6 -10 12 -22 12 -15 0 -19 -4 -15 -16 5 -14 1 -16 -24 -11 l-30 7
15 -36 c14 -34 14 -35 -5 -29 -11 4 -20 2 -20 -4 0 -6 -12 -11 -26 -11 -24 0
-25 -2 -13 -17 11 -13 11 -17 2 -20 -9 -3 -13 -35 -13 -109 l0 -105 26 28 26
28 -26 -37 c-14 -20 -26 -45 -26 -55 0 -16 8 -18 64 -15 l64 4 9 -39 c8 -37
10 -38 53 -39 104 -2 163 -7 142 -11 -18 -4 -21 -9 -16 -26 4 -12 11 -38 15
-57 7 -31 8 -28 6 18 l-2 52 50 0 c28 0 74 -3 104 -7 l54 -6 -52 -14 c-29 -7
-57 -11 -62 -8 -5 4 -6 -1 -3 -9 3 -9 1 -16 -4 -16 -6 0 -14 -9 -17 -20 -4
-11 -11 -18 -16 -15 -18 11 -9 -14 12 -34 14 -13 17 -21 9 -26 -6 -4 -9 -14
-6 -22 3 -8 1 -11 -5 -8 -5 4 -16 1 -24 -5 -12 -10 -15 -9 -15 6 0 11 -4 25
-9 33 -5 8 -7 -12 -4 -51 4 -50 2 -65 -8 -67 -55 -8 -215 -12 -276 -6 l-74 7
1 66 c1 37 1 361 1 720 l-1 652 -25 0 -25 0 0 -720 0 -720 -44 0 c-44 0 -44 0
-51 -41 l-7 -42 -152 7 c-85 4 -157 3 -165 -2 -8 -6 42 -12 135 -16 82 -4 172
-9 199 -11 28 -2 104 -6 170 -10 66 -3 154 -8 195 -11 41 -3 149 -7 240 -10
91 -2 206 -9 257 -14 51 -6 136 -10 190 -10 120 0 210 -14 234 -36 23 -21 25
-77 4 -94 -14 -12 -14 -15 0 -30 14 -16 14 -19 -5 -41 l-21 -24 5 71 c2 38 1
75 -2 81 -21 32 -88 39 -662 63 -124 5 -288 14 -365 19 -77 6 -201 13 -275 16
-74 3 -168 10 -208 16 -106 13 -197 11 -237 -5 -33 -14 -35 -18 -35 -60 0 -26
5 -46 10 -46 6 0 10 -8 10 -18 0 -16 -8 -17 -72 -14 -40 2 -75 6 -76 7 -2 2
-1 17 2 33 7 27 9 28 59 27 40 -2 42 -1 9 2 l-43 4 0 162 c-3 732 -12 1414
-20 1422 -6 5 -9 2 -9 -10 0 -18 0 -18 -16 1 -14 17 -15 -54 -10 -777 l5 -796
-24 -11 c-17 -8 -32 -8 -54 1 -41 15 -47 6 -27 -43 9 -22 16 -49 16 -60 0 -21
-15 -27 -25 -10 -9 14 -25 2 -25 -18 0 -10 9 -35 20 -57 25 -48 25 -45 -5 -45
-15 0 -25 -6 -25 -15 0 -12 -9 -13 -43 -9 -34 5 -45 3 -50 -9 -5 -13 4 -17 41
-22 68 -9 109 -24 116 -40 3 -8 1 -15 -4 -15 -6 0 -10 3 -10 8 0 4 -52 8 -116
10 -102 2 -118 0 -133 -16 -10 -11 -27 -17 -44 -16 -22 2 -27 -1 -23 -12 3 -7
4 -14 2 -14 -3 0 -11 -3 -20 -6 -11 -4 -16 -1 -16 10 0 14 -3 14 -20 4 -19
-12 -19 -13 5 -26 23 -11 29 -10 52 8 31 24 53 26 53 4 0 -10 -6 -14 -15 -10
-9 3 -15 0 -15 -9 0 -9 6 -12 15 -9 11 5 15 -1 15 -25 0 -27 -3 -31 -22 -27
-13 3 -50 8 -83 11 -33 4 -79 11 -102 17 -41 10 -43 12 -43 49 0 46 -7 52 -45
33 -77 -36 -393 -137 -426 -135 -20 0 -115 -19 -212 -44 -151 -39 -180 -43
-202 -33 -25 11 -68 6 -126 -17 -13 -5 -18 5 -28 51 -14 73 -14 94 2 94 10 0
283 80 752 220 228 68 378 109 433 116 46 6 52 9 52 30 0 28 -10 30 -51 8 -17
-8 -37 -13 -45 -10 -8 3 -13 2 -10 -3 6 -9 6 -10 -134 -46 -90 -24 -128 -35
-310 -91 -41 -12 -95 -26 -120 -29 -78 -12 -195 -42 -228 -59 -17 -9 -39 -16
-49 -15 -14 0 -12 3 6 10 49 19 11 19 -45 0 -32 -12 -60 -19 -62 -16 -3 2 -20
-2 -39 -10 -19 -8 -49 -16 -66 -17 -47 -4 -93 -30 -89 -51 2 -9 -1 -17 -7 -17
-5 0 -11 14 -13 32 -3 29 -8 33 -42 42 -26 6 -61 5 -105 -3 -38 -7 -67 -9 -69
-3 -7 23 -104 162 -132 189 -27 27 -40 31 -108 36 -42 4 -111 16 -152 27 -41
11 -93 22 -115 23 -22 2 -50 9 -62 15 -51 28 -113 8 -113 -37 0 -20 -6 -30
-19 -34 -32 -8 -73 5 -78 24 -7 25 -19 24 -26 -1 -3 -11 -10 -20 -16 -20 -6 0
-11 9 -11 20 0 11 5 20 10 20 6 0 10 6 10 13 0 9 -12 11 -42 8 -41 -4 -42 -5
-13 -11 28 -6 26 -7 -20 -15 -27 -4 -79 -18 -115 -29 -58 -20 -65 -25 -65 -48
0 -14 -2 -29 -5 -32 -6 -5 -314 10 -388 20 -39 5 -43 8 -40 31 2 21 12 29 48
40 25 7 57 11 71 9 21 -4 26 -1 25 12 -1 14 8 17 47 16 46 0 68 15 25 17 -14
1 -9 4 12 8 19 3 55 4 79 2 l45 -3 -27 -20 c-39 -29 -36 -52 6 -43 17 4 52 7
76 7 28 0 39 3 30 9 -8 5 -27 9 -42 9 -16 0 -26 4 -22 10 3 5 20 8 37 6 19 -2
37 3 47 13 12 12 31 15 72 13 42 -2 59 1 69 14 13 15 8 15 -55 9 -39 -4 -74
-11 -80 -16 -5 -5 -23 -9 -40 -9 -25 0 -31 4 -33 25 -2 26 8 31 36 16 9 -5 35
-6 57 -2 l40 6 5 58 c6 65 23 77 29 20 3 -35 4 -36 11 -13 7 21 8 18 9 -17 2
-67 21 -51 21 17 0 33 4 60 9 60 14 0 20 -26 14 -63 -3 -20 -1 -37 6 -41 7 -5
11 5 11 28 0 19 3 41 6 50 5 14 8 14 21 1 8 -9 18 -13 22 -11 4 3 22 -8 39
-24 34 -31 56 -31 73 1 5 11 20 19 34 19 22 0 24 2 14 19 -13 19 -6 51 9 51
11 0 22 -48 22 -91 0 -16 5 -29 10 -29 6 0 10 14 10 30 0 37 13 39 29 4 6 -15
14 -24 17 -21 3 3 -4 23 -15 46 -12 22 -21 49 -21 61 0 11 -6 20 -12 20 -7 0
4 16 25 35 20 20 37 37 37 40 0 3 -18 5 -40 5 -30 0 -40 4 -40 16 0 9 5 12 12
8 6 -4 8 -3 5 3 -10 16 4 74 16 66 6 -4 7 -1 3 6 -5 7 -5 27 -2 46 5 26 11 33
25 30 14 -2 21 4 25 21 4 13 13 24 20 24 8 0 16 7 19 14 4 11 1 13 -10 9 -12
-5 -15 -2 -10 10 7 20 -4 22 -21 5 -9 -9 -12 -9 -12 3 -1 10 -5 9 -15 -5 -14
-19 -15 -17 -15 21 0 64 18 103 47 103 13 0 21 -4 18 -10 -3 -5 -13 -10 -21
-10 -18 0 -18 -8 1 -27 13 -12 29 -14 80 -8 l65 7 1 -29 c0 -15 2 -54 3 -85 2
-54 1 -57 -23 -61 l-26 -4 28 -2 c35 -1 35 -18 -1 -24 -27 -4 -27 -4 -1 -6 24
-1 25 -3 27 -81 2 -44 -1 -80 -5 -80 -5 0 -28 12 -52 25 -24 14 -46 24 -48 21
-2 -2 -6 -17 -7 -32 -2 -16 -4 -32 -5 -36 0 -5 -8 -8 -16 -8 -13 0 -12 -5 2
-35 24 -50 9 -126 -27 -136 -31 -9 -24 -11 50 -22 25 -4 137 -13 250 -22 113
-9 215 -18 227 -21 21 -4 23 -10 23 -59 l0 -55 48 1 c42 0 107 17 73 18 -7 1
-11 7 -8 15 3 8 1 17 -6 20 -7 2 -2 5 11 5 28 1 29 17 1 26 -11 4 -18 9 -16
12 3 2 -3 23 -14 46 -10 23 -19 52 -19 65 0 17 -6 22 -25 22 -16 0 -25 6 -25
15 0 8 -9 15 -21 15 -16 0 -19 4 -14 23 5 17 4 19 -4 7 -6 -8 -8 -29 -5 -46 6
-32 -4 -48 -21 -36 -15 11 -45 68 -45 86 0 9 -7 16 -15 16 -8 0 -12 6 -9 14 4
11 -4 16 -27 18 -18 2 -34 9 -37 16 -3 11 0 12 16 3 35 -19 49 -12 20 10 -36
26 -35 35 2 43 32 6 42 26 13 26 -9 0 -25 7 -35 17 -20 18 -19 22 -22 -59 -1
-26 -4 -50 -8 -53 -11 -11 -30 6 -24 21 3 8 1 14 -4 14 -6 0 -10 -7 -10 -15 0
-18 -13 -19 -80 -4 l-50 11 -1 96 c-1 53 -3 108 -4 122 -2 14 -6 131 -9 260
-13 497 -18 600 -29 600 -7 0 -8 -93 -4 -300 l6 -300 -32 0 c-26 0 -33 4 -33
20 0 11 5 20 11 20 5 0 16 9 23 21 18 28 -2 56 -26 37 -13 -11 -14 -10 -7 11
4 15 3 21 -3 17 -5 -3 -12 -20 -16 -38 -5 -26 -9 -30 -16 -18 -5 8 -10 10 -10
4 0 -5 4 -14 10 -20 6 -6 6 -21 0 -39 -8 -29 -9 -29 -15 -7 -4 12 -12 22 -17
22 -5 0 -7 -8 -3 -19 5 -16 0 -18 -52 -19 -60 0 -83 -15 -83 -54 0 -20 26 -36
38 -23 4 4 1 10 -5 12 -25 9 -12 23 21 23 35 0 35 0 20 -27 -7 -16 -14 -42
-14 -60 0 -32 -23 -55 -46 -46 -11 4 -34 -38 -34 -62 0 -8 -8 -15 -17 -15 -10
0 -25 -5 -33 -11 -12 -8 -8 -10 16 -7 31 4 31 3 21 -21 -15 -36 -15 -35 -31
-22 -11 9 -15 7 -18 -14 -4 -17 -1 -25 8 -25 18 0 18 -9 -2 -32 -10 -10 -19
-41 -22 -70 -5 -44 -7 -48 -11 -24 -4 16 -12 31 -19 34 -10 3 -12 -8 -9 -47 3
-28 1 -51 -4 -51 -5 0 -9 5 -9 10 0 7 -13 9 -33 5 -29 -6 -33 -3 -44 25 -8 21
-9 40 -2 56 12 32 11 37 -1 29 -6 -4 -10 16 -10 54 0 56 -11 84 -25 62 -4 -7
-15 -7 -30 -1 -17 6 -25 6 -25 -1 0 -6 -4 -7 -10 -4 -11 7 -13 -18 -10 -141 1
-51 -3 -84 -9 -89 -8 -4 -11 6 -9 32 1 21 1 56 0 77 -2 36 -3 38 -19 23 -28
-24 -83 -26 -83 -3 0 8 22 22 50 32 39 14 50 23 51 41 1 13 2 29 3 36 0 7 18
13 41 15 63 4 83 11 88 30 4 16 5 16 6 0 0 -10 7 -18 15 -18 21 0 8 37 -16 43
-11 3 -17 10 -13 16 3 6 -1 11 -11 11 -10 0 -15 3 -11 6 9 9 77 -16 78 -29 0
-7 4 -3 8 8 10 24 -10 33 -82 34 -66 1 -86 -11 -93 -59 -18 -115 -29 10 -40
460 -3 140 -7 289 -9 330 l-3 75 -46 3 -46 3 0 40 c0 22 4 48 9 57 20 37 -7
49 -121 54 l-108 6 0 -73 c0 -39 3 -106 6 -147 l7 -75 48 -2 c27 -1 60 -6 74
-11 22 -8 25 -16 25 -55 0 -38 -3 -45 -20 -45 -15 0 -20 -7 -20 -25 0 -25 -14
-34 -24 -16 -3 5 -15 7 -26 4 -16 -4 -20 0 -20 21 0 14 -4 26 -10 26 -5 0 -10
-7 -10 -15 0 -21 -18 -19 -23 3 -3 12 -5 11 -6 -6 -1 -16 6 -26 19 -29 29 -8
19 -27 -15 -31 -25 -3 -27 -1 -21 22 6 23 3 26 -20 26 -24 0 -25 -2 -13 -17
12 -15 12 -16 -6 -9 -11 5 -30 8 -42 7 -19 -1 -23 4 -23 29 0 17 -4 30 -10 30
-19 0 -29 -36 -20 -76 4 -21 10 -88 13 -149 l4 -110 -198 0 c-110 0 -199 2
-199 5 0 4 16 12 36 19 19 7 34 15 31 17 -2 2 -20 -3 -40 -11 -51 -21 -64 -19
-41 7 19 22 19 22 -19 -1 -21 -13 -39 -22 -41 -20 -6 7 -13 133 -9 146 2 7 36
26 74 44 38 18 69 36 69 40 0 13 -7 11 -38 -8 l-27 -17 19 22 c32 37 12 34
-48 -8 -31 -22 -60 -40 -64 -40 -4 0 -8 -97 -10 -216 l-3 -217 77 7 c83 8 116
-4 135 -47 l10 -22 -5 23 c-4 20 0 22 39 22 35 0 45 4 50 20 8 24 21 27 146
34 79 5 99 3 109 -9 8 -9 30 -15 60 -15 38 0 50 4 62 23 14 20 25 22 111 25
91 4 96 3 110 -20 25 -38 29 -83 13 -122 -9 -21 -11 -36 -5 -36 6 0 7 -5 3
-11 -5 -8 -1 -8 14 0 24 13 52 15 52 3 0 -8 -73 -42 -91 -42 -8 0 -8 4 0 13
11 14 6 27 -11 27 -4 0 -8 -45 -8 -100 0 -111 -16 -170 -47 -170 -15 0 -16 2
-3 11 11 8 5 9 -25 4 -29 -4 -36 -3 -25 4 12 9 11 11 -6 11 -28 0 -35 43 -24
136 7 53 5 72 -6 88 -8 11 -14 30 -14 43 0 12 -10 29 -22 37 -31 22 -107 21
-125 -1 -13 -16 -14 -16 -10 10 4 24 1 27 -26 27 -24 0 -28 -3 -19 -12 7 -7
12 -29 12 -50 0 -27 4 -38 15 -38 8 0 15 -4 15 -9 0 -5 -6 -8 -14 -7 -8 0 -15
-3 -15 -9 0 -5 7 -9 15 -9 11 2 12 -1 3 -12 -6 -8 -8 -14 -4 -14 4 0 -3 -9
-16 -20 -20 -16 -21 -19 -6 -20 21 0 22 -13 3 -43 -8 -12 -17 -44 -20 -72 -7
-54 -24 -105 -35 -105 -4 0 -24 9 -46 20 -22 11 -45 20 -52 20 -10 0 -12 27
-10 123 2 67 0 133 -5 146 -5 14 -4 28 2 36 16 19 -14 37 -68 42 -60 5 -72 -4
-87 -63 -7 -28 -18 -49 -26 -50 -8 0 -51 -2 -96 -2 -81 -2 -83 -3 -83 -26 0
-17 8 -27 28 -34 17 -7 21 -11 10 -11 -10 -1 -18 -9 -19 -18 -1 -12 -4 -10 -9
7 -7 22 -8 20 -9 -14 -1 -31 2 -36 12 -27 14 11 138 32 146 25 2 -2 -1 -16 -8
-30 -11 -25 -14 -25 -81 -22 l-70 3 0 -40 c0 -30 3 -36 12 -27 7 7 27 12 45
12 27 0 33 -4 33 -21 0 -20 -4 -21 -45 -15 l-45 7 0 -1115 0 -1116 1791 0
c1210 0 1788 3 1784 10 -4 6 -10 8 -14 6 -4 -3 -31 1 -60 9 -28 7 -54 13 -56
13 -3 0 -48 8 -100 18 -60 11 -91 21 -83 26 8 5 2 6 -14 2 -19 -4 -28 -2 -28
6 0 7 -7 10 -16 6 -10 -4 -13 -2 -8 6 5 7 -1 9 -20 4 -14 -3 -26 -2 -26 3 0 9
-29 20 -70 26 -14 2 -26 9 -28 15 -5 14 -39 13 -45 -2 -3 -10 -10 -8 -25 6
-12 11 -28 16 -38 12 -16 -6 -118 16 -159 35 -11 5 -42 13 -69 18 -27 5 -51
13 -55 18 -7 10 -149 56 -245 78 -37 9 -75 19 -84 22 -9 4 -13 2 -9 -4 5 -7 0
-9 -13 -6 -11 3 -17 10 -14 15 4 6 -9 7 -31 2 -25 -4 -36 -3 -32 4 4 5 0 13
-9 16 -24 9 -31 7 -14 -4 8 -5 10 -10 4 -10 -5 0 -19 7 -30 15 -10 8 -30 15
-44 15 -24 0 -164 38 -146 39 4 1 -2 10 -15 21 l-24 19 41 1 c41 0 82 28 67
45 -5 4 17 5 47 1 38 -4 50 -3 40 4 -8 5 -23 10 -32 10 -25 0 -22 27 3 40 24
13 85 7 204 -20 179 -40 186 -35 20 15 -49 14 -112 37 -140 51 -43 21 -46 24
-22 24 18 0 27 5 27 16 0 14 7 15 37 10 92 -17 113 -18 113 -8 0 6 -12 13 -27
15 -23 3 -22 4 9 6 20 0 39 7 41 14 4 9 8 9 15 -2 7 -9 19 -11 41 -6 18 4 62
0 104 -9 185 -40 364 -68 236 -37 -160 39 -332 97 -304 102 6 1 -10 5 -35 8
-25 3 -44 11 -42 16 2 6 -7 13 -20 17 -42 14 88 -1 188 -22 54 -11 100 -18
102 -15 5 4 -39 16 -173 47 -75 17 -92 24 -67 26 20 2 30 7 26 14 -5 7 4 9 27
5 19 -3 57 -9 84 -12 28 -4 95 -17 150 -30 120 -29 335 -68 341 -62 5 5 -327
87 -418 103 -21 3 -38 10 -38 14 0 5 -28 13 -62 18 -57 8 -59 10 -23 12 35 2
37 3 15 10 -14 4 -40 8 -57 9 -18 1 -33 6 -33 11 0 6 -15 10 -32 11 -48 1 -87
13 -68 21 8 3 67 -5 130 -19 115 -24 202 -28 100 -5 -30 7 -83 21 -116 30 -60
16 -61 16 -37 29 21 11 35 10 82 -1 76 -20 262 -54 338 -62 60 -6 63 -8 74
-41 6 -19 9 -45 6 -59 -5 -26 17 -39 48 -28 16 7 17 25 3 84 -2 11 6 14 32 13
l35 -2 -37 10 c-32 9 -39 17 -47 47 -19 74 -19 77 14 75 l30 -3 -35 14 c-30
11 -36 18 -43 57 -13 77 -29 119 -46 120 -11 0 -9 4 6 11 13 6 23 20 23 31 0
14 5 18 20 14 11 -3 18 -2 15 2 -2 5 7 13 20 19 19 9 25 9 26 -1 0 -6 4 -1 10
11 12 30 0 129 -18 147 -7 8 -34 17 -59 21 -48 7 -49 8 -57 66 -5 30 -2 37 14
41 13 4 19 14 19 34 0 25 5 30 48 43 26 8 52 15 57 15 6 1 19 6 30 12 27 14
124 43 155 46 14 1 27 5 30 9 3 3 37 -5 76 -18 39 -13 113 -29 164 -36 l92
-13 -6 -110 c-9 -166 -9 -165 -74 -165 -36 0 -44 3 -32 11 13 9 12 10 -2 5
-10 -3 -26 -9 -35 -13 -13 -5 -15 -2 -10 10 5 14 2 16 -16 13 -36 -7 -57 -17
-57 -28 0 -6 6 -5 15 2 12 10 15 10 15 -3 0 -9 10 -17 22 -19 21 -3 21 -4 -5
-16 -23 -10 -27 -10 -21 0 4 7 -2 4 -13 -7 -11 -12 -43 -32 -71 -45 -29 -14
-52 -28 -52 -32 0 -12 10 -10 54 11 128 59 163 74 189 82 25 7 27 6 17 -7 -8
-8 -11 -30 -7 -54 3 -22 -1 -61 -9 -86 -14 -48 -10 -92 12 -109 13 -10 23 -86
50 -375 8 -91 17 -170 19 -176 2 -6 35 -12 77 -14 40 -2 83 -4 96 -4 12 -1 22
-2 22 -3 0 -11 -50 -194 -55 -203 -3 -5 -9 -22 -11 -37 -3 -15 -7 -30 -10 -35
-8 -13 -24 -9 -24 6 0 8 -11 13 -27 14 -16 0 -50 5 -77 11 -76 17 -66 5 13
-15 39 -10 71 -24 71 -31 0 -6 9 -15 20 -18 24 -8 24 -5 2 -85 -11 -39 -25
-66 -33 -66 -8 -1 -18 -2 -24 -3 -23 -3 33 -28 62 -28 37 0 49 19 27 42 -22
22 -2 45 40 46 17 0 25 3 19 6 -7 2 -13 13 -13 24 0 10 -4 19 -10 19 -5 0 -10
-4 -10 -10 0 -5 -6 -7 -14 -4 -10 4 -12 13 -7 32 6 21 13 26 32 24 13 -2 28
-8 33 -13 6 -5 26 -9 45 -10 39 0 166 -31 177 -42 4 -4 19 -7 34 -7 15 0 49
-7 76 -15 46 -15 190 -45 311 -65 28 -4 56 -11 61 -14 20 -12 169 -36 224 -36
l57 0 -4 94 c-2 52 -6 104 -10 115 -3 12 -2 21 3 21 5 0 13 -37 17 -82 5 -46
9 -86 10 -90 2 -5 3 -19 4 -33 1 -21 6 -25 35 -25 29 0 34 4 39 27 6 31 -13
53 -45 53 -10 0 -18 6 -18 14 0 11 9 11 58 0 31 -8 71 -13 87 -13 29 1 29 1 5
8 -14 4 -24 13 -23 19 2 7 -5 12 -15 13 -9 0 -4 4 11 9 16 5 36 7 45 4 10 -2
4 2 -13 10 -16 8 -23 15 -15 16 19 0 295 -53 410 -80 142 -33 432 -80 485 -79
40 0 45 2 25 8 -46 15 -125 32 -221 47 -223 36 -268 44 -334 59 -38 9 -74 21
-79 26 -6 5 -27 9 -48 9 -43 0 -118 21 -118 32 0 5 -21 8 -47 8 -26 0 -53 6
-62 14 -9 8 -41 23 -71 34 -32 11 -54 24 -52 32 2 9 -5 10 -23 6 -18 -5 -25
-2 -25 9 0 18 7 18 90 0 73 -16 180 -20 144 -5 -33 13 -39 30 -12 31 23 1 23
1 -2 10 -44 15 85 -1 295 -38 110 -19 241 -41 290 -48 50 -8 110 -18 135 -24
25 -6 66 -11 92 -11 44 0 48 2 54 28 7 24 61 151 70 161 2 2 13 -4 24 -14 14
-12 20 -31 20 -58 0 -38 1 -39 29 -35 28 4 29 3 26 -36 -5 -75 -4 -73 -15 -56
-8 12 -10 11 -10 -6 0 -11 3 -24 7 -27 9 -10 39 43 48 84 8 38 42 99 55 99 5
0 4 -15 -1 -32 -5 -18 -9 -34 -9 -35 0 -1 7 0 15 3 8 4 12 10 9 15 -3 5 0 9 5
9 6 0 11 -6 11 -13 0 -9 10 -12 31 -9 25 4 30 1 27 -14 -2 -11 2 -18 9 -17 8
2 12 -10 11 -33 -2 -44 -23 -57 -88 -50 -38 4 -49 2 -54 -10 -11 -29 -6 -45
12 -42 9 1 23 -2 31 -7 10 -5 16 -4 19 3 5 15 42 16 42 2 0 -5 -9 -10 -20 -10
-16 0 -20 -7 -21 -37 -1 -24 -3 -29 -6 -15 -3 13 -12 22 -22 22 -13 0 -18 -9
-19 -35 l-1 -35 174 0 174 0 7 35 c5 27 9 33 19 25 7 -5 10 -21 7 -35 l-4 -25
726 0 726 0 0 40 c0 29 -4 40 -15 40 -8 0 -15 7 -15 16 0 13 -6 15 -27 9 -36
-9 -156 -35 -164 -35 -13 0 -49 38 -49 53 0 8 -6 18 -12 20 -10 4 -9 8 2 17
13 10 13 11 0 9 -17 -3 -66 16 -73 28 -3 4 -8 33 -11 63 -3 30 -10 70 -16 89
-7 25 -6 40 5 60 13 26 19 85 65 685 26 344 26 386 -6 461 -14 33 -37 94 -51
135 -23 64 -27 71 -33 50 -13 -50 -19 -100 -10 -95 5 3 11 1 15 -5 3 -5 -3
-10 -14 -10 -12 0 -21 -4 -21 -10 0 -5 11 -10 25 -10 14 0 25 -4 25 -10 0 -5
-5 -10 -11 -10 -6 0 3 -16 20 -35 36 -41 39 -61 11 -68 -16 -4 -20 -14 -20
-44 0 -21 -7 -47 -15 -57 -18 -24 -20 -66 -2 -67 6 0 2 -4 -10 -9 -21 -8 -22
-15 -21 -88 1 -75 -1 -79 -32 -111 -21 -20 -38 -30 -49 -26 -8 3 -13 3 -9 0 3
-4 -11 -24 -32 -45 -21 -21 -35 -41 -32 -45 4 -3 -1 -3 -10 0 -20 8 -53 -65
-34 -77 6 -4 -1 -8 -16 -8 -16 0 -28 -6 -28 -13 0 -7 -9 -18 -20 -25 -26 -16
-26 -32 0 -32 16 0 12 -7 -20 -40 -23 -24 -33 -40 -25 -40 19 0 19 -14 1 -29
-11 -10 -15 -8 -19 6 -4 17 -4 17 -12 -1 -5 -11 -3 -26 3 -37 26 -41 17 -45
-108 -59 -108 -12 -120 -15 -120 -33 0 -18 -6 -19 -77 -15 -43 3 -61 3 -40 1
20 -2 37 -7 37 -11 0 -9 -94 -2 -100 8 -3 4 -36 3 -74 -2 -51 -7 -71 -6 -76 2
-5 8 -16 9 -30 5 -15 -5 -20 -4 -16 4 9 14 -9 14 -35 0 -15 -7 -42 -6 -101 6
-45 10 -107 17 -137 18 -31 0 -46 2 -33 4 43 8 21 20 -28 15 -41 -4 -50 -2
-50 12 0 19 -11 21 -27 5 -9 -9 -33 -8 -95 2 -46 8 -93 13 -106 11 -12 -2 -38
1 -56 7 -38 10 -76 -7 -76 -35 0 -21 17 -17 23 6 3 11 11 20 17 20 10 0 10 -3
0 -15 -8 -9 -11 -30 -7 -54 2 -22 0 -44 -6 -50 -11 -11 28 -50 52 -51 9 0 11
-8 6 -27 -3 -16 -10 -29 -15 -31 -5 -2 -6 -10 -3 -18 3 -7 9 -11 14 -8 16 10
9 -16 -28 -102 -22 -51 -41 -83 -49 -80 -6 2 -16 0 -21 -5 -6 -6 -31 -4 -68 6
-33 8 -76 15 -96 15 -21 0 -59 4 -86 10 -26 5 -115 22 -198 37 -83 15 -154 33
-158 40 -4 7 -17 13 -27 13 -10 0 -22 5 -25 10 -3 6 -15 10 -27 10 -13 0 -18
5 -15 14 4 10 -7 15 -41 19 -51 6 -108 25 -100 33 3 2 57 -4 121 -16 146 -25
196 -26 112 0 -33 10 -51 19 -40 19 11 1 27 6 35 12 11 8 5 9 -23 4 -28 -4
-42 -2 -55 11 -16 16 -13 17 43 10 178 -22 317 -42 348 -52 9 -3 17 -1 17 4 0
5 -32 14 -72 21 -39 6 -117 23 -172 36 -56 13 -126 26 -158 30 -62 7 -71 18
-83 98 l-5 38 37 -6 c21 -4 60 -11 86 -16 72 -14 133 -11 147 6 11 13 10 14
-11 7 -13 -5 -39 -6 -59 -1 -19 4 -74 12 -122 19 l-88 12 0 47 c0 49 7 65 28
67 27 2 32 4 32 13 0 5 -9 7 -20 4 -26 -7 -26 0 11 136 17 66 28 128 26 147
-3 23 1 40 13 54 19 22 65 275 55 303 -9 21 -27 26 -98 30 -71 3 -82 -7 -136
-128 -43 -98 -66 -117 -76 -63 -3 18 -9 55 -14 81 -8 43 -6 49 13 59 17 9 19
8 9 -3 -7 -7 -13 -17 -13 -22 0 -5 6 -5 13 1 6 5 21 11 32 13 18 4 18 5 -5 27
-13 12 -34 22 -47 22 -13 0 -23 5 -23 10 0 6 26 10 58 10 52 -1 55 -2 38 -15
-29 -22 -8 -18 30 6 19 11 32 25 28 30 -7 11 19 11 69 0 23 -6 39 -5 43 1 3 5
4 11 3 13 -4 3 -184 23 -251 27 -22 2 -28 7 -28 25 0 13 -4 23 -9 23 -9 0 -19
37 -36 132 -6 31 -4 36 12 35 16 -2 18 7 21 75 l3 76 -28 5 c-15 3 -43 4 -60
2 -18 -1 -56 -3 -83 -4 -28 0 -49 -5 -48 -11 2 -7 -49 -12 -137 -14 -220 -6
-251 -7 -237 -13 6 -2 10 -8 8 -12 -2 -3 44 -3 102 2 59 4 143 6 187 5 l80 -3
3 -42 3 -42 -47 -7 c-50 -7 -495 3 -519 12 -8 3 -11 12 -8 20 4 10 0 12 -11 8
-12 -4 -15 -2 -11 9 5 13 55 24 130 30 36 3 62 43 69 105 11 91 8 87 81 84
l65 -4 0 -69 c0 -58 2 -67 16 -62 10 4 12 9 6 15 -6 6 -7 22 -2 37 4 15 4 34
-1 42 -18 33 5 35 201 17 107 -10 236 -22 285 -27 55 -5 75 -9 50 -11 l-40 -2
49 -9 c47 -7 69 -6 130 7 21 5 27 4 22 -5 -10 -15 34 -31 56 -20 27 14 46 11
26 -5 -24 -18 -23 -29 3 -21 15 5 19 4 15 -4 -4 -6 -14 -11 -22 -11 -8 0 -14
-6 -14 -14 0 -10 37 -16 158 -26 86 -7 166 -10 177 -7 12 3 4 5 -18 6 -26 1
-37 5 -34 14 2 8 27 13 68 13 82 2 99 -2 94 -25 -3 -14 4 -20 27 -25 56 -11
78 -7 78 13 0 24 17 37 61 45 28 5 36 3 36 -9 0 -10 -4 -12 -10 -6 -11 11 -37
4 -37 -10 0 -5 7 -9 15 -9 7 0 19 -8 24 -17 10 -17 10 -17 11 0 0 19 36 24 38
5 1 -7 5 -30 8 -50 l6 -38 -38 0 c-22 0 -163 5 -315 11 l-276 11 -68 -36 c-37
-20 -77 -36 -89 -36 -28 0 -42 -11 -50 -36 -7 -24 -1 -25 229 -40 133 -9 118
3 -21 15 -60 5 -118 12 -129 15 -11 2 -27 5 -35 6 -10 1 -9 4 5 9 21 8 78 8
255 -2 80 -5 92 -4 50 3 -30 5 -100 12 -154 15 -90 6 -98 8 -76 20 28 15 35
14 310 -20 107 -13 227 -27 265 -31 39 -4 81 -11 94 -16 43 -16 61 -2 60 45
l-2 42 -6 -35 c-6 -33 -8 -35 -41 -32 -19 2 -66 10 -105 17 -38 8 -92 17 -120
20 -27 3 -97 14 -155 24 l-105 19 265 0 265 -1 6 44 c4 24 3 49 -1 54 -14 17
-23 85 -12 85 5 0 12 -19 16 -42 4 -24 10 -38 14 -33 4 6 17 15 28 22 19 10
21 10 17 -8 -6 -22 15 -26 23 -4 5 12 30 15 134 15 80 0 130 -4 132 -10 2 -6
13 -12 25 -12 14 -2 19 -7 15 -18 -9 -25 13 1 41 50 26 46 26 46 7 63 -11 9
-28 18 -38 19 -9 0 6 4 33 7 39 5 18 8 -95 15 -214 12 -222 14 -226 54 l-4 33
108 -5 c59 -3 126 -9 150 -12 43 -6 49 -1 32 26 -6 10 -10 11 -10 3 0 -7 -7
-13 -16 -13 -8 0 -12 5 -9 10 3 6 -1 10 -9 10 -11 0 -16 10 -16 33 0 29 3 33
28 32 21 0 28 6 33 25 l6 25 12 -31 c11 -28 15 -31 44 -25 26 6 33 14 42 43 5
20 14 40 18 44 4 5 50 7 102 6 l95 -3 0 26 c0 14 -6 25 -12 25 -9 0 -8 4 2 10
26 17 32 11 28 -24 -3 -31 -1 -35 25 -39 16 -2 31 1 33 7 6 18 20 938 20 1291
l-1 330 -25 3 c-14 2 -29 0 -33 -4z m-5613 -635 c7 -47 2 -59 -25 -59 -14 0
-19 -7 -19 -25 0 -14 -4 -25 -10 -25 -10 0 -14 13 -11 37 1 6 -9 13 -21 15
-20 3 -23 10 -26 51 l-3 47 54 0 54 0 7 -41z m-94 -95 c0 -2 -7 -4 -15 -4 -8
0 -15 4 -15 10 0 5 7 7 15 4 8 -4 15 -8 15 -10z m5170 -4 c-6 -11 -8 -26 -4
-33 5 -8 2 -7 -9 2 -13 10 -14 18 -6 32 5 10 14 19 20 19 6 0 6 -7 -1 -20z
m-40 -46 c0 -8 -4 -12 -10 -9 -5 3 -10 10 -10 16 0 5 5 9 10 9 6 0 10 -7 10
-16z m-615 -24 c3 -5 1 -10 -4 -10 -6 0 -11 5 -11 10 0 6 2 10 4 10 3 0 8 -4
11 -10z m-90 -20 c3 -5 2 -10 -4 -10 -5 0 -13 5 -16 10 -3 6 -2 10 4 10 5 0
13 -4 16 -10z m-4706 -147 c1 -66 -2 -81 -14 -79 -8 1 -18 6 -22 10 -4 4 -2 6
6 4 10 -2 13 17 12 92 0 64 3 88 9 75 5 -11 9 -57 9 -102z m53 25 c-2 -51 -7
-97 -12 -101 -9 -10 -13 133 -4 168 13 50 19 23 16 -67z m4678 63 c24 -7 24
-8 -7 -12 -18 -3 -30 -2 -27 2 2 4 -4 10 -13 12 -15 4 -15 5 2 5 11 0 31 -3
45 -7z m611 -24 c-10 -9 -11 -8 -5 6 3 10 9 15 12 12 3 -3 0 -11 -7 -18z
m-381 -1 c0 -3 -4 -8 -10 -11 -5 -3 -10 -1 -10 4 0 6 5 11 10 11 6 0 10 -2 10
-4z m560 -16 c0 -5 -4 -10 -10 -10 -5 0 -10 5 -10 10 0 6 5 10 10 10 6 0 10
-4 10 -10z m-1220 -21 c0 -14 -16 -11 -29 5 -10 12 -8 13 8 9 12 -3 21 -9 21
-14z m105 2 c3 -5 0 -13 -6 -17 -7 -4 -9 -3 -5 4 3 5 0 13 -6 15 -9 4 -10 6
-1 6 6 1 14 -3 18 -8z m803 -21 c-23 -31 -28 -35 -28 -22 0 9 38 52 46 52 2 0
-5 -13 -18 -30z m-543 0 c-3 -5 -11 -10 -16 -10 -6 0 -7 5 -4 10 3 6 11 10 16
10 6 0 7 -4 4 -10z m800 -10 c3 -5 1 -10 -4 -10 -6 0 -11 5 -11 10 0 6 2 10 4
10 3 0 8 -4 11 -10z m95 -24 c0 -3 -4 -8 -10 -11 -5 -3 -10 -1 -10 4 0 6 5 11
10 11 6 0 10 -2 10 -4z m-1120 -28 c0 -13 -23 -5 -28 10 -2 7 2 10 12 6 9 -3
16 -11 16 -16z m30 -16 c0 -15 -2 -15 -10 -2 -13 20 -13 33 0 25 6 -3 10 -14
10 -23z m790 18 c0 -5 -2 -10 -4 -10 -3 0 -8 5 -11 10 -3 6 -1 10 4 10 6 0 11
-4 11 -10z m-523 -32 c-3 -8 -6 -5 -6 6 -1 11 2 17 5 13 3 -3 4 -12 1 -19z
m-337 -3 c0 -8 -4 -15 -10 -15 -5 0 -10 7 -10 15 0 8 5 15 10 15 6 0 10 -7 10
-15z m42 -23 c-6 -2 -9 -11 -6 -20 5 -14 2 -13 -10 2 -17 21 -22 51 -7 41 5
-3 13 0 18 7 5 9 9 8 11 -7 3 -10 0 -21 -6 -23z m648 28 c0 -5 -7 -10 -16 -10
-8 0 -12 5 -9 10 3 6 10 10 16 10 5 0 9 -4 9 -10z m-5045 -86 l5 -39 -17 48
c-9 26 -20 47 -25 47 -4 0 -9 -21 -9 -47 l-2 -48 -6 40 -6 40 -12 -30 c-6 -16
-12 -24 -12 -16 -1 7 9 29 20 48 21 34 22 34 41 16 10 -11 21 -37 23 -59z
m835 44 c0 -4 -9 -8 -20 -8 -11 0 -20 4 -20 8 0 4 9 8 20 8 11 0 20 -4 20 -8z
m4840 2 c0 -5 -5 -10 -11 -10 -5 0 -7 5 -4 10 3 6 8 10 11 10 2 0 4 -4 4 -10z
m-97 -23 c14 -22 13 -24 -5 -36 -18 -11 -19 -10 -13 9 4 12 1 27 -5 35 -7 9
-8 15 -2 15 5 0 17 -10 25 -23z m-4553 3 c0 -5 -13 -10 -30 -10 -16 0 -30 5
-30 10 0 6 14 10 30 10 17 0 30 -4 30 -10z m3790 -5 c0 -8 -4 -15 -10 -15 -5
0 -7 7 -4 15 4 8 8 15 10 15 2 0 4 -7 4 -15z m690 -11 c0 -8 -4 -12 -10 -9 -5
3 -10 10 -10 16 0 5 5 9 10 9 6 0 10 -7 10 -16z m50 7 c0 -12 -20 -25 -27 -18
-7 7 6 27 18 27 5 0 9 -4 9 -9z m-685 -41 l40 -5 2 -127 c1 -113 0 -128 -15
-129 -15 -1 -14 -2 1 -6 16 -4 17 -12 11 -61 -3 -32 -8 -58 -9 -60 -4 -5 -119
-22 -147 -22 -24 0 -28 4 -28 30 0 17 5 30 13 30 6 0 40 14 75 32 l62 32 0 48
c0 26 1 51 2 56 1 4 -21 15 -50 26 -47 17 -52 21 -53 50 -1 17 -5 42 -9 56 -8
25 -8 24 -9 -5 -3 -71 -5 -73 -79 -58 -37 7 -96 16 -132 21 -55 8 -48 8 43 4
59 -3 107 -2 107 1 0 3 -4 17 -10 31 -11 31 2 40 70 49 24 3 46 11 48 16 2 6
9 8 15 4 7 -4 30 -10 52 -13z m-485 -4 c0 -3 -4 -8 -10 -11 -5 -3 -10 -1 -10
4 0 6 5 11 10 11 6 0 10 -2 10 -4z m-4570 -16 c0 -5 -13 -10 -30 -10 -16 0
-30 5 -30 10 0 6 14 10 30 10 17 0 30 -4 30 -10z m-75 -148 c-3 -3 -11 0 -18
7 -9 10 -8 11 6 5 10 -3 15 -9 12 -12z m5071 -14 l49 -3 -3 -35 c-2 -19 -5
-36 -6 -38 -2 -1 -23 2 -47 6 -38 7 -45 6 -45 -8 0 -13 9 -15 51 -12 48 3 49
3 28 -12 -12 -9 -35 -19 -51 -22 -33 -7 -35 -3 -47 106 -5 47 -4 53 8 38 8
-11 31 -18 63 -20z m1083 26 l31 -6 0 -106 c0 -58 -3 -103 -6 -100 -3 3 -6 21
-6 39 -1 19 -6 37 -12 41 -8 5 -8 8 0 8 6 0 12 24 13 55 1 33 -2 55 -8 55 -6
0 -11 -4 -11 -10 0 -6 -14 -8 -33 -5 -19 3 -57 7 -85 7 -29 1 -52 5 -52 8 0 3
-19 4 -42 2 -32 -2 -39 -1 -28 7 16 12 188 15 239 5z m-310 -124 c-3 -81 -10
-96 -29 -61 -15 28 -12 51 6 51 14 0 14 1 0 16 -9 8 -16 29 -16 45 0 23 4 29
21 29 19 0 20 -5 18 -80z m-531 -62 c-4 -39 -28 -51 -28 -14 0 14 6 26 13 26
8 0 7 4 -3 10 -13 8 -12 10 3 10 15 0 18 -7 15 -32z m-483 8 l30 -13 -34 -8
c-33 -7 -34 -8 -16 -21 17 -13 15 -14 -22 -14 -41 0 -52 13 -53 58 0 16 56 15
95 -2z m715 -19 c0 -23 -3 -23 -80 -24 -71 0 -80 2 -80 19 0 10 5 18 10 18 6
0 10 -3 10 -7 0 -6 61 -8 123 -4 5 1 5 6 2 11 -3 6 -1 10 4 10 6 0 11 -10 11
-23z m-4961 -7 c9 0 23 6 31 13 12 10 12 9 3 -3 -6 -8 -12 -24 -14 -34 -2 -11
-14 -21 -26 -22 -21 -4 -23 0 -22 34 0 20 3 31 6 25 2 -7 12 -13 22 -13z
m4775 -5 c-4 -8 -7 -15 -9 -15 -2 0 -5 7 -9 15 -3 9 0 15 9 15 9 0 12 -6 9
-15z m-632 -87 c2 -22 0 -38 -7 -38 -6 0 -9 20 -8 47 3 73 8 70 15 -9z m-412
17 c0 -34 -1 -35 -35 -32 -51 3 -47 50 5 60 14 2 26 5 28 6 1 0 2 -15 2 -34z
m130 16 c23 -7 22 -8 -13 -15 -21 -4 -45 -10 -53 -13 -9 -3 -14 2 -14 16 0 16
6 21 28 20 15 -1 38 -4 52 -8z m-3502 -38 c-2 -22 -9 -29 -30 -31 -16 -2 -28
2 -28 8 0 6 5 8 10 5 6 -4 10 5 10 19 0 20 5 26 21 26 16 0 20 -5 17 -27z
m4495 10 c-3 -7 -6 -13 -8 -13 -2 0 -5 6 -8 13 -3 8 1 14 8 14 7 0 11 -6 8
-14z m-473 -23 c0 -16 -4 -30 -10 -30 -11 0 -14 43 -3 53 11 12 13 8 13 -23z
m335 20 c3 -5 1 -10 -4 -10 -6 0 -11 5 -11 10 0 6 2 10 4 10 3 0 8 -4 11 -10z
m465 -15 c0 -10 -9 -15 -27 -14 -28 2 -28 2 -3 7 l25 5 -25 8 -25 7 28 1 c18
1 27 -4 27 -14z m-5080 -61 c0 -24 -3 -44 -7 -44 -3 0 -30 8 -60 17 -44 14
-53 21 -53 40 0 35 42 32 58 -4 l12 -28 -5 28 c-4 22 -1 29 17 36 32 12 38 6
38 -45z m-366 -19 c21 -16 13 -35 -15 -35 -14 0 -19 7 -19 25 0 28 7 30 34 10z
m5253 2 c7 0 9 -5 6 -11 -4 -6 0 -5 9 2 12 9 18 10 23 2 4 -6 14 -8 24 -5 9 4
42 7 73 8 62 2 73 -6 62 -48 -6 -23 -9 -24 -72 -20 -37 3 -81 5 -97 5 -25 0
-31 5 -32 23 -1 12 -12 31 -25 41 -20 17 -20 18 -3 11 11 -4 25 -8 32 -8z
m-5337 -21 c0 -22 -16 -36 -41 -36 -20 0 -7 20 14 21 16 1 18 2 5 6 -25 6 -23
33 2 33 14 0 20 -7 20 -24z m144 -12 c12 -30 7 -46 -11 -36 -9 5 -34 7 -55 5
-25 -4 -38 -2 -38 6 0 6 13 11 30 11 16 0 35 7 42 15 17 19 24 19 32 -1z m106
-28 c0 -2 -7 -6 -15 -10 -8 -3 -15 -1 -15 4 0 6 7 10 15 10 8 0 15 -2 15 -4z
m3168 -67 c2 -4 32 -6 68 -3 l64 4 0 -49 c0 -101 -27 -120 -147 -99 -62 11
-62 11 -56 41 5 23 3 28 -7 22 -10 -6 -12 -3 -7 15 3 12 0 31 -6 42 -10 16 -9
22 8 34 20 15 77 10 83 -7z m-3798 -59 c-19 -16 -43 -32 -53 -36 -10 -3 -16
-12 -13 -19 4 -10 -3 -14 -24 -12 -33 2 -33 3 40 56 64 47 102 55 50 11z m9
-19 c-13 -11 -26 -18 -28 -15 -2 2 7 12 20 23 13 11 26 18 28 15 2 -2 -7 -12
-20 -23z m3631 14 c7 -9 8 -15 2 -15 -5 0 -12 7 -16 15 -3 8 -4 15 -2 15 2 0
9 -7 16 -15z m2317 -1 c-3 -3 -12 -4 -19 -1 -8 3 -5 6 6 6 11 1 17 -2 13 -5z
m-5070 -10 c-3 -3 -12 -4 -19 -1 -8 3 -5 6 6 6 11 1 17 -2 13 -5z m-717 -14
c0 -5 -4 -10 -10 -10 -5 0 -10 5 -10 10 0 6 5 10 10 10 6 0 10 -4 10 -10z
m677 4 c-3 -3 -12 -4 -19 -1 -8 3 -5 6 6 6 11 1 17 -2 13 -5z m4093 -4 c-8 -5
-19 -10 -25 -10 -5 0 -3 5 5 10 8 5 20 10 25 10 6 0 3 -5 -5 -10z m-4837 -57
c-7 -2 -19 -2 -25 0 -7 3 -2 5 12 5 14 0 19 -2 13 -5z m37 -3 c0 -5 -2 -10 -4
-10 -3 0 -8 5 -11 10 -3 6 -1 10 4 10 6 0 11 -4 11 -10z m5410 -5 c0 -8 -4
-15 -8 -15 -5 0 -9 7 -9 15 0 8 4 15 9 15 4 0 8 -7 8 -15z m-4367 -60 l5 -40
-11 38 c-6 20 -15 37 -20 37 -5 0 -6 -7 -3 -16 3 -9 -1 -25 -9 -37 -8 -12 -15
-17 -15 -11 0 5 5 15 12 22 6 6 8 15 4 19 -4 4 -11 1 -16 -7 -5 -8 -11 -12
-14 -10 -2 3 8 19 22 37 30 35 36 30 45 -32z m2582 25 c-3 -5 -25 -9 -48 -9
l-42 2 40 7 c22 4 44 8 48 9 5 0 5 -3 2 -9z m-2708 -80 c-19 -16 -37 -30 -41
-30 -9 0 57 59 67 60 4 0 -8 -13 -26 -30z m1186 13 c-7 -2 -19 -2 -25 0 -7 3
-2 5 12 5 14 0 19 -2 13 -5z m-1019 -196 c-19 -11 -18 -39 5 -84 10 -21 22
-50 25 -65 6 -27 6 -27 -21 -16 -37 16 -51 28 -32 28 11 1 10 3 -3 11 -10 5
-15 17 -12 27 5 13 4 14 -4 4 -10 -15 -59 -12 -54 3 2 6 12 9 22 7 25 -4 28
32 5 54 -11 12 -12 20 -5 35 6 11 8 25 4 31 -5 7 -2 9 8 6 12 -5 15 1 12 33
-2 24 0 37 6 34 6 -4 10 13 11 42 0 45 2 42 24 -47 20 -80 21 -96 9 -103z
m3743 177 c-3 -3 -12 -4 -19 -1 -8 3 -5 6 6 6 11 1 17 -2 13 -5z m-3790 -46
c-3 -7 -5 -2 -5 12 0 14 2 19 5 13 2 -7 2 -19 0 -25z m1868 23 c3 -5 1 -12 -5
-16 -5 -3 -10 1 -10 9 0 18 6 21 15 7z m-2079 -69 c-13 -15 -16 -39 -15 -129
l1 -110 114 -16 c173 -24 171 -31 -12 -61 -45 -8 -86 -16 -91 -19 -10 -7 -53
45 -53 63 0 6 -7 18 -15 27 -9 8 -13 18 -9 22 4 3 9 0 11 -6 3 -7 9 -13 14
-13 6 0 7 6 1 17 -7 11 -4 26 9 47 28 45 25 59 -11 54 -37 -6 -38 4 -2 32 15
12 21 18 13 14 -10 -5 -11 -1 -6 16 7 22 53 80 63 80 3 0 -2 -8 -12 -18z
m-280 -69 c-7 -7 -26 7 -26 19 0 6 6 6 15 -2 9 -7 13 -15 11 -17z m-36 7 c0
-6 -6 -10 -12 -9 -7 2 -31 -2 -53 -8 -51 -14 -131 -26 -124 -18 7 7 149 44
172 44 9 1 17 -4 17 -9z m-295 -64 c-21 -14 -95 -31 -95 -21 0 10 63 34 90 35
24 0 24 0 5 -14z m800 -5 c7 -12 -12 -24 -25 -16 -11 7 -4 25 10 25 5 0 11 -4
15 -9z m-425 -16 c0 -8 -2 -15 -4 -15 -2 0 -6 7 -10 15 -3 8 -1 15 4 15 6 0
10 -7 10 -15z m-20 -15 c0 -5 -8 -10 -19 -10 -10 0 -33 -3 -50 -6 -19 -4 -31
-2 -31 4 0 11 26 18 73 21 15 0 27 -3 27 -9z m3958 -5 c-2 -1 -27 -5 -55 -9
-40 -5 -53 -4 -53 6 0 9 15 12 56 10 30 -2 54 -5 52 -7z m-4318 -75 c0 -5 -4
-10 -10 -10 -5 0 -10 5 -10 10 0 6 5 10 10 10 6 0 10 -4 10 -10z m821 -141
c-13 -5 -29 -16 -35 -23 -13 -17 -62 -33 -52 -18 4 6 -3 8 -16 5 -46 -11 -1
18 48 32 57 15 90 18 55 4z m111 -53 c7 -13 7 -16 -1 -12 -6 4 -11 3 -11 -2 0
-12 -72 -42 -100 -42 -19 0 -53 37 -45 50 3 4 17 10 32 13 16 3 43 9 61 15 19
6 32 7 32 1 0 -5 -8 -9 -17 -9 -10 0 -36 -9 -58 -20 -22 -11 -31 -18 -20 -17
11 1 23 5 26 10 3 4 24 8 47 10 38 2 41 4 36 27 -2 14 -1 18 2 10 4 -8 11 -23
16 -34z m18 29 c0 -8 -2 -15 -4 -15 -2 0 -6 7 -10 15 -3 8 -1 15 4 15 6 0 10
-7 10 -15z m-1249 -12 c1 -10 1 -21 0 -25 0 -5 3 -8 8 -8 5 0 11 -14 13 -31 4
-22 -1 -34 -16 -45 -23 -16 -112 -19 -121 -4 -3 6 -18 10 -32 10 -18 0 -24 4
-19 15 3 8 9 22 12 30 3 8 1 15 -5 15 -6 0 -11 6 -11 14 0 16 82 45 133 45 28
1 37 -3 38 -16z m1294 -130 l22 -72 -24 10 c-30 11 -43 11 -43 1 0 -5 24 -15
54 -22 80 -19 81 -20 57 -73 -12 -25 -24 -48 -28 -50 -11 -5 -146 37 -139 43
3 3 -5 6 -17 5 -33 0 -34 18 -1 35 37 19 53 40 54 67 0 12 8 30 18 39 15 16
15 17 0 12 -9 -4 -23 1 -33 12 -10 11 -26 22 -36 25 -24 8 -25 25 -1 25 33 0
72 24 73 45 0 17 2 16 11 -5 5 -14 20 -57 33 -97z m1322 -63 c7 -30 19 -77 26
-105 12 -43 12 -50 1 -53 -13 -3 -140 22 -326 64 -38 9 -68 20 -68 26 0 6 7 8
15 4 8 -3 18 2 23 11 5 8 18 16 28 17 11 2 33 8 49 15 23 10 44 11 90 2 33 -6
83 -13 110 -16 42 -4 45 -3 20 5 -16 5 -56 15 -89 21 -32 6 -54 15 -50 19 17
16 109 48 134 47 22 -2 27 -9 37 -57z m-2608 39 c-8 -5 -25 -9 -39 -9 -33 0
-10 15 26 17 19 1 23 -1 13 -8z m393 -16 c-7 -3 -34 -19 -61 -37 -26 -18 -73
-40 -105 -50 -41 -13 -54 -22 -47 -29 7 -7 17 -7 33 1 45 22 68 24 68 8 0 -11
-9 -16 -27 -16 -20 0 -24 -3 -14 -9 10 -6 11 -13 2 -29 -7 -14 -8 -23 -1 -27
5 -3 10 -13 10 -22 0 -20 -33 -14 -177 32 -59 19 -119 35 -132 35 -36 0 -14
14 54 34 64 19 203 61 325 100 41 13 77 21 80 18 3 -2 -1 -7 -8 -9z m1186
-159 c29 -13 55 -24 59 -24 3 0 32 -12 64 -26 60 -27 70 -50 17 -38 -17 3 -45
8 -62 9 -66 7 -122 22 -148 39 -14 9 -37 16 -50 15 -12 -1 -33 -1 -45 -1 -22
2 -22 2 -6 46 l17 44 50 -20 c28 -11 74 -30 104 -44z m-528 6 c-8 -5 -22 -9
-30 -9 -10 0 -8 3 5 9 27 12 43 12 25 0z m170 -11 c47 -12 86 -23 88 -25 2 -1
-4 -24 -14 -51 -16 -45 -20 -49 -43 -45 -24 5 -24 6 -6 14 14 5 5 7 -27 4 -27
-2 -48 0 -48 4 0 4 -42 13 -92 19 -51 7 -95 15 -98 19 -3 4 -16 13 -30 19
l-25 12 28 0 c17 1 26 5 22 11 -4 7 2 9 17 6 12 -3 46 -7 73 -10 44 -5 46 -4
18 5 -44 13 -42 22 3 17 32 -4 34 -3 18 9 -17 12 -16 13 6 13 14 0 63 -10 110
-21z m-273 -15 c-3 -3 -12 -4 -19 -1 -8 3 -5 6 6 6 11 1 17 -2 13 -5z m-3 -43
c4 -5 -3 -7 -14 -4 -23 6 -26 13 -6 13 8 0 17 -4 20 -9z m476 -4 c8 -4 40 -11
70 -16 30 -6 98 -21 150 -35 82 -21 90 -24 55 -26 -35 -2 -37 -3 -15 -10 24
-8 24 -8 3 -9 -13 -1 -42 3 -65 9 -24 5 -74 16 -113 25 -132 29 -144 33 -138
55 5 19 19 21 53 7z m-625 -28 c-7 -10 6 -12 29 -3 9 3 13 10 10 15 -3 6 4 7
18 4 12 -3 43 -9 68 -14 25 -5 59 -14 75 -19 122 -40 166 -53 208 -58 26 -4
47 -11 47 -16 0 -5 -4 -7 -9 -4 -5 4 -7 -2 -5 -11 6 -22 -45 -53 -87 -53 -17
0 -32 -6 -35 -15 -4 -8 -11 -15 -16 -15 -6 0 -5 7 2 15 7 9 11 17 9 19 -8 5
-64 24 -94 31 -16 4 -33 11 -36 17 -5 7 -47 11 -110 12 -56 0 -97 2 -91 4 22
7 -22 42 -54 42 -17 0 -37 7 -44 15 -11 13 -8 15 16 15 26 0 91 -15 152 -34
12 -4 22 -3 22 2 0 6 -18 13 -40 17 -22 4 -40 11 -40 16 0 5 -8 10 -17 10 -17
1 -17 2 0 6 9 2 14 9 11 15 -4 7 -2 8 5 4 6 -4 9 -12 6 -17z m-137 -16 c-2
-10 -13 -19 -26 -21 -25 -4 -28 2 -9 23 17 20 39 18 35 -2z m502 3 c0 -11 -19
-15 -25 -6 -3 5 1 10 9 10 9 0 16 -2 16 -4z m285 -25 c108 -26 198 -51 204
-57 3 -3 -17 -4 -44 -4 -28 1 -75 -1 -105 -4 -57 -6 -124 9 -115 25 4 5 1 9
-5 9 -6 0 -8 5 -5 11 4 6 -1 17 -11 24 -25 19 -14 18 81 -4z m-180 -11 c3 -6
-5 -10 -19 -10 -14 0 -28 5 -31 10 -3 6 5 10 19 10 14 0 28 -4 31 -10z m75
-79 c0 -5 -7 -11 -15 -15 -15 -5 -20 5 -8 17 9 10 23 9 23 -2z m85 -12 c18 -7
18 -8 -5 -8 -35 -1 -70 10 -70 20 0 9 36 3 75 -12z m315 11 c8 -5 11 -10 5
-10 -5 0 -17 5 -25 10 -8 5 -10 10 -5 10 6 0 17 -5 25 -10z m-1266 -15 c14 -6
17 -5 12 3 -15 25 51 11 104 -20 38 -24 61 -46 77 -78 13 -25 28 -46 33 -48
15 -5 12 -86 -4 -116 -14 -28 -53 -67 -90 -91 -35 -24 -228 -20 -276 5 -8 4
-24 4 -35 -1 -11 -4 -30 -8 -42 -8 -30 -1 -31 29 -2 47 13 9 19 20 16 32 -3
12 1 20 12 23 12 3 10 6 -9 15 -14 6 -38 13 -53 17 -51 11 -48 61 7 120 19 20
33 42 30 49 -7 18 17 35 54 38 18 1 32 6 32 10 0 4 5 8 11 8 5 0 7 -4 4 -10
-3 -5 3 -10 14 -10 13 0 21 7 21 16 0 13 7 15 33 12 17 -3 41 -9 51 -13z m951
-25 c11 -4 42 -14 68 -21 33 -8 44 -15 35 -20 -8 -6 1 -9 27 -10 22 -1 32 -3
23 -6 -10 -2 -18 -9 -18 -14 0 -11 23 -21 108 -45 43 -12 62 -22 62 -33 0 -10
-3 -12 -8 -5 -4 6 -27 15 -52 18 -33 5 -41 4 -30 -3 13 -9 13 -12 1 -20 -10
-7 -6 -9 15 -9 50 1 64 -2 64 -14 0 -6 -3 -8 -7 -5 -3 4 -13 2 -20 -5 -9 -7
-17 -8 -21 -2 -4 5 -25 10 -47 10 -66 3 -72 4 -50 14 17 7 15 9 -12 9 -37 1
-40 7 -17 32 20 22 11 39 -21 39 -34 0 -42 20 -8 21 17 1 21 3 11 6 -10 2 -18
10 -18 17 0 8 -19 15 -52 19 -67 8 -128 25 -128 37 0 10 63 3 95 -10z m95 4
l35 -14 -40 6 c-22 3 -44 10 -49 15 -14 13 13 10 54 -7z m-470 -20 c0 -2 -17
-4 -37 -3 -33 1 -35 2 -13 8 23 7 50 4 50 -5z m217 0 c-3 -3 -12 -4 -19 -1 -8
3 -5 6 6 6 11 1 17 -2 13 -5z m50 -10 c-3 -3 -12 -4 -19 -1 -8 3 -5 6 6 6 11
1 17 -2 13 -5z m-257 -68 c228 -65 245 -71 245 -81 0 -6 3 -14 7 -20 3 -5 6
-36 6 -67 -1 -48 -5 -61 -27 -81 -14 -14 -50 -30 -80 -37 -48 -11 -55 -11 -63
4 -5 9 -18 16 -29 16 -27 0 -126 45 -167 76 -57 44 -92 143 -70 204 5 17 13
30 17 30 4 0 76 -20 161 -44z m568 32 c-3 -7 -13 -14 -24 -15 -10 -2 -13 0 -6
3 6 3 10 10 6 15 -3 5 2 9 11 9 9 0 15 -6 13 -12z m-165 -5 c-7 -2 -19 -2 -25
0 -7 3 -2 5 12 5 14 0 19 -2 13 -5z m3213 -61 c-12 -11 -17 7 -9 34 l8 29 3
-28 c2 -16 1 -31 -2 -35z m-2939 22 c-7 -7 -37 7 -37 17 0 6 9 5 21 -1 11 -7
19 -14 16 -16z m-134 -101 c-7 -2 -19 -2 -25 0 -7 3 -2 5 12 5 14 0 19 -2 13
-5z m2042 -8 c138 -15 211 -28 222 -39 3 -3 -7 -10 -23 -16 -16 -5 -37 -15
-46 -20 -28 -16 -39 -12 -26 10 7 10 21 21 33 23 12 3 6 5 -13 6 -20 0 -31 -3
-27 -9 3 -5 4 -10 1 -10 -2 0 -12 -3 -21 -6 -9 -4 -15 -3 -13 2 4 11 -12 14
-31 6 -7 -3 -18 2 -23 11 -10 19 -54 23 -60 7 -2 -7 -24 -8 -60 -4 -32 4 -55
11 -52 15 3 5 -2 6 -10 3 -16 -6 -23 16 -9 29 8 9 -5 9 158 -8z m323 8 c-10
-2 -28 -2 -40 0 -13 2 -5 4 17 4 22 1 32 -1 23 -4z m307 -25 c98 -10 100 -11
101 -37 1 -25 -1 -26 -50 -24 -37 2 -46 0 -31 -6 19 -9 19 -10 -3 -10 -13 -1
-33 4 -45 11 -12 7 -35 13 -52 14 -43 2 -259 35 -264 40 -7 7 72 4 154 -5 143
-17 235 -22 235 -14 0 4 -10 9 -22 10 -13 1 -54 7 -93 12 -38 6 -104 15 -145
20 l-75 10 95 -5 c52 -3 140 -10 195 -16z m500 12 c-3 -5 -12 -7 -20 -3 -21 7
-19 13 6 13 11 0 18 -4 14 -10z m-3050 -20 c8 -13 -15 -13 -35 0 -12 8 -11 10
7 10 12 0 25 -4 28 -10z m2685 -15 c0 -8 5 -15 10 -15 6 0 10 5 10 12 0 6 2 9
5 6 11 -11 16 -180 5 -173 -5 3 -10 0 -10 -7 -1 -28 -23 28 -27 66 -8 85 -8
126 -1 126 5 0 8 -7 8 -15z m-400 -25 c94 -14 180 -34 180 -42 0 -4 -6 -6 -12
-3 -24 7 -243 49 -260 49 -10 0 -18 4 -18 9 0 5 12 6 28 2 15 -4 52 -11 82
-15z m-449 -9 c35 -11 107 -27 159 -36 52 -10 109 -21 125 -25 28 -8 28 -8 5
-10 l-25 -1 25 -10 c14 -6 41 -8 60 -5 27 4 31 3 15 -4 -15 -8 -9 -9 25 -5 32
3 38 2 20 -4 l-25 -8 28 -12 c16 -6 25 -16 22 -21 -4 -6 -10 -8 -14 -6 -4 3
-34 8 -66 11 -32 3 -122 21 -201 41 -79 19 -153 34 -166 32 -18 -3 -15 -7 19
-16 58 -17 262 -62 502 -111 57 -12 106 -23 110 -25 4 -3 27 -7 51 -11 67 -9
85 -16 70 -25 -7 -4 7 -6 31 -3 24 3 55 0 69 -5 21 -8 25 -16 26 -56 1 -25 1
-46 0 -46 0 0 -35 7 -76 15 -41 8 -99 20 -129 25 -29 5 -59 14 -66 20 -7 6
-37 13 -66 16 -74 7 -172 25 -184 35 -5 4 -31 10 -58 14 -26 4 -50 11 -53 16
-3 5 -16 9 -30 9 -17 0 -23 4 -18 12 4 7 3 8 -5 4 -16 -10 -63 2 -56 14 3 6 1
10 -4 10 -6 0 -11 -4 -11 -9 0 -6 -13 -5 -32 1 -18 5 -43 11 -55 11 -24 1 -33
17 -10 17 6 0 -3 8 -20 16 -30 15 -36 15 -74 0 -23 -9 -44 -14 -47 -11 -6 5
24 139 35 158 6 11 25 9 94 -12z m426 -37 c-3 -3 -12 -4 -19 -1 -8 3 -5 6 6 6
11 1 17 -2 13 -5z m162 -14 c19 0 22 -3 13 -12 -9 -9 -17 -8 -37 2 -14 7 -25
18 -25 24 0 6 5 5 12 -2 7 -7 23 -12 37 -12z m118 -3 c4 -7 0 -8 -11 -4 -10 4
-24 7 -32 7 -9 0 -13 4 -10 9 7 11 44 3 53 -12z m-47 -17 c0 -5 -7 -10 -15
-10 -8 0 -15 5 -15 10 0 6 7 10 15 10 8 0 15 -4 15 -10z m-183 -36 c-3 -3 -12
-4 -19 -1 -8 3 -5 6 6 6 11 1 17 -2 13 -5z m17 -41 c7 -7 10 -8 99 -19 38 -4
54 -10 45 -15 -7 -5 -24 -7 -38 -4 -102 18 -140 28 -140 36 0 11 23 12 34 2z
m340 -64 c17 -15 2 -17 -54 -7 -88 16 -98 24 -24 20 38 -2 73 -8 78 -13z m31
-9 c3 -5 1 -10 -4 -10 -6 0 -11 5 -11 10 0 6 2 10 4 10 3 0 8 -4 11 -10z m133
3 c-10 -2 -26 -2 -35 0 -10 3 -2 5 17 5 19 0 27 -2 18 -5z m-3 -23 c16 -7 11
-9 -22 -9 -23 -1 -45 4 -48 9 -8 12 42 12 70 0z m1362 -12 c-3 -8 -6 -5 -6 6
-1 11 2 17 5 13 3 -3 4 -12 1 -19z m1381 -8 c4 -21 2 -22 -12 -7 -19 19 -21
40 -3 35 6 -3 14 -15 15 -28z"/>
<path d="M5380 2702 c0 -5 7 -13 16 -16 10 -4 14 -1 12 6 -5 15 -28 23 -28 10z"/>
<path d="M5920 2143 c0 -19 18 -25 37 -13 17 11 16 11 -1 5 -11 -3 -23 0 -28
7 -5 9 -8 10 -8 1z"/>
<path d="M3929 2029 c-6 -29 -3 -49 6 -49 12 0 14 35 2 46 -4 4 -7 5 -8 3z"/>
<path d="M1380 1530 c0 -5 5 -10 11 -10 5 0 7 5 4 10 -3 6 -8 10 -11 10 -2 0
-4 -4 -4 -10z"/>
<path d="M1396 1493 c-6 -14 -5 -15 5 -6 7 7 10 15 7 18 -3 3 -9 -2 -12 -12z"/>
<path d="M1168 763 c6 -2 18 -2 25 0 6 3 1 5 -13 5 -14 0 -19 -2 -12 -5z"/>
<path d="M3938 433 c6 -2 18 -2 25 0 6 3 1 5 -13 5 -14 0 -19 -2 -12 -5z"/>
<path d="M4672 340 c0 -14 2 -19 5 -12 2 6 2 18 0 25 -3 6 -5 1 -5 -13z"/>
<path d="M3890 330 c-12 -8 -11 -10 8 -10 12 0 22 5 22 10 0 13 -11 13 -30 0z"/>
<path d="M4380 139 c-23 -10 -24 -11 -7 -21 10 -5 21 -7 24 -4 4 3 0 6 -8 7
-8 0 0 7 16 14 34 16 13 19 -25 4z"/>
<path d="M4615 110 c-3 -5 1 -10 9 -10 9 0 16 5 16 10 0 6 -4 10 -9 10 -6 0
-13 -4 -16 -10z"/>
<path d="M5518 3863 c12 -2 30 -2 40 0 9 3 -1 5 -23 4 -22 0 -30 -2 -17 -4z"/>
<path d="M233 3843 c9 -2 23 -2 30 0 6 3 -1 5 -18 5 -16 0 -22 -2 -12 -5z"/>
<path d="M298 3833 c7 -3 16 -2 19 1 4 3 -2 6 -13 5 -11 0 -14 -3 -6 -6z"/>
<path d="M4020 3829 c-136 -12 -154 -21 -25 -14 55 4 150 9 210 12 61 3 112 7
114 9 7 7 -188 2 -299 -7z"/>
<path d="M380 3820 c25 -8 107 -13 99 -6 -2 2 -31 6 -64 9 -37 3 -51 2 -35 -3z"/>
<path d="M491 3806 c2 -2 36 -6 74 -9 42 -3 58 -2 40 3 -30 8 -122 13 -114 6z"/>
<path d="M3126 3753 c9 -35 13 -43 25 -43 5 0 9 10 9 23 0 16 3 18 9 8 6 -9
10 -10 12 -2 2 6 36 14 74 18 57 6 64 8 40 14 -16 4 -63 7 -103 8 l-72 1 6
-27z"/>
<path d="M3178 3150 l4 -541 -24 -23 c-45 -44 -84 -56 -168 -51 -43 2 -99 12
-125 20 -26 9 -50 14 -53 10 -3 -3 -1 -26 6 -50 17 -64 16 -78 -7 -70 -12 3
-21 0 -25 -10 -6 -17 11 -20 33 -6 15 10 101 -17 101 -31 0 -11 -18 -10 -63 3
-28 7 -42 7 -52 -1 -10 -8 -14 -8 -18 2 -2 7 -8 -5 -12 -27 -11 -62 -21 -90
-34 -88 -14 4 -37 -42 -46 -90 -8 -43 -12 -42 110 -27 44 5 154 14 244 20 112
6 167 14 172 22 6 9 46 14 125 17 72 2 111 7 103 12 -8 5 -30 9 -49 9 -27 0
-40 7 -60 32 -59 76 -83 98 -105 98 -17 0 -25 -7 -27 -22 -3 -14 -9 0 -16 37
-7 33 -19 86 -26 118 -8 31 -10 57 -6 57 5 0 11 -6 13 -12 3 -7 6 0 6 15 1 19
5 26 13 21 8 -5 10 57 5 257 -4 145 -7 393 -7 552 0 158 -3 287 -7 287 -5 0
-6 -243 -5 -540z m-59 -699 c10 -10 24 -43 31 -72 7 -30 21 -74 32 -97 23 -52
17 -67 -10 -23 -10 17 -21 29 -24 26 -3 -3 -8 13 -12 37 -4 23 -11 47 -15 53
-5 5 -11 22 -15 37 -3 14 -9 33 -12 42 -8 21 2 20 25 -3z m-54 -14 c-33 -22
-87 -47 -103 -47 -23 0 -7 12 51 37 59 25 81 29 52 10z"/>
<path d="M3208 3685 c-2 -3 0 -37 4 -77 5 -40 7 -318 5 -618 -1 -300 -1 -555
1 -567 3 -18 11 -23 34 -23 l30 0 -7 195 c-6 192 -5 195 15 195 22 0 26 16 10
40 -8 12 -10 10 -11 -10 0 -23 -1 -23 -9 -5 -12 28 -12 105 0 105 6 0 11 -17
11 -37 1 -21 3 -30 6 -20 2 9 13 17 24 17 24 0 24 -9 2 -26 -16 -12 -16 -12 5
-7 13 3 22 1 22 -6 0 -6 -4 -11 -9 -11 -5 0 -12 -8 -15 -17 -6 -14 -2 -12 17
5 29 28 40 28 32 1 -6 -18 -5 -20 14 -10 13 7 21 22 21 36 0 26 14 33 26 13 4
-6 2 -14 -5 -16 -9 -3 -7 -10 6 -24 18 -20 17 -20 -4 -14 -24 8 -37 -4 -19
-19 17 -15 66 -18 66 -5 0 7 7 10 15 6 8 -3 15 0 15 5 0 7 -9 9 -21 6 -15 -4
-19 -2 -15 9 3 8 1 14 -5 14 -6 0 -8 8 -5 18 4 12 -4 24 -27 40 -18 12 -39 22
-45 22 -13 0 -16 13 -5 24 14 14 11 35 -4 29 -13 -5 -13 -2 -4 14 8 17 7 22
-4 26 -10 4 -12 1 -8 -10 4 -10 2 -14 -4 -10 -6 4 -14 0 -17 -9 -9 -22 -8 -24
10 -24 13 0 14 -3 4 -15 -7 -8 -17 -12 -24 -8 -11 8 -32 13 -53 15 -10 1 -13
32 -14 117 -1 64 -4 105 -8 91 -4 -13 -5 104 -3 261 l4 284 -24 2 c-14 2 -27
0 -30 -2z m39 -197 c-2 -35 -3 -7 -3 62 0 69 1 97 3 63 2 -35 2 -91 0 -125z"/>
<path d="M0 3544 l0 -111 61 -7 c34 -3 79 -6 100 -6 37 0 39 -1 39 -32 0 -36
8 -52 28 -55 15 -4 16 9 1 24 -6 6 -9 17 -7 25 3 7 12 -3 21 -23 8 -20 20 -40
26 -43 17 -11 13 5 -10 43 -20 33 -20 36 -4 47 15 11 17 29 16 116 -1 56 -4
104 -6 107 -3 2 -63 9 -135 15 l-130 11 0 -111z"/>
<path d="M283 3608 c4 -13 7 -79 8 -148 2 -130 9 -170 20 -110 l6 35 2 -32 c0
-18 6 -33 12 -33 7 0 8 16 3 45 l-6 45 76 0 76 0 0 -50 0 -50 49 0 c28 0 53
-4 56 -10 3 -5 15 -10 26 -10 18 0 19 8 19 154 l0 155 -52 5 c-68 8 -269 26
-287 26 -9 0 -11 -7 -8 -22z"/>
<path d="M1138 3443 c12 -2 32 -2 45 0 12 2 2 4 -23 4 -25 0 -35 -2 -22 -4z"/>
<path d="M2094 3146 l7 -304 -128 -6 c-70 -3 -167 -8 -215 -11 l-88 -6 -1 63
c-1 35 -5 167 -9 293 l-8 230 4 -294 c3 -225 6 -296 16 -303 10 -6 10 -8 -2
-8 -13 -1 -13 -2 0 -9 8 -5 78 -5 155 0 172 10 280 11 272 3 -3 -3 -99 -11
-213 -18 -184 -10 -207 -13 -210 -28 -1 -10 1 -20 6 -23 4 -3 99 1 211 9 112
8 205 13 205 12 1 0 5 -97 8 -213 7 -212 10 -243 27 -243 11 0 11 143 -1 479
-5 145 -10 349 -10 452 -2 194 -5 229 -23 229 -7 0 -8 -96 -3 -304z"/>
<path d="M988 3433 c12 -2 30 -2 40 0 9 3 -1 5 -23 4 -22 0 -30 -2 -17 -4z"/>
<path d="M2134 3345 c0 -55 1 -76 3 -47 2 29 2 74 0 100 -2 26 -3 2 -3 -53z"/>
<path d="M7505 3420 c3 -5 10 -10 16 -10 5 0 9 5 9 10 0 6 -7 10 -16 10 -8 0
-12 -4 -9 -10z"/>
<path d="M1186 3392 c-2 -4 -1 -14 5 -22 7 -12 9 -10 9 8 0 23 -5 28 -14 14z"/>
<path d="M6465 3390 c3 -5 8 -10 11 -10 2 0 4 5 4 10 0 6 -5 10 -11 10 -5 0
-7 -4 -4 -10z"/>
<path d="M5795 3370 c3 -5 8 -10 11 -10 2 0 4 5 4 10 0 6 -5 10 -11 10 -5 0
-7 -4 -4 -10z"/>
<path d="M5270 3360 c-10 -6 -11 -10 -2 -10 14 0 12 -21 -3 -32 -5 -4 2 -8 17
-8 21 0 25 4 21 19 -5 20 -5 20 87 34 14 3 -4 5 -40 5 -36 1 -72 -3 -80 -8z"/>
<path d="M4842 3343 c3 -15 15 -17 81 -16 43 1 83 6 90 12 7 6 65 12 128 14
69 1 33 4 -94 5 -192 2 -208 1 -205 -15z"/>
<path d="M5048 3333 c7 -3 16 -2 19 1 4 3 -2 6 -13 5 -11 0 -14 -3 -6 -6z"/>
<path d="M1430 3310 c9 -16 8 -20 -5 -20 -8 0 -15 -7 -15 -15 0 -8 4 -15 9
-15 5 0 12 -10 14 -22 3 -18 5 -16 6 8 0 16 6 35 12 41 15 15 4 43 -16 43 -13
0 -14 -4 -5 -20z"/>
<path d="M5218 3313 c7 -3 16 -2 19 1 4 3 -2 6 -13 5 -11 0 -14 -3 -6 -6z"/>
<path d="M1777 3303 c-12 -12 -7 -54 8 -69 13 -14 15 -13 15 5 0 12 5 21 10
21 16 0 11 37 -6 44 -19 7 -19 7 -27 -1z"/>
<path d="M5974 3258 c-4 -6 0 -16 9 -23 10 -7 17 -18 17 -26 0 -11 2 -11 10 1
6 9 5 17 -1 21 -6 3 -10 9 -10 13 4 28 -11 37 -25 14z"/>
<path d="M4980 3235 c0 -8 2 -15 4 -15 2 0 6 7 10 15 3 8 1 15 -4 15 -6 0 -10
-7 -10 -15z"/>
<path d="M6043 3235 c-3 -9 -3 -18 -1 -21 3 -3 8 4 11 16 6 23 -1 27 -10 5z"/>
<path d="M2160 3220 c0 -9 126 -16 182 -11 12 2 16 -5 14 -24 -2 -14 1 -25 5
-25 5 0 9 -30 9 -67 0 -38 -4 -63 -8 -58 -4 6 -35 10 -69 11 -64 0 -71 -5 -64
-48 0 -5 -9 -8 -21 -8 -16 0 -19 3 -10 9 10 6 10 10 -2 20 -11 9 -16 9 -22 -1
-22 -35 -14 -38 102 -38 l113 0 -2 123 -2 122 -112 3 c-73 2 -113 -1 -113 -8z"/>
<path d="M234 3186 c-10 -12 -28 -26 -38 -30 -30 -10 -13 -17 20 -7 28 8 31 6
42 -23 8 -20 9 -32 2 -34 -16 -6 -12 -22 5 -22 21 0 19 -8 -12 -35 -26 -22
-26 -24 -5 -18 27 7 28 -4 2 -37 -24 -30 -26 -47 -4 -29 52 43 97 148 92 219
-2 37 -18 59 -18 25 0 -8 -4 -15 -10 -15 -5 0 -10 7 -10 15 0 8 -4 15 -9 15
-5 0 -7 -17 -4 -39 3 -23 1 -41 -6 -45 -14 -9 -28 23 -14 33 6 4 5 14 -2 28
l-12 23 -19 -24z m94 -38 c-6 -18 -28 -21 -28 -4 0 9 7 16 16 16 9 0 14 -5 12
-12z"/>
<path d="M595 3190 c-3 -5 1 -10 9 -10 9 0 16 5 16 10 0 6 -4 10 -9 10 -6 0
-13 -4 -16 -10z"/>
<path d="M4962 3183 c-5 -10 -6 -27 -2 -38 5 -16 8 -13 13 15 8 39 3 50 -11
23z"/>
<path d="M30 3175 c0 -13 10 -15 55 -13 71 4 71 22 0 26 -45 2 -55 0 -55 -13z"/>
<path d="M545 3180 c4 -6 11 -8 16 -5 14 9 11 15 -7 15 -8 0 -12 -5 -9 -10z"/>
<path d="M720 3181 c0 -5 7 -11 14 -14 10 -4 13 -1 9 9 -6 15 -23 19 -23 5z"/>
<path d="M1422 3160 c0 -19 2 -27 5 -17 2 9 2 25 0 35 -3 9 -5 1 -5 -18z"/>
<path d="M5000 3179 c0 -5 5 -7 10 -4 6 3 10 8 10 11 0 2 -4 4 -10 4 -5 0 -10
-5 -10 -11z"/>
<path d="M5461 3174 c0 -11 3 -14 6 -6 3 7 2 16 -1 19 -3 4 -6 -2 -5 -13z"/>
<path d="M6460 3180 c0 -5 5 -10 10 -10 6 0 10 5 10 10 0 6 -4 10 -10 10 -5 0
-10 -4 -10 -10z"/>
<path d="M410 3168 c0 -4 14 -8 30 -8 17 0 30 2 30 4 0 2 -13 6 -30 8 -16 3
-30 1 -30 -4z"/>
<path d="M3531 3164 c0 -11 3 -14 6 -6 3 7 2 16 -1 19 -3 4 -6 -2 -5 -13z"/>
<path d="M4882 3168 c-16 -16 -15 -28 3 -28 8 0 15 9 15 20 0 23 -2 24 -18 8z"/>
<path d="M1767 3164 c-7 -8 4 -44 14 -44 12 0 12 37 0 44 -4 3 -11 3 -14 0z"/>
<path d="M5276 3157 c3 -10 9 -15 12 -12 3 3 0 11 -7 18 -10 9 -11 8 -5 -6z"/>
<path d="M6724 3153 c4 -9 1 -20 -6 -25 -10 -6 -8 -8 4 -8 13 0 17 7 16 25 -1
14 -6 25 -11 25 -5 0 -6 -8 -3 -17z"/>
<path d="M2572 3140 c0 -14 2 -19 5 -12 2 6 2 18 0 25 -3 6 -5 1 -5 -13z"/>
<path d="M4790 3142 c6 -13 14 -21 18 -18 3 4 -2 14 -12 24 -18 16 -18 16 -6
-6z"/>
<path d="M6757 3146 c-4 -10 -5 -21 -2 -24 9 -9 17 6 13 25 -3 17 -4 17 -11
-1z"/>
<path d="M4820 3140 c0 -6 7 -10 15 -10 8 0 15 2 15 4 0 2 -7 6 -15 10 -8 3
-15 1 -15 -4z"/>
<path d="M6108 3143 c6 -3 12 -12 12 -20 0 -12 3 -13 13 -4 8 6 17 8 21 4 4
-4 5 -1 1 7 -3 8 -18 16 -33 16 -15 1 -21 -1 -14 -3z"/>
<path d="M6670 3136 c0 -2 7 -9 15 -16 9 -7 15 -8 15 -2 0 5 -7 12 -15 16 -8
3 -15 4 -15 2z"/>
<path d="M6189 3105 c-20 -13 -40 -21 -43 -17 -4 3 -4 -1 0 -11 7 -19 40 -22
80 -7 39 15 23 23 -23 11 l-38 -10 35 29 c43 36 37 39 -11 5z"/>
<path d="M6871 3103 c-10 -21 -14 -24 -21 -12 -8 12 -12 11 -27 -3 -16 -17
-16 -18 1 -18 14 0 16 -3 7 -13 -18 -23 59 -20 89 3 31 24 19 38 -20 23 -32
-12 -40 -3 -15 17 16 14 20 30 7 30 -5 0 -14 -12 -21 -27z"/>
<path d="M4877 3080 c3 -25 7 -47 9 -49 8 -9 2 55 -6 74 -6 13 -7 5 -3 -25z"/>
<path d="M6650 3104 c0 -8 5 -12 10 -9 6 4 8 11 5 16 -9 14 -15 11 -15 -7z"/>
<path d="M1202 2888 c-1 -176 1 -228 11 -228 9 0 10 40 5 182 -11 283 -14 291
-16 46z"/>
<path d="M4610 3074 c0 -8 6 -11 15 -8 8 4 15 9 15 13 0 4 -7 8 -15 8 -8 0
-15 -6 -15 -13z"/>
<path d="M5180 3080 c-13 -9 -13 -10 0 -10 8 0 22 5 30 10 13 9 13 10 0 10 -8
0 -22 -5 -30 -10z"/>
<path d="M6065 3070 c-10 -11 -14 -20 -9 -20 5 0 15 9 22 20 7 11 11 20 9 20
-2 0 -12 -9 -22 -20z"/>
<path d="M3696 3060 c8 -31 20 -45 28 -32 3 5 -3 21 -15 33 l-20 24 7 -25z"/>
<path d="M3326 3053 c-6 -14 -5 -15 5 -6 7 7 10 15 7 18 -3 3 -9 -2 -12 -12z"/>
<path d="M3350 3045 c-7 -9 -11 -17 -9 -20 3 -2 10 5 17 15 14 24 10 26 -8 5z"/>
<path d="M4587 3030 c-16 -19 -16 -22 -1 -45 18 -27 16 -67 -4 -71 -7 -1 -8 0
-2 3 15 7 12 49 -4 62 -10 9 -16 7 -26 -5 -8 -8 -22 -13 -32 -11 -18 5 -20 2
-20 -53 -1 -47 2 -61 12 -55 19 12 10 -17 -15 -47 l-25 -30 0 31 c0 26 -4 31
-22 31 -38 0 -51 -15 -46 -49 3 -21 0 -31 -9 -31 -7 0 -13 7 -13 15 0 8 -7 15
-16 15 -11 0 -14 6 -9 21 6 19 3 20 -37 17 -36 -3 -44 -7 -46 -26 -2 -13 2
-30 8 -38 10 -11 9 -14 -4 -14 -9 0 -16 6 -16 14 0 7 -10 16 -21 19 -15 4 -20
11 -16 21 5 13 -2 16 -43 16 -48 0 -50 -1 -50 -28 0 -15 5 -33 12 -40 9 -9 4
-12 -22 -12 -31 0 -32 1 -15 13 30 23 3 28 -79 16 l-76 -11 0 -49 c0 -26 4
-50 8 -53 25 -15 225 -8 400 15 96 12 102 12 102 -5 0 -14 21 -26 46 -26 8 0
14 9 14 19 0 23 19 31 76 31 l44 0 0 150 c0 149 0 150 -22 151 -17 1 -19 2 -5
6 9 2 17 8 17 13 0 5 -6 7 -14 4 -11 -4 -13 0 -9 15 7 26 2 26 -20 1z m-57
-140 c0 -5 -5 -10 -11 -10 -5 0 -7 5 -4 10 3 6 8 10 11 10 2 0 4 -4 4 -10z
m10 -65 c0 -8 -4 -15 -10 -15 -5 0 -7 7 -4 15 4 8 8 15 10 15 2 0 4 -7 4 -15z
m-270 -95 c0 -5 -5 -10 -11 -10 -5 0 -7 5 -4 10 3 6 8 10 11 10 2 0 4 -4 4
-10z m235 -7 c-2 -10 -4 -25 -5 -33 0 -12 -3 -11 -11 3 -11 20 -6 47 10 47 5
0 8 -8 6 -17z m-386 -30 c-1 -38 -1 -38 -9 -9 -8 27 -6 46 6 46 2 0 4 -17 3
-37z"/>
<path d="M6140 3030 c0 -5 14 -16 30 -25 18 -9 30 -11 30 -5 0 6 10 8 25 4 34
-8 32 4 -2 17 -39 16 -83 20 -83 9z"/>
<path d="M6955 3030 c3 -5 8 -10 11 -10 2 0 4 5 4 10 0 6 -5 10 -11 10 -5 0
-7 -4 -4 -10z"/>
<path d="M7537 3016 c-4 -10 -5 -21 -2 -24 9 -9 17 6 13 25 -3 17 -4 17 -11
-1z"/>
<path d="M3775 3010 c-3 -5 -1 -10 4 -10 6 0 11 5 11 10 0 6 -2 10 -4 10 -3 0
-8 -4 -11 -10z"/>
<path d="M3405 3000 c-3 -6 1 -7 9 -4 18 7 21 14 7 14 -6 0 -13 -4 -16 -10z"/>
<path d="M3594 2995 c5 -14 2 -16 -21 -11 -27 5 -27 5 -5 -6 15 -8 21 -17 16
-30 -5 -17 5 -23 30 -19 5 1 23 -5 40 -13 58 -27 86 -24 84 8 -1 14 -6 22 -10
20 -5 -3 -6 -10 -3 -15 4 -5 1 -9 -4 -9 -6 0 -11 5 -11 10 0 14 -37 13 -46 -1
-4 -7 -13 0 -25 17 -10 15 -16 31 -14 34 2 3 -6 12 -17 19 -18 11 -20 11 -14
-4z"/>
<path d="M3675 2994 c-19 -15 -19 -15 7 -10 22 4 26 1 21 -12 -5 -15 -4 -15 8
-2 8 8 20 19 27 25 20 17 -40 16 -63 -1z"/>
<path d="M3833 3000 c2 -8 14 -16 28 -17 19 -1 20 -1 4 4 -11 3 -24 10 -28 17
-6 7 -7 6 -4 -4z"/>
<path d="M6890 3000 c-9 -6 -10 -10 -3 -10 6 0 15 5 18 10 8 12 4 12 -15 0z"/>
<path d="M7725 2984 l-30 -15 30 6 c17 4 34 11 40 16 13 13 -5 10 -40 -7z"/>
<path d="M1431 2975 c-1 -16 -3 -17 -10 -6 -8 12 -12 12 -25 2 -22 -19 -20
-48 5 -54 15 -4 23 1 30 21 5 14 8 33 6 41 -3 12 -5 10 -6 -4z"/>
<path d="M4500 2980 c20 -13 43 -13 35 0 -3 6 -16 10 -28 10 -18 0 -19 -2 -7
-10z"/>
<path d="M5056 2974 c-9 -23 -7 -31 7 -31 6 0 12 11 12 24 0 26 -10 30 -19 7z"/>
<path d="M6400 2965 c-20 -24 -5 -28 21 -6 19 16 20 20 8 21 -9 0 -22 -7 -29
-15z"/>
<path d="M3800 2960 c-9 -6 -10 -10 -3 -10 6 0 15 5 18 10 8 12 4 12 -15 0z"/>
<path d="M4452 2958 c-7 -7 -12 -17 -12 -22 0 -8 3 -7 8 0 4 6 16 16 27 22 15
8 16 11 5 12 -9 0 -21 -5 -28 -12z"/>
<path d="M7750 2960 c-34 -7 -34 -7 -5 -8 17 0 39 3 50 8 24 10 4 10 -45 0z"/>
<path d="M2448 2953 c7 -3 16 -2 19 1 4 3 -2 6 -13 5 -11 0 -14 -3 -6 -6z"/>
<path d="M3290 2950 c0 -5 5 -10 10 -10 6 0 10 5 10 10 0 6 -4 10 -10 10 -5 0
-10 -4 -10 -10z"/>
<path d="M2173 2943 c-21 -4 -23 -10 -23 -59 0 -44 3 -54 18 -55 15 0 15 -1
-2 -8 -36 -14 1 -21 56 -11 30 6 65 9 78 8 29 -4 39 21 11 29 -12 3 -21 9 -21
14 0 5 -12 27 -26 49 -27 40 -37 44 -91 33z"/>
<path d="M7575 2940 c-19 -8 -19 -9 3 -9 12 -1 22 4 22 9 0 6 -1 10 -2 9 -2 0
-12 -4 -23 -9z"/>
<path d="M3750 2911 c0 -12 -6 -21 -14 -21 -8 0 -18 -4 -21 -10 -4 -6 8 -10
28 -10 31 0 34 2 29 25 -6 32 -22 43 -22 16z"/>
<path d="M3786 2917 c3 -8 22 -19 42 -25 33 -10 35 -10 18 3 -11 8 -14 15 -8
15 7 0 12 5 12 11 0 8 -4 8 -14 0 -11 -9 -20 -10 -35 -1 -16 8 -19 8 -15 -3z"/>
<path d="M6840 2922 c0 -6 9 -12 20 -15 11 -3 20 -3 20 -1 0 2 -9 8 -20 14
-11 6 -20 7 -20 2z"/>
<path d="M2418 2903 c7 -3 16 -2 19 1 4 3 -2 6 -13 5 -11 0 -14 -3 -6 -6z"/>
<path d="M3560 2900 c-12 -8 -12 -10 3 -16 10 -4 16 -13 13 -20 -3 -8 -1 -14
3 -14 13 0 21 27 15 45 -7 17 -13 18 -34 5z"/>
<path d="M3609 2899 c-11 -7 -10 -9 4 -9 15 0 14 -4 -8 -27 -28 -31 -34 -66
-10 -57 8 4 15 16 15 29 0 14 7 25 20 28 23 6 27 32 7 40 -8 3 -20 1 -28 -4z"/>
<path d="M7500 2890 c0 -5 5 -10 11 -10 5 0 7 5 4 10 -3 6 -8 10 -11 10 -2 0
-4 -4 -4 -10z"/>
<path d="M7700 2891 c0 -5 5 -13 10 -16 6 -3 10 -2 10 4 0 5 -4 13 -10 16 -5
3 -10 2 -10 -4z"/>
<path d="M1357 2863 c-12 -23 -14 -33 -6 -33 7 0 5 -8 -6 -20 -10 -11 -13 -20
-7 -20 21 0 49 54 42 80 l-6 25 -17 -32z"/>
<path d="M3666 2881 c-4 -7 -5 -15 -2 -18 9 -9 19 4 14 18 -4 11 -6 11 -12 0z"/>
<path d="M4446 2875 c-3 -9 3 -19 15 -26 26 -14 35 -6 15 14 -8 8 -12 17 -9
21 4 3 2 6 -4 6 -6 0 -13 -7 -17 -15z"/>
<path d="M6146 2881 c-4 -7 -5 -15 -2 -18 9 -9 19 4 14 18 -4 11 -6 11 -12 0z"/>
<path d="M2365 2870 l-30 -7 28 -8 c16 -4 66 -5 110 -1 45 3 88 6 95 6 7 0 10
5 7 10 -7 12 -158 11 -210 0z"/>
<path d="M2028 2853 c7 -3 16 -2 19 1 4 3 -2 6 -13 5 -11 0 -14 -3 -6 -6z"/>
<path d="M7746 2847 c3 -10 9 -15 12 -12 3 3 0 11 -7 18 -10 9 -11 8 -5 -6z"/>
<path d="M2393 2833 c-40 -3 -55 -9 -63 -24 -8 -14 -7 -19 3 -19 7 0 18 5 25
12 8 8 15 8 26 -2 13 -10 17 -10 21 1 4 10 28 14 84 15 43 1 87 6 97 12 19 12
-67 13 -193 5z"/>
<path d="M2280 2804 c-8 -2 -41 -6 -72 -9 -48 -5 -58 -10 -58 -25 0 -18 7 -19
87 -17 49 2 88 7 90 13 5 14 -29 41 -47 38z"/>
<path d="M6611 2794 c0 -11 3 -14 6 -6 3 7 2 16 -1 19 -3 4 -6 -2 -5 -13z"/>
<path d="M1257 2780 c6 -22 9 -23 38 -10 18 8 18 9 -5 10 -24 2 -23 3 5 10
l30 8 -37 1 c-31 1 -35 -2 -31 -19z"/>
<path d="M2475 2790 c-11 -4 -30 -6 -42 -4 -13 3 -23 0 -23 -6 0 -7 22 -10 60
-8 57 3 72 9 50 23 -5 3 -10 0 -10 -7 0 -9 -3 -10 -8 -2 -4 7 -15 8 -27 4z"/>
<path d="M2362 2778 c2 -6 10 -14 16 -16 7 -2 10 2 6 12 -7 18 -28 22 -22 4z"/>
<path d="M7520 2770 c0 -5 5 -10 11 -10 5 0 7 5 4 10 -3 6 -8 10 -11 10 -2 0
-4 -4 -4 -10z"/>
<path d="M3537 2744 c-3 -4 -2 -15 3 -25 7 -12 6 -19 -2 -21 -7 -3 -8 -9 -3
-18 6 -10 10 -8 16 8 5 14 17 22 31 23 23 0 23 0 -2 12 -14 6 -28 15 -31 19
-3 5 -8 5 -12 2z"/>
<path d="M3585 2740 c3 -5 11 -10 16 -10 6 0 7 5 4 10 -3 6 -11 10 -16 10 -6
0 -7 -4 -4 -10z"/>
<path d="M1260 2720 c0 -11 6 -20 14 -20 9 0 14 9 13 20 -1 11 -7 20 -14 20
-7 0 -13 -9 -13 -20z"/>
<path d="M2141 2714 c0 -11 3 -14 6 -6 3 7 2 16 -1 19 -3 4 -6 -2 -5 -13z"/>
<path d="M2276 2705 c2 -16 7 -61 11 -98 4 -54 9 -67 20 -63 8 4 28 6 44 6 25
0 29 4 29 27 0 14 2 24 5 22 8 -8 8 -73 1 -108 -6 -24 -5 -31 3 -27 6 4 11 18
11 31 0 22 4 24 66 27 36 1 74 0 85 -4 10 -4 19 -3 19 2 0 6 -4 10 -9 10 -5 0
-7 18 -4 40 l6 40 -97 0 c-73 0 -98 3 -102 14 -3 8 -17 13 -35 12 -24 -2 -29
2 -29 21 0 22 4 24 45 22 40 -2 44 -5 39 -24 -5 -21 -1 -22 64 -28 97 -8 107
-4 109 44 l3 39 -48 1 c-26 0 -68 3 -94 5 -36 3 -46 1 -43 -8 4 -10 -7 -12
-44 -10 -36 3 -51 9 -55 20 -3 10 -3 4 0 -13z m247 -12 c-7 -2 -21 -2 -30 0
-10 3 -4 5 12 5 17 0 24 -2 18 -5z"/>
<path d="M3360 2720 c0 -5 4 -10 9 -10 6 0 13 5 16 10 3 6 -1 10 -9 10 -9 0
-16 -4 -16 -10z"/>
<path d="M6380 2720 c0 -5 5 -10 11 -10 5 0 7 5 4 10 -3 6 -8 10 -11 10 -2 0
-4 -4 -4 -10z"/>
<path d="M1728 2703 c6 -2 18 -2 25 0 6 3 1 5 -13 5 -14 0 -19 -2 -12 -5z"/>
<path d="M3360 2690 c0 -5 5 -10 10 -10 6 0 10 5 10 10 0 6 -4 10 -10 10 -5 0
-10 -4 -10 -10z"/>
<path d="M1660 2680 c0 -5 5 -10 11 -10 5 0 7 5 4 10 -3 6 -8 10 -11 10 -2 0
-4 -4 -4 -10z"/>
<path d="M1738 2683 c7 -3 16 -2 19 1 4 3 -2 6 -13 5 -11 0 -14 -3 -6 -6z"/>
<path d="M3565 2681 c-3 -6 3 -9 14 -8 11 0 17 5 15 9 -7 11 -22 10 -29 -1z"/>
<path d="M6361 2675 c-1 -33 10 -63 26 -69 14 -6 14 -4 0 17 -8 13 -17 34 -20
48 -3 19 -5 20 -6 4z"/>
<path d="M6678 2674 c-5 -4 -8 -22 -8 -41 0 -23 -5 -33 -15 -33 -25 0 -30 4
-27 24 2 15 -1 16 -11 7 -8 -6 -15 -34 -16 -66 -1 -49 1 -55 19 -55 27 0 34 3
37 15 1 6 9 36 18 68 16 58 17 96 3 81z"/>
<path d="M2592 2650 c0 -14 2 -19 5 -12 2 6 2 18 0 25 -3 6 -5 1 -5 -13z"/>
<path d="M7344 2656 c-10 -8 -15 -18 -11 -22 4 -4 15 0 24 9 22 21 12 31 -13
13z"/>
<path d="M1672 2505 c0 -91 3 -151 8 -140 4 11 5 57 3 103 l-5 82 41 0 c22 0
41 3 41 8 0 4 -18 6 -40 4 -25 -3 -40 0 -40 7 0 6 17 11 40 11 22 0 40 3 40 8
0 4 -18 6 -40 4 -25 -3 -40 0 -40 7 0 6 17 11 40 11 22 0 40 4 40 9 0 5 -18 7
-39 4 -35 -5 -40 -3 -44 18 -2 13 -5 -48 -5 -136z"/>
<path d="M1710 2650 c-21 -7 -20 -8 12 -7 21 1 38 5 38 10 0 9 -17 8 -50 -3z"/>
<path d="M3350 2650 c0 -5 -15 -17 -32 -25 l-33 -15 33 5 c28 4 32 2 33 -18 0
-12 3 -16 6 -9 4 10 8 10 19 2 10 -10 12 -7 9 10 -8 40 -16 60 -26 60 -5 0 -9
-4 -9 -10z"/>
<path d="M3392 2645 c3 -16 11 -20 43 -21 48 -1 75 5 75 18 0 6 -22 7 -52 4
-36 -4 -55 -2 -61 7 -5 8 -7 5 -5 -8z"/>
<path d="M5693 2610 c0 -25 2 -35 4 -22 2 12 2 32 0 45 -2 12 -4 2 -4 -23z"/>
<path d="M660 2620 c-12 -8 -9 -10 13 -10 15 0 27 5 27 10 0 13 -20 13 -40 0z"/>
<path d="M2154 2495 c0 -77 2 -107 3 -67 2 40 2 103 0 140 -2 37 -3 4 -3 -73z"/>
<path d="M4111 2614 c0 -11 3 -14 6 -6 3 7 2 16 -1 19 -3 4 -6 -2 -5 -13z"/>
<path d="M580 2612 c0 -5 14 -7 30 -4 17 2 30 6 30 8 0 2 -13 4 -30 4 -16 0
-30 -4 -30 -8z"/>
<path d="M1588 2603 c7 -3 16 -2 19 1 4 3 -2 6 -13 5 -11 0 -14 -3 -6 -6z"/>
<path d="M1578 2573 c6 -2 18 -2 25 0 6 3 1 5 -13 5 -14 0 -19 -2 -12 -5z"/>
<path d="M5763 2543 c15 -2 37 -2 50 0 12 2 0 4 -28 4 -27 0 -38 -2 -22 -4z"/>
<path d="M1431 2524 c0 -11 3 -14 6 -6 3 7 2 16 -1 19 -3 4 -6 -2 -5 -13z"/>
<path d="M5898 2533 c23 -2 59 -2 80 0 20 2 1 4 -43 4 -44 0 -61 -2 -37 -4z"/>
<path d="M1708 2523 c12 -2 30 -2 40 0 9 3 -1 5 -23 4 -22 0 -30 -2 -17 -4z"/>
<path d="M4430 2500 c-13 -9 -13 -10 0 -9 8 0 24 4 35 9 l20 9 -20 0 c-11 0
-27 -4 -35 -9z"/>
<path d="M1713 2493 c9 -2 25 -2 35 0 9 3 1 5 -18 5 -19 0 -27 -2 -17 -5z"/>
<path d="M2462 2470 c0 -19 2 -27 5 -17 2 9 2 25 0 35 -3 9 -5 1 -5 -18z"/>
<path d="M4040 2492 c0 -5 -10 -8 -21 -8 -12 1 -24 -5 -27 -12 -3 -11 0 -12
14 -4 11 5 25 7 32 5 6 -3 12 0 12 5 0 6 8 13 18 15 13 4 11 5 -5 6 -13 0 -23
-3 -23 -7z"/>
<path d="M4153 2493 c9 -2 23 -2 30 0 6 3 -1 5 -18 5 -16 0 -22 -2 -12 -5z"/>
<path d="M1590 2480 c-9 -6 -10 -10 -3 -10 6 0 15 5 18 10 8 12 4 12 -15 0z"/>
<path d="M2290 2477 c0 -10 8 -17 18 -17 9 0 13 4 7 8 -5 4 -13 11 -17 16 -5
5 -8 2 -8 -7z"/>
<path d="M4098 2483 c6 -2 18 -2 25 0 6 3 1 5 -13 5 -14 0 -19 -2 -12 -5z"/>
<path d="M2200 2465 l-25 -14 30 0 c31 1 87 16 70 19 -5 1 -19 3 -30 5 -11 2
-31 -3 -45 -10z"/>
<path d="M4433 2459 c-2 -29 -12 -37 -23 -19 -7 10 -10 11 -10 3 0 -9 -18 -13
-52 -14 l-53 -1 53 -10 c79 -14 56 -21 -43 -13 -81 6 -85 8 -85 31 0 13 -4 24
-8 24 -5 0 -8 -16 -8 -35 1 -21 6 -35 14 -35 6 0 12 -3 12 -7 0 -5 -43 -8 -95
-7 -52 0 -95 -3 -95 -8 0 -4 12 -8 28 -9 15 -1 38 -5 52 -9 15 -5 -14 -7 -70
-3 -69 3 -91 2 -80 -6 19 -14 180 -15 180 -1 0 6 19 11 43 11 23 1 56 5 72 9
l30 8 -27 1 c-16 0 -28 6 -28 12 0 5 4 8 8 5 8 -5 96 -7 140 -4 12 1 22 8 22
15 0 15 38 17 74 3 21 -7 26 -6 26 5 0 18 16 20 23 3 3 -7 6 6 6 30 l1 42 -41
0 c-29 0 -38 -3 -33 -12 6 -10 4 -10 -7 0 -18 17 -25 15 -26 -9z"/>
<path d="M6637 2453 c-4 -20 -13 -33 -22 -33 -8 0 -15 -4 -15 -10 0 -5 9 -10
20 -10 11 0 19 3 18 8 0 4 2 15 6 24 4 9 6 25 4 35 -3 12 -6 7 -11 -14z"/>
<path d="M6827 2376 c-104 -107 -119 -125 -111 -138 3 -4 2 -8 -3 -8 -11 0
-45 -73 -41 -90 2 -8 -2 -14 -9 -15 -17 0 -29 -15 -12 -15 10 -1 9 -4 -4 -11
-9 -6 -15 -14 -12 -19 3 -4 -2 -11 -11 -14 -8 -3 -12 -10 -9 -16 3 -5 1 -10
-4 -10 -6 0 -11 -7 -11 -15 0 -7 -8 -19 -17 -24 -14 -8 -15 -11 -3 -11 11 -1
10 -3 -3 -9 -10 -4 -17 -9 -15 -11 1 -3 -7 -19 -20 -37 -12 -17 -22 -35 -22
-41 0 -5 -13 -25 -30 -43 -16 -19 -30 -37 -30 -41 0 -4 -10 -18 -23 -30 -30
-30 -40 -65 -20 -72 8 -3 36 -6 62 -6 45 0 47 1 60 38 8 20 25 51 37 68 13 17
24 34 24 37 0 12 68 112 86 128 11 8 51 34 89 56 39 23 79 51 90 63 l19 21
-29 27 c-55 49 -61 68 -8 22 56 -48 54 -43 37 -130 -4 -19 -10 -28 -17 -23 -8
4 -7 1 1 -9 18 -23 -12 -138 -43 -168 -13 -12 -21 -28 -18 -36 3 -8 -2 -17
-11 -20 -9 -3 -16 -14 -16 -24 0 -10 -13 -23 -30 -30 -35 -15 -52 -7 -21 10
12 6 21 19 21 29 0 11 7 21 15 25 8 3 15 14 15 25 0 11 5 23 10 26 6 3 10 15
10 26 0 10 4 19 10 19 5 0 12 17 15 38 3 20 10 45 16 54 20 38 8 41 -21 6 -17
-20 -40 -40 -51 -43 -12 -4 -22 -19 -26 -37 -4 -18 -14 -33 -25 -35 -10 -3
-18 -11 -18 -19 0 -7 -6 -17 -13 -21 -7 -4 -20 -20 -30 -35 -11 -18 -26 -28
-42 -28 -24 0 -24 0 -7 -32 9 -18 18 -34 18 -36 3 -6 258 -42 383 -53 122 -10
191 -9 307 7 37 5 41 9 42 34 0 20 -5 30 -20 33 -14 4 -19 11 -14 23 5 14 4
15 -9 4 -23 -19 -18 4 5 25 14 13 20 31 20 64 1 25 6 91 13 146 7 55 11 128 9
162 l-4 61 -71 -41 c-40 -22 -83 -48 -97 -58 -14 -10 -45 -23 -70 -29 -62 -15
-100 -31 -100 -41 0 -5 -9 -4 -20 3 -25 16 -25 25 -2 31 9 3 4 5 -12 4 -16 -1
-31 4 -33 11 -4 10 8 13 48 12 118 -3 169 31 209 137 23 62 38 183 22 183 -6
0 -56 -16 -112 -34 l-101 -35 -45 70 c-25 38 -46 68 -47 68 -1 -1 -46 -47
-100 -103z m110 -252 c-3 -3 -12 -4 -19 -1 -8 3 -5 6 6 6 11 1 17 -2 13 -5z"/>
<path d="M1713 2463 c9 -2 25 -2 35 0 9 3 1 5 -18 5 -19 0 -27 -2 -17 -5z"/>
<path d="M1988 2453 c-39 -4 -50 -19 -23 -29 25 -10 106 6 99 18 -5 7 -1 9 9
5 10 -3 17 -2 17 3 0 10 -28 10 -102 3z"/>
<path d="M7166 2445 c-9 -26 -7 -32 5 -12 6 10 9 21 6 23 -2 3 -7 -2 -11 -11z"/>
<path d="M1578 2443 c7 -3 16 -2 19 1 4 3 -2 6 -13 5 -11 0 -14 -3 -6 -6z"/>
<path d="M4145 2440 c-13 -5 -14 -9 -5 -9 8 0 24 4 35 9 13 5 14 9 5 9 -8 0
-24 -4 -35 -9z"/>
<path d="M5943 2443 c9 -2 23 -2 30 0 6 3 -1 5 -18 5 -16 0 -22 -2 -12 -5z"/>
<path d="M2383 2400 c0 -25 2 -35 4 -22 2 12 2 32 0 45 -2 12 -4 2 -4 -23z"/>
<path d="M1733 2423 c-24 -3 -33 -9 -33 -23 0 -16 5 -19 33 -14 45 8 87 25 87
35 0 9 -26 9 -87 2z"/>
<path d="M3320 2419 c0 -5 9 -9 20 -9 11 0 20 2 20 4 0 2 -9 6 -20 9 -11 3
-20 1 -20 -4z"/>
<path d="M5818 2423 c12 -2 30 -2 40 0 9 3 -1 5 -23 4 -22 0 -30 -2 -17 -4z"/>
<path d="M2422 2390 c0 -14 2 -19 5 -12 2 6 2 18 0 25 -3 6 -5 1 -5 -13z"/>
<path d="M5920 2380 c0 -11 5 -12 108 -12 41 0 76 3 80 6 3 3 -28 6 -69 7 -41
0 -84 2 -96 5 -13 2 -23 -1 -23 -6z"/>
<path d="M2245 2371 l-30 -7 38 -5 c26 -4 37 -1 37 8 0 14 0 14 -45 4z"/>
<path d="M2456 2365 c-3 -8 -1 -15 4 -15 6 0 10 7 10 15 0 8 -2 15 -4 15 -2 0
-6 -7 -10 -15z"/>
<path d="M7337 2345 c-4 -21 -5 -41 -3 -42 2 -2 27 -1 55 3 l51 7 -27 14 c-16
8 -34 21 -40 30 -11 14 -13 14 -14 2 0 -8 -3 -6 -8 6 -6 15 -9 12 -14 -20z"/>
<path d="M7776 2339 c3 -5 19 -9 36 -9 39 0 34 6 -10 13 -18 3 -30 1 -26 -4z"/>
<path d="M3577 2283 c-9 -18 -1 -68 10 -66 7 2 23 -1 36 -6 19 -8 25 -19 31
-57 3 -26 15 -72 25 -103 11 -31 25 -77 31 -103 7 -27 17 -48 21 -48 13 0 12
6 -17 148 -14 70 -27 137 -30 148 -3 19 3 23 56 33 33 7 62 16 65 21 8 13 -9
12 -80 -5 -74 -18 -106 -19 -104 -2 4 32 -2 47 -20 47 -11 0 -22 -3 -24 -7z
m33 -7 c0 -3 -4 -8 -10 -11 -5 -3 -10 -1 -10 4 0 6 5 11 10 11 6 0 10 -2 10
-4z"/>
<path d="M6620 2280 c0 -5 11 -10 25 -10 14 0 25 5 25 10 0 6 -11 10 -25 10
-14 0 -25 -4 -25 -10z"/>
<path d="M1060 2154 c0 -8 5 -12 10 -9 6 4 8 11 5 16 -9 14 -15 11 -15 -7z"/>
<path d="M3773 2163 c9 -2 25 -2 35 0 9 3 1 5 -18 5 -19 0 -27 -2 -17 -5z"/>
<path d="M3837 2159 c7 -7 15 -10 18 -7 3 3 -2 9 -12 12 -14 6 -15 5 -6 -5z"/>
<path d="M6605 2159 c-4 -6 -5 -12 -2 -15 2 -3 7 2 10 11 7 17 1 20 -8 4z"/>
<path d="M3580 2105 c0 -11 10 -15 35 -15 22 0 35 5 35 13 0 8 -14 14 -35 15
-26 2 -35 -1 -35 -13z"/>
<path d="M3720 2096 c0 -2 14 -6 30 -8 17 -3 30 -1 30 4 0 4 -13 8 -30 8 -16
0 -30 -2 -30 -4z"/>
<path d="M6210 2086 c0 -12 10 -16 36 -16 45 0 41 22 -4 27 -24 3 -32 0 -32
-11z"/>
<path d="M800 2070 c0 -5 5 -10 10 -10 6 0 10 5 10 10 0 6 -4 10 -10 10 -5 0
-10 -4 -10 -10z"/>
<path d="M1063 2063 c9 -2 23 -2 30 0 6 3 -1 5 -18 5 -16 0 -22 -2 -12 -5z"/>
<path d="M7370 2055 c0 -5 5 -17 10 -25 5 -8 10 -10 10 -5 0 6 -5 17 -10 25
-5 8 -10 11 -10 5z"/>
<path d="M6468 2043 c6 -2 18 -2 25 0 6 3 1 5 -13 5 -14 0 -19 -2 -12 -5z"/>
<path d="M6515 2040 c3 -5 10 -10 16 -10 5 0 9 5 9 10 0 6 -7 10 -16 10 -8 0
-12 -4 -9 -10z"/>
<path d="M4646 1976 c10 -25 36 -28 56 -6 19 20 18 20 -21 20 -31 0 -39 -3
-35 -14z"/>
<path d="M4208 1913 c12 -2 30 -2 40 0 9 3 -1 5 -23 4 -22 0 -30 -2 -17 -4z"/>
<path d="M7663 1905 c-3 -9 -3 -19 1 -22 3 -3 52 -8 108 -10 l103 -3 -75 25
c-86 29 -128 32 -137 10z"/>
<path d="M4770 1890 c0 -5 6 -10 14 -10 8 0 18 5 21 10 3 6 -3 10 -14 10 -12
0 -21 -4 -21 -10z"/>
<path d="M7848 1893 c7 -3 16 -2 19 1 4 3 -2 6 -13 5 -11 0 -14 -3 -6 -6z"/>
<path d="M4115 1850 c4 -6 11 -8 16 -5 14 9 11 15 -7 15 -8 0 -12 -5 -9 -10z"/>
<path d="M2032 1820 c0 -19 2 -27 5 -17 2 9 2 25 0 35 -3 9 -5 1 -5 -18z"/>
<path d="M4930 1835 c0 -10 10 -15 34 -15 18 0 62 -3 97 -6 85 -7 58 10 -38
25 -91 14 -93 14 -93 -4z"/>
<path d="M4920 1801 c0 -6 5 -13 10 -16 6 -3 10 1 10 9 0 9 -4 16 -10 16 -5 0
-10 -4 -10 -9z"/>
<path d="M4290 1790 c-9 -6 -10 -10 -3 -10 6 0 15 5 18 10 8 12 4 12 -15 0z"/>
<path d="M4943 1754 c-3 -7 -3 -17 -1 -22 4 -11 68 5 68 17 0 15 -61 19 -67 5z"/>
<path d="M5813 1753 c9 -2 23 -2 30 0 6 3 -1 5 -18 5 -16 0 -22 -2 -12 -5z"/>
<path d="M4905 1621 c58 -13 257 -23 222 -11 -16 5 -81 11 -145 14 -77 3 -103
2 -77 -3z"/>
<path d="M5208 1593 c7 -3 16 -2 19 1 4 3 -2 6 -13 5 -11 0 -14 -3 -6 -6z"/>
<path d="M4795 1579 c22 -4 65 -7 95 -7 l55 1 -55 7 c-30 5 -73 8 -95 8 l-40
0 40 -9z"/>
<path d="M5073 1553 c9 -2 25 -2 35 0 9 3 1 5 -18 5 -19 0 -27 -2 -17 -5z"/>
<path d="M3411 1464 c-29 -13 -60 -24 -67 -24 -8 0 -14 -4 -14 -8 0 -4 -17
-14 -37 -22 -59 -21 -229 -100 -217 -100 25 0 210 77 359 150 72 35 52 39 -24
4z"/>
<path d="M3480 1390 c-12 -8 -11 -10 7 -10 12 0 25 5 28 10 8 13 -15 13 -35 0z"/>
<path d="M4855 1390 c-3 -5 -2 -10 4 -10 5 0 13 5 16 10 3 6 2 10 -4 10 -5 0
-13 -4 -16 -10z"/>
<path d="M3258 1353 c7 -3 16 -2 19 1 4 3 -2 6 -13 5 -11 0 -14 -3 -6 -6z"/>
<path d="M3040 1301 c0 -5 -9 -11 -20 -14 -11 -3 -20 -11 -19 -19 0 -10 2 -10
6 0 2 6 10 12 18 12 7 0 18 7 25 15 9 10 9 15 1 15 -6 0 -11 -4 -11 -9z"/>
<path d="M3378 1243 c12 -2 30 -2 40 0 9 3 -1 5 -23 4 -22 0 -30 -2 -17 -4z"/>
<path d="M3015 1210 c-4 -6 7 -10 27 -9 27 0 30 2 13 9 -27 12 -33 12 -40 0z"/>
<path d="M3098 1193 c7 -3 16 -2 19 1 4 3 -2 6 -13 5 -11 0 -14 -3 -6 -6z"/>
<path d="M3141 1186 c2 -2 22 -6 44 -9 27 -4 35 -3 25 3 -14 9 -79 15 -69 6z"/>
<path d="M2956 1121 c5 -5 36 -12 69 -15 l60 -5 -50 13 c-61 17 -93 20 -79 7z"/>
<path d="M2435 960 c3 -5 13 -10 21 -10 8 0 12 5 9 10 -3 6 -13 10 -21 10 -8
0 -12 -4 -9 -10z"/>
<path d="M5030 825 c0 -8 2 -15 4 -15 2 0 6 7 10 15 3 8 1 15 -4 15 -6 0 -10
-7 -10 -15z"/>
<path d="M3350 661 c8 -5 38 -12 65 -15 32 -4 41 -3 25 2 -39 13 -107 22 -90
13z"/>
<path d="M6145 660 c-16 -7 -17 -9 -3 -9 9 -1 20 4 23 9 7 11 7 11 -20 0z"/>
<path d="M2240 641 c0 -10 50 -25 57 -18 2 3 -10 9 -26 15 -17 6 -31 7 -31 3z"/>
<path d="M3470 636 c0 -2 7 -6 15 -10 8 -3 15 -1 15 4 0 6 -7 10 -15 10 -8 0
-15 -2 -15 -4z"/>
<path d="M2898 593 c7 -3 16 -2 19 1 4 3 -2 6 -13 5 -11 0 -14 -3 -6 -6z"/>
<path d="M6568 593 c7 -3 16 -2 19 1 4 3 -2 6 -13 5 -11 0 -14 -3 -6 -6z"/>
<path d="M3000 570 c8 -5 26 -10 39 -10 32 0 24 6 -19 14 -25 4 -31 3 -20 -4z"/>
<path d="M5546 545 c-9 -14 -13 -25 -8 -25 5 0 14 11 20 25 6 14 10 25 8 25
-2 0 -11 -11 -20 -25z"/>
<path d="M3208 523 c6 -2 18 -2 25 0 6 3 1 5 -13 5 -14 0 -19 -2 -12 -5z"/>
<path d="M3263 513 c9 -2 23 -2 30 0 6 3 -1 5 -18 5 -16 0 -22 -2 -12 -5z"/>
<path d="M2508 503 c7 -3 16 -2 19 1 4 3 -2 6 -13 5 -11 0 -14 -3 -6 -6z"/>
<path d="M2550 490 c8 -5 24 -10 34 -10 26 0 18 6 -19 14 -22 5 -26 4 -15 -4z"/>
<path d="M3398 483 c7 -3 16 -2 19 1 4 3 -2 6 -13 5 -11 0 -14 -3 -6 -6z"/>
<path d="M3535 451 c98 -26 137 -30 121 -14 -6 7 -130 31 -191 38 -22 2 10 -8
70 -24z"/>
<path d="M2785 430 c11 -5 29 -8 40 -8 16 0 15 2 -5 8 -34 11 -60 11 -35 0z"/>
<path d="M2870 410 c8 -5 24 -10 34 -10 26 0 18 6 -19 14 -22 5 -26 4 -15 -4z"/>
<path d="M3048 363 c6 -2 18 -2 25 0 6 3 1 5 -13 5 -14 0 -19 -2 -12 -5z"/>
<path d="M5795 360 c3 -5 8 -10 11 -10 2 0 4 5 4 10 0 6 -5 10 -11 10 -5 0 -7
-4 -4 -10z"/>
<path d="M3098 353 c6 -2 18 -2 25 0 6 3 1 5 -13 5 -14 0 -19 -2 -12 -5z"/>
<path d="M7511 334 c0 -11 3 -14 6 -6 3 7 2 16 -1 19 -3 4 -6 -2 -5 -13z"/>
<path d="M3320 301 c8 -5 40 -12 70 -15 l55 -6 -45 15 c-50 16 -106 20 -80 6z"/>
<path d="M5940 260 c0 -5 5 -10 11 -10 5 0 7 5 4 10 -3 6 -8 10 -11 10 -2 0
-4 -4 -4 -10z"/>
<path d="M6072 232 c4 -19 29 -23 35 -6 2 6 -6 14 -17 17 -16 4 -20 1 -18 -11z"/>
<path d="M7545 210 c-3 -5 -1 -10 4 -10 6 0 11 5 11 10 0 6 -2 10 -4 10 -3 0
-8 -4 -11 -10z"/>
<path d="M3765 160 c28 -12 37 -12 30 0 -3 6 -16 10 -28 9 -21 0 -21 -1 -2 -9z"/>
<path d="M5693 123 c9 -2 23 -2 30 0 6 3 -1 5 -18 5 -16 0 -22 -2 -12 -5z"/>
<path d="M5818 103 c7 -3 16 -2 19 1 4 3 -2 6 -13 5 -11 0 -14 -3 -6 -6z"/>
<path d="M3875 70 c11 -5 27 -9 35 -9 13 -1 13 0 0 9 -8 5 -24 9 -35 9 l-20 0
20 -9z"/>
</g>
</svg>
