<?xml version="1.0" standalone="no"?>
<!DOCTYPE svg PUBLIC "-//W3C//DTD SVG 20010904//EN"
 "http://www.w3.org/TR/2001/REC-SVG-20010904/DTD/svg10.dtd">
<svg version="1.0" xmlns="http://www.w3.org/2000/svg"
 width="747.000000pt" height="500.000000pt" viewBox="0 0 747.000000 500.000000"
 preserveAspectRatio="xMidYMid meet">

<g transform="translate(0.000000,500.000000) scale(0.100000,-0.100000)"
fill="#000000" stroke="none">
<path d="M0 2740 c0 -2146 1 -2260 17 -2260 10 0 47 -11 83 -24 75 -27 93 -34
117 -43 10 -3 20 -7 23 -8 64 -19 92 -31 101 -41 6 -7 16 -11 24 -8 7 3 16 1
20 -5 3 -6 17 -11 30 -11 13 0 27 -5 30 -10 4 -6 11 -8 16 -4 5 3 20 -1 32 -9
12 -8 37 -18 55 -21 17 -4 32 -11 32 -16 0 -5 21 -12 46 -16 34 -5 44 -10 39
-21 -4 -12 0 -14 16 -10 12 3 32 2 46 -4 36 -13 258 -49 395 -63 24 -3 84 -10
133 -16 50 -7 104 -14 120 -16 48 -5 98 -12 135 -19 61 -11 254 -36 280 -36
14 -1 31 -5 38 -11 6 -6 12 -8 12 -5 0 3 13 2 30 -3 17 -5 32 -5 35 0 3 5 22
3 43 -4 20 -7 54 -12 75 -11 20 1 37 -2 37 -6 0 -4 10 -5 22 -1 16 4 19 2 13
-9 -7 -11 -6 -12 7 -2 8 7 17 10 21 7 3 -3 34 -8 69 -10 35 -2 77 -7 93 -10
17 -4 149 -8 293 -11 247 -4 265 -3 278 14 12 17 13 17 14 1 0 -17 60 -18
1125 -18 1110 0 1126 0 1115 19 -16 31 -12 32 16 6 34 -32 104 -36 104 -7 0
24 38 23 55 -1 11 -16 94 -17 1099 -17 l1086 0 0 2500 0 2500 -3735 0 -3735 0
0 -2260z m1310 1576 c0 -2 -7 -7 -16 -10 -8 -3 -12 -2 -9 4 6 10 25 14 25 6z
m80 -26 c13 -8 13 -10 -2 -10 -9 0 -20 5 -23 10 -8 13 5 13 25 0z m-139 -27
c-12 -20 -14 -14 -5 12 4 9 9 14 11 11 3 -2 0 -13 -6 -23z m48 -408 c-1 -190
1 -348 4 -351 3 -3 68 16 145 41 129 43 141 49 144 72 2 16 12 29 26 34 l22 8
0 -190 0 -189 -27 -11 c-19 -7 -29 -6 -37 2 -8 9 -6 10 7 6 10 -4 16 -3 12 2
-8 14 -65 41 -86 41 -9 0 -19 3 -21 8 -6 14 -90 52 -116 52 -20 0 -23 3 -13 9
11 7 10 10 -6 15 -11 4 -28 15 -38 26 -9 10 -23 16 -31 13 -8 -3 -14 0 -14 6
0 6 -7 11 -15 11 -8 0 -15 5 -15 10 0 6 4 10 9 10 5 0 8 16 7 35 -2 20 1 38 5
41 14 9 11 19 -18 50 l-26 29 2 180 c1 99 4 210 8 248 5 60 8 69 32 80 14 7
27 22 29 35 10 67 12 -13 11 -323z m-1164 95 c-3 -5 -12 -10 -18 -10 -7 0 -6
4 3 10 19 12 23 12 15 0z m62 -46 c-3 -3 -12 -4 -19 -1 -8 3 -5 6 6 6 11 1 17
-2 13 -5z m4159 -142 c-10 -2 -22 0 -28 6 -6 6 0 7 19 4 21 -5 23 -7 9 -10z
m-2376 -53 c0 -14 -17 -10 -23 5 -4 10 -1 13 9 9 7 -3 14 -9 14 -14z m1720
-43 c0 -2 -7 -7 -16 -10 -8 -3 -12 -2 -9 4 6 10 25 14 25 6z m450 -71 c0 -34
26 -32 39 3 8 21 10 0 9 -93 0 -65 -5 -129 -11 -142 -10 -23 -37 -39 -37 -23
0 6 5 10 11 10 5 0 7 5 4 10 -5 8 -11 7 -21 -1 -7 -6 -12 -15 -9 -19 11 -18
-17 -21 -33 -3 -17 18 -45 24 -58 10 -13 -12 -26 -8 -21 7 7 17 -20 30 -29 14
-4 -6 3 -20 16 -30 20 -16 18 -21 -10 -20 -3 0 -16 3 -30 7 -14 4 -22 4 -18 0
4 -4 -2 -17 -14 -29 -13 -13 -22 -17 -25 -10 -2 7 -13 10 -23 7 -15 -4 -18
-11 -14 -29 5 -20 2 -24 -17 -25 -13 0 -18 -3 -11 -6 6 -2 12 -12 12 -21 1
-15 2 -15 11 1 5 9 15 17 20 17 6 0 8 -4 4 -9 -7 -12 24 -43 36 -36 15 10 10
-12 -6 -25 -8 -7 -24 -10 -36 -7 -28 8 -49 -2 -49 -22 0 -14 -2 -14 -10 -1
-13 21 -12 43 2 34 7 -4 8 -3 4 5 -9 14 -26 5 -26 -15 0 -11 -6 -13 -22 -8
-12 4 -57 7 -100 7 -60 0 -75 2 -64 11 17 13 31 56 18 56 -5 0 -14 -10 -21
-22 -11 -21 -11 -21 -6 7 l6 30 -21 -25 c-11 -14 -20 -28 -20 -32 0 -5 -4 -8
-9 -8 -6 0 -9 12 -8 27 2 21 -4 28 -28 34 -39 11 -61 4 -68 -22 -3 -13 -10
-18 -17 -14 -6 4 -9 17 -6 30 4 14 0 27 -8 35 -12 9 -19 7 -35 -9 -29 -29 -41
-26 -41 9 0 32 -9 37 -28 18 -6 -6 -15 -8 -19 -4 -4 4 -1 12 7 17 11 7 6 8
-18 4 l-33 -7 3 49 c3 41 6 48 26 51 32 5 38 29 13 51 -11 10 -18 21 -14 24 3
4 14 -3 24 -15 18 -20 20 -21 39 -3 18 16 20 16 20 2 0 -24 17 -21 31 5 11 20
12 20 24 4 12 -16 14 -16 20 3 7 25 23 27 31 6 9 -22 21 -18 26 9 4 19 1 23
-11 19 -12 -5 -13 -3 -5 6 15 16 44 3 44 -20 0 -25 20 -24 27 1 6 23 23 27 23
5 0 -22 27 -18 33 5 6 23 27 27 27 5 0 -8 7 -15 15 -15 8 0 15 9 15 20 0 11 7
20 15 20 8 0 15 -7 15 -15 0 -22 27 -18 33 5 6 23 27 27 27 5 0 -24 20 -17 30
10 12 31 26 32 33 3 5 -18 8 -19 21 -8 9 7 16 19 16 26 0 21 17 17 23 -6 7
-28 26 -25 38 8 11 27 11 27 20 5 12 -32 28 -29 40 7 13 35 24 39 32 10 7 -28
26 -25 38 8 11 27 11 27 20 5 12 -32 28 -29 40 7 13 36 29 39 29 5z m-3920
-19 c0 -2 -9 -6 -20 -9 -11 -3 -18 -1 -14 4 5 9 34 13 34 5z m2980 -16 c-34
-11 -60 -11 -35 0 11 5 29 8 40 8 16 0 15 -2 -5 -8z m-85 -10 c-3 -5 -12 -10
-18 -10 -7 0 -6 4 3 10 19 12 23 12 15 0z m-2635 -14 c0 -2 -9 -6 -20 -9 -11
-3 -20 -1 -20 4 0 5 9 9 20 9 11 0 20 -2 20 -4z m2580 -6 c-34 -11 -60 -11
-35 0 11 5 29 8 40 8 16 0 15 -2 -5 -8z m-2777 -7 c-7 -2 -19 -2 -25 0 -7 3
-2 5 12 5 14 0 19 -2 13 -5z m2710 -10 c-7 -2 -19 -2 -25 0 -7 3 -2 5 12 5 14
0 19 -2 13 -5z m4367 -13 c0 -5 -7 -7 -15 -4 -8 4 -15 8 -15 10 0 2 7 4 15 4
8 0 15 -4 15 -10z m-110 -10 c0 -5 -7 -7 -15 -4 -8 4 -15 1 -15 -5 0 -6 -5
-11 -11 -11 -8 0 -8 5 1 15 14 17 40 20 40 5z m84 -6 c18 -18 21 -34 6 -34 -5
0 -10 4 -10 9 0 5 -7 17 -16 25 -8 9 -11 16 -5 16 5 0 17 -7 25 -16z m-4494 2
c0 -3 -4 -8 -10 -11 -5 -3 -10 -1 -10 4 0 6 5 11 10 11 6 0 10 -2 10 -4z
m4072 -42 c-6 -32 -19 -37 -53 -20 -18 9 -39 16 -48 16 -31 0 5 19 44 23 54 5
61 3 57 -19z m268 14 c0 -4 -7 -8 -15 -8 -8 0 -15 4 -15 8 0 5 7 9 15 9 8 0
15 -4 15 -9z m-3930 -8 c0 -5 -5 -10 -11 -10 -5 0 -7 5 -4 10 3 6 8 10 11 10
2 0 4 -4 4 -10z m3797 -21 c-8 -20 -13 -25 -15 -15 -2 9 -14 19 -28 22 -33 8
-20 24 21 24 33 0 33 0 22 -31z m-3847 11 c0 -5 -5 -10 -11 -10 -5 0 -7 5 -4
10 3 6 8 10 11 10 2 0 4 -4 4 -10z m-26 -22 c16 -22 16 -22 30 -3 8 11 18 16
23 11 4 -5 2 -11 -4 -13 -16 -6 -18 -143 -3 -143 6 0 10 24 10 53 0 28 5 59
10 67 7 11 10 -3 10 -47 0 -39 4 -63 13 -67 8 -3 3 -13 -15 -28 -16 -13 -28
-29 -28 -35 0 -21 -34 -24 -67 -6 -28 15 -35 16 -42 4 -6 -9 -11 -10 -15 -2
-7 11 -65 4 -80 -10 -15 -13 -26 -11 -26 5 0 8 -12 18 -27 23 -26 9 -27 12
-24 73 3 70 17 112 31 90 4 -7 13 -9 19 -6 7 5 11 -2 11 -19 0 -15 4 -24 10
-20 6 3 10 15 10 26 0 21 15 26 26 7 5 -7 12 -5 22 8 10 13 16 15 19 7 7 -18
23 -16 23 2 0 18 16 20 23 3 4 -10 8 -9 16 2 14 19 14 33 1 25 -5 -3 -10 -1
-10 4 0 18 18 12 34 -11z m111 12 c4 -6 -6 -10 -22 -10 -22 0 -25 2 -13 10 19
12 27 12 35 0z m3282 -6 c-3 -3 -12 -4 -19 -1 -8 3 -5 6 6 6 11 1 17 -2 13 -5z
m-5655 -16 c-9 -9 -15 -9 -24 0 -9 9 -7 12 12 12 19 0 21 -3 12 -12z m1540
-18 c-5 -37 6 -100 18 -100 4 0 13 12 18 28 10 26 10 26 11 3 1 -14 -7 -33
-16 -43 -16 -18 -16 -18 0 -12 10 3 17 1 17 -5 0 -10 -21 -16 -42 -12 -5 0 -8
-10 -8 -24 0 -26 -7 -30 -27 -17 -9 5 -9 26 -3 77 12 90 12 85 -5 85 -9 0 -15
9 -15 25 0 21 5 25 28 25 26 0 28 -3 24 -30z m4071 5 c-8 -38 -24 -45 -58 -24
-25 16 -27 19 -10 20 18 0 18 1 -3 9 -12 5 -30 6 -39 3 -11 -4 -14 -3 -9 5 4
7 32 12 65 12 57 0 58 -1 54 -25z m125 -3 c-7 -10 -13 -19 -15 -21 -1 -2 -14
4 -28 13 -16 11 -34 15 -48 10 -12 -3 -18 -3 -14 2 9 9 98 22 110 16 4 -2 2
-11 -5 -20z m128 13 c-20 -15 -51 -12 -70 6 -6 5 10 9 40 9 45 -1 48 -2 30
-15z m-6025 -10 c11 6 11 5 2 -5 -12 -14 -33 -6 -33 13 0 8 3 7 9 -2 5 -8 14
-10 22 -6z m416 -1 c-3 -3 -12 -4 -19 -1 -8 3 -5 6 6 6 11 1 17 -2 13 -5z
m-282 -27 c-11 -6 -21 -5 -28 3 -9 8 -7 9 7 4 13 -5 17 -4 12 4 -5 8 -2 10 10
5 15 -6 15 -7 -1 -16z m1612 -9 c-3 -7 -5 -2 -5 12 0 14 2 19 5 13 2 -7 2 -19
0 -25z m347 5 c-3 -16 -16 -37 -29 -49 -12 -11 -25 -27 -28 -35 -4 -10 -8 -8
-12 9 -4 12 -15 22 -26 22 -15 0 -19 7 -18 33 0 25 2 28 8 12 8 -19 8 -19 19
0 9 16 13 17 21 6 6 -9 11 -10 15 -3 4 6 13 9 21 6 8 -4 18 1 21 10 10 26 15
18 8 -11z m3542 -12 c-18 -20 -18 -20 -36 2 -18 22 -18 22 8 28 37 8 50 -6 28
-30z m-1900 -41 l-13 -45 -5 50 c-5 58 -1 72 18 53 11 -11 11 -20 0 -58z
m1797 63 c4 -3 2 -12 -4 -20 -8 -9 -15 -10 -24 -3 -9 8 -15 8 -20 0 -3 -5 -16
-10 -28 -10 -20 0 -19 2 8 20 31 20 56 25 68 13z m-153 -18 c-1 -5 -8 -9 -16
-7 -7 2 -23 -2 -35 -8 -11 -7 -23 -9 -26 -7 -7 8 49 37 65 34 7 -1 13 -6 12
-12z m-4823 -1 c-3 -3 -12 -4 -19 -1 -8 3 -5 6 6 6 11 1 17 -2 13 -5z m1099
-82 c-12 -11 -15 5 -8 44 l7 39 3 -39 c2 -21 1 -41 -2 -44z m3454 70 c0 -5
-23 -10 -51 -11 -32 -1 -48 2 -44 9 7 12 95 14 95 2z m145 -2 c3 -5 -1 -10
-10 -10 -9 0 -13 5 -10 10 3 6 8 10 10 10 2 0 7 -4 10 -10z m-4879 -12 c3 -4
-1 -5 -10 -4 -8 1 -18 5 -22 8 -3 4 1 5 10 4 8 -1 18 -5 22 -8z m3424 -44 c0
-40 -4 -55 -12 -52 -18 6 -22 57 -7 85 7 12 14 23 16 23 2 0 3 -25 3 -56z
m1200 46 c0 -5 -4 -10 -10 -10 -5 0 -10 5 -10 10 0 6 5 10 10 10 6 0 10 -4 10
-10z m-124 -11 c4 -8 9 -7 15 2 6 11 9 9 9 -7 0 -22 -43 -49 -61 -39 -15 10
-10 23 9 28 13 4 11 5 -5 6 -13 0 -23 6 -23 11 0 14 47 13 56 -1z m287 4 c-7
-2 -19 -2 -25 0 -7 3 -2 5 12 5 14 0 19 -2 13 -5z m-3305 -60 c2 -25 -1 -33
-12 -33 -9 0 -16 7 -16 15 0 8 -4 15 -10 15 -5 0 -10 9 -10 21 0 15 5 20 23
17 17 -2 23 -11 25 -35z m322 16 c0 -14 -17 -10 -23 5 -4 10 -1 13 9 9 7 -3
14 -9 14 -14z m2533 0 c5 -18 2 -20 -19 -16 -21 4 -23 2 -12 -12 7 -9 3 -7
-11 4 l-23 20 23 4 c23 3 23 4 4 12 -18 7 -17 8 6 8 19 1 28 -5 32 -20z
m-4196 -4 c0 -8 -4 -12 -9 -9 -4 3 -8 9 -8 15 0 5 4 9 8 9 5 0 9 -7 9 -15z
m4103 -1 c0 -12 -6 -15 -25 -10 -14 4 -25 2 -25 -3 0 -6 -7 -8 -15 -5 -32 13
-16 34 25 34 30 0 40 -4 40 -16z m360 12 c0 -2 -7 -6 -15 -10 -8 -3 -15 -1
-15 4 0 6 7 10 15 10 8 0 15 -2 15 -4z m365 -6 c3 -6 -1 -7 -9 -4 -18 7 -21
14 -7 14 6 0 13 -4 16 -10z m-4650 -12 c5 4 5 1 1 -6 -6 -10 -11 -10 -22 -1
-8 6 -14 14 -14 16 0 3 6 0 13 -6 8 -6 18 -7 22 -3z m2511 -13 c10 -8 14 -15
7 -15 -6 0 -15 5 -18 11 -4 6 -13 8 -21 5 -7 -3 -16 -1 -19 4 -10 15 29 12 51
-5z m1250 6 c-4 -5 0 -12 6 -14 7 -3 3 -6 -10 -6 -13 -1 -21 3 -17 8 3 5 -9
12 -27 14 -28 3 -27 4 10 5 24 1 41 -2 38 -7z m74 5 c0 -2 -11 -11 -25 -20
-20 -13 -23 -13 -19 -2 3 8 13 17 22 19 10 3 18 5 20 6 1 0 2 -1 2 -3z m375
-6 c3 -6 -1 -7 -9 -4 -18 7 -21 14 -7 14 6 0 13 -4 16 -10z m-628 -16 c2 -6
-19 -10 -49 -10 l-53 0 40 12 c44 13 57 13 62 -2z m2142 -10 c5 -25 21 -34 49
-27 14 3 30 -1 41 -11 16 -15 20 -15 50 0 28 14 35 14 42 3 6 -11 9 -10 15 4
3 9 11 17 16 17 6 0 5 -6 -2 -15 -6 -8 -9 -19 -5 -25 3 -6 -3 -10 -14 -10 -12
0 -21 6 -21 13 0 7 -5 5 -11 -5 -5 -10 -16 -15 -24 -12 -8 4 -15 1 -15 -6 0
-7 -6 -6 -16 4 -22 23 -54 20 -54 -4 0 -11 6 -20 14 -20 24 0 29 -38 9 -80
-19 -42 -39 -51 -50 -23 -5 13 -8 12 -16 -8 -7 -17 -11 -20 -14 -9 -2 8 -6 21
-9 28 -2 7 -9 10 -15 6 -8 -4 -7 -9 2 -15 11 -7 10 -9 -3 -9 -9 0 -18 -5 -20
-11 -2 -6 -20 6 -40 25 -26 26 -46 36 -68 36 -18 0 -29 4 -25 10 16 26 -17 6
-44 -27 -26 -31 -31 -47 -33 -93 -1 -50 -2 -51 -5 -12 -5 52 -22 56 -25 5 -1
-35 -2 -34 -8 12 l-7 50 -3 -55 c-2 -51 -3 -53 -10 -20 l-7 35 -2 -30 c-3 -30
-3 -29 -16 10 l-14 40 4 -50 4 -50 -15 40 -14 40 6 -38 c3 -21 7 -46 10 -55 2
-9 -5 1 -16 23 -23 47 -27 31 -5 -22 28 -66 10 -44 -34 42 -48 95 -87 131
-181 166 -143 55 -332 17 -444 -88 -65 -61 -66 -69 -66 -398 l0 -295 75 0 c43
0 75 -4 75 -10 0 -5 -5 -10 -11 -10 -5 0 -7 -5 -3 -11 3 -6 18 -8 33 -4 20 4
15 -1 -18 -21 -32 -20 -40 -29 -30 -35 8 -5 23 -6 34 -3 11 3 29 8 40 10 19 5
19 4 2 -10 -18 -14 -18 -14 2 -21 12 -3 21 -12 21 -18 0 -8 4 -7 9 2 5 8 19
15 30 16 11 1 17 -3 14 -8 -4 -6 0 -8 10 -4 10 3 17 2 17 -3 0 -6 -10 -11 -22
-11 -19 -1 -17 -3 7 -9 24 -6 25 -8 8 -9 -14 -1 -20 -6 -17 -14 3 -10 -5 -13
-28 -11 -106 8 -253 5 -256 -4 -2 -6 9 -14 25 -17 15 -4 35 -10 43 -14 9 -5
45 -12 80 -15 36 -4 97 -14 137 -22 39 -7 79 -11 87 -8 9 3 16 1 16 -5 0 -6
11 -11 25 -11 14 0 56 -7 93 -16 79 -18 113 -26 247 -54 117 -25 134 -31 119
-37 -7 -2 -48 5 -92 17 -89 22 -122 25 -122 10 0 -5 -4 -10 -10 -10 -5 0 -7 6
-4 14 5 13 -10 18 -186 52 -41 7 -88 17 -104 20 -20 5 -27 4 -22 -5 9 -14 18
-15 -126 9 -188 30 -504 64 -708 75 -58 4 -122 8 -142 10 -43 4 -49 -1 -15
-15 20 -8 19 -9 -10 -9 -48 -1 -48 -1 -47 15 1 11 -14 14 -73 14 l-75 0 6 -27
c5 -22 4 -24 -4 -11 -6 9 -17 15 -24 12 -8 -3 -17 -1 -21 5 -3 6 1 11 9 11 9
0 16 5 16 10 0 6 -30 10 -71 10 -44 0 -68 -4 -64 -10 3 -5 -1 -10 -9 -10 -9 0
-16 4 -16 9 0 15 -176 21 -635 22 -346 0 -479 -3 -575 -15 -69 -8 -147 -18
-175 -21 -98 -12 -116 -16 -109 -26 4 -7 -10 -8 -42 -4 -27 4 -51 7 -54 7 -34
0 -50 -4 -46 -11 7 -11 -131 -19 -444 -27 -135 -3 -305 -9 -379 -12 -105 -6
-135 -4 -139 6 -3 8 -14 11 -31 8 -14 -3 -74 -7 -133 -8 -58 -1 -104 -6 -102
-10 3 -5 1 -8 -5 -8 -12 0 -25 39 -16 48 3 4 11 0 16 -8 7 -10 12 -11 15 -4 3
8 29 10 75 6 54 -4 73 -1 81 9 7 11 11 11 15 2 2 -7 14 -13 26 -13 18 0 19 2
7 10 -9 6 17 9 75 9 187 0 463 9 472 14 6 4 93 7 194 7 176 1 296 8 494 31
468 54 1542 46 2252 -16 192 -17 193 -17 193 37 0 15 -5 39 -11 55 -7 15 -11
40 -10 56 2 25 0 27 -35 27 -36 0 -37 0 -31 -35 3 -19 2 -37 -3 -40 -5 -3 -10
146 -12 348 l-3 354 -27 36 c-16 20 -53 48 -85 64 -51 24 -69 28 -153 28 -81
0 -102 -4 -145 -25 -56 -27 -121 -88 -135 -126 -6 -14 -10 -109 -11 -212 -1
-221 -7 -275 -31 -280 -10 -2 -18 1 -18 7 0 6 -5 11 -11 11 -5 0 -8 -4 -4 -9
3 -5 1 -12 -5 -16 -5 -3 -10 -1 -10 4 0 6 -7 11 -16 11 -15 0 -16 20 -9 208 8
230 2 272 -42 314 -121 116 -338 83 -413 -62 -16 -31 -19 -68 -22 -293 -1
-141 0 -257 5 -257 4 0 7 7 7 15 0 12 16 14 93 10 50 -2 94 -4 97 -4 3 -1 4
-35 2 -76 -3 -69 -5 -75 -25 -76 -12 -1 -26 -1 -30 0 -5 1 -60 2 -123 2 l-115
0 -19 32 c-10 18 -24 37 -29 44 -18 20 -12 26 19 20 22 -5 30 -3 30 7 0 8 6
16 13 19 8 3 7 9 -5 18 -16 13 -17 17 -3 43 18 35 18 36 0 36 -12 0 -13 5 -4
26 10 28 4 64 -12 64 -5 0 -9 8 -9 19 0 21 -35 34 -59 22 -23 -12 -83 -6 -109
10 -22 14 -22 17 -22 232 0 190 2 218 16 224 9 3 19 0 24 -7 6 -9 13 -8 33 4
17 11 27 14 32 7 9 -16 42 -13 49 4 3 8 12 15 20 15 7 0 16 -7 20 -15 3 -8 10
-15 16 -15 6 0 18 7 26 15 18 17 34 20 34 5 0 -16 32 -12 52 7 17 16 20 16 35
0 16 -16 19 -15 41 6 22 21 24 21 36 5 17 -24 38 -23 54 2 14 23 42 27 42 5 0
-21 16 -19 51 7 28 21 31 22 40 5 12 -21 45 -22 53 -2 3 8 15 15 26 15 11 0
20 -7 20 -15 0 -9 9 -15 24 -15 13 0 26 7 30 15 3 8 12 15 20 15 7 0 16 -7 20
-15 8 -22 31 -18 49 8 l15 22 21 -22 c23 -24 46 -21 62 8 12 23 37 25 45 4 8
-21 28 -19 49 5 23 25 41 25 55 0 12 -22 37 -17 58 12 17 24 38 23 45 -2 7
-27 28 -25 61 5 33 30 56 32 56 5 0 -30 45 -27 66 5 20 31 37 32 56 4 17 -26
53 -19 63 12 7 22 55 27 55 5 0 -13 20 -26 41 -26 5 0 19 11 31 25 26 30 34
31 41 5 8 -29 52 -26 73 5 18 27 54 34 54 10 0 -24 46 -18 74 10 30 30 52 32
59 5 8 -30 45 -25 78 11 31 33 52 34 58 3 8 -42 40 -44 81 -4 35 35 60 39 60
10 0 -32 63 -28 84 5 21 32 66 35 66 5 0 -11 7 -23 15 -26 8 -4 12 -10 9 -15
-3 -5 0 -9 6 -9 7 0 10 -7 6 -15 -3 -9 0 -15 9 -15 8 0 15 -7 15 -15 0 -8 5
-15 10 -15 15 0 12 27 -5 44 -18 18 -19 32 -2 43 7 4 18 20 24 36 16 34 63 39
63 7 0 -25 21 -34 55 -26 16 4 25 13 25 27 0 11 10 23 23 29 29 12 41 7 46
-16z m-4399 -4 c0 -11 -2 -20 -4 -20 -2 0 -6 9 -9 20 -3 11 -1 20 4 20 5 0 9
-9 9 -20z m2340 11 c0 -12 -41 -22 -54 -13 -6 3 0 9 14 13 36 10 40 10 40 0z
m40 -12 c0 -5 -4 -9 -10 -9 -5 0 -10 7 -10 16 0 8 5 12 10 9 6 -3 10 -10 10
-16z m-3197 1 c9 0 17 -4 17 -8 0 -11 -69 -2 -77 11 -4 6 2 8 18 4 13 -4 32
-7 42 -7z m2000 -5 c-3 -16 -17 -16 -37 -2 -18 13 -17 14 10 13 16 -1 28 -5
27 -11z m1332 -13 c-3 -3 -11 0 -18 7 -9 10 -8 11 6 5 10 -3 15 -9 12 -12z
m90 8 c3 -6 -1 -7 -9 -4 -18 7 -21 14 -7 14 6 0 13 -4 16 -10z m-530 -10 c-3
-5 -16 -10 -28 -9 -20 1 -20 2 3 9 14 4 26 8 28 9 2 1 0 -3 -3 -9z m100 0 c-3
-5 -23 -9 -43 -9 l-37 2 35 7 c52 11 52 11 45 0z m515 -12 c0 -6 -7 -7 -16 -4
-9 3 -21 6 -27 6 -7 0 -7 4 2 9 16 10 41 4 41 -11z m-2493 -5 c4 -11 -26 -27
-35 -19 -2 3 -2 12 2 21 6 18 27 16 33 -2z m433 7 c8 -5 11 -10 5 -10 -5 0
-17 5 -25 10 -8 5 -10 10 -5 10 6 0 17 -5 25 -10z m1355 0 c-3 -5 -25 -9 -48
-9 l-42 2 40 7 c22 4 44 8 48 9 5 0 5 -3 2 -9z m-1477 -25 c-3 -3 -9 2 -12 12
-6 14 -5 15 5 6 7 -7 10 -15 7 -18z m1727 15 c3 -5 -3 -10 -15 -10 -12 0 -18
5 -15 10 3 6 10 10 15 10 5 0 12 -4 15 -10z m-405 -4 c0 -3 -4 -8 -10 -11 -5
-3 -10 -1 -10 4 0 6 5 11 10 11 6 0 10 -2 10 -4z m40 -6 c0 -5 -4 -10 -9 -10
-6 0 -13 5 -16 10 -3 6 1 10 9 10 9 0 16 -4 16 -10z m-4253 -12 c-5 -16 10
-48 23 -48 18 0 10 30 -7 31 -10 0 0 6 22 13 33 10 46 10 75 -2 41 -17 95 -60
95 -76 0 -6 3 -13 7 -17 10 -7 19 -253 11 -301 -7 -49 -22 -40 -16 9 3 28 1
34 -6 23 -9 -13 -11 -13 -11 3 0 9 -4 17 -10 17 -5 0 -9 5 -7 11 1 6 -7 13
-18 15 -11 1 -21 8 -23 14 -2 6 -10 17 -18 24 -31 31 -17 46 41 46 51 0 55 2
55 24 0 28 -16 36 -77 36 l-45 0 2 43 c4 66 3 67 -40 67 -61 0 -190 21 -190
32 0 5 26 7 58 6 53 -3 57 -1 60 20 2 12 8 22 14 22 5 0 8 -6 5 -12z m4847 -4
c5 -14 4 -15 -9 -4 -17 14 -19 20 -6 20 5 0 12 -7 15 -16z m-279 -4 c3 -5 1
-10 -4 -10 -6 0 -11 5 -11 10 0 6 2 10 4 10 3 0 8 -4 11 -10z m-2994 -65 c1
-22 3 -33 6 -24 8 30 63 32 63 2 0 -21 32 -52 38 -35 2 7 8 9 14 6 6 -4 5 -10
-3 -15 -10 -6 -11 -11 -3 -19 9 -9 16 -6 27 10 12 17 16 18 20 6 4 -9 -3 -24
-15 -36 -18 -17 -19 -20 -5 -20 9 0 17 -5 17 -11 0 -5 4 -8 9 -4 5 3 12 1 15
-4 3 -5 27 -12 52 -16 55 -8 47 -22 -16 -27 -45 -3 -70 -17 -70 -37 0 -6 -7
-11 -15 -11 -8 0 -15 -7 -15 -16 0 -8 -4 -13 -9 -9 -5 3 -12 1 -16 -5 -11 -18
-70 -10 -107 15 -23 15 -43 22 -54 18 -13 -5 -16 -3 -11 10 5 13 1 17 -20 17
-26 0 -26 -1 -7 -14 17 -13 17 -15 3 -21 -9 -3 -34 -5 -55 -3 l-39 3 3 109 c1
61 7 115 13 123 9 10 6 13 -15 13 -14 0 -26 4 -26 8 0 11 51 14 64 3 6 -5 27
-12 46 -16 19 -4 46 -16 59 -26 13 -11 27 -19 32 -19 4 0 5 26 2 58 -3 42 -2
53 6 42 6 -8 11 -33 12 -55z m1474 55 c-3 -5 -14 -10 -23 -9 -14 0 -13 2 3 9
27 11 27 11 20 0z m-2535 -20 c0 -6 10 -8 23 -4 21 5 24 2 22 -25 -1 -17 -1
-31 1 -31 12 0 34 14 34 22 0 13 26 38 39 38 6 0 11 -4 11 -10 0 -5 -7 -10
-15 -10 -8 0 -15 -4 -15 -10 0 -5 7 -10 16 -10 14 0 14 -3 3 -16 -10 -13 -10
-17 2 -24 35 -22 49 -35 49 -47 0 -7 -4 -13 -10 -13 -5 0 -10 -11 -10 -24 0
-13 -8 -30 -17 -37 -15 -12 -16 -12 -8 1 8 13 6 13 -7 2 -9 -8 -18 -23 -20
-35 l-3 -22 -13 22 c-10 18 -10 27 0 43 10 16 10 24 0 38 -6 9 -17 28 -22 41
-9 21 -15 23 -50 17 -42 -7 -56 8 -19 19 11 4 18 9 16 11 -2 3 -16 -1 -30 -7
-32 -14 -59 2 -50 29 12 34 73 69 73 42z m3030 0 c0 -5 -5 -10 -11 -10 -5 0
-7 5 -4 10 3 6 8 10 11 10 2 0 4 -4 4 -10z m-62 -27 c-4 -10 -38 -11 -38 -1 0
4 7 8 15 8 8 0 15 6 16 13 0 9 2 9 6 0 2 -7 3 -16 1 -20z m977 17 c3 -6 -1 -7
-9 -4 -18 7 -21 14 -7 14 6 0 13 -4 16 -10z m-1108 -6 c-3 -3 -12 -4 -19 -1
-8 3 -5 6 6 6 11 1 17 -2 13 -5z m-2484 -18 c16 -13 16 -14 -4 -19 -32 -8 -52
2 -38 19 14 17 19 17 42 0z m1827 -2 c0 -17 -22 -14 -28 4 -2 7 3 12 12 12 9
0 16 -7 16 -16z m1280 -18 c0 -3 -4 -8 -10 -11 -5 -3 -10 -1 -10 4 0 6 5 11
10 11 6 0 10 -2 10 -4z m-3153 -26 c-1 -11 -5 -20 -9 -20 -4 0 -8 2 -8 4 0 2
-3 11 -6 20 -4 10 -1 16 9 16 10 0 15 -8 14 -20z m2750 0 c-1 -23 -17 -28 -17
-6 0 8 -6 17 -12 19 -7 3 -3 6 9 6 16 1 21 -4 20 -19z m27 -22 c1 -7 5 -18 8
-23 11 -19 -8 -39 -28 -30 -18 8 -18 8 -1 12 18 5 18 5 0 19 -11 8 -13 13 -5
14 6 0 12 8 12 17 0 18 10 12 14 -9z m30 6 c4 -9 13 -14 21 -10 19 7 19 -1 1
-20 -13 -12 -17 -10 -30 16 -8 17 -11 30 -6 30 4 0 11 -7 14 -16z m-871 -61
c-4 -11 -9 -11 -20 -2 -7 7 -12 18 -9 25 3 7 1 16 -4 19 -6 4 -10 11 -10 16 0
6 11 -2 24 -18 13 -15 21 -33 19 -40z m-1888 36 c11 -17 -1 -21 -15 -4 -8 9
-8 15 -2 15 6 0 14 -5 17 -11z m2025 2 c0 -5 -6 -11 -12 -14 -37 -13 31 -30
125 -30 37 -1 46 -4 42 -15 -3 -7 -5 -22 -5 -32 0 -26 -69 -38 -86 -15 -8 10
-13 12 -16 4 -4 -13 -98 46 -98 62 0 17 25 49 37 49 7 0 13 -4 13 -9z m315
-11 c-7 -22 5 -26 22 -9 13 13 63 4 63 -11 0 -6 -4 -10 -10 -10 -5 0 -10 5
-10 11 0 5 -4 7 -10 4 -5 -3 -10 -15 -10 -26 0 -11 -4 -17 -10 -14 -5 3 -10 1
-10 -5 0 -8 -6 -8 -20 0 -14 8 -20 21 -20 45 0 19 5 35 11 35 6 0 8 -9 4 -20z
m-2257 -20 c7 0 12 -4 12 -10 0 -21 -25 -8 -50 25 -14 19 -14 20 6 3 11 -10
26 -18 32 -18z m882 6 c-24 -23 -70 -31 -70 -13 0 16 18 24 60 26 21 1 22 -1
10 -13z m187 8 c-3 -3 -12 -4 -19 -1 -8 3 -5 6 6 6 11 1 17 -2 13 -5z m33 -24
c0 -11 -4 -20 -10 -20 -5 0 -10 9 -10 20 0 11 5 20 10 20 6 0 10 -9 10 -20z
m4641 -3 c-10 -9 -11 -8 -5 6 3 10 9 15 12 12 3 -3 0 -11 -7 -18z m269 1 c0
-16 -3 -19 -11 -11 -6 6 -8 16 -5 22 11 17 16 13 16 -11z m70 18 c0 -2 -9 -6
-20 -9 -11 -3 -20 -1 -20 4 0 5 9 9 20 9 11 0 20 -2 20 -4z m-4422 -31 c6 -14
17 -24 23 -23 6 2 13 -5 14 -15 3 -15 1 -16 -11 -6 -11 9 -14 8 -14 -4 0 -8
-7 -20 -15 -27 -13 -10 -18 -9 -33 7 -9 11 -37 24 -62 30 -25 6 -35 11 -22 12
12 0 22 6 22 11 0 6 6 10 14 10 8 0 16 7 20 15 9 25 51 18 64 -10z m172 14 c0
-5 4 -7 10 -4 6 4 7 -1 3 -11 -4 -12 -3 -15 5 -10 7 4 12 2 12 -4 0 -7 6 -10
14 -7 7 3 38 -7 68 -22 l54 -28 -32 -37 c-18 -20 -35 -52 -38 -71 -8 -39 -11
-41 -33 -20 -8 8 -19 12 -25 9 -6 -4 -8 2 -3 16 5 15 4 20 -4 16 -6 -4 -11 -1
-11 7 0 7 -12 24 -26 38 -14 13 -31 33 -37 44 -9 18 -9 19 7 6 19 -16 34 -8
19 11 -6 7 -9 24 -8 38 2 14 4 28 4 33 1 11 21 8 21 -4z m560 -25 c0 -17 -5
-24 -20 -24 -23 0 -23 0 -10 35 12 31 30 24 30 -11z m-2575 16 c3 -5 -1 -10
-10 -10 -9 0 -13 5 -10 10 3 6 8 10 10 10 2 0 7 -4 10 -10z m2403 -30 c7 -12
17 -18 22 -15 6 3 10 2 10 -3 0 -16 -26 -22 -39 -9 -8 8 -11 5 -11 -13 0 -14
-3 -42 -6 -62 -5 -30 -3 -39 10 -44 24 -9 30 1 30 54 1 37 5 47 18 47 9 0 20
4 24 8 16 16 26 6 11 -11 -36 -40 -47 -89 -47 -212 0 -115 -1 -122 -25 -148
l-25 -27 0 139 c0 79 -5 156 -12 179 -10 34 -10 41 5 52 11 8 13 15 6 22 -10
10 -2 63 10 63 3 0 12 -9 19 -20z m235 6 c4 -10 1 -13 -9 -9 -7 3 -14 9 -14
14 0 14 17 10 23 -5z m3247 -16 c-6 -12 -14 -19 -17 -17 -2 3 1 15 7 27 6 12
14 19 17 17 2 -3 -1 -15 -7 -27z m-2855 10 c3 -5 1 -10 -4 -10 -6 0 -11 5 -11
10 0 6 2 10 4 10 3 0 8 -4 11 -10z m-2805 -10 c8 -5 11 -10 5 -10 -5 0 -17 5
-25 10 -8 5 -10 10 -5 10 6 0 17 -5 25 -10z m944 4 l46 -7 0 -79 c0 -61 -3
-80 -15 -84 -8 -4 -15 -12 -15 -18 0 -7 -6 -13 -14 -13 -8 0 -15 3 -14 6 2 22
-6 30 -34 33 -28 3 -33 7 -32 28 1 14 2 51 3 83 1 63 -1 61 75 51z m107 -26
c1 -13 2 -34 3 -48 1 -22 5 -25 34 -23 17 1 32 -3 32 -8 0 -26 20 6 21 34 1
24 3 26 6 10 5 -24 43 -33 43 -11 0 6 7 3 15 -8 9 -12 14 -14 15 -6 0 8 12 0
26 -17 14 -17 31 -31 37 -31 8 0 12 -22 12 -65 0 -69 -13 -83 -42 -47 -13 15
-13 15 -8 -8 4 -17 3 -21 -3 -11 -22 31 -38 -24 -17 -60 4 -7 -9 3 -30 24 -39
39 -54 44 -86 26 -14 -7 -18 -16 -14 -30 9 -28 -10 -23 -30 7 -14 22 -15 30
-4 50 12 23 8 38 -12 40 -5 1 -13 2 -19 3 -11 1 -14 183 -3 194 13 13 23 7 24
-15z m139 -2 c0 -29 -15 -52 -24 -37 -4 6 -5 15 -2 20 3 5 -2 12 -11 15 -13 5
-14 9 -5 15 23 14 42 8 42 -13z m74 11 c13 3 27 0 31 -6 5 -8 -1 -10 -18 -6
-19 5 -29 1 -41 -16 -8 -13 -19 -19 -23 -15 -5 5 -2 11 5 13 6 3 12 14 13 26
0 12 3 17 5 11 3 -6 15 -9 28 -7z m465 -16 c7 -13 4 -16 -20 -17 -21 -1 -29 4
-29 16 0 9 3 19 6 23 9 9 33 -3 43 -22z m-289 6 c0 -5 4 -6 9 -2 5 3 11 -7 13
-22 2 -22 9 -29 32 -31 26 -3 28 -6 22 -35 -4 -18 -11 -34 -16 -35 -6 -2 -8
-8 -4 -13 3 -5 -3 -9 -13 -9 -11 0 -20 8 -21 20 -1 11 -3 29 -4 41 -2 19 -3
19 -15 3 -7 -10 -13 -14 -13 -10 0 4 -7 1 -15 -8 -9 -8 -14 -20 -13 -27 2 -6
-4 -14 -12 -16 -13 -4 -13 -3 0 6 9 7 10 11 3 11 -17 0 -25 -17 -12 -26 8 -4
7 -9 -2 -15 -11 -6 -8 -14 11 -35 l25 -28 -27 17 c-16 10 -28 13 -28 8 0 -6 8
-15 18 -20 15 -9 15 -10 1 -11 -31 0 -42 27 -34 83 4 28 8 70 9 92 5 75 3 72
46 71 22 -1 40 -5 40 -9z m-1477 -4 c4 -3 2 -12 -4 -20 -9 -9 -8 -13 0 -13 6
0 11 -8 11 -18 0 -10 4 -22 9 -27 5 -6 1 -18 -10 -29 -19 -19 -19 -19 -20 12
-1 30 -3 42 -9 60 -1 4 -2 11 -1 16 1 5 -4 13 -11 17 -9 6 -7 9 8 9 11 0 24
-3 27 -7z m867 -18 c10 -12 10 -15 -1 -15 -26 0 -59 12 -59 21 0 15 47 10 60
-6z m-900 -30 c0 -1 -11 0 -25 3 -14 2 -33 -2 -42 -9 -13 -11 -13 -8 2 12 18
24 21 25 42 12 13 -9 23 -16 23 -18z m120 1 c0 -11 -19 -15 -25 -6 -3 5 1 10
9 10 9 0 16 -2 16 -4z m1517 -48 c-3 -7 -5 -2 -5 12 0 14 2 19 5 13 2 -7 2
-19 0 -25z m-1965 -20 c-9 -9 -12 -7 -12 12 0 19 3 21 12 12 9 -9 9 -15 0 -24z
m3199 -11 c-8 -8 -11 -3 -11 19 1 25 2 27 11 11 8 -14 8 -22 0 -30z m3229 -37
c0 -5 -6 -10 -14 -10 -8 0 -18 5 -21 10 -3 6 3 10 14 10 12 0 21 -4 21 -10z
m-3236 -16 c4 -9 4 -19 2 -21 -8 -8 -26 8 -26 23 0 19 16 18 24 -2z m1556 -48
c0 -3 -4 -8 -10 -11 -5 -3 -10 -1 -10 4 0 6 5 11 10 11 6 0 10 -2 10 -4z
m-3055 -26 c3 -5 2 -10 -4 -10 -5 0 -13 5 -16 10 -3 6 -2 10 4 10 5 0 13 -4
16 -10z m1855 -122 c0 -4 -7 -5 -15 -2 -8 4 -15 16 -15 27 0 20 0 20 15 1 8
-10 15 -22 15 -26z m-1273 -61 c-1 -88 -2 -94 -25 -105 -21 -9 -23 -9 -17 6
15 37 25 94 18 105 -5 8 -10 1 -14 -18 -5 -24 -7 -20 -8 23 -1 42 2 52 15 52
10 0 14 6 10 15 -3 9 0 15 8 15 11 0 14 -20 13 -93z m-67 61 c0 -19 -2 -20
-10 -8 -13 19 -13 30 0 30 6 0 10 -10 10 -22z m1700 -15 c0 -13 -3 -13 -15 -3
-8 7 -12 16 -9 21 8 13 24 1 24 -18z m295 1 c18 -28 14 -54 -10 -54 -8 0 -15
-4 -15 -10 0 -5 4 -10 9 -10 12 0 22 -27 15 -43 -6 -17 -69 -20 -98 -6 -11 6
-34 24 -51 39 -16 16 -49 33 -72 39 -34 9 -40 15 -36 31 6 24 30 26 62 4 29
-21 90 -14 128 15 37 27 47 26 68 -5z m1129 11 c20 -8 58 -17 86 -18 46 -3 85
-17 47 -17 -9 0 -17 -6 -17 -12 0 -9 -4 -8 -11 2 -8 12 -10 9 -6 -13 4 -26 3
-27 -13 -12 -19 17 -32 11 -23 -13 5 -12 1 -14 -15 -10 -12 4 -25 2 -28 -3 -3
-5 -13 -9 -23 -9 -10 0 -21 -9 -24 -20 -5 -21 -50 -44 -55 -29 -2 4 -18 1 -37
-8 -35 -17 -85 -11 -85 10 0 6 9 23 20 37 11 14 20 33 20 43 0 15 -6 17 -34
12 -35 -7 -51 9 -40 40 8 20 24 19 54 -5 14 -11 41 -20 62 -20 32 0 40 5 53
30 18 35 20 35 69 15z m-3234 -13 c0 -26 -11 -34 -27 -21 -20 17 -16 39 7 39
13 0 20 -7 20 -18z m476 -37 c-27 -35 -46 -45 -46 -24 0 14 59 73 67 65 3 -3
-6 -21 -21 -41z m964 -7 c0 -5 -4 -8 -10 -8 -5 0 -10 10 -10 23 0 18 2 19 10
7 5 -8 10 -18 10 -22z m1985 -13 l50 -14 -57 1 c-42 1 -55 5 -51 15 3 7 6 13
7 13 0 -1 24 -7 51 -15z m-2983 -40 c0 -5 -5 -11 -11 -13 -6 -2 -11 4 -11 13
0 9 5 15 11 13 6 -2 11 -8 11 -13z m58 -17 c0 -16 -3 -19 -11 -11 -6 6 -8 16
-5 22 11 17 16 13 16 -11z m475 -9 c4 -11 15 -19 28 -19 27 0 54 -29 63 -66 6
-23 4 -26 -10 -21 -11 5 -16 1 -16 -13 0 -11 -7 -20 -15 -20 -8 0 -15 7 -15
15 0 8 -4 15 -10 15 -5 0 -10 -7 -10 -15 0 -25 -40 -18 -41 8 l-2 22 -4 -22
c-4 -19 -11 -23 -39 -23 -28 0 -34 4 -35 23 -1 21 -1 21 -7 2 -7 -21 -15 -22
-79 -17 -21 2 -23 7 -23 55 0 76 8 97 36 97 13 0 24 -5 24 -11 0 -6 5 -5 13 3
9 9 33 12 75 10 50 -3 62 -7 67 -23z m461 -24 c-2 -7 -2 -16 1 -19 3 -3 7 -32
10 -66 4 -54 2 -60 -15 -60 -18 0 -20 8 -21 67 -1 76 5 106 20 97 6 -3 8 -12
5 -19z m139 -9 c12 -12 12 -16 -2 -28 -13 -10 -15 -10 -9 0 4 7 2 19 -4 27
-16 19 -3 20 15 1z m-1403 -31 c-5 -28 -29 -34 -39 -10 -3 9 2 22 13 30 24 17
32 11 26 -20z m1902 20 c-4 -9 0 -15 8 -15 24 0 47 -33 54 -78 l7 -43 -89 3
-89 3 1 57 c2 83 5 88 63 88 41 0 49 -3 45 -15z m290 -17 c-4 -45 -4 -46 -13
-23 -5 11 -3 28 3 38 14 22 14 22 10 -15z m-2289 -18 c3 -5 1 -10 -4 -10 -6 0
-11 5 -11 10 0 6 2 10 4 10 3 0 8 -4 11 -10z m-205 -30 c0 -5 -5 -10 -11 -10
-5 0 -7 5 -4 10 3 6 8 10 11 10 2 0 4 -4 4 -10z m2480 -66 c0 -15 -6 -24 -15
-24 -17 0 -18 4 -9 37 8 29 24 20 24 -13z m-542 -92 c2 -7 -1 -12 -8 -12 -6 0
-9 4 -6 9 4 5 1 12 -4 14 -6 3 -5 4 2 3 6 -1 14 -8 16 -14z m206 -14 c6 -4 8
-9 6 -12 -10 -10 -42 23 -34 35 6 10 9 10 12 -1 3 -8 10 -18 16 -22z m176 5
c0 -15 1 -15 18 0 28 25 35 20 10 -5 -23 -23 -54 -25 -73 -6 -7 7 -3 9 13 5
26 -6 31 9 5 16 -14 4 -12 5 5 6 14 1 22 -5 22 -16z m240 -3 c0 -5 -2 -10 -4
-10 -3 0 -8 5 -11 10 -3 6 -1 10 4 10 6 0 11 -4 11 -10z m-505 -10 c4 -6 -12
-10 -39 -10 -25 0 -46 5 -46 10 0 6 18 10 39 10 22 0 43 -4 46 -10z m320 -10
c3 -5 2 -10 -4 -10 -5 0 -13 5 -16 10 -3 6 -2 10 4 10 5 0 13 -4 16 -10z m125
-6 c0 -2 -7 -4 -15 -4 -8 0 -15 4 -15 10 0 5 7 7 15 4 8 -4 15 -8 15 -10z
m225 6 c-3 -5 -12 -10 -18 -10 -7 0 -6 4 3 10 19 12 23 12 15 0z m-3565 -12
c0 -4 -44 -7 -97 -6 -90 1 -93 2 -38 8 83 9 135 8 135 -2z m3410 2 c0 -5 -2
-10 -4 -10 -3 0 -8 5 -11 10 -3 6 -1 10 4 10 6 0 11 -4 11 -10z m-3771 -24
c-7 -7 -69 -10 -114 -6 -30 3 -21 5 35 9 74 6 88 5 79 -3z m-159 -6 c0 -5 -4
-10 -9 -10 -6 0 -13 5 -16 10 -3 6 1 10 9 10 9 0 16 -4 16 -10z m4275 0 c3 -5
2 -10 -4 -10 -5 0 -13 5 -16 10 -3 6 -2 10 4 10 5 0 13 -4 16 -10z m-4322 -12
c5 -16 -181 -42 -197 -28 -6 4 -24 10 -41 13 -16 2 24 5 90 7 79 1 110 5 90
10 -28 7 -28 8 12 9 25 1 43 -4 46 -11z m704 6 c-3 -3 -12 -4 -19 -1 -8 3 -5
6 6 6 11 1 17 -2 13 -5z m4366 -1 c-7 -2 -19 -2 -25 0 -7 3 -2 5 12 5 14 0 19
-2 13 -5z m-1923 -19 c-32 -7 -211 -10 -194 -3 11 4 62 7 114 7 52 0 88 -2 80
-4z m46 -3 c11 9 14 8 14 -2 0 -10 3 -10 12 -1 35 35 1033 -20 1098 -60 10 -6
-7 -7 -45 -3 -240 24 -376 36 -481 41 -118 7 -121 6 -127 -15 -4 -17 -13 -21
-45 -21 -66 0 -102 11 -102 30 0 22 -13 27 -50 22 -22 -3 -26 -8 -24 -33 2
-28 0 -29 -41 -29 -23 0 -63 3 -89 6 -43 6 -46 9 -46 36 0 19 -4 28 -12 26 -9
-3 -14 -43 -18 -136 -3 -72 -7 -133 -10 -136 -3 -3 -12 -1 -20 5 -13 8 -13 10
0 19 13 9 13 11 1 19 -8 5 -20 7 -28 4 -13 -5 -18 18 -6 31 13 13 11 95 -4
107 -11 10 -10 16 8 35 20 21 20 24 5 30 -9 3 -16 14 -15 23 0 11 2 12 6 3 4
-10 8 -10 19 -1z m-329 -7 c-3 -3 -12 -4 -19 -1 -8 3 -5 6 6 6 11 1 17 -2 13
-5z m2440 -10 c-3 -3 -12 -4 -19 -1 -8 3 -5 6 6 6 11 1 17 -2 13 -5z m-5524
-11 c-7 -2 -19 -2 -25 0 -7 3 -2 5 12 5 14 0 19 -2 13 -5z m-50 -10 c-7 -2
-21 -2 -30 0 -10 3 -4 5 12 5 17 0 24 -2 18 -5z m3237 -8 c0 -8 -4 -15 -10
-15 -5 0 -10 7 -10 15 0 8 5 15 10 15 6 0 10 -7 10 -15z m-3312 -2 c-10 -2
-26 -2 -35 0 -10 3 -2 5 17 5 19 0 27 -2 18 -5z m-164 -43 c-30 -12 -141 -24
-131 -14 8 9 76 21 122 22 26 1 27 0 9 -8z m4086 -1 c0 -5 5 -7 10 -4 9 6 14
-14 11 -42 -1 -7 6 -13 16 -13 13 0 14 -3 5 -12 -14 -14 -16 -32 -2 -23 6 3 7
-1 4 -9 -8 -20 -10 -20 -46 5 -16 12 -49 28 -71 35 -37 11 -39 14 -19 20 12 3
22 12 22 18 0 7 5 17 12 24 15 15 58 16 58 1z m928 -50 c1 -18 -3 -29 -10 -29
-8 0 -9 -3 -3 -8 6 -4 8 -22 4 -42 -5 -28 -7 -30 -8 -10 -2 14 -5 19 -8 12 -4
-10 -8 -10 -19 -1 -12 9 -13 9 -9 -3 4 -9 -2 -24 -12 -34 -10 -10 -18 -22 -19
-28 0 -6 -4 -18 -7 -26 -3 -8 -8 -22 -10 -30 -3 -8 -6 31 -6 86 l-1 102 33 -7
c48 -11 56 -5 47 34 -7 30 -6 33 9 23 9 -6 18 -23 19 -39z m1027 21 c-3 -5
-11 -10 -16 -10 -6 0 -7 5 -4 10 3 6 11 10 16 10 6 0 7 -4 4 -10z m-952 -7
c-13 -2 -33 -2 -45 0 -13 2 -3 4 22 4 25 0 35 -2 23 -4z m-2553 -44 c0 -10 -5
-21 -10 -24 -6 -4 -7 -11 -4 -17 4 -7 2 -8 -4 -4 -7 4 -12 17 -13 29 0 21 -1
21 -9 2 -7 -17 -9 -15 -9 12 -1 17 5 33 12 36 17 6 37 -12 37 -34z m1407 15
c-16 -8 -34 -13 -40 -11 -7 3 -1 9 13 15 38 16 59 13 27 -4z m-467 -8 c0 -3
-4 -8 -10 -11 -5 -3 -10 -1 -10 4 0 6 5 11 10 11 6 0 10 -2 10 -4z m1639 -12
c-6 -8 -7 -14 -2 -14 5 0 10 -7 10 -15 0 -22 -13 -18 -31 10 -20 31 -21 30 9
31 21 2 24 -1 14 -12z m41 -4 c0 -5 -2 -10 -4 -10 -3 0 -8 5 -11 10 -3 6 -1
10 4 10 6 0 11 -4 11 -10z m-886 -25 c-4 -8 -2 -15 4 -15 5 0 13 8 16 17 6 15
8 15 22 1 13 -12 14 -31 8 -102 -4 -48 -10 -83 -14 -76 -4 6 -13 9 -21 7 -8
-2 -11 -2 -7 0 4 2 4 11 1 19 -6 17 -22 9 -33 -20 -6 -14 -9 11 -9 76 -1 93 2
104 31 107 4 1 5 -6 2 -14z m-2443 -55 c18 0 20 -6 17 -51 -2 -43 -7 -53 -25
-60 -23 -8 -23 -7 -22 69 1 42 3 69 6 60 2 -10 13 -18 24 -18z m3364 -8 c-3
-3 -11 0 -18 7 -9 10 -8 11 6 5 10 -3 15 -9 12 -12z m-1695 -1 c0 -5 -6 -16
-14 -23 -8 -8 -16 -23 -19 -34 -3 -13 -5 -10 -6 10 -1 17 6 34 17 42 21 16 22
16 22 5z m-1290 -41 c0 -21 -4 -28 -14 -24 -8 3 -17 1 -21 -5 -10 -17 -22 -13
-28 9 -3 14 3 26 21 39 32 23 42 19 42 -19z m1355 30 c3 -5 2 -10 -4 -10 -5 0
-13 5 -16 10 -3 6 -2 10 4 10 5 0 13 -4 16 -10z m1412 -47 c-3 -10 -5 -4 -5
12 0 17 2 24 5 18 2 -7 2 -21 0 -30z m-3599 -65 c-3 -103 -21 -124 -26 -31 -4
68 5 123 19 123 6 0 9 -36 7 -92z m-60 17 c2 -22 1 -59 -3 -81 -6 -40 -7 -42
-55 -51 -27 -6 -52 -8 -55 -5 -8 8 -6 136 3 148 8 12 70 33 92 31 10 -2 16
-16 18 -42z m2419 23 c-3 -8 -6 -5 -6 6 -1 11 2 17 5 13 3 -3 4 -12 1 -19z
m-1489 -44 c10 -20 10 -24 0 -17 -7 4 -21 6 -30 5 -18 -3 -25 18 -11 31 13 14
30 6 41 -19z m-1948 -69 c0 -14 -4 -25 -10 -25 -5 0 -10 11 -10 25 0 14 5 25
10 25 6 0 10 -11 10 -25z m-60 5 c0 -5 -4 -10 -10 -10 -5 0 -10 5 -10 10 0 6
5 10 10 10 6 0 10 -4 10 -10z m744 -25 c8 -8 19 -15 24 -15 14 0 22 -39 10
-46 -6 -4 -5 -10 3 -15 23 -15 -8 -28 -51 -22 -36 5 -38 4 -44 -29 -5 -30 -10
-34 -36 -34 -26 0 -29 2 -23 24 4 16 2 23 -4 19 -13 -8 -8 36 7 74 7 16 19 29
26 29 8 0 14 5 14 11 0 5 5 7 10 4 6 -3 10 -1 10 4 0 16 36 13 54 -4z m1350
-7 c-3 -4 -12 -8 -20 -8 -8 0 -14 4 -14 8 0 4 9 8 19 8 11 0 17 -4 15 -8z
m-1979 -8 c-3 -5 -10 -10 -16 -10 -5 0 -9 5 -9 10 0 6 7 10 16 10 8 0 12 -4 9
-10z m441 3 c-3 -4 -22 -12 -41 -19 -28 -9 -35 -9 -35 1 0 14 19 22 59 24 13
0 21 -2 17 -6z m47 -44 c7 -25 -8 -69 -23 -69 -13 0 -13 13 1 27 8 8 -3 9 -37
5 -34 -3 -45 -2 -40 7 4 6 18 11 31 11 35 0 54 10 48 26 -3 8 -1 14 5 14 5 0
12 -9 15 -21z m284 15 c-3 -3 -12 -4 -19 -1 -8 3 -5 6 6 6 11 1 17 -2 13 -5z
m1262 -17 c0 -9 -2 -9 -5 0 -3 7 -13 9 -22 6 -14 -4 -14 -3 -2 5 16 12 30 7
29 -11z m-2444 -48 c-4 -12 -8 -27 -9 -33 -4 -27 -17 -37 -33 -25 -12 11 -12
14 1 21 9 5 16 15 16 21 0 12 19 37 28 37 2 0 0 -10 -3 -21z m369 -30 c-7 -11
-34 -12 -34 -1 0 14 11 21 26 15 8 -3 11 -9 8 -14z m646 0 c0 -5 -4 -9 -10 -9
-5 0 -10 7 -10 16 0 8 5 12 10 9 6 -3 10 -10 10 -16z m100 5 c0 -14 -3 -14
-15 -4 -8 7 -15 14 -15 16 0 2 7 4 15 4 8 0 15 -7 15 -16z m-70 -4 c0 -5 -2
-10 -4 -10 -3 0 -8 5 -11 10 -3 6 -1 10 4 10 6 0 11 -4 11 -10z m-175 -15 c0
-6 -16 -11 -35 -13 -19 -2 -41 -8 -47 -14 -10 -8 -13 -5 -13 10 0 11 6 22 12
24 23 8 83 2 83 -7z m35 6 c0 -6 -4 -13 -10 -16 -5 -3 -10 1 -10 9 0 9 5 16
10 16 6 0 10 -4 10 -9z m-580 -31 c0 -5 -5 -10 -11 -10 -5 0 -7 5 -4 10 3 6 8
10 11 10 2 0 4 -4 4 -10z m580 -30 c0 -5 -5 -10 -11 -10 -5 0 -7 5 -4 10 3 6
8 10 11 10 2 0 4 -4 4 -10z m-60 -14 c0 -3 -4 -8 -10 -11 -5 -3 -10 -1 -10 4
0 6 5 11 10 11 6 0 10 -2 10 -4z m-810 -37 c0 -5 -4 -9 -10 -9 -5 0 -10 7 -10
16 0 8 5 12 10 9 6 -3 10 -10 10 -16z m6314 -118 c3 -4 -6 -6 -19 -3 -14 2
-25 6 -25 8 0 8 39 4 44 -5z m-834 -62 c44 -17 82 -35 85 -40 9 -14 -1 -11
-73 20 -37 16 -80 33 -97 39 -18 6 -23 11 -12 11 10 1 53 -13 97 -30z m-247 4
c-7 -2 -19 -2 -25 0 -7 3 -2 5 12 5 14 0 19 -2 13 -5z m-673 -98 c7 -8 18 -15
24 -15 6 0 30 -15 53 -33 23 -17 55 -41 70 -52 45 -32 242 -147 316 -184 37
-19 65 -36 62 -39 -2 -3 -33 10 -67 27 -170 87 -300 157 -368 199 -41 26 -76
45 -77 42 -2 -3 -9 5 -18 16 -8 12 -26 25 -40 28 -14 4 -25 11 -25 16 0 16 56
12 70 -5z m-3610 -19 c0 -2 -11 -11 -25 -20 -14 -9 -25 -13 -25 -8 0 5 10 14
23 20 27 13 27 13 27 8z m27 -30 c0 -8 -6 -12 -13 -9 -6 2 -15 0 -19 -6 -3 -6
-11 -11 -17 -11 -10 0 32 39 43 40 3 0 6 -6 6 -14z m3026 7 c-13 -2 -33 -2
-45 0 -13 2 -3 4 22 4 25 0 35 -2 23 -4z m537 -3 c0 -5 -2 -10 -4 -10 -3 0 -8
5 -11 10 -3 6 -1 10 4 10 6 0 11 -4 11 -10z m-40 -10 c0 -5 -10 -10 -22 -9
-22 0 -22 1 -3 9 11 5 21 9 23 9 1 1 2 -3 2 -9z m-725 -29 c-6 -5 -25 10 -25
20 0 5 6 4 14 -3 8 -7 12 -15 11 -17z m-2570 9 c3 -5 -1 -10 -9 -10 -9 0 -16
5 -16 10 0 6 4 10 9 10 6 0 13 -4 16 -10z m2722 4 c-3 -3 -12 -4 -19 -1 -8 3
-5 6 6 6 11 1 17 -2 13 -5z m73 -4 c13 -7 21 -7 25 0 3 5 11 10 16 10 6 0 7
-5 3 -11 -4 -8 0 -9 15 -4 16 5 20 3 15 -9 -7 -17 -44 -22 -44 -6 0 5 -7 7
-15 4 -8 -3 -24 1 -37 10 -25 18 -8 22 22 6z m-2714 -20 c0 -13 -7 -20 -18
-20 -16 0 -16 3 -6 20 7 11 15 20 18 20 3 0 6 -9 6 -20z m359 10 c3 -5 1 -10
-4 -10 -6 0 -11 5 -11 10 0 6 2 10 4 10 3 0 8 -4 11 -10z m1851 -97 c65 -100
89 -143 79 -143 -11 0 -175 230 -175 245 0 3 6 5 13 5 7 0 44 -48 83 -107z
m241 101 c-3 -3 -12 -4 -19 -1 -8 3 -5 6 6 6 11 1 17 -2 13 -5z m533 -3 c0 -6
-4 -13 -10 -16 -5 -3 -10 1 -10 9 0 9 5 16 10 16 6 0 10 -4 10 -9z m-2696 -17
c-13 -7 -31 -11 -38 -8 -8 3 -17 1 -21 -5 -8 -14 -35 -14 -35 -1 0 6 7 10 15
10 8 0 15 4 15 8 0 5 20 9 45 9 42 0 43 -1 19 -13z m1969 5 c21 0 21 -1 -2
-10 -19 -7 -28 -6 -40 7 -15 15 -14 16 2 10 10 -3 28 -6 40 -7z m377 -28 c0
-6 -4 -11 -10 -11 -5 0 -10 7 -10 15 0 24 -28 17 -33 -7 -4 -20 -4 -20 -6 4
-1 18 5 28 17 30 18 4 42 -14 42 -31z m207 33 c-3 -3 -12 -4 -19 -1 -8 3 -5 6
6 6 11 1 17 -2 13 -5z m-2892 -13 c3 -5 1 -12 -5 -16 -5 -3 -10 1 -10 9 0 18
6 21 15 7z m390 -19 c-8 -8 -25 10 -19 20 4 6 9 5 15 -3 4 -7 6 -15 4 -17z
m521 12 c-3 -9 -9 -33 -12 -55 -4 -21 -10 -39 -15 -39 -5 0 -9 -15 -9 -33 0
-18 -6 -41 -13 -52 -7 -11 -19 -39 -27 -62 -7 -24 -17 -43 -21 -43 -4 0 0 24
10 54 11 29 25 80 32 112 7 32 15 64 19 69 4 6 10 22 14 38 3 15 11 27 17 27
6 0 8 -7 5 -16z m1510 2 c18 -14 18 -15 2 -21 -10 -4 -16 -10 -14 -14 3 -4 -4
-7 -14 -7 -10 0 -16 5 -13 12 2 6 -6 15 -19 19 l-23 7 25 8 c35 11 34 11 56
-4z m54 4 c0 -5 -4 -10 -10 -10 -5 0 -10 5 -10 10 0 6 5 10 10 10 6 0 10 -4
10 -10z m49 -11 c-22 -22 -35 -20 -26 6 4 8 16 15 27 15 20 0 20 0 -1 -21z
m-1953 1 c28 0 13 -17 -16 -18 -21 0 -30 4 -30 15 0 10 6 13 16 9 9 -3 22 -6
30 -6z m64 -20 c5 0 11 6 13 13 3 7 6 5 6 -6 1 -10 -5 -20 -13 -23 -8 -3 -12
-13 -9 -25 3 -10 1 -19 -5 -19 -5 0 -8 13 -6 30 2 16 -1 32 -6 35 -6 4 -7 12
-3 18 5 8 9 7 11 -5 2 -10 7 -18 12 -18z m-437 0 c-6 -22 -15 -19 -19 5 -1 8
4 15 11 15 8 0 11 -7 8 -20z m511 10 c34 -13 33 -29 -1 -26 -16 2 -29 10 -31
20 -4 19 -2 19 32 6z m1213 -12 c-3 -8 -6 -5 -6 6 -1 11 2 17 5 13 3 -3 4 -12
1 -19z m153 7 c0 -8 -2 -15 -4 -15 -2 0 -6 7 -10 15 -3 8 -1 15 4 15 6 0 10
-7 10 -15z m60 5 c0 -5 -2 -10 -4 -10 -3 0 -8 5 -11 10 -3 6 -1 10 4 10 6 0
11 -4 11 -10z m420 0 c0 -5 -5 -10 -11 -10 -5 0 -7 5 -4 10 3 6 8 10 11 10 2
0 4 -4 4 -10z m-2489 -23 c-10 -9 -11 -8 -5 6 3 10 9 15 12 12 3 -3 0 -11 -7
-18z m709 13 c0 -5 -4 -10 -10 -10 -5 0 -10 5 -10 10 0 6 5 10 10 10 6 0 10
-4 10 -10z m220 -6 c0 -8 -5 -12 -10 -9 -6 4 -8 11 -5 16 9 14 15 11 15 -7z
m720 -9 c-7 -8 -19 -15 -26 -15 -8 0 -14 -4 -14 -10 0 -5 -7 -7 -16 -3 -14 5
-12 8 7 19 13 7 27 10 30 8 4 -2 10 3 13 12 4 9 9 14 13 11 3 -4 0 -13 -7 -22z
m300 15 c8 -5 13 -10 10 -10 -48 -8 -70 -6 -70 6 0 16 38 18 60 4z m161 -7
c13 -16 12 -17 -3 -4 -17 13 -22 21 -14 21 2 0 10 -8 17 -17z m-861 -3 c0 -5
-4 -10 -10 -10 -5 0 -10 5 -10 10 0 6 5 10 10 10 6 0 10 -4 10 -10z m-1195
-10 c-27 -12 -35 -12 -35 0 0 6 12 10 28 9 24 0 25 -1 7 -9z m289 -17 c4 -9 4
-18 1 -21 -7 -8 -35 19 -35 34 0 17 27 7 34 -13z m416 13 c0 -8 6 -16 13 -19
6 -2 8 -8 4 -13 -5 -5 -15 -1 -23 10 -16 23 -18 36 -4 36 6 0 10 -6 10 -14z
m1075 4 c3 -6 -1 -7 -9 -4 -18 7 -21 14 -7 14 6 0 13 -4 16 -10z m-1157 -29
c-25 -33 -61 -45 -37 -13 17 23 41 42 52 42 5 0 -2 -13 -15 -29z m1249 7 c-3
-8 -6 -5 -6 6 -1 11 2 17 5 13 3 -3 4 -12 1 -19z m-1299 1 c-2 -6 -8 -10 -13
-10 -5 0 -11 4 -13 10 -2 6 4 11 13 11 9 0 15 -5 13 -11z m1052 1 c0 -5 -5
-10 -11 -10 -5 0 -7 5 -4 10 3 6 8 10 11 10 2 0 4 -4 4 -10z m-1145 -10 c3 -5
1 -10 -4 -10 -6 0 -11 5 -11 10 0 6 2 10 4 10 3 0 8 -4 11 -10z m-145 -10 c0
-5 -2 -10 -4 -10 -3 0 -8 5 -11 10 -3 6 -1 10 4 10 6 0 11 -4 11 -10z m3587
-222 c35 -17 61 -33 59 -36 -2 -2 -37 12 -78 32 -40 20 -67 36 -59 36 8 0 43
-14 78 -32z m138 -73 c22 -13 33 -25 24 -25 -8 0 -30 11 -49 25 -44 32 -27 32
25 0z m-3418 -67 c-3 -8 -6 -5 -6 6 -1 11 2 17 5 13 3 -3 4 -12 1 -19z m-37
-98 c-15 -44 -30 -54 -22 -15 2 14 8 25 13 25 5 0 9 10 9 22 0 12 3 18 7 15 3
-4 0 -25 -7 -47z m3840 -30 c8 -5 11 -10 5 -10 -5 0 -17 5 -25 10 -8 5 -10 10
-5 10 6 0 17 -5 25 -10z m100 -57 c0 -7 -9 -13 -19 -13 -11 0 -23 -4 -26 -10
-10 -17 -102 -12 -109 5 -4 10 1 15 14 15 11 0 20 -4 20 -9 0 -4 18 -3 40 2
44 12 50 22 20 32 -11 3 -20 10 -20 15 0 5 18 1 40 -7 22 -9 40 -22 40 -30z
m65 27 c3 -5 -1 -10 -9 -10 -9 0 -16 5 -16 10 0 6 4 10 9 10 6 0 13 -4 16 -10z
m-4053 -62 c-8 -8 -9 -4 -5 13 4 13 8 18 11 10 2 -7 -1 -18 -6 -23z m3808 11
c0 -5 -11 -9 -25 -9 -28 0 -34 16 -7 23 20 4 32 -1 32 -14z m-82 -16 c-10 -2
-18 -8 -18 -12 0 -5 -24 -11 -52 -14 -29 -3 -82 -10 -117 -17 -44 -7 -67 -8
-74 -1 -17 17 -1 24 86 37 79 11 211 17 175 7z m-3771 -145 c-3 -8 -6 -5 -6 6
-1 11 2 17 5 13 3 -3 4 -12 1 -19z"/>
<path d="M3708 3446 l-98 -19 0 -90 0 -90 53 7 c28 3 62 6 75 6 13 0 20 4 17
10 -3 5 -25 7 -49 4 -42 -6 -44 -6 -39 19 5 25 38 43 49 26 3 -5 19 -9 35 -9
26 0 29 -3 24 -20 -5 -16 -2 -20 14 -20 13 0 21 7 22 18 6 134 6 173 0 175 -3
1 -50 -6 -103 -17z m65 -113 c-7 -2 -19 -2 -25 0 -7 3 -2 5 12 5 14 0 19 -2
13 -5z"/>
<path d="M2994 3328 c3 -12 0 -18 -9 -18 -16 0 -19 -9 -7 -26 8 -13 75 -27 85
-18 9 9 -16 44 -32 44 -7 0 -20 8 -28 18 -14 16 -14 16 -9 0z"/>
<path d="M5317 2923 c-11 -3 -16 -10 -13 -20 3 -8 6 -21 6 -29 0 -8 10 -14 24
-14 19 0 25 6 28 30 3 19 0 31 -10 35 -7 3 -14 4 -15 4 -1 -1 -10 -3 -20 -6z"/>
<path d="M4656 2868 c-5 -14 -9 -18 -13 -10 -6 16 -23 15 -23 -2 0 -24 26 -39
49 -26 24 12 27 33 7 49 -11 9 -15 7 -20 -11z"/>
<path d="M2568 2083 c6 -2 18 -2 25 0 6 3 1 5 -13 5 -14 0 -19 -2 -12 -5z"/>
<path d="M465 3140 c3 -5 10 -10 16 -10 5 0 9 5 9 10 0 6 -7 10 -16 10 -8 0
-12 -4 -9 -10z"/>
<path d="M1795 2910 c3 -5 8 -10 11 -10 2 0 4 5 4 10 0 6 -5 10 -11 10 -5 0
-7 -4 -4 -10z"/>
<path d="M2463 2799 c-27 -10 -31 -44 -7 -53 13 -5 15 -2 11 14 -4 15 0 23 15
29 12 4 17 10 12 13 -5 3 -19 2 -31 -3z"/>
<path d="M2590 2791 c0 -12 5 -21 10 -21 6 0 10 6 10 14 0 8 -4 18 -10 21 -5
3 -10 -3 -10 -14z"/>
<path d="M1368 2003 c7 -3 16 -2 19 1 4 3 -2 6 -13 5 -11 0 -14 -3 -6 -6z"/>
<path d="M4893 2003 c9 -2 23 -2 30 0 6 3 -1 5 -18 5 -16 0 -22 -2 -12 -5z"/>
<path d="M2006 1492 c-3 -6 1 -13 10 -16 24 -9 34 -7 34 6 0 6 -3 8 -7 5 -3
-4 -12 -2 -19 4 -7 6 -14 6 -18 1z"/>
<path d="M2030 1440 c0 -5 5 -10 11 -10 5 0 7 5 4 10 -3 6 -8 10 -11 10 -2 0
-4 -4 -4 -10z"/>
<path d="M0 220 l0 -220 997 0 c548 0 994 2 991 5 -2 3 -31 8 -64 11 -32 3
-129 14 -214 25 -85 11 -175 22 -200 24 -130 12 -247 28 -267 37 -12 6 -29 8
-37 5 -9 -4 -55 2 -104 13 -48 10 -95 18 -103 17 -70 -6 -375 67 -459 110 -14
7 -31 13 -39 13 -8 0 -33 9 -55 19 -23 10 -59 25 -80 31 -22 7 -49 21 -60 31
-11 11 -28 19 -38 19 -10 0 -72 18 -137 40 -65 22 -121 40 -125 40 -3 0 -6
-99 -6 -220z"/>
</g>
</svg>
