<?xml version="1.0" standalone="no"?>
<!DOCTYPE svg PUBLIC "-//W3C//DTD SVG 20010904//EN"
 "http://www.w3.org/TR/2001/REC-SVG-20010904/DTD/svg10.dtd">
<svg version="1.0" xmlns="http://www.w3.org/2000/svg"
 width="567.000000pt" height="500.000000pt" viewBox="0 0 567.000000 500.000000"
 preserveAspectRatio="xMidYMid meet">

<g transform="translate(0.000000,500.000000) scale(0.100000,-0.100000)"
fill="#000000" stroke="none">
<path d="M0 2500 l0 -2500 1644 0 c1290 0 1646 3 1650 13 5 9 7 9 12 0 7 -15
34 -17 34 -4 0 6 -4 12 -9 15 -4 3 -8 26 -7 51 1 35 -2 45 -14 44 -27 -2 -40
1 -40 9 0 10 42 7 79 -4 23 -7 24 -6 18 34 -4 33 -1 44 11 51 14 8 13 12 -8
30 -14 11 -29 20 -34 21 -4 0 -6 7 -3 15 6 14 -10 32 -19 22 -8 -7 25 -67 36
-67 6 0 10 -7 10 -16 0 -11 -6 -14 -21 -9 -17 6 -20 4 -13 -6 17 -27 15 -51
-3 -47 -10 2 -17 11 -17 21 1 9 -1 17 -5 17 -11 0 -57 -51 -71 -79 -12 -24
-12 -24 -27 15 -8 21 -15 47 -16 57 -1 9 -5 17 -9 17 -4 0 -8 5 -8 11 0 6 9 9
20 6 13 -3 20 0 20 9 0 8 -10 14 -22 14 -22 1 -22 1 -4 15 10 7 15 18 12 23
-3 5 1 9 10 8 10 0 18 8 20 21 2 13 -1 23 -6 23 -6 0 -10 -7 -10 -15 0 -8 -4
-15 -10 -15 -13 0 -13 27 0 35 13 8 13 25 0 25 -5 0 -16 -16 -24 -35 -8 -19
-19 -35 -24 -35 -10 0 -12 -14 -14 -92 -1 -32 -5 -58 -10 -58 -4 0 -8 -7 -8
-16 0 -8 -5 -24 -10 -35 -10 -18 -12 -18 -29 -2 -12 11 -18 28 -16 45 2 15 -3
32 -11 39 -12 10 -13 6 -8 -22 4 -26 3 -30 -5 -19 -6 8 -11 34 -11 56 0 40 11
54 45 59 6 0 9 7 7 15 -2 7 2 16 8 20 7 4 8 14 1 31 -9 21 -10 22 -11 4 -1
-15 -3 -16 -7 -5 -4 8 -12 20 -18 27 -15 15 -7 64 13 79 16 12 25 81 11 90 -5
3 -9 15 -9 27 -1 20 -2 20 -11 4 -6 -9 -14 -15 -20 -12 -5 4 -9 -6 -9 -20 0
-15 4 -24 10 -20 6 4 9 -5 8 -20 -2 -15 -7 -24 -14 -21 -9 3 -10 -3 -5 -22 5
-15 5 -58 1 -97 -4 -38 -8 -65 -9 -60 0 6 -5 71 -11 145 -5 74 -12 160 -15
190 -4 41 -3 51 5 37 16 -25 30 -21 30 8 0 36 18 31 29 -7 7 -26 9 -28 10 -10
1 13 6 20 11 17 6 -3 10 3 10 15 0 12 -4 19 -9 15 -5 -3 -3 8 5 25 12 24 22
30 47 30 28 0 29 1 13 13 -17 13 -17 15 8 42 27 29 33 45 16 45 -5 0 -10 -7
-10 -15 0 -8 -4 -15 -10 -15 -12 0 -12 26 -1 55 8 19 8 19 19 0 11 -19 11 -18
12 6 0 26 16 39 46 39 8 0 14 -6 14 -14 0 -8 4 -17 9 -21 6 -3 7 9 4 31 -7 43
11 40 21 -3 4 -16 14 -52 22 -82 26 -91 25 -50 0 55 -14 54 -23 100 -20 103 2
2 4 -2 4 -10 1 -11 3 -11 13 2 14 18 80 32 93 19 5 -5 29 -5 54 0 27 5 49 5
55 -1 14 -14 25 -11 25 6 0 24 20 17 30 -10 10 -27 3 -58 -11 -49 -5 3 -9 3
-9 0 0 -9 72 -136 77 -136 2 0 1 5 -2 10 -4 6 -11 25 -15 43 l-9 32 29 -35
c17 -19 30 -38 30 -42 0 -4 29 -69 65 -143 36 -75 65 -138 65 -140 0 -4 51
-115 145 -315 40 -85 76 -165 80 -177 6 -21 35 -33 35 -15 0 5 -15 39 -34 78
-19 38 -48 101 -66 139 -18 39 -74 153 -125 255 -51 102 -114 231 -140 288
l-47 103 15 75 c13 65 13 82 1 127 -20 75 -19 87 9 81 12 -3 38 -8 57 -11 19
-3 41 -10 48 -16 15 -12 55 -90 41 -81 -12 7 -11 -10 3 -41 6 -14 16 -25 22
-25 7 0 18 -9 26 -19 7 -11 17 -18 21 -16 3 3 26 -23 50 -56 59 -82 88 -115
51 -59 -50 77 -87 144 -75 137 11 -7 24 13 30 48 2 11 6 98 9 193 l6 172 42 1
c22 1 52 4 66 8 l25 6 -5 320 -5 320 -3 -310 -2 -310 -126 -2 c-69 -2 -130 -5
-135 -8 -5 -4 -9 -50 -9 -103 0 -53 -4 -101 -8 -107 -10 -14 -36 -12 -57 5
-16 14 -17 13 -11 -7 4 -12 2 -24 -3 -28 -7 -3 -8 0 -5 9 3 9 1 16 -5 16 -6 0
-11 -4 -11 -9 0 -9 -56 4 -69 16 -3 1 -12 38 -21 81 l-16 77 -38 3 c-33 3 -37
1 -32 -15 3 -10 14 -52 25 -93 11 -41 30 -106 41 -145 11 -38 20 -71 20 -73 0
-1 -8 2 -19 7 -10 6 -21 8 -24 5 -3 -3 -20 22 -38 57 -19 39 -25 58 -15 50 14
-12 16 -11 16 5 0 16 2 16 10 4 12 -20 24 -6 17 22 -15 60 -11 59 -275 59
l-242 0 0 29 c0 27 -3 30 -30 30 -27 0 -30 -3 -30 -34 l0 -33 -79 4 -80 5 -4
-39 c-3 -32 -4 -30 -5 15 -2 39 -6 52 -17 52 -13 0 -15 39 -15 294 0 161 -3
307 -6 325 -4 17 -18 43 -31 57 -24 26 -28 27 -101 21 -42 -3 -114 -18 -160
-32 -58 -18 -99 -25 -139 -23 -55 3 -57 4 -77 43 -12 22 -30 74 -40 115 -10
41 -29 107 -43 145 -13 39 -32 105 -43 147 -24 96 -44 128 -79 128 -47 0 -55
-12 -48 -77 l6 -58 -20 40 c-15 32 -18 34 -14 13 3 -16 1 -28 -5 -28 -5 0 -10
7 -10 16 0 8 -4 13 -9 10 -5 -3 -60 -8 -122 -11 -63 -2 -170 -10 -238 -16
-116 -11 -125 -11 -137 6 -12 16 -14 -43 -17 -366 -1 -211 -3 107 -5 707 -2
913 0 1093 12 1103 9 8 118 11 382 9 l369 -3 2 -134 2 -135 53 -3 c46 -2 50
-1 25 8 l-27 11 0 195 0 194 -22 -3 c-19 -2 -24 -11 -28 -48 l-5 -45 -372 -5
c-340 -5 -374 -7 -390 -23 -17 -17 -18 -62 -21 -734 -3 -824 7 -753 -99 -755
-35 0 -65 -7 -75 -16 -10 -8 -26 -12 -38 -9 -14 4 -20 0 -21 -11 0 -14 -2 -13
-9 3 -8 19 -9 19 -9 -2 -1 -12 -5 -24 -9 -27 -17 -10 -22 367 -22 1531 l0
1173 -560 0 -560 0 0 -2500z m1432 -1317 c2 -72 0 -129 -4 -126 -5 2 -7 82 -6
176 2 184 6 164 10 -50z m945 151 c-3 -3 -12 -4 -19 -1 -8 3 -5 6 6 6 11 1 17
-2 13 -5z m191 -31 c128 -24 142 -29 142 -47 0 -20 -4 -21 -152 -18 -128 3
-155 6 -166 20 -7 9 -10 23 -6 32 3 8 7 21 7 28 1 17 13 16 175 -15z m389
-130 c-3 -10 -5 -2 -5 17 0 19 2 27 5 18 2 -10 2 -26 0 -35z m143 43 c0 -3 -4
-8 -10 -11 -5 -3 -10 -1 -10 4 0 6 5 11 10 11 6 0 10 -2 10 -4z m163 -6 c9 0
17 -8 17 -17 1 -19 83 -66 95 -55 3 4 20 7 36 7 17 0 34 7 38 14 6 9 15 -1 31
-34 22 -45 22 -47 5 -63 -15 -14 -17 -15 -13 -2 3 9 -1 25 -9 35 -15 19 -15
19 -11 -7 3 -16 1 -28 -3 -28 -5 0 -9 6 -9 13 0 6 -11 22 -24 35 l-24 23 -26
-26 c-32 -32 -46 -31 -82 2 -32 30 -34 30 -45 12 -4 -8 -13 7 -23 41 -20 67
-20 63 7 56 12 -3 30 -6 40 -6z m-129 -52 c-3 -4 -17 -8 -32 -8 -20 0 -23 3
-13 9 18 11 52 10 45 -1z m66 -14 c0 -8 -4 -12 -10 -9 -5 3 -10 13 -10 21 0 8
5 12 10 9 6 -3 10 -13 10 -21z m220 -74 c0 -5 -2 -10 -4 -10 -3 0 -8 5 -11 10
-3 6 -1 10 4 10 6 0 11 -4 11 -10z m-1610 -64 c0 -8 -4 -17 -9 -20 -4 -3 -8
-38 -7 -79 1 -63 -1 -73 -16 -73 -12 0 -16 6 -13 17 3 10 1 20 -5 24 -5 3 -10
0 -10 -8 0 -8 -9 -22 -20 -32 -18 -16 -25 -14 -21 8 1 4 -4 28 -10 55 -6 26
-12 59 -14 75 -2 31 -1 32 113 46 6 0 12 -5 12 -13z m1780 0 c0 -2 -7 -7 -16
-10 -8 -3 -12 -2 -9 4 6 10 25 14 25 6z m-1847 -212 c-9 -15 -19 -21 -21 -15
-6 19 6 41 23 41 14 0 13 -3 -2 -26z m37 -29 c0 -14 -4 -25 -9 -25 -12 0 -19
21 -13 38 8 21 22 13 22 -13z m-26 -37 c3 -17 2 -36 -4 -42 -7 -7 -10 -4 -10
10 0 10 -3 29 -6 42 -4 12 -2 22 4 22 5 0 12 -14 16 -32z m1107 -82 c2 -27 2
-28 7 -6 4 23 5 24 13 5 7 -17 8 -17 8 8 1 15 6 27 11 27 6 0 10 -12 10 -27 0
-22 2 -25 10 -13 5 8 10 11 10 5 0 -5 4 -4 9 3 6 10 11 8 23 -10 15 -24 46
-393 34 -405 -3 -4 -6 7 -6 23 0 22 -3 26 -10 14 -9 -13 -10 -13 -11 0 -1 8 0
26 1 39 1 14 -2 21 -9 17 -6 -4 -11 -16 -11 -27 0 -10 -5 -19 -12 -19 -8 0 -9
-3 -2 -10 11 -11 6 -100 -7 -100 -12 0 -20 39 -16 77 3 23 0 33 -12 36 -12 3
-9 7 12 17 20 10 24 16 15 22 -10 6 -10 10 2 18 8 5 11 10 5 10 -6 0 -9 29 -7
72 2 40 1 70 -2 67 -3 -3 -7 -18 -8 -32 -1 -15 -6 -27 -10 -27 -4 0 -5 16 -2
35 3 22 1 35 -5 35 -6 0 -12 -15 -12 -32 -2 -31 -2 -31 -6 -5 -2 15 -9 27 -14
27 -5 0 -12 0 -16 1 -5 0 -11 -10 -15 -23 -4 -15 -7 -5 -8 32 -2 30 -3 67 -4
83 -1 15 2 27 6 27 4 0 5 21 1 48 -6 43 -5 46 10 33 10 -7 18 -28 18 -45z
m-1103 4 c3 -7 0 -10 -6 -6 -6 3 -13 0 -15 -6 -3 -7 -6 -2 -6 10 -1 25 19 26
27 2z m1309 -197 c-3 -10 -5 -4 -5 12 0 17 2 24 5 18 2 -7 2 -21 0 -30z m-170
-105 c-3 -8 -6 -5 -6 6 -1 11 2 17 5 13 3 -3 4 -12 1 -19z m83 -113 c0 -8 -2
-15 -4 -15 -2 0 -6 7 -10 15 -3 8 -1 15 4 15 6 0 10 -7 10 -15z m28 -73 l-1
-47 -4 41 c-3 36 -7 41 -24 37 -10 -3 -19 0 -19 6 0 5 7 8 15 5 8 -4 15 -1 15
6 0 6 5 8 10 5 6 -3 9 -27 8 -53z m162 27 c0 -5 -4 -9 -10 -9 -5 0 -10 7 -10
16 0 8 5 12 10 9 6 -3 10 -10 10 -16z m10 -74 c-7 -9 -15 -13 -18 -10 -3 2 1
11 8 20 7 9 15 13 18 10 3 -2 -1 -11 -8 -20z m-133 -37 c-3 -8 -6 -5 -6 6 -1
11 2 17 5 13 3 -3 4 -12 1 -19z m173 -18 c0 -5 -5 -10 -11 -10 -5 0 -7 5 -4
10 3 6 8 10 11 10 2 0 4 -4 4 -10z m-115 -10 c3 -5 1 -10 -4 -10 -6 0 -11 5
-11 10 0 6 2 10 4 10 3 0 8 -4 11 -10z"/>
<path d="M3230 1190 c0 -5 5 -10 11 -10 5 0 7 5 4 10 -3 6 -8 10 -11 10 -2 0
-4 -4 -4 -10z"/>
<path d="M2912 590 c0 -19 2 -27 5 -17 2 9 2 25 0 35 -3 9 -5 1 -5 -18z"/>
<path d="M2864 576 c3 -11 0 -26 -6 -34 -9 -10 -8 -16 3 -22 10 -7 16 -3 20
18 11 46 10 59 -7 59 -11 0 -14 -7 -10 -21z"/>
<path d="M2963 463 c-3 -10 -8 -21 -10 -25 -2 -4 3 -5 11 -2 9 3 16 15 16 25
0 24 -9 25 -17 2z"/>
<path d="M2960 360 c0 -5 5 -10 10 -10 6 0 10 5 10 10 0 6 -4 10 -10 10 -5 0
-10 -4 -10 -10z"/>
<path d="M2577 4133 c-3 -5 -7 -331 -8 -726 -4 -630 -2 -719 11 -727 16 -11
1038 -14 1064 -4 14 6 16 80 16 735 l0 729 -539 0 c-297 0 -542 -3 -544 -7z
m1041 -725 l2 -698 -495 0 -495 0 0 693 c0 382 3 697 7 700 3 4 225 6 492 5
l486 -3 3 -697z"/>
<path d="M2952 3319 c-49 -12 -107 -63 -128 -115 -18 -43 -18 -132 0 -175 15
-36 66 -89 103 -108 31 -16 134 -14 175 3 69 29 128 119 128 197 0 133 -137
230 -278 198z"/>
<path d="M5066 3082 c-5 -316 -4 -476 3 -495 l11 -27 295 0 295 0 0 495 0 495
-298 0 -299 0 -7 -468z"/>
<path d="M4260 3266 c0 -8 -5 -16 -12 -18 -8 -3 -8 -9 0 -24 10 -17 11 -17 12
-1 0 9 5 17 10 17 6 0 10 6 10 14 0 8 -4 18 -10 21 -5 3 -10 0 -10 -9z"/>
<path d="M4290 3245 c0 -8 4 -15 10 -15 5 0 7 7 4 15 -4 8 -8 15 -10 15 -2 0
-4 -7 -4 -15z"/>
<path d="M4240 3190 c0 -6 -11 -15 -25 -20 -25 -10 -31 -37 -12 -51 15 -11
-21 -69 -38 -63 -8 4 -15 1 -15 -6 0 -6 -5 -8 -10 -5 -6 4 -9 -3 -7 -15 2 -12
8 -25 14 -28 7 -5 -4 -38 -30 -92 -22 -47 -41 -91 -43 -99 -4 -20 -55 -134
-66 -148 -5 -6 -16 -9 -24 -6 -19 7 -19 72 1 79 14 6 13 8 -2 21 -10 8 -13 12
-7 9 6 -3 11 6 11 22 0 44 14 122 21 121 21 -3 42 2 42 11 0 5 -7 7 -15 4 -20
-8 -31 42 -17 78 6 17 7 39 2 56 -5 15 -9 20 -9 10 -1 -10 -8 -18 -16 -18 -8
0 -15 -7 -15 -15 0 -8 5 -15 10 -15 14 0 12 -54 -2 -68 -7 -7 -8 -12 -2 -12 5
0 2 -5 -6 -10 -12 -8 -12 -12 -3 -18 10 -6 10 -22 2 -70 -10 -55 -13 -61 -29
-52 -13 7 -19 24 -22 60 -3 45 -1 50 15 46 22 -6 21 1 -8 49 -16 25 -25 33
-25 22 0 -10 -9 -27 -19 -39 -11 -11 -17 -26 -14 -34 6 -17 23 -18 24 -1 0 6
4 3 9 -8 12 -28 12 -103 0 -110 -5 -3 -10 -14 -10 -23 0 -15 2 -15 10 -2 8 12
10 9 10 -11 0 -15 -9 -37 -20 -50 l-19 -24 -2 23 c-5 50 -9 80 -20 141 -10 50
-9 68 0 83 7 11 10 22 7 26 -3 3 3 11 14 19 23 16 27 38 5 29 -8 -3 -22 -9
-30 -12 -19 -8 -40 43 -25 61 5 6 7 15 3 18 -3 4 -1 7 5 7 6 0 9 7 6 15 -4 8
-12 15 -20 15 -8 0 -15 10 -15 23 -1 12 -6 0 -11 -26 -9 -40 -8 -51 6 -66 22
-24 20 -40 -6 -63 -18 -15 -20 -21 -9 -28 8 -4 20 -6 27 -3 9 3 15 -11 19 -44
4 -26 9 -56 12 -65 3 -14 -2 -18 -20 -18 -21 0 -24 -4 -20 -22 4 -15 2 -20 -4
-13 -15 15 -34 117 -27 143 4 12 2 22 -4 22 -11 0 -23 72 -13 80 4 3 1 21 -6
40 l-12 35 -1 -35 c-1 -19 -4 -29 -7 -22 -6 15 -33 16 -33 2 0 -6 11 -21 25
-34 28 -26 36 -82 10 -72 -9 3 -15 0 -15 -10 0 -9 8 -18 19 -21 13 -3 22 -20
30 -61 14 -68 14 -75 1 -67 -5 3 -10 -3 -10 -14 0 -14 5 -19 15 -15 10 4 15 0
15 -15 0 -12 -6 -21 -15 -21 -18 0 -20 -16 -4 -26 8 -5 7 -9 -1 -14 -17 -11
-4 -44 14 -37 16 6 18 -1 36 -123 6 -41 18 -115 27 -165 15 -88 15 -92 -6
-150 -33 -91 -34 -95 -23 -95 6 0 20 21 32 47 11 25 22 44 24 42 2 -2 8 -27
14 -56 9 -51 9 -52 -17 -56 -17 -3 -11 -5 16 -6 l42 -1 0 281 c1 179 4 286 11
297 9 13 10 8 8 -25 -2 -24 0 -43 4 -43 5 0 8 11 8 24 0 14 5 28 12 32 11 7 8
-28 -8 -71 -5 -13 -4 -17 3 -10 6 6 34 62 62 125 65 144 65 145 82 145 8 0 15
9 17 19 3 14 0 17 -12 13 -23 -9 28 103 58 125 18 14 22 25 20 51 -3 26 3 43
26 71 21 27 29 48 28 72 -1 19 -3 34 -5 34 -1 0 -3 -5 -3 -10z m-396 -446 c19
-7 21 -37 4 -63 -10 -16 -14 -17 -25 -6 -15 15 -18 75 -4 75 5 0 16 -3 25 -6z
m116 -19 c0 -14 -4 -25 -9 -25 -5 0 -8 11 -7 25 1 33 16 33 16 0z m-76 -143
c27 -121 29 -181 7 -247 -13 -42 -19 -52 -20 -34 -1 15 -7 42 -15 60 -7 19
-19 85 -25 148 -7 63 -14 118 -17 123 -6 9 37 28 48 22 3 -2 13 -35 22 -72z
m36 18 c0 -32 -16 -41 -22 -12 -3 14 9 40 20 42 1 0 2 -13 2 -30z m-3 -97 c-3
-10 -5 -2 -5 17 0 19 2 27 5 18 2 -10 2 -26 0 -35z m-5 -311 c2 -28 0 -52 -4
-52 -12 0 -20 87 -12 122 9 37 11 32 16 -70z"/>
<path d="M3755 3180 c-3 -5 -1 -10 4 -10 6 0 11 5 11 10 0 6 -2 10 -4 10 -3 0
-8 -4 -11 -10z"/>
<path d="M3791 3181 c-16 -10 -6 -31 15 -31 8 0 14 9 14 20 0 22 -7 25 -29 11z"/>
<path d="M4011 3132 c-6 -11 -6 -24 0 -33 7 -11 9 -12 9 0 0 8 7 19 16 26 16
11 16 12 1 18 -10 4 -20 0 -26 -11z"/>
<path d="M3915 3131 c3 -5 1 -13 -5 -16 -8 -5 -7 -11 1 -22 9 -10 9 -17 2 -21
-5 -4 -8 -24 -5 -44 4 -33 6 -36 23 -25 21 13 26 37 8 37 -6 0 -10 16 -8 38 3
51 1 62 -12 62 -5 0 -8 -4 -4 -9z"/>
<path d="M3720 3123 c1 -18 19 -35 29 -28 9 5 9 10 0 21 -12 15 -29 19 -29 7z"/>
<path d="M4128 3068 c9 -9 15 -9 24 0 9 9 7 12 -12 12 -19 0 -21 -3 -12 -12z"/>
<path d="M3880 3015 c-10 -12 -10 -15 4 -15 9 0 16 7 16 15 0 8 -2 15 -4 15
-2 0 -9 -7 -16 -15z"/>
<path d="M4372 2108 c-15 -15 -15 -588 -1 -813 5 -82 9 -162 9 -177 0 -16 5
-28 12 -28 6 0 8 -3 5 -7 -7 -6 22 -32 37 -33 4 0 6 7 3 14 -4 11 -1 13 10 9
11 -4 14 -3 9 5 -4 7 -1 15 7 18 8 3 15 21 16 42 4 79 6 95 17 99 6 2 14 -8
16 -22 3 -14 1 -25 -5 -25 -13 0 22 -39 48 -52 19 -11 19 -10 2 9 -18 20 -17
21 14 32 44 15 82 14 129 -5 22 -9 46 -14 54 -11 7 3 26 -1 41 -9 23 -12 29
-12 42 1 8 8 17 15 21 15 4 0 36 5 72 10 56 8 70 6 110 -11 25 -11 39 -14 33
-8 -7 7 -13 17 -13 22 0 5 6 5 13 -1 11 -9 63 -17 172 -27 24 -3 34 -1 26 4
-26 16 8 22 38 6 40 -20 51 -19 22 4 -24 18 -22 18 85 15 69 -1 126 -8 154
-19 29 -10 41 -12 32 -3 -6 6 -12 15 -12 19 0 8 55 3 70 -6 6 -4 10 32 10 94
l0 101 -580 0 -580 0 0 -60 c0 -33 -4 -60 -10 -60 -6 0 -10 32 -10 78 1 154
-9 498 -16 549 -4 29 -13 58 -20 64 -8 6 -14 17 -14 23 0 6 -9 22 -20 36 -12
16 -20 41 -20 67 0 45 -10 59 -28 41z"/>
<path d="M4728 2083 c-213 -3 -218 -4 -218 -24 0 -15 5 -19 15 -16 8 4 17 3
19 -2 3 -4 30 -13 59 -20 74 -16 109 -58 86 -103 -8 -14 -114 -40 -166 -41 -8
0 -13 -14 -13 -37 l0 -37 64 -11 c40 -8 179 -12 375 -12 l312 0 -3 152 -3 152
-155 1 c-85 1 -253 0 -372 -2z m343 -207 c3 -3 3 -23 1 -45 l-4 -41 -113 0
c-61 0 -140 3 -174 6 -50 6 -61 10 -61 25 0 17 10 19 117 19 64 0 113 3 110 7
-4 4 -54 5 -112 4 -90 -2 -105 0 -105 13 0 14 22 16 168 16 93 0 171 -2 173
-4z"/>
<path d="M5287 2056 c4 -19 13 -26 43 -31 49 -8 74 -33 42 -42 -12 -3 -22 -9
-22 -14 0 -5 -3 -8 -7 -7 -5 1 -18 -3 -31 -10 -21 -12 -23 -19 -20 -90 l3 -77
39 0 c39 0 40 0 40 40 l1 40 148 -3 c129 -3 147 -2 147 12 0 11 -9 16 -30 16
-19 0 -33 7 -40 19 -17 33 -11 41 30 41 l40 0 0 65 0 65 -194 0 -193 0 4 -24z
m283 -146 c0 -5 -12 -10 -26 -10 -14 0 -23 4 -19 10 3 6 15 10 26 10 10 0 19
-4 19 -10z"/>
<path d="M3620 2049 c14 -6 70 -12 125 -14 80 -3 89 -3 45 4 -101 16 -198 21
-170 10z"/>
<path d="M3327 1979 c-71 -17 -143 -29 -180 -28 -34 0 -71 -1 -82 -3 -11 -2
-42 -8 -68 -12 -38 -7 -50 -14 -58 -33 -6 -16 -15 -23 -23 -20 -8 3 -16 1 -18
-5 -2 -5 -18 -11 -35 -11 l-30 -2 -7 -126 c-8 -141 0 -248 19 -255 15 -6 431
30 590 51 61 8 117 15 126 15 9 0 19 9 22 20 6 23 1 25 -18 6 -16 -16 -43 -20
-334 -46 -248 -22 -345 -25 -321 -10 8 5 11 10 5 10 -6 0 -10 35 -10 85 0 50
4 85 10 86 6 0 -1 5 -14 10 -20 8 -22 14 -17 43 5 25 3 35 -9 40 -8 3 -15 12
-15 20 0 8 -6 17 -12 19 -7 3 7 5 32 5 25 0 63 3 85 7 138 22 346 7 490 -37
55 -16 106 -35 113 -40 7 -7 13 -41 14 -92 1 -66 3 -55 8 54 7 132 2 197 -19
253 -10 25 -14 27 -68 26 -32 0 -111 -13 -176 -30z"/>
<path d="M4088 1393 c7 -3 16 -2 19 1 4 3 -2 6 -13 5 -11 0 -14 -3 -6 -6z"/>
<path d="M4370 1067 c0 -8 47 -56 90 -93 44 -38 45 -38 15 -4 -55 62 -105 108
-105 97z"/>
<path d="M4160 976 c0 -2 8 -10 18 -17 15 -13 16 -12 3 4 -13 16 -21 21 -21
13z"/>
<path d="M4410 926 c0 -2 7 -7 16 -10 8 -3 12 -2 9 4 -6 10 -25 14 -25 6z"/>
<path d="M4530 910 c0 -5 5 -10 11 -10 5 0 7 5 4 10 -3 6 -8 10 -11 10 -2 0
-4 -4 -4 -10z"/>
<path d="M4220 906 c0 -2 8 -10 18 -17 15 -13 16 -12 3 4 -13 16 -21 21 -21
13z"/>
<path d="M4477 894 c-3 -4 5 -16 19 -29 18 -16 21 -25 12 -28 -7 -3 -1 -6 13
-6 28 -1 94 -60 68 -62 -8 0 0 -7 17 -14 18 -8 47 -33 65 -57 18 -24 38 -46
44 -50 6 -5 3 -8 -7 -8 -9 0 -18 5 -20 11 -2 6 -11 7 -23 2 -16 -6 -10 -10 30
-19 49 -11 50 -11 23 -22 -39 -16 -35 -29 12 -34 22 -2 40 0 40 4 0 4 9 0 20
-9 l20 -18 -20 -7 c-30 -11 -24 -21 8 -15 34 7 54 -4 59 -32 3 -21 0 -22 -67
-35 -14 -3 1 -3 32 0 85 6 123 -16 56 -34 -32 -8 -32 -9 22 -16 80 -11 107
-39 50 -51 -32 -7 -32 -25 1 -25 32 0 21 -16 -18 -28 -36 -10 -35 -11 19 -6
67 6 133 -9 143 -34 4 -12 3 -14 -5 -6 -6 6 -32 10 -58 8 -39 -3 -43 -2 -22 6
18 7 2 8 -55 4 -44 -3 -76 -2 -73 2 4 4 -7 20 -25 35 -33 29 -47 35 -47 21 0
-12 34 -42 48 -42 6 0 9 -6 7 -13 -6 -15 35 -43 44 -29 9 13 59 24 65 13 4 -5
0 -12 -6 -14 -7 -3 4 -6 25 -6 20 -1 37 -5 37 -9 0 -5 26 -7 58 -6 l57 3 -48
-9 c-51 -9 -74 -20 -41 -20 10 1 38 5 62 9 23 5 42 5 42 0 0 -4 -21 -11 -47
-14 -27 -4 -63 -11 -81 -15 -29 -8 -38 -5 -58 15 -18 19 -24 20 -24 8 0 -8 17
-32 38 -51 20 -20 36 -40 34 -45 -1 -4 1 -6 6 -3 5 3 18 -1 28 -9 10 -8 32
-15 47 -15 16 0 26 -4 22 -10 -3 -5 -2 -10 3 -10 6 0 12 7 16 15 6 17 55 11
68 -9 4 -6 10 -7 14 -3 4 4 14 -2 21 -13 8 -11 18 -18 23 -15 5 3 18 -7 30
-22 16 -21 23 -24 29 -14 6 9 11 10 15 2 10 -15 116 -15 116 1 0 9 3 9 12 0 7
-7 21 -12 32 -12 19 0 19 0 0 22 -13 16 -14 19 -2 10 13 -10 17 -10 21 0 3 7
6 3 6 -9 1 -17 7 -23 24 -22 12 0 16 3 9 6 -6 2 -10 9 -6 14 3 5 15 3 27 -6
27 -19 47 -19 47 -1 0 8 9 18 20 21 19 6 20 15 20 221 l0 214 -367 0 c-311 0
-369 2 -382 15 -9 8 -92 91 -186 185 -164 164 -246 236 -258 224z m546 -548
c16 -12 16 -14 1 -20 -8 -3 -23 -6 -32 -5 -14 0 -13 2 3 9 18 8 18 9 2 9 -10
1 -15 6 -12 11 8 13 16 12 38 -4z m97 -166 c-8 -5 -35 -9 -60 -9 -41 1 -42 2
-15 9 17 4 44 8 60 9 23 0 26 -2 15 -9z m0 -25 c-50 -12 -52 -13 -20 -15 35
-2 35 -2 7 -10 -19 -6 -36 -4 -54 5 -30 16 -22 22 37 28 71 8 83 4 30 -8z m95
-25 c-11 -5 -31 -8 -45 -8 l-25 0 25 8 c14 4 34 8 45 8 l20 1 -20 -9z"/>
<path d="M4430 860 c-18 -12 -2 -12 25 0 13 6 15 9 5 9 -8 0 -22 -4 -30 -9z"/>
<path d="M4291 823 c32 -35 134 -153 311 -359 75 -87 184 -214 242 -282 59
-68 116 -136 128 -153 19 -26 48 -40 48 -23 0 3 -53 65 -117 136 -65 72 -172
192 -238 267 -66 76 -180 205 -253 289 -74 84 -137 152 -140 152 -3 0 6 -12
19 -27z"/>
<path d="M4408 833 c7 -3 16 -2 19 1 4 3 -2 6 -13 5 -11 0 -14 -3 -6 -6z"/>
<path d="M4408 783 c6 -2 18 -2 25 0 6 3 1 5 -13 5 -14 0 -19 -2 -12 -5z"/>
<path d="M4014 743 c13 -21 124 -189 247 -375 123 -185 229 -344 235 -355 19
-30 29 -5 11 26 -9 16 -17 36 -17 45 0 9 -5 15 -11 13 -12 -2 -32 24 -141 183
-116 169 -261 384 -301 443 -43 63 -61 79 -23 20z"/>
<path d="M3321 744 c-1 -7 31 -133 71 -280 39 -148 73 -282 76 -299 l5 -30
-20 25 c-16 19 -24 22 -34 13 -8 -6 -18 -11 -24 -12 -18 0 -18 -34 0 -47 16
-12 15 -14 -9 -20 -14 -3 -26 -13 -26 -21 0 -8 -4 -11 -10 -8 -5 3 -10 -1 -10
-9 0 -9 4 -16 9 -16 5 0 13 -9 16 -20 12 -37 53 -12 46 28 -1 6 3 12 9 12 5 0
10 -4 10 -8 0 -24 39 -52 74 -52 43 0 44 -13 -15 181 -21 69 -54 181 -73 250
-53 188 -94 325 -95 313z m176 -706 c-3 -8 -6 -5 -6 6 -1 11 2 17 5 13 3 -3 4
-12 1 -19z"/>
<path d="M4568 723 c6 -2 18 -2 25 0 6 3 1 5 -13 5 -14 0 -19 -2 -12 -5z"/>
<path d="M3110 710 c8 -5 26 -10 39 -10 32 0 24 6 -19 14 -25 4 -31 3 -20 -4z"/>
<path d="M4493 713 c9 -2 23 -2 30 0 6 3 -1 5 -18 5 -16 0 -22 -2 -12 -5z"/>
<path d="M3590 685 c-7 -9 -8 -15 -2 -15 5 0 12 7 16 15 3 8 4 15 2 15 -2 0
-9 -7 -16 -15z"/>
<path d="M4660 610 c-13 -8 -13 -10 2 -10 9 0 20 5 23 10 8 13 -5 13 -25 0z"/>
<path d="M3075 591 c-3 -10 -1 -29 4 -42 9 -21 10 -19 10 19 1 45 -4 54 -14
23z"/>
<path d="M3116 571 c-3 -5 -8 -37 -11 -72 -6 -74 8 -53 19 29 6 49 4 63 -8 43z"/>
<path d="M4632 538 c8 -12 21 -24 29 -27 9 -3 8 1 -4 13 -9 10 -17 22 -17 27
0 5 -5 9 -11 9 -7 0 -6 -8 3 -22z"/>
<path d="M4696 521 c-4 -5 3 -7 14 -4 23 6 26 13 6 13 -8 0 -17 -4 -20 -9z"/>
<path d="M4770 510 c-12 -8 -11 -10 7 -10 12 0 25 5 28 10 8 13 -15 13 -35 0z"/>
<path d="M3205 500 c-3 -6 1 -7 9 -4 18 7 21 14 7 14 -6 0 -13 -4 -16 -10z"/>
<path d="M4670 490 c0 -5 5 -10 11 -10 5 0 7 5 4 10 -3 6 -8 10 -11 10 -2 0
-4 -4 -4 -10z"/>
<path d="M4748 483 c6 -2 18 -2 25 0 6 3 1 5 -13 5 -14 0 -19 -2 -12 -5z"/>
<path d="M4740 420 c11 -11 23 -20 27 -20 3 0 -2 9 -12 20 -10 11 -22 20 -27
20 -4 0 1 -9 12 -20z"/>
<path d="M3090 414 c0 -8 5 -12 10 -9 6 3 10 10 10 16 0 5 -4 9 -10 9 -5 0
-10 -7 -10 -16z"/>
<path d="M3091 374 c0 -11 3 -14 6 -6 3 7 2 16 -1 19 -3 4 -6 -2 -5 -13z"/>
<path d="M3275 355 c2 -14 -1 -25 -6 -25 -5 0 -9 -4 -9 -9 0 -5 8 -7 18 -4 21
5 26 37 8 52 -10 9 -13 6 -11 -14z"/>
<path d="M3692 364 c10 -10 20 -15 24 -12 3 4 -5 12 -18 18 -22 12 -22 12 -6
-6z"/>
<path d="M4835 370 l-50 -7 47 -1 c26 -1 50 3 53 8 3 6 5 9 3 8 -2 0 -25 -4
-53 -8z"/>
<path d="M3720 332 c0 -3 10 -16 21 -28 15 -16 22 -37 23 -68 1 -31 4 -42 12
-35 8 6 9 23 3 52 -4 23 -8 47 -9 52 0 11 -50 37 -50 27z"/>
<path d="M3215 261 c-3 -5 -1 -12 5 -16 5 -3 10 1 10 9 0 18 -6 21 -15 7z"/>
<path d="M3241 233 c-6 -13 -8 -29 -5 -34 3 -6 -4 -13 -15 -16 -21 -5 -24 -24
-5 -30 19 -6 37 16 36 45 0 21 4 29 15 28 23 -2 27 21 4 27 -13 3 -22 -3 -30
-20z"/>
<path d="M3860 254 c0 -13 18 -39 24 -34 2 3 -2 14 -10 24 -8 11 -14 16 -14
10z"/>
<path d="M3500 192 c0 -12 19 -26 26 -19 2 2 -2 10 -11 17 -9 8 -15 8 -15 2z"/>
<path d="M3817 193 c-9 -17 -17 -63 -10 -63 17 0 40 33 36 51 -5 19 -18 25
-26 12z"/>
<path d="M3850 130 c-11 -8 -8 -9 13 -4 18 4 36 1 52 -10 14 -9 25 -13 25 -8
0 10 -44 32 -63 32 -7 0 -19 -5 -27 -10z"/>
<path d="M4475 130 c-3 -5 -2 -10 4 -10 5 0 13 5 16 10 3 6 2 10 -4 10 -5 0
-13 -4 -16 -10z"/>
<path d="M3790 105 c0 -8 5 -15 10 -15 6 0 10 7 10 15 0 8 -4 15 -10 15 -5 0
-10 -7 -10 -15z"/>
<path d="M3840 100 c0 -5 9 -10 20 -10 13 0 20 -7 20 -19 0 -32 39 -71 71 -71
16 0 29 4 29 8 0 5 -20 29 -45 55 -30 32 -53 47 -70 47 -14 0 -25 -4 -25 -10z"/>
<path d="M5185 69 c11 -16 -26 -50 -47 -43 -22 7 -24 -11 -2 -20 49 -19 122
13 81 35 -9 6 -17 17 -17 24 0 8 -5 15 -11 15 -5 0 -7 -5 -4 -11z"/>
<path d="M3842 59 c5 -14 21 -14 26 0 2 6 -4 11 -13 11 -9 0 -15 -5 -13 -11z"/>
<path d="M3816 24 c-9 -22 -8 -24 9 -24 8 0 15 9 15 20 0 24 -15 27 -24 4z"/>
<path d="M5270 33 c0 -4 5 -15 10 -23 8 -13 10 -13 10 2 0 9 -4 20 -10 23 -5
3 -10 3 -10 -2z"/>
<path d="M5241 14 c0 -11 3 -14 6 -6 3 7 2 16 -1 19 -3 4 -6 -2 -5 -13z"/>
<path d="M5650 10 c0 -5 5 -10 10 -10 6 0 10 5 10 10 0 6 -4 10 -10 10 -5 0
-10 -4 -10 -10z"/>
</g>
</svg>
