<?xml version="1.0" standalone="no"?>
<!DOCTYPE svg PUBLIC "-//W3C//DTD SVG 20010904//EN"
 "http://www.w3.org/TR/2001/REC-SVG-20010904/DTD/svg10.dtd">
<svg version="1.0" xmlns="http://www.w3.org/2000/svg"
 width="750.000000pt" height="500.000000pt" viewBox="0 0 750.000000 500.000000"
 preserveAspectRatio="xMidYMid meet">

<g transform="translate(0.000000,500.000000) scale(0.100000,-0.100000)"
fill="#000000" stroke="none">
<path d="M0 3559 l0 -1441 37 6 c21 3 71 10 112 15 40 6 79 15 86 21 14 12
116 40 145 40 11 0 20 6 20 13 0 21 42 41 90 42 60 2 159 23 192 41 14 8 33
14 42 14 19 0 21 16 4 23 -7 3 -3 6 8 6 12 1 43 13 68 27 26 15 58 27 72 27
13 0 24 3 24 8 0 5 -4 9 -10 9 -5 0 -10 7 -10 15 0 8 9 15 20 15 25 0 27 36 3
62 -14 16 -15 18 0 18 9 0 22 8 29 18 24 32 81 65 111 64 27 -1 29 1 14 15
-14 14 -13 18 11 37 15 11 50 32 77 46 28 13 53 29 56 34 4 5 17 6 31 3 22 -6
51 4 49 17 -3 20 1 25 20 28 12 2 28 13 37 26 13 20 13 22 -2 16 -9 -3 -16 -1
-16 5 0 6 5 11 10 11 6 0 10 11 10 25 0 15 9 31 25 41 18 12 25 25 25 49 0 19
4 44 9 57 10 26 -16 68 -41 68 -7 0 -18 10 -23 22 -6 13 -21 28 -35 35 l-25
13 27 0 c15 0 30 -4 33 -10 10 -17 24 -11 22 9 0 11 -7 17 -14 14 -17 -7 -38
16 -54 60 -11 32 -11 41 4 72 19 39 22 65 8 65 -5 0 -11 9 -14 20 -4 15 -1 20
11 18 13 -2 18 6 20 40 2 30 -1 42 -10 42 -30 0 -61 61 -39 74 15 10 18 86 4
86 -18 0 -16 7 8 41 11 16 18 33 14 38 -3 6 8 24 25 41 24 25 30 39 30 75 0
25 -4 45 -10 45 -5 0 -17 17 -25 37 -15 35 -15 42 6 105 12 37 28 73 35 79 9
7 13 29 12 58 l-1 46 -7 -45 -7 -45 -1 39 c-1 22 6 52 17 70 25 42 26 103 2
115 -12 7 -17 18 -14 34 3 14 -2 29 -11 36 -11 9 -16 30 -16 63 0 27 -7 65
-16 86 -27 60 -36 143 -18 163 20 22 36 136 23 160 -5 10 -9 40 -9 68 0 37 -4
51 -14 51 -8 0 -17 -6 -20 -12 -5 -10 -7 -10 -12 0 -4 9 -141 12 -635 12
l-629 0 0 -1441z m1300 -229 c0 -5 -4 -10 -10 -10 -5 0 -10 5 -10 10 0 6 5 10
10 10 6 0 10 -4 10 -10z"/>
<path d="M6485 4905 c2 -53 10 -108 17 -123 16 -32 13 -162 -4 -162 -6 0 -19
9 -28 20 -11 13 -21 17 -25 10 -10 -16 -22 -12 -28 9 -3 14 -11 18 -26 14 -19
-5 -21 -1 -21 31 0 21 -4 35 -9 32 -5 -3 -11 12 -15 34 -3 22 -11 40 -16 40
-6 0 -15 11 -20 25 -11 30 -26 32 -35 6 -3 -12 -12 -18 -20 -15 -9 4 -16 -6
-20 -27 -4 -18 -18 -52 -30 -75 -21 -40 -23 -56 -24 -226 -1 -101 -6 -240 -11
-310 -10 -116 -9 -130 7 -155 10 -15 19 -45 19 -68 1 -22 5 -66 9 -97 5 -38 4
-62 -3 -71 -6 -7 -14 -48 -18 -92 -4 -44 -10 -84 -14 -90 -4 -5 -11 -43 -15
-83 -5 -55 -4 -78 7 -95 8 -12 24 -46 37 -75 21 -50 21 -55 7 -77 -9 -14 -16
-34 -16 -45 0 -12 -5 -30 -11 -42 -6 -11 -12 -68 -14 -126 -3 -111 2 -129 55
-247 10 -22 21 -65 24 -95 7 -69 22 -157 40 -235 9 -40 10 -64 3 -72 -6 -9 0
-23 22 -48 33 -38 38 -51 20 -57 -6 -2 6 -38 30 -88 43 -87 48 -106 31 -112
-5 -2 -7 -19 -3 -41 3 -21 9 -34 13 -28 4 8 12 5 24 -8 10 -11 15 -24 12 -29
-7 -11 -46 -23 -44 -13 2 19 -3 31 -12 26 -6 -4 -8 -11 -5 -16 4 -5 -1 -9 -10
-9 -10 0 -13 -5 -9 -12 12 -19 16 -80 5 -74 -5 3 -14 -1 -21 -9 -6 -7 -19 -11
-27 -8 -10 4 -14 2 -9 -5 3 -6 2 -13 -3 -16 -5 -4 -12 3 -16 14 -3 11 -11 20
-17 20 -5 0 -8 -5 -6 -12 5 -13 -26 -48 -43 -48 -6 0 -3 7 5 16 18 17 20 24 8
24 -4 0 -15 -12 -24 -27 -15 -25 -18 -26 -19 -8 -1 11 -1 28 0 38 3 21 -25 23
-33 2 -3 -8 -12 -15 -21 -15 -17 0 -20 17 -4 22 20 7 0 47 -21 45 -23 -1 -25
-8 -8 -25 9 -9 9 -12 -3 -12 -11 0 -14 -8 -11 -29 3 -22 -1 -29 -17 -34 -20
-5 -30 -37 -12 -37 5 0 -2 -21 -15 -47 -20 -41 -22 -49 -8 -51 8 -2 13 -9 11
-15 -3 -7 -9 -11 -15 -10 -8 2 -9 -5 -3 -20 12 -32 -8 -58 -39 -50 -16 4 -21
2 -18 -7 5 -15 304 -190 325 -190 7 0 13 -5 13 -10 0 -6 11 -16 25 -22 14 -6
25 -17 25 -25 0 -11 -6 -10 -31 3 -26 13 -51 15 -138 10 -107 -6 -108 -2 -8
24 l48 13 -66 38 c-66 39 -92 48 -80 29 3 -5 -14 -1 -39 10 -26 11 -46 16 -46
12 0 -4 -4 -2 -8 4 -4 6 -40 28 -81 48 -70 36 -76 37 -140 30 -77 -8 -112 -21
-90 -35 8 -5 23 -9 35 -9 21 0 242 -109 316 -156 44 -28 44 -28 72 -206 22
-136 22 -141 4 -146 -24 -6 -23 -17 4 -29 19 -8 25 -27 45 -153 16 -97 20
-147 13 -154 -7 -7 -10 -3 -10 11 0 12 -5 23 -10 25 -6 2 -13 16 -16 33 -6 33
-21 55 -38 55 -6 0 -22 7 -34 16 -17 12 -20 19 -12 34 21 40 -27 72 -49 33 -8
-16 -10 -14 -16 10 -8 29 -20 35 -29 15 -3 -7 -3 -3 0 10 3 12 1 22 -5 22 -5
0 -16 3 -24 6 -9 3 -15 0 -14 -8 0 -7 -1 -26 -2 -43 -2 -28 -3 -29 -11 -7 -5
12 -11 22 -13 22 -2 0 -12 -21 -22 -47 -10 -27 -23 -51 -29 -55 -7 -5 -7 -14
1 -30 6 -13 14 -39 18 -59 4 -29 2 -38 -11 -43 -9 -3 -22 -2 -29 4 -9 8 -14 6
-18 -4 -3 -8 -15 -14 -25 -13 -17 1 -19 7 -14 39 3 24 1 38 -6 38 -6 0 -19 8
-29 19 -10 10 -28 22 -40 25 -19 6 -23 3 -23 -13 0 -15 -5 -19 -16 -14 -14 5
-15 1 -10 -25 4 -18 3 -33 -3 -37 -6 -3 -11 -14 -11 -24 0 -20 -33 -22 -52 -3
-7 7 -20 12 -31 12 -10 0 -16 4 -13 8 7 12 -21 88 -31 82 -4 -3 -7 -11 -5 -18
2 -7 -4 -15 -13 -18 -8 -3 -15 -15 -15 -26 0 -12 -11 -31 -25 -44 -14 -13 -25
-28 -25 -34 0 -14 -17 -13 -23 3 -4 10 -6 10 -6 0 -1 -9 -17 -13 -47 -13 -27
0 -43 4 -39 10 4 6 -5 7 -23 4 -27 -6 -29 -4 -30 30 -1 34 0 36 28 33 16 -2
36 -9 44 -16 10 -8 23 -10 33 -5 16 7 15 8 -4 11 -30 6 -58 44 -40 55 6 4 22
8 33 8 16 0 22 6 22 26 0 18 -4 22 -11 15 -19 -19 -37 -12 -37 14 0 18 5 25
19 25 11 0 21 -5 23 -12 3 -7 4 7 4 30 0 27 -5 42 -13 42 -6 0 -15 16 -19 35
-3 19 -10 32 -15 30 -4 -3 -4 -17 2 -32 5 -14 7 -28 4 -32 -8 -8 -25 20 -25
42 0 9 -5 17 -11 17 -8 0 -8 5 1 15 7 8 9 15 6 15 -4 0 0 10 8 22 17 24 22 53
7 44 -5 -3 -17 -23 -26 -43 -10 -21 -20 -32 -22 -25 -3 6 -11 12 -19 12 -8 0
-14 6 -14 14 0 16 -31 78 -43 87 -5 3 -8 9 -8 13 3 24 -1 36 -14 36 -8 0 -15
5 -15 11 0 5 5 7 10 4 6 -3 10 -1 10 4 0 6 -6 11 -12 11 -9 0 -8 4 2 10 13 9
13 10 0 10 -13 0 -13 1 0 11 13 9 13 10 0 6 -8 -2 -15 -8 -14 -13 1 -5 -7 -17
-17 -26 -11 -10 -19 -14 -19 -8 0 5 -7 7 -16 3 -14 -5 -14 -7 3 -17 29 -17 19
-76 -12 -76 -24 0 -45 43 -51 107 l-7 60 -60 7 c-33 3 -75 6 -94 6 -33 0 -34
-1 -29 -32 3 -18 8 -68 11 -110 l7 -78 41 -2 c23 0 53 0 65 1 15 1 21 -2 17
-8 -3 -6 -15 -11 -26 -11 -17 0 -24 -11 -20 -34 1 -5 -5 -4 -13 4 -14 10 -16
10 -16 -5 0 -11 -5 -15 -14 -12 -8 3 -17 1 -19 -6 -3 -8 -14 -3 -28 14 -28 30
-74 46 -65 23 3 -8 1 -14 -4 -14 -6 0 -10 -7 -10 -15 0 -8 -8 -15 -19 -15 -10
0 -24 -7 -31 -15 -15 -18 2 -74 30 -100 24 -22 26 -45 4 -45 -15 0 -49 27 -49
40 0 4 -8 14 -17 24 -10 10 -18 21 -18 26 0 5 -9 12 -20 15 -11 3 -20 12 -20
19 0 7 -6 13 -12 14 -39 3 -54 9 -65 22 -11 13 -12 13 -13 -2 0 -11 -8 -18
-18 -18 -10 0 -23 -5 -30 -12 -9 -9 -12 -8 -12 5 0 22 -15 22 -39 -2 -16 -16
-20 -17 -25 -5 -3 9 -2 23 3 32 14 26 18 87 5 85 -5 -1 -15 12 -21 28 -10 26
-9 29 8 29 22 0 25 16 5 35 -12 12 -15 12 -20 0 -3 -8 -11 -15 -18 -15 -9 0
-9 3 2 10 13 9 13 11 0 20 -9 6 -11 13 -5 18 14 10 37 52 28 51 -37 -6 -45 19
-12 40 12 7 67 18 123 23 64 7 105 16 113 25 18 23 24 1 36 -143 l11 -134 28
0 c24 0 27 3 23 28 -10 65 -14 116 -7 101 4 -9 15 -15 24 -14 13 2 20 -8 27
-38 l9 -42 2 65 c3 67 5 63 15 -31 5 -46 10 -58 27 -62 19 -5 20 -3 14 51 -3
31 -8 104 -10 162 -5 90 -4 99 6 63 l11 -43 88 0 89 0 1 53 c0 46 2 49 11 29
10 -20 18 -23 57 -21 40 3 46 1 46 -16 1 -11 4 -26 8 -33 5 -7 3 -12 -4 -12
-9 0 -9 -3 0 -14 9 -11 9 -15 -1 -19 -9 -4 -7 -6 4 -6 9 -1 20 4 23 9 3 6 2
10 -3 10 -16 0 -8 85 8 86 8 0 39 4 68 8 50 8 52 10 52 40 1 48 20 64 90 75
63 10 78 16 68 27 -3 3 -32 -1 -64 -9 -91 -23 -162 -27 -169 -10 -10 27 -5 33
28 33 17 0 48 5 67 11 19 6 60 16 90 24 30 7 143 36 250 64 107 28 205 51 218
51 12 0 22 5 22 11 0 7 -24 9 -69 7 -74 -3 -93 6 -84 41 5 18 1 21 -27 21 -28
0 -31 3 -26 23 4 15 1 12 -9 -8 l-15 -30 6 44 c4 31 3 42 -5 37 -6 -4 -11 -16
-11 -26 0 -10 -4 -21 -9 -25 -6 -3 -9 6 -8 21 1 19 -4 29 -22 35 -18 7 -22 6
-18 -4 3 -8 1 -20 -3 -27 -12 -19 -40 -21 -40 -4 0 9 -5 12 -10 9 -7 -4 -9 2
-4 19 4 17 2 26 -6 26 -6 0 -8 5 -5 10 3 5 1 10 -4 10 -6 0 -11 -4 -11 -10 0
-5 -5 -10 -11 -10 -6 0 -8 7 -5 16 5 14 4 15 -8 5 -22 -18 -37 -4 -31 27 5 24
4 24 -10 -5 -15 -32 -40 -48 -29 -18 4 9 0 15 -7 15 -11 0 -11 3 1 10 12 8 10
9 -7 7 -24 -3 -44 -17 -25 -17 19 0 14 -20 -5 -21 -11 0 -13 -3 -5 -6 6 -2 12
-11 12 -19 0 -12 -4 -12 -24 1 -15 10 -22 24 -21 38 2 18 -2 23 -20 22 -13 0
-27 -4 -31 -8 -5 -4 -2 -6 6 -3 8 3 22 1 30 -4 13 -9 13 -11 0 -20 -10 -6 -16
-6 -18 0 -6 17 -22 11 -23 -7 0 -11 -3 -13 -6 -5 -2 6 -12 12 -20 12 -9 0 -13
6 -10 15 4 8 2 17 -3 20 -6 4 -10 17 -10 31 0 13 -5 24 -11 24 -5 0 -7 -6 -3
-12 4 -7 -2 -4 -14 6 -24 21 -29 38 -9 30 8 -3 14 2 14 11 0 10 -6 14 -15 10
-7 -3 -32 -8 -53 -11 -24 -4 -47 -16 -57 -29 -15 -19 -18 -20 -34 -6 -20 17
-24 41 -7 41 6 0 9 -7 5 -15 -3 -8 -2 -15 3 -15 5 0 11 8 13 18 5 18 -8 36
-30 43 -9 3 -8 10 5 26 16 20 19 20 41 5 23 -15 25 -15 38 3 15 21 30 13 36
-20 2 -14 11 -20 28 -20 14 0 24 5 23 12 -2 7 8 15 21 19 18 4 22 11 18 30 -2
14 0 24 7 24 6 0 11 5 11 10 0 6 -7 10 -15 10 -8 0 -14 3 -13 8 4 12 -35 52
-50 52 -12 0 -12 3 -2 15 7 9 10 19 6 23 -4 4 -12 -1 -17 -11 -13 -22 -29 -13
-29 16 -1 20 -2 20 -11 4 -6 -9 -15 -15 -20 -11 -6 3 -16 -1 -22 -9 -7 -8 -21
-17 -32 -19 -14 -2 -21 -12 -23 -33 -4 -38 -18 -53 -34 -37 -9 9 -8 15 6 25
15 11 17 18 8 33 -6 10 -12 13 -12 7 0 -18 -35 -16 -50 2 -8 9 -21 13 -34 10
-16 -5 -18 -4 -6 4 12 8 12 13 2 23 -9 9 -15 8 -27 -8 -10 -12 -14 -14 -13 -4
2 8 -5 14 -17 15 -13 0 -19 6 -17 16 4 27 -27 32 -38 6 -7 -18 -9 -19 -9 -4
-1 14 -6 17 -21 12 -15 -5 -18 -3 -14 9 5 12 1 15 -16 13 -12 -2 -25 -9 -30
-16 -6 -10 -9 -10 -15 -1 -5 8 -11 8 -23 -3 -10 -8 -27 -18 -39 -21 -13 -4
-23 -12 -23 -17 0 -6 -4 -8 -10 -4 -5 3 -7 12 -4 19 4 10 -2 12 -20 9 -19 -4
-26 -1 -26 10 0 21 -34 27 -66 11 -34 -18 -34 -18 -34 6 0 26 -16 26 -23 0 -7
-27 -27 -25 -27 3 0 12 -5 29 -11 37 -8 12 -9 9 -5 -12 4 -16 2 -28 -3 -28 -5
0 -7 -9 -4 -20 6 -23 4 -24 -34 -10 -26 9 -27 9 -9 -5 16 -12 18 -17 7 -28
-11 -9 -14 -9 -18 1 -8 22 -20 13 -18 -13 4 -31 -9 -40 -26 -18 -12 14 -12 16
0 9 10 -7 12 -3 6 15 -9 31 -25 48 -25 27 0 -9 -9 -18 -20 -21 -14 -4 -20 0
-20 11 0 13 -3 12 -15 -4 -12 -15 -16 -16 -24 -5 -12 19 -33 4 -26 -19 3 -10
1 -21 -5 -25 -8 -5 -7 -12 2 -23 11 -13 10 -15 -4 -9 -21 7 -22 3 -7 -24 9
-18 6 -22 -21 -32 -18 -7 -28 -17 -26 -24 6 -15 -4 -16 -38 -3 -20 7 -24 6
-19 -5 3 -8 11 -15 19 -15 25 0 15 -18 -13 -25 -22 -5 -25 -8 -12 -15 10 -6
15 -22 13 -51 -3 -51 -25 -70 -38 -34 -6 14 -16 25 -24 25 -17 0 -40 23 -51
52 -8 21 -10 21 -16 5 -10 -23 10 -67 30 -67 8 0 17 -12 21 -27 3 -16 7 -33 9
-40 2 -7 0 -15 -5 -18 -6 -4 -10 2 -10 11 0 13 -3 15 -11 7 -6 -6 -18 -9 -25
-6 -17 6 -19 -13 -1 -21 9 -5 9 -7 0 -12 -7 -3 -9 -12 -6 -21 3 -8 0 -19 -8
-23 -11 -7 -10 -10 4 -16 24 -9 21 -21 -7 -26 -16 -3 -23 -1 -20 7 3 6 -3 18
-12 26 -9 8 -18 13 -18 11 -3 -10 -36 12 -36 24 0 16 -9 18 -30 5 -10 -7 -18
-4 -28 10 -8 11 -20 18 -26 16 -7 -3 -13 1 -13 9 0 17 9 18 25 2 9 -9 12 -7
12 9 0 12 -4 25 -10 28 -5 3 -10 1 -10 -6 0 -7 -10 -1 -23 12 -22 23 -22 25
-5 54 20 34 24 55 7 38 -6 -6 -17 -9 -24 -7 -7 3 -16 0 -20 -6 -3 -6 -1 -9 6
-8 6 2 14 -3 16 -9 3 -7 -2 -13 -10 -13 -8 0 -17 -9 -20 -20 -5 -21 -31 -27
-42 -10 -8 13 -35 13 -35 0 0 -5 7 -7 15 -4 19 8 19 0 0 -20 -14 -14 -19 -14
-50 1 -34 16 -50 48 -39 78 4 9 3 15 -2 14 -23 -4 -32 3 -37 30 -4 17 -14 30
-26 34 -14 3 -18 1 -14 -9 3 -8 11 -14 19 -14 8 0 14 -4 14 -10 0 -5 -7 -10
-15 -10 -8 0 -20 -10 -26 -22 -12 -22 -11 -22 8 -6 17 16 22 16 39 3 17 -13
17 -14 2 -15 -10 0 -18 -6 -18 -14 0 -12 -5 -12 -30 -3 -18 7 -28 17 -25 24 3
10 0 11 -15 3 -25 -14 -30 -13 -24 5 4 8 1 15 -5 15 -6 0 -11 -7 -11 -16 0
-11 -6 -15 -19 -11 -17 4 -18 2 -8 -20 9 -20 17 -24 42 -21 28 3 31 1 27 -19
-5 -25 -32 -32 -32 -8 0 20 -7 19 -32 -5 -22 -20 -22 -20 -1 -20 11 0 26 -7
33 -15 8 -9 8 -15 2 -15 -6 0 -14 -9 -17 -20 -3 -11 -14 -20 -22 -20 -30 0 -7
-9 37 -15 48 -6 60 -12 43 -23 -7 -4 -14 -37 -17 -74 l-5 -67 54 -6 c30 -4 61
-5 69 -2 8 3 16 2 18 -4 2 -5 26 -11 53 -13 28 -2 65 -7 82 -10 75 -14 93 -15
93 -6 0 6 -9 10 -20 10 -13 0 -18 5 -14 15 5 12 16 14 46 11 28 -4 38 -2 35 7
-2 7 -17 11 -35 9 -18 -2 -32 -1 -32 3 0 15 26 31 45 27 18 -5 19 -4 5 13 -14
17 -13 17 20 10 38 -8 71 -24 82 -40 9 -12 10 -31 2 -22 -11 10 -46 -14 -41
-28 3 -7 1 -17 -5 -23 -33 -33 191 -35 362 -3 l115 21 18 -21 c21 -26 23 -79
3 -79 -15 0 -29 27 -21 40 3 4 -7 16 -22 25 -25 17 -26 17 -37 -1 -6 -10 -17
-35 -23 -54 -13 -35 -13 -35 -8 15 3 28 2 46 -2 40 -9 -11 -17 -13 -71 -19
-20 -2 -71 -8 -112 -14 -41 -5 -93 -9 -115 -8 -37 1 -40 -1 -43 -26 -2 -16 -8
-28 -13 -28 -5 0 -8 12 -7 27 3 27 1 28 -72 40 -41 7 -96 16 -122 19 -46 5
-48 5 -48 -19 0 -14 6 -28 13 -30 27 -11 -64 -6 -300 18 -137 13 -349 34 -472
45 -540 50 -613 59 -776 99 -115 28 -163 36 -173 29 -16 -14 -87 -13 -227 1
-60 6 -159 16 -220 21 -60 6 -120 13 -132 15 -13 3 -23 2 -23 -2 0 -8 39 -24
248 -98 67 -24 127 -47 132 -50 13 -8 309 -34 970 -85 283 -22 692 -56 907
-74 l393 -34 382 44 c211 25 459 54 553 65 200 23 244 23 238 -2 -4 -13 -21
-18 -76 -23 -40 -4 -232 -25 -427 -47 -706 -78 -620 -74 -1017 -45 -191 15
-485 38 -653 51 -168 14 -440 34 -605 45 -397 27 -648 48 -671 57 -17 6 -18 5
-4 -9 9 -8 30 -23 47 -32 18 -9 38 -25 46 -36 8 -12 21 -18 29 -15 8 3 35 1
59 -4 24 -6 145 -15 268 -22 188 -10 225 -9 232 2 5 8 9 9 9 4 0 -6 16 -9 37
-7 21 2 69 -1 108 -5 l70 -8 -2 -45 -2 -45 10 52 c9 47 13 52 29 43 10 -6 44
-10 74 -10 31 0 98 -6 149 -14 50 -8 148 -17 217 -20 186 -9 442 -36 470 -49
38 -17 50 -28 44 -39 -4 -6 -10 -5 -15 3 -8 11 -11 11 -20 -4 -7 -11 -17 -16
-29 -12 -25 8 -33 -29 -14 -73 17 -41 16 -42 -22 -45 -27 -3 -29 -6 -26 -37 3
-22 14 -46 33 -64 30 -30 44 -91 15 -67 -12 10 -19 8 -36 -9 -28 -28 -13 -55
37 -68 34 -9 35 -10 10 -11 -23 -1 -27 -5 -22 -20 4 -15 -4 -23 -40 -41 -25
-12 -45 -28 -45 -36 0 -8 -4 -14 -9 -14 -5 0 -7 10 -3 22 3 14 1 19 -6 14 -6
-3 -12 1 -14 10 -3 14 -6 14 -28 -5 -24 -20 -24 -20 -3 -21 16 0 20 -5 16 -21
-4 -15 -8 -17 -14 -8 -9 14 -15 4 -21 -35 -3 -18 -4 -18 -19 -3 -9 9 -20 13
-24 9 -4 -4 -6 5 -3 20 5 25 3 26 -16 16 -17 -9 -19 -8 -8 3 19 21 14 31 -10
18 -22 -12 -23 -11 -5 8 16 18 16 21 2 27 -9 3 -18 -1 -22 -10 -4 -11 -8 -12
-13 -4 -5 8 -11 6 -19 -4 -11 -13 -9 -17 13 -26 17 -6 24 -14 20 -24 -4 -10
-9 -12 -17 -5 -7 5 -21 16 -32 23 -16 11 -17 17 -7 29 13 16 12 52 -1 75 -9
13 -27 7 -27 -9 0 -6 4 -8 9 -5 5 3 11 0 14 -8 11 -28 -29 -24 -48 4 -16 24
-21 26 -32 14 -8 -8 -12 -18 -9 -23 3 -5 -3 -7 -14 -4 -23 6 -25 1 -9 -30 9
-18 9 -20 -2 -9 -7 6 -21 12 -31 12 -10 0 -18 5 -18 11 0 5 -4 8 -9 5 -5 -3
-11 3 -14 15 -5 20 -6 20 -33 2 -26 -17 -28 -17 -21 0 10 26 -12 21 -35 -9
-16 -20 -23 -23 -29 -12 -7 10 -11 7 -15 -9 -6 -23 -34 -33 -34 -12 0 5 4 7
10 4 6 -3 10 4 10 16 0 18 -2 19 -15 9 -9 -7 -15 -8 -15 -2 0 5 -9 8 -20 5
-25 -7 -26 12 -2 27 13 9 14 12 3 17 -7 3 -22 16 -34 29 -11 13 -24 21 -29 18
-5 -3 -15 0 -23 6 -12 10 -15 10 -15 -1 0 -10 -3 -10 -8 -3 -12 19 -55 9 -76
-19 -17 -23 -17 -28 -5 -44 13 -17 13 -17 -7 0 -12 10 -28 15 -38 11 -11 -4
-16 -1 -17 12 0 11 -3 14 -6 7 -2 -7 -14 -13 -26 -13 -16 0 -18 -3 -9 -12 7
-7 12 -15 12 -18 0 -15 -38 -50 -54 -50 -9 0 -16 -8 -16 -18 0 -10 -13 -23
-31 -31 -21 -9 -28 -18 -24 -29 3 -8 -2 -23 -11 -33 -9 -10 -14 -26 -10 -34 4
-11 2 -15 -6 -13 -7 3 -13 10 -13 16 0 5 -3 14 -7 18 -5 4 -8 0 -8 -8 0 -9 -7
-18 -15 -22 -9 -3 -15 0 -15 10 0 11 -6 13 -20 9 -11 -4 -20 -2 -20 4 0 6 11
11 25 11 14 0 25 4 25 9 0 23 -14 41 -32 41 -12 0 -16 4 -12 11 4 7 1 10 -7 7
-8 -3 -13 -11 -11 -17 1 -7 -2 -10 -8 -6 -5 3 -10 16 -10 28 0 16 -3 18 -9 9
-7 -11 -9 -11 -14 1 -3 8 -19 16 -36 19 -16 2 -28 1 -25 -4 3 -4 -2 -8 -10 -8
-9 0 -13 6 -10 14 3 8 -13 31 -38 55 -34 32 -57 43 -110 56 -61 14 -71 14
-110 -1 -24 -8 -51 -18 -60 -21 -10 -3 -18 -9 -18 -15 0 -5 -8 -18 -18 -28
-10 -11 -24 -42 -31 -70 -11 -42 -16 -49 -34 -46 -25 4 -30 39 -14 91 5 17 10
39 12 50 2 11 11 47 21 80 9 33 18 82 20 109 2 28 6 61 10 75 3 15 7 42 8 61
1 19 6 52 10 72 13 59 -8 45 -23 -15 -26 -105 -34 -128 -44 -118 -8 8 27 284
39 303 7 11 -19 10 -48 -1 -22 -8 -25 -19 -45 -172 -12 -90 -22 -171 -21 -179
0 -8 -3 -24 -8 -34 -5 -14 -4 -17 4 -12 9 6 11 -27 6 -137 -4 -95 -3 -150 4
-164 9 -15 8 -20 -4 -20 -7 0 -14 4 -14 9 0 4 -5 8 -11 8 -7 0 -10 -12 -7 -30
3 -17 0 -30 -5 -30 -5 0 -7 16 -5 35 2 19 -1 36 -7 39 -6 2 -6 8 3 17 17 18
15 32 -3 25 -20 -7 -19 4 3 20 14 11 14 13 2 14 -13 0 -13 1 0 10 13 8 13 10
-2 10 -13 0 -16 9 -14 43 2 30 -2 44 -10 44 -7 0 -12 -5 -11 -10 1 -5 -4 -12
-11 -14 -9 -4 -10 1 -2 22 6 15 7 31 4 36 -7 13 26 50 37 43 14 -8 11 9 -6 32
-16 23 -11 34 16 34 11 0 19 10 23 28 15 77 47 314 43 318 -3 3 -16 2 -30 -1
-27 -7 -29 -15 -58 -245 -14 -111 -34 -150 -26 -50 3 36 1 76 -3 90 -4 14 -9
18 -9 10 -1 -13 -3 -13 -10 -1 -8 12 -11 8 -16 -15 -18 -79 -26 -104 -37 -110
-7 -4 -8 -3 -4 4 4 7 2 12 -3 12 -15 0 -14 -83 1 -98 9 -9 9 -12 0 -12 -7 0
-12 -6 -12 -14 0 -8 -5 -16 -11 -18 -6 -2 -12 -20 -12 -39 -1 -37 -8 -40 -56
-25 -15 5 -26 4 -31 -4 -4 -7 -13 -9 -19 -6 -6 4 -9 11 -6 16 3 5 7 21 9 37
11 70 19 109 26 118 12 16 -1 77 -15 71 -22 -8 -23 2 -9 77 14 70 7 104 -15
81 -7 -7 -51 -222 -51 -250 0 -3 11 -4 25 -2 22 5 24 3 18 -21 -4 -14 -7 -47
-7 -73 1 -41 -2 -48 -18 -48 -11 0 -18 -5 -16 -12 7 -20 -20 -40 -42 -33 -15
5 -26 0 -40 -17 l-19 -23 -1 23 c0 12 5 22 11 22 6 0 9 6 6 13 -3 7 1 24 9 38
17 31 17 39 0 39 -12 0 -30 -34 -27 -52 1 -5 -8 -8 -20 -8 -14 0 -18 4 -12 12
4 7 6 23 5 35 -2 12 6 73 17 137 26 144 26 139 -4 134 -14 -3 -25 -2 -25 3 0
4 12 9 28 11 19 2 27 9 27 23 0 11 6 26 13 34 7 7 11 15 10 17 -7 7 -164 6
-182 -2 -16 -6 -17 -4 -11 17 4 13 15 31 25 39 16 14 145 167 198 234 27 35
21 49 -7 15 -11 -13 -20 -19 -21 -13 0 7 -7 11 -16 10 -9 0 -19 5 -21 12 -3 8
1 10 13 5 12 -4 15 -3 10 5 -4 7 -1 12 8 12 19 0 22 20 4 20 -8 1 -7 5 4 13 9
7 16 22 15 32 -2 15 5 20 23 20 29 1 74 28 63 38 -3 4 1 7 10 7 9 0 25 9 36
21 11 12 24 18 30 14 19 -11 12 14 -11 40 -20 23 -23 24 -39 9 -10 -9 -30 -14
-51 -12 -36 3 -37 23 0 23 12 -1 22 4 22 11 0 6 9 22 19 36 12 14 18 33 15 45
-3 10 1 25 9 31 11 10 16 7 26 -14 13 -29 44 -30 49 -1 2 11 -6 20 -23 27 -14
5 -23 14 -20 20 10 16 -14 50 -30 44 -8 -4 -15 -2 -15 3 0 6 -20 10 -45 11
-31 0 -43 -3 -38 -11 4 -6 -7 -1 -24 11 -25 18 -36 20 -56 13 -14 -6 -28 -15
-32 -21 -6 -9 -10 -9 -16 1 -7 11 -9 11 -9 1 0 -8 -21 -2 -59 18 -46 24 -64
29 -78 21 -12 -6 -25 -6 -34 0 -24 15 -46 10 -52 -11 -4 -16 -12 -19 -45 -16
-41 3 -66 -16 -36 -28 8 -3 14 -10 14 -16 0 -6 8 -19 17 -28 16 -16 15 -17 -4
-20 -12 -2 -36 3 -55 11 -29 12 -36 12 -56 -1 -28 -19 -28 -32 1 -32 15 0 18
-3 9 -9 -7 -4 -12 -14 -10 -22 2 -8 -7 -15 -20 -17 -23 -4 -46 -34 -34 -47 4
-4 -2 -5 -14 -1 -11 3 -28 0 -40 -9 -10 -8 -27 -15 -36 -15 -10 0 -18 -5 -18
-10 0 -6 -14 -19 -32 -30 -31 -19 -32 -19 -56 1 -29 23 -50 24 -76 4 -11 -8
-29 -15 -40 -15 -17 0 -18 -2 -6 -10 8 -5 25 -10 38 -10 12 0 22 -4 22 -9 0
-12 -45 -22 -64 -15 -12 4 -15 2 -10 -9 7 -20 87 -26 126 -10 23 10 34 10 44
2 21 -17 17 -29 -11 -29 -14 0 -25 -4 -25 -10 0 -5 -5 -10 -11 -10 -5 0 -7 4
-4 10 3 6 -1 7 -9 4 -21 -8 -20 -11 5 -25 17 -9 23 -8 30 2 7 11 9 11 9 -2 0
-9 10 -21 23 -28 l22 -11 -23 6 c-15 3 -22 1 -20 -6 2 -7 -3 -15 -9 -17 -7 -3
-13 0 -13 6 0 6 -8 11 -17 11 -14 0 -15 2 -5 9 11 6 10 9 -5 13 -27 7 -43 -1
-43 -24 0 -15 -4 -18 -17 -12 -10 4 -28 8 -39 8 -12 1 -19 6 -17 13 6 15 33
25 33 13 0 -17 22 -11 41 12 24 27 24 31 0 18 -26 -13 -52 -14 -31 0 12 8 10
10 -11 10 -14 0 -34 7 -45 16 -10 8 -12 12 -4 8 13 -7 13 -5 2 8 -13 16 -56
13 -46 -3 3 -5 -9 -9 -25 -9 -17 0 -31 -4 -31 -10 0 -5 11 -10 24 -10 34 0 56
-10 56 -26 0 -8 6 -11 15 -8 8 4 15 1 15 -5 0 -15 -14 -13 -80 8 -30 10 -57
16 -60 12 -3 -3 -16 -7 -30 -8 l-25 -3 24 14 c20 11 21 14 6 19 -25 10 -65 8
-65 -3 0 -5 7 -10 15 -10 8 0 15 -4 15 -8 0 -4 -19 -8 -43 -7 l-42 0 -1 -127
c-1 -86 2 -128 9 -128 7 0 7 -4 -1 -12 -8 -8 -12 -45 -12 -100 0 -92 2 -96 45
-79 21 8 85 -15 85 -31 0 -5 -13 -2 -28 6 -26 13 -33 13 -65 -2 l-36 -17 -1
-258 0 -258 22 6 c17 6 20 4 15 -9 -4 -9 -2 -16 3 -16 6 0 10 -4 10 -10 0 -5
-7 -10 -15 -10 -8 0 -15 5 -15 10 0 6 -4 10 -10 10 -6 0 -10 -37 -10 -90 l0
-91 37 5 38 5 -37 -11 -38 -12 0 -68 c0 -48 4 -68 13 -68 6 0 66 9 132 19 132
22 447 61 680 86 431 45 717 67 585 45 -91 -16 -218 -30 -315 -36 -55 -4 -103
-8 -107 -10 -3 -2 -57 -9 -120 -15 -113 -10 -140 -14 -318 -43 -88 -15 -203
-30 -405 -56 -44 -5 -95 -12 -113 -15 l-32 -6 0 -129 0 -130 3750 0 3750 0 0
811 c0 736 -1 811 -16 805 -9 -3 -23 -6 -33 -6 -11 0 -61 -58 -131 -151 -97
-129 -112 -154 -102 -169 11 -17 172 -610 172 -632 0 -6 -7 -5 -15 2 -11 9
-15 9 -15 1 0 -6 6 -14 14 -17 8 -3 15 -13 14 -22 0 -9 3 -28 7 -42 l6 -25
-13 23 c-8 12 -17 19 -22 15 -4 -4 -4 0 -1 9 3 8 -3 33 -14 54 -23 43 -26 59
-10 49 7 -5 9 3 7 21 -2 18 -8 28 -16 26 -8 -1 -11 2 -8 7 4 5 2 11 -3 13 -14
5 -221 783 -221 831 0 13 9 17 43 17 35 0 46 5 66 30 27 35 43 37 93 10 l37
-19 51 22 c28 13 48 26 44 30 -4 4 2 7 13 7 12 0 23 -7 27 -15 24 -64 26 34
24 1128 -2 628 -7 1150 -12 1160 -4 9 -13 17 -18 17 -16 0 -93 87 -111 123
-19 41 -31 68 -61 145 -14 35 -39 79 -56 98 -16 19 -30 39 -30 44 0 6 -6 10
-13 10 -14 0 -47 35 -47 50 0 11 -8 21 -70 90 -22 24 -40 52 -40 62 0 9 -15
34 -32 54 -22 24 -29 39 -20 42 6 2 12 8 12 13 0 6 -5 7 -12 3 -8 -5 -9 -2 -4
11 7 20 -18 55 -41 55 -7 0 -13 7 -13 15 0 8 -4 15 -9 15 -5 0 -13 14 -16 32
-4 18 -18 40 -30 50 -13 10 -26 30 -30 45 -13 52 -16 53 -196 53 l-168 0 4
-95z m551 -1692 c-10 -10 -19 5 -10 18 6 11 8 11 12 0 2 -7 1 -15 -2 -18z m27
-33 c3 -13 0 -20 -9 -20 -8 0 -14 9 -14 20 0 11 4 20 9 20 5 0 11 -9 14 -20z
m71 -280 c-2 -20 0 -28 9 -24 18 7 56 -48 63 -93 11 -70 16 -173 7 -173 -4 1
-19 24 -33 51 -22 47 -23 52 -7 60 21 12 22 33 1 54 -10 9 -15 27 -12 44 4 26
2 28 -31 27 -43 -1 -51 19 -21 57 12 15 23 27 24 27 2 0 2 -13 0 -30z m156
-429 c0 -28 -25 -33 -26 -5 -1 15 4 24 12 24 8 0 14 -9 14 -19z m27 -142 c-3
-10 -1 -19 4 -19 5 0 9 -7 9 -15 0 -28 -26 -15 -52 25 -25 37 -25 39 -7 45 10
4 19 12 19 18 0 6 7 1 16 -11 9 -13 14 -32 11 -43z m-27 -135 c0 -9 -5 -12
-12 -8 -7 5 -9 2 -5 -9 4 -11 2 -14 -9 -10 -17 6 -19 30 -1 36 21 9 27 7 27
-9z m27 -6 c-3 -8 -6 -5 -6 6 -1 11 2 17 5 13 3 -3 4 -12 1 -19z m-2142 -148
c3 -6 -1 -7 -9 -4 -18 7 -21 14 -7 14 6 0 13 -4 16 -10z m-1039 -26 c-5 -14
-9 -15 -19 -5 -9 9 -9 14 3 21 18 11 24 6 16 -16z m-2881 6 c-3 -5 -12 -10
-18 -10 -7 0 -6 4 3 10 19 12 23 12 15 0z m-488 -76 c-3 -3 -12 -4 -19 -1 -8
3 -5 6 6 6 11 1 17 -2 13 -5z m6663 -84 c0 -3 -11 -7 -25 -8 -16 -1 -25 3 -25
13 0 18 16 20 23 3 3 -7 6 -4 6 7 1 17 3 17 11 5 5 -8 10 -17 10 -20z m-3773
-29 c-10 -4 -27 17 -27 33 0 5 8 1 19 -10 10 -10 14 -21 8 -23z m-2907 -16 c0
-1 -11 -5 -25 -7 -20 -4 -23 -2 -14 8 8 10 39 10 39 -1z m4713 -5 c3 -11 1
-23 -4 -26 -5 -3 -9 -1 -9 5 0 5 -3 16 -6 25 -3 9 -2 16 4 16 5 0 12 -9 15
-20z m824 14 c-3 -3 -12 -4 -19 -1 -8 3 -5 6 6 6 11 1 17 -2 13 -5z m-5657
-24 c8 -14 8 -20 0 -20 -15 0 -41 26 -33 34 11 11 22 6 33 -14z m2850 10 c0
-5 -4 -10 -10 -10 -5 0 -10 5 -10 10 0 6 5 10 10 10 6 0 10 -4 10 -10z m166
-5 c7 -18 -22 -50 -31 -34 -4 6 -14 8 -22 5 -8 -3 -11 -1 -8 4 3 6 0 10 -7 10
-16 0 31 28 50 29 7 1 15 -6 18 -14z m1857 -5 c-8 -31 -20 -33 -25 -5 -4 19
-1 25 12 25 13 0 17 -6 13 -20z m-4833 -34 c0 -12 -5 -7 -19 24 -11 24 -11 24
3 6 9 -11 16 -24 16 -30z m113 38 c3 -4 -1 -13 -9 -21 -17 -18 -29 -11 -21 12
7 16 19 20 30 9z m115 -29 c-1 -13 -6 -21 -10 -17 -5 5 -6 16 -2 25 9 24 14
21 12 -8z m6441 -6 c13 -39 14 -49 2 -49 -5 0 -13 18 -19 40 -12 47 1 54 17 9z
m-6929 11 c0 -5 -5 -10 -11 -10 -5 0 -7 5 -4 10 3 6 8 10 11 10 2 0 4 -4 4
-10z m574 4 c13 -5 14 -9 5 -20 -13 -16 -29 -9 -29 12 0 16 2 16 24 8z m2566
-4 c0 -5 -2 -10 -4 -10 -3 0 -8 5 -11 10 -3 6 -1 10 4 10 6 0 11 -4 11 -10z
m203 -4 c9 -7 17 -19 17 -27 0 -10 -3 -10 -12 -1 -17 17 -39 15 -32 -3 4 -8
12 -15 19 -15 7 0 15 -7 19 -15 8 -23 23 -18 30 11 5 19 12 25 29 22 25 -3 37
-38 13 -38 -10 0 -13 6 -9 18 6 15 5 15 -10 4 -12 -10 -14 -19 -7 -38 5 -13 6
-24 2 -24 -23 1 -52 14 -52 25 0 6 -18 17 -40 24 -22 6 -40 16 -40 21 0 14 13
12 29 -2 11 -11 13 -10 7 0 -8 13 1 52 12 52 4 0 15 -7 25 -14z m1624 8 c-3
-3 -12 -4 -19 -1 -8 3 -5 6 6 6 11 1 17 -2 13 -5z m-4557 -14 c0 -5 -2 -10 -4
-10 -3 0 -8 5 -11 10 -3 6 -1 10 4 10 6 0 11 -4 11 -10z m2647 -22 c-3 -7 -5
-2 -5 12 0 14 2 19 5 13 2 -7 2 -19 0 -25z m2623 22 c0 -5 -8 -10 -17 -10 -15
0 -16 2 -3 10 19 12 20 12 20 0z m1056 -27 c4 -16 12 -31 18 -35 7 -5 5 -8 -6
-8 -19 0 -23 5 -32 43 -4 16 -2 27 4 27 5 0 13 -12 16 -27z m-6656 2 c0 -9 -9
-15 -22 -15 -22 1 -23 1 -4 15 25 19 26 19 26 0z m2944 0 c3 -8 1 -15 -3 -15
-5 0 -11 7 -15 15 -3 8 -1 15 3 15 5 0 11 -7 15 -15z m3598 -21 c6 -18 19 -35
27 -37 9 -3 -1 -5 -21 -6 -21 0 -38 3 -38 8 0 5 -3 22 -6 38 -8 43 22 40 38
-3z m-6152 16 c0 -5 -2 -10 -4 -10 -3 0 -8 5 -11 10 -3 6 -1 10 4 10 6 0 11
-4 11 -10z m4700 -5 c7 -9 10 -18 7 -21 -10 -10 -47 7 -47 22 0 19 24 18 40
-1z m673 -9 c12 -9 14 -16 8 -21 -6 -3 -11 -2 -11 3 0 5 -10 8 -21 8 -12 -1
-24 5 -26 12 -6 16 27 15 50 -2z m-618 -14 c-3 -3 -11 0 -18 7 -9 10 -8 11 6
5 10 -3 15 -9 12 -12z m66 9 c-8 -5 -11 -16 -6 -30 3 -11 2 -21 -3 -21 -9 0
-13 26 -6 48 2 6 9 12 16 12 10 0 10 -2 -1 -9z m-2101 -8 c0 -5 -4 -14 -9 -21
-7 -11 -9 -11 -14 1 -3 8 -3 18 0 21 9 8 23 7 23 -1z m-2610 -23 c0 -11 -4
-20 -9 -20 -5 0 -7 9 -4 20 3 11 7 20 9 20 2 0 4 -9 4 -20z m2634 -5 c-4 -8
-11 -12 -18 -9 -6 3 -3 -1 7 -9 11 -9 17 -25 15 -39 -3 -22 -4 -21 -21 10 -14
25 -15 37 -7 52 12 23 32 18 24 -5z m1942 8 c8 -11 13 -13 14 -5 0 16 20 16
20 -1 0 -16 -30 -19 -47 -4 -14 10 -17 27 -7 27 4 0 13 -8 20 -17z m535 0 c12
-15 12 -16 -3 -10 -9 3 -19 1 -21 -6 -3 -7 -4 -2 -4 11 1 26 10 28 28 5z
m-2506 -59 c22 -47 17 -55 -6 -11 -18 34 -22 37 -32 22 -16 -21 -42 -11 -45
19 -1 22 0 22 33 12 24 -7 40 -21 50 -42z m265 41 c0 -8 -4 -15 -10 -15 -5 0
-7 7 -4 15 4 8 8 15 10 15 2 0 4 -7 4 -15z m2390 -10 c-12 -15 -30 -12 -30 6
0 5 10 9 21 9 18 0 19 -2 9 -15z m-5230 -17 c0 -19 -2 -20 -10 -8 -13 19 -13
30 0 30 6 0 10 -10 10 -22z m-917 -36 c15 -2 27 -11 27 -18 0 -18 -18 -18 -36
1 -9 8 -24 15 -35 15 -10 0 -19 5 -19 11 0 7 7 8 18 4 9 -4 29 -10 45 -13z
m3581 12 c16 -6 11 -34 -6 -34 -6 0 -7 7 -4 16 4 12 2 15 -9 10 -8 -3 -15 -1
-15 4 0 11 11 13 34 4z m-2809 -37 c0 -8 4 -19 8 -23 4 -4 7 -12 7 -18 0 -5
-6 -1 -14 9 -8 11 -12 24 -9 29 3 4 -1 13 -8 18 -12 8 -11 9 1 5 8 -2 15 -11
15 -20z m-822 -19 c-2 -5 -10 -8 -18 -8 -8 0 -16 3 -18 8 -3 4 5 7 18 7 13 0
21 -3 18 -7z m6184 -4 c-3 -3 -12 -4 -19 -1 -8 3 -5 6 6 6 11 1 17 -2 13 -5z
m-5222 -34 c-3 -5 -10 -10 -16 -10 -5 0 -9 5 -9 10 0 6 7 10 16 10 8 0 12 -4
9 -10z m3525 -11 c0 -5 -4 -9 -10 -9 -5 0 -10 7 -10 16 0 8 5 12 10 9 6 -3 10
-10 10 -16z m-4372 -10 c-18 -12 -25 -11 -31 4 -4 10 2 13 20 9 18 -3 21 -7
11 -13z m702 11 c0 -5 -4 -10 -10 -10 -5 0 -10 5 -10 10 0 6 5 10 10 10 6 0
10 -4 10 -10z m-780 -11 c0 -6 -7 -8 -16 -5 -9 4 -24 1 -33 -6 -14 -12 -14
-11 -2 5 15 19 51 23 51 6z m840 -9 c0 -11 -4 -20 -10 -20 -5 0 -10 9 -10 20
0 11 5 20 10 20 6 0 10 -9 10 -20z m1623 3 c-7 -2 -19 -2 -25 0 -7 3 -2 5 12
5 14 0 19 -2 13 -5z m1173 -19 c18 -14 18 -14 -6 -3 -31 14 -36 19 -24 19 6 0
19 -7 30 -16z m-3571 -4 c3 -5 -1 -10 -9 -10 -9 0 -16 5 -16 10 0 6 4 10 9 10
6 0 13 -4 16 -10z m2688 3 c-7 -2 -21 -2 -30 0 -10 3 -4 5 12 5 17 0 24 -2 18
-5z m-2792 -28 c-1 -15 -24 -12 -29 3 -3 9 2 13 12 10 10 -1 17 -7 17 -13z
m977 -25 c-14 -43 -28 -47 -15 -5 6 19 14 35 18 35 4 0 3 -14 -3 -30z m-328
16 c0 -3 -4 -8 -10 -11 -5 -3 -10 -1 -10 4 0 6 5 11 10 11 6 0 10 -2 10 -4z
m2568 -3 c-10 -2 -26 -2 -35 0 -10 3 -2 5 17 5 19 0 27 -2 18 -5z m255 -20
c-7 -2 -19 -2 -25 0 -7 3 -2 5 12 5 14 0 19 -2 13 -5z m452 -13 c-10 -11 -22
-20 -27 -20 -5 0 -4 9 2 20 6 11 18 20 27 20 14 0 14 -2 -2 -20z m-382 3 c-7
-2 -21 -2 -30 0 -10 3 -4 5 12 5 17 0 24 -2 18 -5z m-880 -10 c-7 -2 -21 -2
-30 0 -10 3 -4 5 12 5 17 0 24 -2 18 -5z m4362 -20 c-4 -10 -7 -29 -7 -43 l2
-25 -11 25 c-18 43 -20 62 -4 56 8 -3 15 0 15 6 0 6 3 9 6 5 4 -3 3 -14 -1
-24z m-6925 8 c0 -13 -27 -21 -45 -15 -8 4 -12 10 -9 15 7 12 54 12 54 0z
m275 -91 c3 -5 1 -10 -4 -10 -6 0 -11 5 -11 10 0 6 2 10 4 10 3 0 8 -4 11 -10z
m135 -11 c0 -5 4 -8 9 -4 5 3 12 1 15 -4 3 -5 -2 -12 -11 -15 -9 -4 -20 -1
-25 6 -11 18 -10 28 2 28 6 0 10 -5 10 -11z m256 1 c13 0 24 -4 24 -9 0 -7
-19 -7 -95 -1 -5 0 -3 5 5 10 8 5 21 8 28 5 8 -3 25 -5 38 -5z m2966 -145 l3
-120 70 0 70 0 6 105 c3 58 6 95 7 83 1 -13 9 -23 17 -23 8 0 24 -9 35 -20 26
-26 46 -25 61 2 12 22 12 22 19 3 4 -11 11 -105 15 -208 7 -172 6 -190 -10
-207 -11 -12 -13 -20 -7 -20 7 0 12 -5 12 -11 0 -6 -9 -8 -21 -4 -15 5 -19 4
-15 -4 4 -6 3 -11 -3 -11 -6 0 -13 11 -17 24 -10 43 -51 44 -69 3 -7 -16 -20
-23 -45 -25 -25 -2 -31 0 -21 7 12 8 12 12 3 24 -10 12 -18 13 -37 3 -14 -6
-23 -17 -20 -24 3 -7 0 -10 -6 -7 -6 4 -8 14 -5 22 11 27 -39 52 -56 28 -5 -7
-8 -7 -9 0 -2 31 -9 49 -21 57 -10 8 -9 9 3 5 9 -3 21 -1 27 5 7 7 14 4 21
-11 14 -26 22 -26 50 -2 25 22 19 47 -12 57 -12 4 -27 15 -34 24 -17 24 -50
31 -57 13 -3 -8 -10 -12 -15 -9 -5 3 -35 1 -66 -5 -32 -6 -61 -7 -65 -2 -12
12 0 63 15 63 10 0 35 40 35 55 0 3 -10 5 -23 5 -12 0 -28 9 -35 21 -11 17
-11 25 3 45 14 21 14 24 0 24 -22 0 -18 27 5 40 19 10 20 8 20 -53 l0 -64 75
-2 75 -2 0 127 c0 164 18 155 22 -11z m561 89 c-2 -7 4 -14 14 -17 10 -3 5 -5
-13 -6 -38 -1 -54 25 -27 44 19 14 35 2 26 -21z m-733 -22 c0 -18 -18 -42 -31
-42 -5 0 -3 14 2 30 12 33 29 40 29 12z m-2982 1 c-10 -2 -26 -2 -35 0 -10 3
-2 5 17 5 19 0 27 -2 18 -5z m5 -36 c6 -16 -25 -19 -34 -4 -4 5 -10 0 -14 -12
-3 -11 -13 -21 -21 -21 -17 0 -17 5 -4 31 12 22 65 26 73 6z m387 3 c0 -5 -4
-10 -10 -10 -5 0 -10 5 -10 10 0 6 5 10 10 10 6 0 10 -4 10 -10z m-950 -30 c0
-5 -2 -10 -4 -10 -3 0 -8 5 -11 10 -3 6 -1 10 4 10 6 0 11 -4 11 -10z m110
-10 c0 -5 -5 -10 -11 -10 -5 0 -7 5 -4 10 3 6 8 10 11 10 2 0 4 -4 4 -10z
m4842 -32 c6 -13 5 -18 -7 -18 -10 0 -15 10 -14 33 0 17 3 25 6 17 3 -8 10
-23 15 -32z m-4162 2 c-14 -11 -34 -20 -46 -20 -11 0 -26 -6 -32 -12 -10 -10
-15 -10 -22 2 -5 8 -10 23 -10 33 0 14 10 17 68 17 l67 0 -25 -20z m4117 -22
c-3 -8 -6 -5 -6 6 -1 11 2 17 5 13 3 -3 4 -12 1 -19z m193 2 c0 -5 -5 -10 -11
-10 -5 0 -7 5 -4 10 3 6 8 10 11 10 2 0 4 -4 4 -10z m-142 -54 c-7 -8 -15 -12
-17 -11 -5 6 10 25 20 25 5 0 4 -6 -3 -14z m74 -8 c-7 -7 -12 -8 -12 -2 0 14
12 26 19 19 2 -3 -1 -11 -7 -17z m-3412 2 c0 -5 -5 -10 -11 -10 -5 0 -7 5 -4
10 3 6 8 10 11 10 2 0 4 -4 4 -10z m3455 -30 c3 -5 1 -10 -4 -10 -6 0 -11 5
-11 10 0 6 2 10 4 10 3 0 8 -4 11 -10z m45 -10 c0 -5 -4 -10 -10 -10 -5 0 -10
5 -10 10 0 6 5 10 10 10 6 0 10 -4 10 -10z m-260 -73 c0 -5 -7 -4 -15 3 -8 7
-15 20 -15 29 1 13 3 13 15 -3 8 -11 15 -24 15 -29z m320 3 c0 -5 -4 -10 -10
-10 -5 0 -10 5 -10 10 0 6 5 10 10 10 6 0 10 -4 10 -10z m1015 0 c3 -6 -1 -7
-9 -4 -18 7 -21 14 -7 14 6 0 13 -4 16 -10z m-2741 -15 c3 -8 1 -15 -3 -15 -5
0 -11 7 -15 15 -3 8 -1 15 3 15 5 0 11 -7 15 -15z m1581 5 c3 -5 1 -10 -4 -10
-6 0 -11 5 -11 10 0 6 2 10 4 10 3 0 8 -4 11 -10z m185 0 c0 -5 -5 -10 -11
-10 -5 0 -7 5 -4 10 3 6 8 10 11 10 2 0 4 -4 4 -10z m-435 -21 c11 -17 -1 -21
-15 -4 -8 9 -8 15 -2 15 6 0 14 -5 17 -11z m-3785 -3 c0 -2 -7 -6 -15 -10 -8
-3 -15 -1 -15 4 0 6 7 10 15 10 8 0 15 -2 15 -4z m3983 -17 c4 -15 2 -17 -13
-9 -9 5 -20 7 -23 4 -8 -8 -107 6 -107 16 0 4 31 8 69 8 60 1 70 -2 74 -19z
m-2371 -39 c5 0 8 7 4 15 -3 9 0 15 8 15 17 0 29 -35 26 -75 -3 -42 -28 -87
-43 -78 -7 4 -5 -2 3 -12 13 -16 13 -18 0 -13 -10 3 -14 17 -13 38 1 19 -2 29
-5 23 -6 -9 -22 -10 -85 -5 -12 1 -15 6 -10 15 4 6 6 19 5 28 -2 11 7 18 28
22 21 5 34 15 41 34 9 25 12 26 20 11 6 -10 15 -18 21 -18z m2203 20 c3 -5 -1
-10 -10 -10 -9 0 -13 5 -10 10 3 6 8 10 10 10 2 0 7 -4 10 -10z m345 -16 c0
-2 -7 -4 -15 -4 -8 0 -15 4 -15 10 0 5 7 7 15 4 8 -4 15 -8 15 -10z m-4146
-28 c-6 -16 -24 -23 -24 -8 0 10 22 33 27 28 2 -2 1 -11 -3 -20z m2611 -12
c-33 -31 -36 -30 -22 5 7 20 15 27 29 23 17 -4 16 -7 -7 -28z m-2305 16 c0 -5
-2 -10 -4 -10 -3 0 -8 5 -11 10 -3 6 -1 10 4 10 6 0 11 -4 11 -10z m3502 -25
c-3 -21 -10 -35 -18 -35 -15 0 -17 12 -8 48 10 37 31 27 26 -13z m-295 18 c-4
-3 -2 -12 4 -19 15 -18 1 -36 -22 -29 -13 4 -19 2 -19 -9 0 -9 -4 -16 -10 -16
-14 0 -12 16 5 50 9 17 23 30 32 30 9 0 13 -3 10 -7z m184 -16 c-10 -9 -11 -8
-5 6 3 10 9 15 12 12 3 -3 0 -11 -7 -18z m-405 -44 c-6 -40 -6 -40 -17 -15 -9
25 -5 42 12 42 5 0 8 -12 5 -27z m68 18 c5 -1 3 -7 -4 -15 -13 -17 -36 -12
-44 10 -4 10 1 13 17 10 12 -3 26 -5 31 -5z m-2279 -11 c-3 -5 -13 -10 -21
-10 -8 0 -12 5 -9 10 3 6 13 10 21 10 8 0 12 -4 9 -10z m-1095 -4 c0 -3 -4 -8
-10 -11 -5 -3 -10 -1 -10 4 0 6 5 11 10 11 6 0 10 -2 10 -4z m1680 -5 c0 -12
-31 -43 -37 -37 -6 6 20 46 29 46 5 0 8 -4 8 -9z m2540 -12 c0 -6 -4 -7 -10
-4 -5 3 -10 11 -10 16 0 6 5 7 10 4 6 -3 10 -11 10 -16z m-2742 -17 l24 -27
-23 -3 c-13 -2 -25 1 -27 7 -5 15 -33 14 -29 -1 1 -6 -6 -14 -15 -16 -11 -2
-18 2 -18 11 0 8 -7 17 -15 21 -8 3 -15 12 -15 20 0 10 13 14 48 14 39 1 51
-4 70 -26z m323 -3 c-23 -22 -31 -24 -31 -8 0 15 32 39 43 32 5 -3 -1 -14 -12
-24z m749 25 c0 -3 -12 -21 -26 -40 -24 -31 -25 -34 -8 -41 10 -4 19 -2 22 5
2 7 8 12 13 12 6 0 6 -7 0 -19 -6 -11 -26 -21 -50 -25 -58 -9 -63 -28 -6 -25
61 2 74 5 79 22 3 11 0 15 -7 10 -7 -4 -6 1 2 10 7 9 24 17 36 17 13 0 25 5
27 12 3 7 11 9 24 4 19 -8 19 -8 0 -15 -14 -6 -16 -10 -7 -15 7 -5 10 -14 7
-22 -4 -10 3 -14 21 -14 21 0 24 3 15 12 -19 19 -14 28 17 28 39 0 61 -9 61
-25 0 -7 7 -15 14 -18 11 -4 13 -1 9 11 -6 15 -3 14 15 -2 12 -11 22 -22 22
-25 0 -11 -165 -8 -173 3 -6 8 -10 7 -14 -1 -3 -9 -10 -10 -22 -3 -10 5 -21 6
-25 3 -3 -3 -6 0 -6 8 -1 10 -5 8 -16 -6 -8 -11 -17 -19 -19 -17 -12 6 -55 1
-55 -7 0 -4 23 -8 51 -7 27 1 52 -1 55 -6 3 -4 32 -6 64 -4 33 2 61 0 63 -3 2
-3 2 0 1 7 -2 6 1 12 6 12 6 0 10 -10 10 -23 0 -22 -3 -23 -87 -25 -49 -1
-104 -5 -124 -8 -26 -4 -39 -1 -49 11 -9 11 -15 13 -20 4 -4 -6 -23 -13 -41
-14 -19 -2 -44 -6 -55 -10 -15 -5 -23 -2 -28 10 -3 10 -2 14 5 10 5 -4 18 -3
27 1 12 5 2 9 -33 14 -31 4 -53 3 -57 -3 -4 -7 -11 -7 -21 1 -21 18 -97 12
-98 -7 -1 -13 -2 -13 -6 2 -2 9 -11 17 -18 17 -7 0 -15 -8 -17 -17 -3 -15 -5
-14 -10 5 -5 19 -2 22 25 24 18 0 38 1 45 1 6 -1 12 5 12 13 0 8 -7 14 -16 14
-8 0 -12 5 -9 10 13 21 -35 9 -49 -12 l-16 -22 0 22 c0 12 -4 22 -10 22 -5 0
-10 -4 -10 -8 0 -5 -14 -7 -31 -4 -24 4 -31 0 -36 -17 -6 -25 -23 -28 -23 -5
0 12 -6 15 -26 10 -15 -4 -40 -10 -56 -13 -26 -5 -28 -7 -13 -16 12 -6 20 -6
25 3 4 7 13 9 19 6 14 -9 14 -46 0 -46 -5 0 -7 -4 -4 -10 4 -6 -7 -10 -24 -10
-17 0 -31 5 -31 11 0 6 9 8 23 4 21 -6 21 -6 3 9 -15 12 -23 13 -33 4 -11 -9
-13 -8 -11 2 4 18 -77 26 -88 9 -5 -9 1 -10 22 -5 19 4 24 3 14 -3 -8 -5 -29
-12 -46 -15 -28 -6 -32 -4 -38 20 -5 20 -10 24 -16 15 -4 -8 -12 -11 -18 -7
-6 3 -13 2 -17 -4 -4 -6 5 -10 19 -10 14 0 26 -5 26 -10 0 -13 -50 -1 -68 17
-17 17 -27 16 -42 -2 -10 -12 -15 -13 -21 -4 -6 10 -109 21 -109 11 0 -1 10
-7 23 -12 20 -8 19 -9 -9 -9 -20 -1 -34 5 -38 14 -9 23 -25 18 -20 -7 2 -13 2
-17 -2 -10 -3 6 -14 12 -24 12 -10 0 -21 6 -23 13 -4 9 -8 9 -14 0 -4 -6 -42
-14 -83 -17 -121 -10 -252 -23 -290 -30 -19 -3 -73 -8 -120 -11 -90 -7 -103
-11 -80 -25 9 -6 10 -10 3 -10 -6 0 -19 7 -28 16 -11 12 -25 14 -51 10 -19 -4
-32 -11 -29 -17 4 -5 -1 -9 -10 -9 -9 0 -13 4 -10 10 8 13 -43 12 -130 -3 -38
-7 -82 -12 -97 -10 -23 1 -28 -2 -29 -20 0 -21 -1 -21 -9 -2 -13 31 -12 35 12
35 28 0 17 10 -24 21 -30 8 -29 8 10 4 36 -5 42 -3 42 13 0 15 -18 22 -112 40
-62 12 -157 26 -210 31 -53 5 -106 14 -117 20 -11 6 -37 15 -58 20 -37 9 -37
9 -7 10 17 1 49 -6 70 -15 21 -9 92 -22 158 -29 67 -8 157 -21 201 -30 44 -9
112 -16 150 -15 98 0 248 11 260 18 5 4 134 12 285 20 375 19 420 22 420 33 0
5 -6 9 -12 10 -10 0 -10 2 0 6 10 4 10 8 1 19 -7 9 -8 18 -3 24 5 5 19 -6 34
-26 24 -34 27 -35 85 -32 50 3 61 6 65 23 3 11 16 24 28 30 12 5 22 13 22 17
0 5 6 8 14 8 8 0 12 -7 10 -17 -2 -10 2 -26 10 -36 14 -18 24 -18 188 -8 232
15 248 18 248 46 0 13 -5 26 -10 28 -6 3 -5 4 2 3 7 -1 15 -13 18 -27 5 -20
12 -24 46 -25 99 -1 107 -3 94 -19 -7 -9 -29 -15 -51 -15 -22 0 -39 -5 -39
-11 0 -6 8 -8 19 -4 10 3 30 1 45 -4 18 -7 26 -7 26 0 0 6 5 7 10 4 6 -3 10 0
10 7 0 15 28 41 51 47 26 6 44 9 56 10 6 1 22 19 34 41 13 22 29 40 36 40 7 0
13 -3 13 -6z m-674 -25 c3 -6 0 -15 -7 -20 -13 -7 -28 5 -29 24 0 11 28 8 36
-4z m-774 -21 c-12 -12 -35 -1 -27 12 3 5 13 6 21 3 10 -4 12 -9 6 -15z m1687
1 c-22 -14 -33 -10 -19 6 7 8 17 12 22 9 6 -4 5 -10 -3 -15z m-682 5 c-3 -3
-12 -4 -19 -1 -8 3 -5 6 6 6 11 1 17 -2 13 -5z m633 -26 c0 -5 -7 -8 -16 -8
-8 0 -12 5 -9 10 3 6 -1 10 -10 10 -9 0 -13 4 -10 10 6 10 45 -9 45 -22z m90
16 c0 -8 -4 -12 -10 -9 -5 3 -10 1 -10 -4 0 -6 -5 -11 -10 -11 -6 0 -5 8 2 20
15 24 28 26 28 4z m-2566 -13 c-22 -21 -27 -21 -18 3 3 9 13 16 22 16 13 0 12
-3 -4 -19z m2816 -29 c0 -11 -58 -24 -71 -16 -5 3 -9 0 -9 -7 0 -8 20 -10 77
-5 42 4 80 9 84 12 4 2 10 0 14 -6 3 -5 28 -10 56 -10 27 0 49 -4 49 -10 0 -5
6 -7 13 -4 7 2 21 -1 30 -9 16 -11 13 -12 -24 -9 -32 3 -46 0 -55 -13 -9 -12
-19 -15 -31 -9 -16 7 -16 8 4 11 12 2 27 11 34 19 10 13 8 13 -16 4 -20 -8
-30 -8 -35 0 -7 12 -40 3 -40 -11 0 -5 8 -9 18 -10 12 0 10 -3 -7 -10 -27 -11
-56 -4 -47 10 4 5 -6 7 -21 5 -16 -3 -34 -5 -40 -6 -15 -2 -18 -18 -3 -18 6 0
10 -4 10 -8 0 -5 -15 -6 -32 -3 -21 3 -26 6 -15 9 17 4 17 5 -3 19 -18 13 -24
13 -31 2 -5 -8 -3 -16 4 -21 7 -4 2 -6 -11 -5 -12 0 -22 5 -22 9 0 4 -12 9
-27 9 -27 2 -27 2 -3 6 14 2 32 7 40 10 25 10 -41 20 -79 12 -39 -9 -51 -5
-51 16 0 17 54 47 78 44 17 -2 44 6 73 21 10 5 21 4 27 -2 8 -8 13 -7 18 6 6
16 8 15 25 -3 11 -11 19 -24 19 -29z m594 31 c7 -18 -11 -34 -34 -30 -8 1 -16
11 -19 22 -3 17 -1 18 13 6 9 -8 20 -11 23 -7 4 4 1 11 -7 16 -13 8 -13 10 1
10 9 0 20 -8 23 -17z m-2084 -3 c0 -5 -4 -10 -10 -10 -5 0 -10 5 -10 10 0 6 5
10 10 10 6 0 10 -4 10 -10z m-2224 -37 c-11 -11 -19 6 -11 24 8 17 8 17 12 0
3 -10 2 -21 -1 -24z m464 12 l55 -15 -55 6 c-30 4 -64 10 -75 15 l-20 8 20 0
c11 0 45 -6 75 -14z m1317 -7 c-3 -8 -6 -5 -6 6 -1 11 2 17 5 13 3 -3 4 -12 1
-19z m-1847 -8 c0 -5 -4 -10 -10 -10 -5 0 -10 5 -10 10 0 6 5 10 10 10 6 0 10
-4 10 -10z m4000 0 c0 -5 -4 -10 -10 -10 -5 0 -10 5 -10 10 0 6 5 10 10 10 6
0 10 -4 10 -10z m-42 -7 c-10 -2 -26 -2 -35 0 -10 3 -2 5 17 5 19 0 27 -2 18
-5z m327 -3 c-19 -8 -19 -9 3 -9 12 -1 22 -5 22 -10 0 -14 -48 -19 -54 -6 -6
16 13 35 34 34 10 0 9 -3 -5 -9z m-4565 -10 c0 -5 -4 -10 -10 -10 -5 0 -10 5
-10 10 0 6 5 10 10 10 6 0 10 -4 10 -10z m464 -7 c30 1 58 -2 63 -6 11 -11
-27 -38 -41 -29 -48 30 -235 7 -228 -29 1 -9 -3 -7 -13 5 -8 11 -22 21 -31 22
-24 4 -30 14 -8 14 11 0 25 5 32 12 16 16 90 25 134 16 20 -4 61 -7 92 -5z
m3940 2 c12 -9 42 -15 73 -15 29 0 53 -4 53 -9 0 -9 -64 -6 -117 5 -17 3 -21
1 -17 -11 4 -10 20 -15 53 -15 58 0 67 -7 38 -30 -17 -14 -19 -21 -9 -32 6 -8
9 -18 5 -22 -4 -4 -13 8 -19 26 -7 18 -13 25 -13 16 -1 -22 -21 -24 -21 -3 0
11 -10 14 -40 13 -38 -1 -47 -18 -9 -18 10 0 19 -4 19 -10 0 -13 -27 -13 -36
1 -3 6 -15 9 -25 6 -11 -3 -19 -2 -19 1 0 10 -73 7 -89 -2 -9 -6 -12 -3 -9 10
2 11 15 21 33 25 17 4 22 7 13 8 -10 0 -18 6 -18 11 0 14 13 12 36 -5 36 -28
94 -9 94 31 0 14 -3 15 -8 6 -6 -9 -15 -10 -33 -3 -18 7 -20 10 -6 10 10 1 15
6 12 11 -10 15 38 11 59 -5z m456 8 c0 -5 -23 -6 -51 -4 -37 2 -49 0 -44 -9 5
-8 -6 -10 -41 -8 -27 2 -49 8 -52 16 -3 9 20 12 92 12 53 0 96 -3 96 -7z m420
-13 c-25 -3 -65 -3 -90 0 -44 5 -43 5 20 10 80 6 139 -2 70 -10z m-343 4 c-3
-3 -12 -4 -19 -1 -8 3 -5 6 6 6 11 1 17 -2 13 -5z m153 -6 c0 -5 9 -6 20 -3
22 7 23 5 14 -19 -4 -10 -18 -16 -40 -16 -27 0 -34 4 -34 20 0 15 -6 20 -27
19 -24 -2 -25 -2 -5 -6 12 -2 22 -10 22 -18 0 -9 -15 -12 -55 -11 -63 2 -87
16 -29 16 37 1 38 2 19 15 -18 14 -14 15 48 14 37 -1 67 -6 67 -11z m318 5
c-16 -2 -40 -2 -55 0 -16 2 -3 4 27 4 30 0 43 -2 28 -4z m201 -9 c2 -2 -25 -3
-60 -3 -53 1 -58 3 -29 9 32 6 78 3 89 -6z m-799 -10 c0 -9 -5 -14 -12 -12
-18 6 -21 28 -4 28 9 0 16 -7 16 -16z m1017 10 c-3 -3 -12 -4 -19 -1 -8 3 -5
6 6 6 11 1 17 -2 13 -5z m66 -1 c-7 -2 -19 -2 -25 0 -7 3 -2 5 12 5 14 0 19
-2 13 -5z m-595 -21 c2 -7 -5 -12 -16 -12 -29 0 -53 11 -47 20 8 13 58 7 63
-8z m359 12 c-3 -3 -12 -4 -19 -1 -8 3 -5 6 6 6 11 1 17 -2 13 -5z m-5530 -28
c10 -9 1 -14 -32 -17 -16 -2 -36 -8 -44 -14 -11 -8 -12 -5 -6 15 7 24 7 24
-11 9 -23 -19 -64 -31 -64 -18 0 5 -8 9 -17 10 -10 1 7 9 37 18 52 16 120 15
137 -3z m4478 14 c3 -5 -1 -10 -9 -10 -9 0 -16 5 -16 10 0 6 4 10 9 10 6 0 13
-4 16 -10z m129 1 c5 0 6 -4 2 -8 -12 -12 -116 -14 -116 -2 0 6 8 8 20 4 11
-3 20 -2 20 3 0 9 32 10 74 3z m815 -7 c11 -10 -9 -12 -71 -7 -38 3 -68 10
-68 15 0 9 129 1 139 -8z m299 -4 c-3 -14 -16 -16 -65 -11 -7 0 -13 8 -13 15
0 11 11 14 40 13 31 -1 40 -5 38 -17z m62 5 c9 -11 33 -15 88 -15 41 0 73 -2
70 -5 -10 -10 -166 -10 -165 0 1 5 -4 9 -12 10 -19 0 -27 25 -8 25 8 0 20 -7
27 -15z m80 5 c11 -7 7 -10 -17 -10 -17 0 -35 5 -38 10 -8 13 35 13 55 0z
m538 3 c-10 -2 -28 -2 -40 0 -13 2 -5 4 17 4 22 1 32 -1 23 -4z m85 0 c-13 -2
-33 -2 -45 0 -13 2 -3 4 22 4 25 0 35 -2 23 -4z m70 0 c-7 -2 -21 -2 -30 0
-10 3 -4 5 12 5 17 0 24 -2 18 -5z m-3720 -20 c-5 -12 -2 -15 10 -10 12 5 17
1 17 -13 0 -10 -4 -22 -10 -25 -5 -3 -10 1 -10 10 0 9 -4 13 -10 10 -6 -4 -10
5 -10 19 0 14 4 26 10 26 5 0 6 -8 3 -17z m87 0 c0 -15 -2 -16 -10 -3 -7 11
-10 11 -10 2 0 -7 -5 -10 -10 -7 -13 8 -3 25 16 25 8 0 14 -8 14 -17z m795 7
c4 -6 -9 -10 -32 -9 -38 1 -38 1 -8 9 17 4 31 8 32 9 1 0 5 -3 8 -9z m1907 -5
c-2 -5 -9 -8 -15 -6 -7 2 -38 3 -69 2 -31 0 -67 4 -80 9 -16 6 5 9 72 7 58 -1
94 -6 92 -12z m301 8 c-7 -2 -19 -2 -25 0 -7 3 -2 5 12 5 14 0 19 -2 13 -5z
m-5603 -14 c0 -8 4 -8 14 0 11 10 20 10 37 0 15 -8 24 -8 26 -2 4 11 60 2 84
-13 18 -11 -26 -21 -97 -23 -28 0 -71 -8 -97 -17 -64 -22 -161 -7 -150 23 3 8
12 12 19 9 8 -3 13 0 11 6 -1 6 12 12 28 14 28 3 28 3 7 -6 -13 -5 -20 -14
-17 -20 4 -6 11 -8 16 -5 5 4 31 6 59 7 27 0 50 4 50 9 0 5 -5 9 -11 9 -5 0
-7 5 -4 10 8 14 25 13 25 -1z m4100 1 c0 -5 -2 -10 -4 -10 -3 0 -8 5 -11 10
-3 6 -1 10 4 10 6 0 11 -4 11 -10z m1858 3 c-10 -2 -26 -2 -35 0 -10 3 -2 5
17 5 19 0 27 -2 18 -5z m235 0 c-7 -2 -19 -2 -25 0 -7 3 -2 5 12 5 14 0 19 -2
13 -5z m87 -3 c0 -5 -9 -10 -19 -10 -11 0 -23 5 -26 10 -4 6 5 10 19 10 14 0
26 -4 26 -10z m50 0 c-19 -13 -30 -13 -30 0 0 6 10 10 23 10 18 0 19 -2 7 -10z
m-6393 -6 c-3 -3 -12 -4 -19 -1 -8 3 -5 6 6 6 11 1 17 -2 13 -5z m263 -4 c0
-5 -4 -10 -10 -10 -5 0 -10 5 -10 10 0 6 5 10 10 10 6 0 10 -4 10 -10z m138
-2 c-6 -18 -45 -18 -77 -2 -25 13 -24 14 27 14 39 0 52 -4 50 -12z m3317 3 c3
-5 21 -7 40 -4 36 6 73 -3 61 -14 -4 -4 -44 -8 -89 -9 -65 -2 -76 0 -54 8 15
5 25 14 21 19 -3 5 -1 9 5 9 5 0 12 -4 16 -9z m1065 -1 c8 -5 12 -11 10 -14
-3 -2 -14 2 -24 10 -22 15 -10 19 14 4z m1083 3 c-7 -2 -19 -2 -25 0 -7 3 -2
5 12 5 14 0 19 -2 13 -5z m-6026 -9 c-3 -3 -12 -4 -19 -1 -8 3 -5 6 6 6 11 1
17 -2 13 -5z m2399 -31 c-11 -11 -17 4 -9 23 7 18 8 18 11 1 2 -10 1 -21 -2
-24z m2179 20 c19 3 38 1 41 -4 6 -10 6 -10 -68 -15 -33 -2 -60 1 -64 7 -3 6
2 9 12 7 12 -2 18 2 16 11 -3 12 0 12 12 2 9 -7 30 -11 51 -8z m-1005 -3 c-36
-12 -62 -12 -55 0 3 6 23 10 43 9 33 -1 34 -2 12 -9z m128 -7 c-6 -34 -31 -42
-122 -38 -48 1 -89 5 -91 7 -2 2 0 10 5 18 6 8 10 10 10 4 0 -10 19 -8 130 10
14 2 28 -1 33 -8 5 -8 10 -6 18 7 5 9 12 17 15 17 3 0 4 -8 2 -17z m-3953 -16
c12 -3 4 -5 -18 -6 -32 -1 -36 1 -25 13 7 8 15 10 18 6 3 -4 14 -10 25 -13z
m2565 7 c0 -12 -6 -15 -24 -10 -14 3 -28 1 -31 -4 -5 -8 -12 -7 -23 2 -13 11
-9 14 29 19 24 3 45 7 47 7 1 1 2 -5 2 -14z m700 3 c11 3 20 1 20 -5 0 -6 -32
-12 -75 -14 -41 -2 -75 0 -75 4 0 9 104 25 108 17 2 -4 12 -5 22 -2z m780 -4
c0 -11 -3 -14 -8 -7 -4 6 -14 14 -22 17 -10 4 -8 6 8 6 15 1 22 -5 22 -16z
m680 1 c0 -8 -5 -12 -10 -9 -6 4 -8 11 -5 16 9 14 15 11 15 -7z m-4020 -15 c0
-6 -4 -7 -10 -4 -5 3 -10 11 -10 16 0 6 5 7 10 4 6 -3 10 -11 10 -16z m2620
11 c0 -5 -2 -10 -4 -10 -3 0 -8 5 -11 10 -3 6 -1 10 4 10 6 0 11 -4 11 -10z
m-910 -15 c0 -11 -12 -15 -40 -16 -22 -1 -44 -2 -50 -3 -5 -1 -9 4 -8 9 0 6
10 9 21 7 12 -2 17 1 13 7 -5 7 5 11 28 11 25 0 36 -4 36 -15z m1577 9 c-3 -3
-12 -4 -19 -1 -8 3 -5 6 6 6 11 1 17 -2 13 -5z m284 -17 c-10 -9 -11 -8 -5 6
3 10 9 15 12 12 3 -3 0 -11 -7 -18z m284 13 c3 -5 1 -10 -4 -10 -6 0 -11 5
-11 10 0 6 2 10 4 10 3 0 8 -4 11 -10z m-82 -21 c-7 -7 -19 -8 -30 -4 -16 7
-15 9 7 15 30 8 38 4 23 -11z m147 11 c0 -5 -4 -10 -9 -10 -6 0 -13 5 -16 10
-3 6 1 10 9 10 9 0 16 -4 16 -10z m-3835 -10 c3 -5 -1 -10 -10 -10 -9 0 -13 5
-10 10 3 6 8 10 10 10 2 0 7 -4 10 -10z m30 0 c3 -5 1 -10 -4 -10 -6 0 -11 5
-11 10 0 6 2 10 4 10 3 0 8 -4 11 -10z m1425 0 c0 -5 -8 -10 -17 -10 -15 0
-16 2 -3 10 19 12 20 12 20 0z m387 4 c-3 -3 -12 -4 -19 -1 -8 3 -5 6 6 6 11
1 17 -2 13 -5z m446 -1 c-7 -2 -19 -2 -25 0 -7 3 -2 5 12 5 14 0 19 -2 13 -5z
m557 -3 c9 -6 17 -5 22 3 6 9 8 9 8 -1 0 -8 7 -11 19 -7 19 6 49 -20 37 -32
-3 -3 -6 -1 -6 5 0 7 -14 12 -32 12 -42 0 -78 10 -78 21 0 11 11 11 30 -1z
m-846 -26 c4 -12 1 -14 -15 -9 -11 4 -26 1 -34 -5 -20 -17 -19 -5 1 19 18 21
39 18 48 -5z m134 21 c-3 -3 -34 -8 -68 -11 -45 -5 -61 -3 -56 5 4 6 34 11 68
11 34 0 59 -2 56 -5z m2309 -1 c-3 -3 -12 -4 -19 -1 -8 3 -5 6 6 6 11 1 17 -2
13 -5z m-4894 -11 c-7 -2 -21 -2 -30 0 -10 3 -4 5 12 5 17 0 24 -2 18 -5z
m1564 1 c-3 -3 -12 -4 -19 -1 -8 3 -5 6 6 6 11 1 17 -2 13 -5z m673 -3 c0 -6
-5 -13 -12 -17 -6 -4 -8 -3 -4 4 3 6 -2 13 -11 15 -14 4 -13 5 5 6 12 0 22 -3
22 -8z m74 -15 c-6 -15 -24 -23 -24 -11 0 8 24 34 28 30 1 -1 0 -10 -4 -19z
m1614 11 c8 -10 5 -13 -13 -15 -12 -1 -26 5 -29 13 -7 19 27 20 42 2z m-324
-5 c2 -4 -5 -9 -17 -9 -17 -2 -19 0 -7 7 18 12 18 12 24 2z m150 -7 c-7 -16
-24 -21 -24 -6 0 8 7 13 27 20 1 1 0 -6 -3 -14z m624 3 c8 -8 15 -8 24 0 15
12 68 4 68 -10 0 -6 -7 -8 -15 -5 -8 4 -17 2 -20 -4 -4 -5 8 -12 25 -16 20 -4
27 -9 19 -13 -15 -10 -71 9 -63 21 3 5 -4 9 -16 9 -12 0 -28 7 -36 15 -9 8
-12 15 -7 15 5 0 14 -5 21 -12z m-2938 -8 c0 -5 -4 -10 -10 -10 -5 0 -10 5
-10 10 0 6 5 10 10 10 6 0 10 -4 10 -10z m835 0 c3 -5 1 -10 -4 -10 -6 0 -11
5 -11 10 0 6 2 10 4 10 3 0 8 -4 11 -10z m3155 0 c0 -5 -4 -10 -10 -10 -5 0
-10 5 -10 10 0 6 5 10 10 10 6 0 10 -4 10 -10z m-4200 -4 c0 -3 -4 -8 -10 -11
-5 -3 -10 -1 -10 4 0 6 5 11 10 11 6 0 10 -2 10 -4z m173 -3 c-7 -2 -21 -2
-30 0 -10 3 -4 5 12 5 17 0 24 -2 18 -5z m752 -3 c3 -5 1 -10 -4 -10 -6 0 -11
5 -11 10 0 6 2 10 4 10 3 0 8 -4 11 -10z m674 -11 c-19 -12 -29 -11 -29 2 0 5
5 7 10 4 6 -3 10 -1 10 5 0 6 5 8 11 4 8 -4 7 -9 -2 -15z m-1493 2 c-5 -8 -56
-3 -56 5 0 2 14 4 31 4 16 0 28 -4 25 -9z m614 -4 c8 -3 22 -8 30 -10 8 -3
-20 -5 -62 -5 -43 0 -80 4 -84 9 -3 6 9 9 30 7 19 -1 38 1 41 4 7 6 20 5 45
-5z m800 3 c12 -8 9 -10 -12 -10 -14 0 -33 -3 -42 -6 -9 -3 -16 -1 -16 4 0 10
19 18 45 21 6 0 17 -4 25 -9z m40 -10 c0 -5 -4 -10 -10 -10 -5 0 -10 5 -10 10
0 6 5 10 10 10 6 0 10 -4 10 -10z m-1650 -15 c0 -11 -10 -15 -37 -14 l-38 1
30 13 c39 18 45 18 45 0z m40 5 c0 -5 -4 -10 -10 -10 -5 0 -10 5 -10 10 0 6 5
10 10 10 6 0 10 -4 10 -10z m570 -1 c0 -5 -3 -8 -7 -8 -5 1 -10 0 -13 -1 -3
-1 -18 -3 -35 -5 -16 -1 -34 -3 -39 -4 -4 0 -6 -10 -3 -21 5 -18 4 -18 -21 -2
-15 9 -23 11 -19 5 5 -7 4 -13 -2 -13 -6 0 -11 3 -11 8 0 9 -82 8 -98 -2 -14
-8 -15 3 -4 22 5 7 16 10 24 7 9 -4 33 -2 54 4 25 7 42 7 50 1 7 -7 15 -6 22
2 12 15 102 21 102 7z m1737 -13 c-3 -6 -11 -9 -18 -7 -8 2 -22 3 -32 3 -14
-1 -16 2 -8 12 13 16 64 9 58 -8z m433 14 c0 -5 -7 -10 -16 -10 -8 0 -12 5 -9
10 3 6 10 10 16 10 5 0 9 -4 9 -10z m-1640 -15 c11 -13 10 -14 -4 -9 -9 3 -16
10 -16 15 0 13 6 11 20 -6z m53 8 c-7 -2 -19 -2 -25 0 -7 3 -2 5 12 5 14 0 19
-2 13 -5z m212 -14 c-4 -5 -21 -7 -40 -5 -19 2 -35 0 -37 -6 -2 -6 -13 -8 -27
-3 -31 10 -21 16 41 24 56 8 72 5 63 -10z m993 0 l27 -1 -25 -7 c-30 -9 -40
-5 -39 17 0 11 3 12 6 5 2 -7 17 -13 31 -14z m262 17 c0 -3 -4 -8 -10 -11 -5
-3 -10 -1 -10 4 0 6 5 11 10 11 6 0 10 -2 10 -4z m528 -16 c10 -17 10 -20 -5
-20 -9 0 -13 3 -10 7 4 3 2 12 -4 20 -6 7 -7 13 -3 13 5 0 15 -9 22 -20z
m-1691 4 c-3 -3 -12 -4 -19 -1 -8 3 -5 6 6 6 11 1 17 -2 13 -5z m-662 -14 c-3
-5 -11 -10 -16 -10 -6 0 -7 5 -4 10 3 6 11 10 16 10 6 0 7 -4 4 -10z m105 6
c0 -2 -7 -6 -15 -10 -8 -3 -15 -1 -15 4 0 6 7 10 15 10 8 0 15 -2 15 -4z
m-273 -28 c-3 -8 -6 -5 -6 6 -1 11 2 17 5 13 3 -3 4 -12 1 -19z m83 12 c0 -5
-12 -10 -27 -9 l-28 1 25 8 c14 4 26 8 28 9 1 1 2 -3 2 -9z m-580 -10 c0 -5
-11 -10 -25 -10 -14 0 -25 5 -25 10 0 6 11 10 25 10 14 0 25 -4 25 -10z m775
-10 c-3 -5 -11 -10 -16 -10 -6 0 -7 5 -4 10 3 6 11 10 16 10 6 0 7 -4 4 -10z
m1995 -16 c0 -8 -5 -12 -10 -9 -6 4 -8 11 -5 16 9 14 15 11 15 -7z m-2200 2
c0 -2 -9 -6 -20 -9 -11 -3 -18 -1 -14 4 5 9 34 13 34 5z m2667 -2 c-3 -3 -12
-4 -19 -1 -8 3 -5 6 6 6 11 1 17 -2 13 -5z m-3774 -18 c3 -8 0 -17 -7 -19 -10
-4 -12 1 -9 14 6 23 9 24 16 5z m943 -13 c-10 -10 -19 5 -10 18 6 11 8 11 12
0 2 -7 1 -15 -2 -18z m-856 -3 c0 -5 -10 -10 -22 -9 -22 0 -22 1 -3 9 11 5 21
9 23 9 1 1 2 -3 2 -9z m100 0 c0 -5 -8 -10 -17 -10 -15 0 -16 2 -3 10 19 12
20 12 20 0z m4187 -6 c-3 -3 -12 -4 -19 -1 -8 3 -5 6 6 6 11 1 17 -2 13 -5z
m-120 -20 c-3 -3 -12 -4 -19 -1 -8 3 -5 6 6 6 11 1 17 -2 13 -5z m-1767 -64
c0 -5 -2 -10 -4 -10 -3 0 -8 5 -11 10 -3 6 -1 10 4 10 6 0 11 -4 11 -10z
m-2800 -29 c0 -12 -30 -22 -43 -14 -7 4 -3 9 9 14 26 10 34 10 34 0z m945 -49
c-3 -3 -11 0 -18 7 -9 10 -8 11 6 5 10 -3 15 -9 12 -12z m1585 2 c0 -2 -7 -4
-15 -4 -8 0 -15 4 -15 10 0 5 7 7 15 4 8 -4 15 -8 15 -10z m-1370 -4 c0 -5 -5
-10 -11 -10 -5 0 -7 5 -4 10 3 6 8 10 11 10 2 0 4 -4 4 -10z m930 -10 c0 -5
-4 -10 -10 -10 -5 0 -10 5 -10 10 0 6 5 10 10 10 6 0 10 -4 10 -10z m1410 0
c0 -5 -2 -10 -4 -10 -3 0 -8 5 -11 10 -3 6 -1 10 4 10 6 0 11 -4 11 -10z
m-2967 -64 c21 4 21 4 -1 -6 -18 -7 -27 -6 -38 4 -10 11 -11 15 -1 19 6 2 13
-2 15 -8 2 -7 13 -11 25 -9z m1173 5 c0 -16 -3 -17 -14 -9 -12 10 -7 19 13 28
1 0 1 -9 1 -19z"/>
<path d="M3278 603 c6 -2 18 -2 25 0 6 3 1 5 -13 5 -14 0 -19 -2 -12 -5z"/>
<path d="M3455 600 c3 -5 0 -10 -7 -11 -7 0 -4 -4 7 -8 25 -10 52 -3 52 13 0
6 -13 13 -29 14 -18 2 -27 -2 -23 -8z"/>
<path d="M2860 570 c0 -5 5 -10 11 -10 5 0 7 5 4 10 -3 6 -8 10 -11 10 -2 0
-4 -4 -4 -10z"/>
<path d="M2908 573 c7 -3 16 -2 19 1 4 3 -2 6 -13 5 -11 0 -14 -3 -6 -6z"/>
<path d="M2827 540 c3 -11 7 -20 9 -20 2 0 4 9 4 20 0 11 -4 20 -9 20 -5 0 -7
-9 -4 -20z"/>
<path d="M1980 539 c0 -6 -18 -10 -42 -9 -73 3 -112 0 -104 -7 12 -12 138 -3
166 12 24 14 24 14 3 15 -13 0 -23 -5 -23 -11z"/>
<path d="M2100 540 c0 -5 14 -10 30 -10 17 0 30 5 30 10 0 6 -13 10 -30 10
-16 0 -30 -4 -30 -10z"/>
<path d="M3480 540 c0 -5 5 -10 11 -10 5 0 7 5 4 10 -3 6 -8 10 -11 10 -2 0
-4 -4 -4 -10z"/>
<path d="M4010 624 c-10 -11 -9 -14 8 -14 25 0 37 16 18 23 -8 3 -20 -1 -26
-9z"/>
<path d="M3965 620 c-3 -5 1 -10 10 -10 9 0 13 5 10 10 -3 6 -8 10 -10 10 -2
0 -7 -4 -10 -10z"/>
<path d="M2438 483 c7 -3 16 -2 19 1 4 3 -2 6 -13 5 -11 0 -14 -3 -6 -6z"/>
<path d="M2620 3350 c0 -5 5 -10 10 -10 6 0 10 5 10 10 0 6 -4 10 -10 10 -5 0
-10 -4 -10 -10z"/>
<path d="M2530 3331 c-7 -15 -8 -27 0 -40 15 -29 12 -50 -4 -28 -12 16 -15 16
-26 1 -12 -14 -14 -14 -23 2 -7 12 -11 13 -17 4 -5 -8 -12 -7 -25 7 -17 16
-18 16 -13 1 4 -9 2 -19 -5 -22 -7 -2 -5 -5 4 -5 18 -1 35 -31 18 -31 -6 0 -9
-5 -7 -11 2 -6 8 -10 13 -9 8 1 24 -29 31 -57 4 -21 -25 -23 -36 -3 -6 11 -8
20 -4 20 3 0 1 7 -6 15 -17 20 -31 19 -24 -2 5 -15 4 -16 -5 -3 -6 9 -7 18 -1
24 6 6 10 17 10 25 0 11 -3 11 -13 -4 -10 -12 -19 -15 -28 -9 -9 5 -8 -1 4
-20 19 -28 18 -28 -2 -21 -15 4 -23 1 -27 -10 -9 -22 -3 -25 47 -30 24 -3 49
-11 54 -18 6 -8 16 -12 23 -10 6 3 12 0 12 -6 0 -6 7 -8 16 -4 8 3 13 12 10
19 -3 8 -1 14 4 14 6 0 10 -4 10 -10 0 -5 6 -10 14 -10 8 0 16 -7 20 -15 4
-13 2 -14 -14 -5 -13 7 -20 7 -20 1 0 -6 -7 -8 -15 -5 -9 4 -18 -1 -22 -12 -4
-11 -14 -24 -22 -30 -13 -10 -13 -14 -2 -28 12 -14 11 -19 -4 -30 -19 -14 -59
-10 -50 4 3 5 1 11 -4 15 -5 3 -14 -2 -19 -12 -9 -14 -13 -15 -26 -4 -9 7 -16
10 -16 5 0 -4 -6 1 -14 11 -12 16 -18 17 -39 8 -24 -11 -44 -53 -25 -53 6 0 8
-7 4 -15 -3 -9 0 -15 9 -15 15 0 21 -35 8 -43 -5 -3 -19 0 -33 6 -30 12 -80
17 -81 8 0 -3 -2 -16 -5 -28 -2 -13 1 -23 6 -23 6 0 10 7 10 15 0 19 16 20 23
1 4 -10 -4 -18 -24 -25 -33 -11 -40 -22 -9 -14 12 3 20 0 20 -6 0 -7 -4 -9
-10 -6 -5 3 -10 -1 -10 -10 0 -9 -9 -19 -20 -22 -11 -3 -17 -9 -14 -14 3 -5 0
-9 -6 -9 -6 0 -15 -10 -20 -22 -5 -13 -9 -17 -9 -10 -1 6 -8 12 -16 12 -16 0
-20 16 -6 24 5 3 7 15 4 27 -4 16 -8 17 -14 7 -7 -10 -9 -10 -9 0 0 6 -4 12
-10 12 -5 0 -6 -8 -3 -17 6 -16 5 -16 -10 -5 -14 12 -16 11 -14 -10 1 -24 19
-48 34 -48 5 0 9 -9 10 -20 2 -19 0 -19 -20 -5 -25 17 -37 19 -37 5 0 -5 6
-10 14 -10 21 0 28 -17 17 -38 -13 -25 -3 -65 15 -58 8 3 14 1 14 -5 0 -7 -10
-9 -26 -5 -20 5 -25 4 -21 -7 7 -18 -23 -43 -45 -39 -22 4 -59 -29 -41 -35 10
-4 9 -12 -3 -36 l-15 -32 20 23 c22 25 41 31 20 6 -11 -14 -10 -18 6 -30 10
-8 25 -14 32 -14 7 0 13 -4 13 -10 0 -5 -5 -10 -10 -10 -7 0 -7 -6 -1 -19 8
-14 7 -20 -4 -25 -9 -3 -15 0 -15 9 0 8 -4 15 -9 15 -5 0 -12 8 -15 18 -3 10
-15 18 -27 18 -18 0 -18 -2 -5 -12 9 -6 16 -15 16 -19 0 -5 -8 -1 -17 7 -29
24 -53 29 -59 13 -7 -17 -34 -21 -34 -5 0 6 -4 10 -8 10 -5 0 -7 -13 -4 -30 3
-18 0 -30 -7 -30 -6 0 -11 -4 -11 -10 0 -5 7 -7 15 -4 11 5 13 2 9 -10 -5 -12
0 -19 15 -23 16 -4 20 -11 16 -24 -4 -13 -1 -19 9 -19 20 0 20 -9 -1 -32 -15
-17 -15 -18 0 -18 10 0 17 -7 17 -15 0 -8 3 -14 8 -13 4 1 20 -10 36 -25 28
-26 49 -35 43 -19 -1 4 1 8 6 10 16 5 19 1 7 -13 -7 -8 -22 -15 -35 -15 -29 0
-37 -10 -22 -28 10 -13 7 -14 -21 -10 -19 3 -32 0 -32 -6 0 -6 -5 -3 -11 7
-15 26 -48 21 -60 -10 -6 -15 -8 -35 -6 -45 3 -11 0 -18 -9 -18 -8 0 -14 -4
-14 -10 0 -5 11 -10 25 -10 14 0 25 -4 25 -9 0 -14 44 -21 52 -8 5 9 12 8 24
-5 16 -16 16 -17 -4 -11 -15 4 -22 1 -22 -9 0 -18 42 -38 80 -38 37 0 46 -15
26 -45 -10 -15 -12 -25 -6 -25 6 0 8 -5 4 -12 -5 -8 -2 -9 9 -5 10 3 17 2 17
-3 0 -6 5 -10 10 -10 6 0 10 7 10 15 0 13 2 14 14 3 12 -11 10 -14 -10 -21
-13 -5 -22 -13 -19 -17 11 -18 -17 -21 -30 -4 -16 21 -20 8 -6 -15 12 -18 -26
-55 -43 -43 -19 14 -87 34 -93 28 -4 -3 -1 -6 6 -6 7 0 10 -4 7 -8 -3 -4 12
-16 32 -26 20 -10 44 -22 52 -26 15 -7 47 -13 130 -24 19 -3 109 -12 200 -21
91 -8 210 -20 265 -25 55 -6 123 -12 150 -15 28 -2 113 -12 190 -20 94 -10
141 -12 143 -5 6 16 22 12 22 -6 0 -23 33 -13 45 14 5 12 13 22 17 22 12 0 9
-25 -4 -38 -9 -9 -8 -12 5 -12 10 0 17 8 17 20 0 11 5 20 10 20 6 0 10 -10 10
-22 0 -62 17 28 20 102 0 20 2 22 10 10 8 -12 10 -11 10 8 0 12 -4 22 -10 22
-5 0 -10 14 -10 30 0 31 9 35 67 31 12 -1 28 7 36 20 13 17 22 20 46 16 22 -5
31 -3 31 7 0 8 -11 12 -27 12 -16 -1 -44 4 -63 11 -19 6 -27 12 -17 12 10 1
17 9 17 21 0 11 4 20 10 20 5 0 7 7 4 15 -4 8 1 17 10 21 9 3 16 12 16 20 0 8
6 11 15 8 9 -4 18 1 21 11 4 9 13 14 20 11 21 -8 27 12 10 30 -20 20 -20 24 1
39 16 12 14 12 -10 8 -20 -4 -27 -1 -27 10 0 9 5 19 10 22 15 9 12 18 -15 47
-25 27 -25 28 -6 40 15 9 17 15 9 25 -7 9 -7 13 1 13 7 0 9 4 6 10 -4 6 1 7
11 3 14 -5 16 -2 12 15 -6 21 14 33 25 15 2 -5 2 -2 1 5 -2 7 3 15 11 18 10 4
13 14 9 29 -4 15 0 24 11 29 14 5 15 9 5 21 -10 12 -10 15 1 15 8 0 6 7 -7 19
-24 23 -26 22 -15 -17 7 -23 6 -34 -5 -43 -11 -9 -14 -7 -14 10 0 11 -5 21
-12 21 -9 0 -9 3 0 12 19 19 14 37 -9 33 -11 -2 -31 2 -43 10 -13 8 -25 13
-28 10 -3 -3 -11 1 -17 9 -8 10 -9 16 -1 21 5 3 10 -1 10 -9 0 -10 6 -13 15
-10 8 4 15 15 15 25 0 11 7 19 16 19 11 0 14 -5 9 -17 -11 -29 -11 -35 1 -40
7 -2 15 12 18 32 4 20 10 44 13 53 6 15 5 15 -14 0 -19 -18 -19 -17 -15 15 3
17 7 26 9 20 3 -7 10 -13 16 -13 22 0 -12 23 -36 24 -19 1 -22 -3 -19 -25 3
-21 -1 -27 -20 -32 -12 -4 -25 -7 -28 -7 -3 0 -6 16 -8 36 -3 44 -10 57 -28
50 -8 -3 -14 1 -14 9 0 11 -5 12 -26 5 -33 -13 -32 -14 -30 15 0 14 7 25 14
25 6 0 12 7 12 15 0 8 -6 15 -14 15 -18 0 -16 58 3 65 8 3 11 0 8 -9 -3 -8 1
-17 9 -20 9 -3 12 -11 8 -17 -4 -8 -3 -9 5 -5 13 9 5 46 -13 59 -6 4 -19 5
-28 3 -23 -5 -34 12 -14 20 9 3 16 13 16 22 0 11 -5 9 -19 -7 -11 -13 -25 -20
-30 -16 -16 9 -13 25 3 25 7 0 16 9 19 21 5 17 9 19 26 10 25 -14 28 -14 34 3
4 10 1 13 -9 9 -8 -3 -20 0 -27 5 -9 8 -21 7 -41 -3 -26 -14 -28 -14 -21 3 4
9 7 26 7 37 -1 11 4 22 9 26 7 4 2 15 -12 28 -12 11 -19 24 -15 28 4 4 11 1
16 -7 9 -13 10 -13 9 0 0 8 -4 24 -9 35 -7 16 -9 17 -9 3 -1 -9 -6 -20 -12
-23 -20 -13 -20 3 0 41 20 37 30 73 12 46 -6 -10 -10 -10 -20 2 -8 9 -8 16 -2
20 6 4 7 14 4 23 -6 15 -7 14 -14 -3 -6 -15 -8 -12 -8 13 -1 17 -5 35 -11 38
-13 8 -13 35 1 35 5 0 8 -4 5 -9 -3 -5 1 -12 10 -15 21 -8 24 -8 24 5 0 5 -4
7 -10 4 -5 -3 -10 -1 -10 4 0 6 5 11 11 11 5 0 7 5 4 10 -3 6 -1 10 4 10 6 0
11 -12 11 -26 0 -23 3 -26 28 -20 15 3 21 3 15 0 -18 -8 -16 -24 2 -24 8 0 15
-5 15 -11 0 -6 6 -9 14 -6 8 3 20 -2 28 -11 9 -11 10 -14 1 -8 -7 4 -13 3 -13
-1 0 -5 10 -14 21 -22 18 -11 23 -11 30 1 5 8 4 14 -4 16 -16 3 -38 52 -30 66
3 6 0 5 -8 -1 -7 -7 -17 -13 -21 -13 -4 0 -7 6 -6 13 2 7 -9 12 -29 12 -25 0
-33 4 -33 17 0 10 7 18 15 18 8 0 15 4 15 8 0 17 -39 44 -58 40 -10 -2 -26 3
-34 10 -13 10 -19 8 -39 -13 -13 -13 -30 -25 -37 -25 -7 0 -15 -6 -18 -14 -3
-8 -13 -12 -23 -9 -22 6 -36 -23 -16 -31 9 -3 12 -12 8 -21 -5 -13 -7 -14 -14
-3 -7 10 -9 10 -9 1 0 -7 -5 -13 -11 -13 -6 0 -9 9 -6 20 4 18 2 20 -16 14
-32 -9 -49 -25 -43 -40 2 -7 -3 -19 -13 -28 -22 -20 -31 -20 -31 -1 0 9 6 12
16 8 13 -5 15 -2 9 16 -4 13 -2 28 6 37 6 8 9 17 6 21 -4 3 1 12 11 20 9 8 11
12 5 8 -8 -4 -13 0 -13 10 0 9 -4 13 -10 10 -6 -3 -7 1 -4 10 5 12 9 13 20 4
17 -14 18 0 1 21 -12 16 -25 19 -42 9 -5 -3 -26 -6 -45 -6 -19 0 -25 1 -13 4
29 6 39 34 17 50 -11 8 -13 13 -5 13 7 0 9 5 6 10 -5 7 -11 8 -19 1 -6 -5 -25
-9 -42 -9 -16 1 -40 -4 -52 -11 -18 -10 -21 -9 -16 4 4 8 2 15 -4 15 -6 0 -17
3 -25 6 -10 3 -20 -3 -27 -15z m82 -93 c-7 -7 -12 -8 -12 -2 0 6 3 14 7 17 3
4 9 5 12 2 2 -3 -1 -11 -7 -17z m2 -42 c7 3 13 -2 13 -11 0 -17 -13 -20 -23
-4 -3 6 -16 8 -28 5 -21 -5 -21 -5 -1 10 11 8 21 10 23 5 2 -5 9 -8 16 -5z
m-99 -6 c3 -5 1 -10 -4 -10 -6 0 -11 5 -11 10 0 6 2 10 4 10 3 0 8 -4 11 -10z
m213 -53 c0 -7 4 -23 8 -37 l6 -25 -24 25 c-14 14 -23 33 -20 42 4 18 28 14
30 -5z m280 5 c9 -6 10 -15 3 -33 -9 -21 -10 -22 -10 -3 -1 11 -6 25 -13 32
-14 14 0 16 20 4z m-134 -76 c-3 -9 -10 -16 -15 -16 -5 0 -4 9 3 20 14 22 21
20 12 -4z m70 -1 c3 -8 1 -15 -3 -15 -5 0 -11 7 -15 15 -3 8 -1 15 3 15 5 0
11 -7 15 -15z m-158 -42 c-10 -10 -19 5 -10 18 6 11 8 11 12 0 2 -7 1 -15 -2
-18z m234 7 c0 -5 -5 -10 -11 -10 -5 0 -7 5 -4 10 3 6 8 10 11 10 2 0 4 -4 4
-10z m-510 -25 c0 -8 -4 -15 -10 -15 -5 0 -7 7 -4 15 4 8 8 15 10 15 2 0 4 -7
4 -15z m140 -5 c0 -5 -2 -10 -4 -10 -3 0 -8 5 -11 10 -3 6 -1 10 4 10 6 0 11
-4 11 -10z m197 -16 c2 -13 1 -15 -4 -4 -3 8 -11 19 -17 23 -7 6 -6 7 4 4 8
-2 16 -12 17 -23z m177 10 c-6 -3 -9 -16 -6 -29 2 -15 0 -25 -7 -25 -12 0 -15
42 -4 53 3 4 11 7 17 6 8 0 8 -2 0 -5z m-44 -14 c0 -5 -2 -10 -4 -10 -3 0 -8
5 -11 10 -3 6 -1 10 4 10 6 0 11 -4 11 -10z m-266 -25 c-4 -8 -10 -12 -15 -9
-11 6 -2 24 11 24 5 0 7 -7 4 -15z m-64 -15 c0 -5 -7 -10 -15 -10 -8 0 -15 5
-15 10 0 6 7 10 15 10 8 0 15 -4 15 -10z m260 -6 c0 -8 -4 -12 -10 -9 -5 3
-10 10 -10 16 0 5 5 9 10 9 6 0 10 -7 10 -16z m-560 -4 c0 -5 -10 -10 -22 -9
-22 0 -22 1 -3 9 11 5 21 9 23 9 1 1 2 -3 2 -9z m714 -41 c-11 -18 -24 -8 -22
17 2 23 4 23 15 8 7 -9 10 -21 7 -25z m-376 19 c1 -7 4 -26 7 -43 4 -22 3 -25
-3 -10 -9 19 -9 19 -20 0 -6 -11 -14 -16 -19 -11 -4 5 -2 11 5 13 6 3 10 9 6
14 -3 5 0 9 6 9 7 0 10 6 7 14 -3 8 -3 17 0 20 9 8 9 8 11 -6z m339 -10 c-3
-8 -6 -5 -6 6 -1 11 2 17 5 13 3 -3 4 -12 1 -19z m-396 -11 c-10 -9 -11 -8 -5
6 3 10 9 15 12 12 3 -3 0 -11 -7 -18z m176 1 c-3 -8 -6 -5 -6 6 -1 11 2 17 5
13 3 -3 4 -12 1 -19z m214 -19 c24 -24 24 -39 0 -39 -21 0 -46 54 -34 73 4 7
8 7 11 -2 3 -8 13 -22 23 -32z m-423 6 c-3 -3 -9 2 -12 12 -6 14 -5 15 5 6 7
-7 10 -15 7 -18z m142 -15 c0 -5 -2 -10 -4 -10 -3 0 -8 5 -11 10 -3 6 -1 10 4
10 6 0 11 -4 11 -10z m-340 -30 c0 -14 -7 -20 -21 -20 -15 0 -19 -5 -15 -15 3
-8 1 -15 -4 -15 -6 0 -10 9 -10 20 0 11 7 20 15 20 9 0 18 7 21 15 8 21 14 19
14 -5z m593 6 c3 -8 0 -22 -7 -31 -12 -16 -13 -16 -19 -1 -4 11 -1 16 11 17
10 0 12 3 5 6 -15 5 -17 23 -4 23 5 0 11 -6 14 -14z m47 -41 c0 -8 -4 -15 -9
-15 -5 0 -11 7 -15 15 -3 9 0 15 9 15 8 0 15 -7 15 -15z m-730 1 c0 -3 -4 -8
-10 -11 -5 -3 -10 -1 -10 4 0 6 5 11 10 11 6 0 10 -2 10 -4z m100 -18 c0 -16
-3 -19 -11 -11 -6 6 -8 16 -5 22 11 17 16 13 16 -11z m512 -15 c-10 -4 -9 -8
5 -19 17 -12 16 -13 -4 -7 -30 7 -29 34 1 32 6 0 5 -3 -2 -6z m145 -30 c-3
-10 -5 -4 -5 12 0 17 2 24 5 18 2 -7 2 -21 0 -30z m-397 11 c0 -8 -5 -12 -10
-9 -6 4 -8 11 -5 16 9 14 15 11 15 -7z m-218 -16 c-7 -7 -12 -8 -12 -2 0 14
12 26 19 19 2 -3 -1 -11 -7 -17z m652 1 c-8 -14 -24 -10 -24 6 0 9 6 12 15 9
8 -4 12 -10 9 -15z m-813 -42 c-8 -8 -11 -7 -11 4 0 20 13 34 18 19 3 -7 -1
-17 -7 -23z m632 13 c-3 -11 -9 -17 -14 -15 -10 7 -1 35 11 35 5 0 6 -9 3 -20z
m127 5 c0 -8 -2 -15 -4 -15 -2 0 -6 7 -10 15 -3 8 -1 15 4 15 6 0 10 -7 10
-15z m-941 -12 c-3 -18 14 -52 22 -47 5 3 9 -6 9 -19 0 -20 -6 -26 -29 -29
-22 -3 -27 -1 -24 12 3 10 -4 20 -17 26 l-21 9 23 28 c21 26 39 36 37 20z
m296 -3 c3 -5 1 -10 -4 -10 -6 0 -11 5 -11 10 0 6 2 10 4 10 3 0 8 -4 11 -10z
m702 -12 c-3 -8 -6 -5 -6 6 -1 11 2 17 5 13 3 -3 4 -12 1 -19z m-105 -23 c0
-5 -5 -11 -10 -13 -5 -1 -9 4 -9 13 0 9 4 14 9 13 5 -2 10 -8 10 -13z m-251
-42 c-8 -15 -9 -12 -7 12 5 39 7 44 13 23 2 -10 0 -25 -6 -35z m-387 29 c-6
-4 -14 -14 -17 -22 -4 -10 -6 -8 -6 8 -1 15 5 22 17 22 10 0 13 -3 6 -8z m110
-28 c5 -14 4 -15 -9 -4 -17 14 -19 20 -6 20 5 0 12 -7 15 -16z m243 -40 c-3
-3 -12 -4 -19 -1 -8 3 -5 6 6 6 11 1 17 -2 13 -5z m-621 -52 c-4 -3 -11 0 -16
8 -15 24 -11 33 6 15 9 -9 13 -19 10 -23z m661 -14 c-3 -8 -6 -5 -6 6 -1 11 2
17 5 13 3 -3 4 -12 1 -19z m58 12 c3 -5 1 -10 -4 -10 -6 0 -11 5 -11 10 0 6 2
10 4 10 3 0 8 -4 11 -10z m-665 -22 c0 -6 -6 -5 -15 2 -8 7 -15 14 -15 16 0 2
7 1 15 -2 8 -4 15 -11 15 -16z m191 -1 c-10 -9 -11 -8 -5 6 3 10 9 15 12 12 3
-3 0 -11 -7 -18z m766 1 c-3 -8 -6 -5 -6 6 -1 11 2 17 5 13 3 -3 4 -12 1 -19z
m-57 1 c0 8 2 12 5 9 3 -3 3 -13 -1 -22 -7 -19 -24 -11 -24 12 0 15 2 15 10 2
8 -12 10 -12 10 -1z m-933 -31 c-9 -6 -8 -10 3 -18 13 -8 13 -10 -2 -10 -10 0
-22 9 -28 19 -14 26 -13 31 5 25 9 -4 15 0 15 7 0 11 2 11 10 -1 6 -9 5 -17
-3 -22z m1163 22 c0 -5 -2 -10 -4 -10 -3 0 -8 5 -11 10 -3 6 -1 10 4 10 6 0
11 -4 11 -10z m-898 -22 c-7 -7 -12 -8 -12 -2 0 6 3 14 7 17 3 4 9 5 12 2 2
-3 -1 -11 -7 -17z m818 12 c0 -5 -2 -10 -4 -10 -3 0 -8 5 -11 10 -3 6 -1 10 4
10 6 0 11 -4 11 -10z m-100 -20 c0 -5 -2 -10 -4 -10 -3 0 -8 5 -11 10 -3 6 -1
10 4 10 6 0 11 -4 11 -10z m-902 -27 c2 -8 -6 -13 -22 -13 -19 0 -24 4 -19 15
6 18 34 16 41 -2z m1008 2 c17 -16 14 -18 -10 -9 -9 3 -16 10 -16 15 0 13 9
11 26 -6z m-976 -25 c0 -5 -5 -10 -11 -10 -5 0 -7 5 -4 10 3 6 8 10 11 10 2 0
4 -4 4 -10z m-60 -29 c0 -5 -9 -7 -20 -4 -11 3 -20 7 -20 9 0 2 9 4 20 4 11 0
20 -4 20 -9z m-130 -31 c0 -5 -10 -10 -22 -10 -19 0 -20 2 -8 10 19 13 30 13
30 0z m1308 -25 c0 -13 -4 -22 -9 -19 -5 3 -9 16 -9 30 0 14 4 23 9 20 5 -3 9
-17 9 -31z m-1172 8 c16 -22 17 -33 4 -33 -6 0 -14 8 -17 18 -4 9 -11 20 -17
24 -7 5 -6 8 3 8 8 0 20 -8 27 -17z m904 -25 c0 -6 -7 -5 -15 2 -8 7 -15 17
-15 22 0 6 7 5 15 -2 8 -7 15 -17 15 -22z m195 2 c3 -5 -1 -10 -10 -10 -9 0
-13 5 -10 10 3 6 8 10 10 10 2 0 7 -4 10 -10z m10 -30 c3 -5 -1 -10 -10 -10
-9 0 -13 5 -10 10 3 6 8 10 10 10 2 0 7 -4 10 -10z m-665 -86 c0 -2 -7 -4 -15
-4 -8 0 -15 4 -15 10 0 5 7 7 15 4 8 -4 15 -8 15 -10z m-603 -68 c0 -8 -6 -12
-14 -9 -7 3 -10 9 -7 14 8 14 21 11 21 -5z m128 -44 c-6 -7 -35 12 -35 23 0
23 25 23 31 1 3 -12 5 -22 4 -24z m-92 -32 c-6 -21 -28 -27 -38 -10 -9 15 3
30 25 30 13 0 17 -5 13 -20z m1187 -20 c0 -5 -2 -10 -4 -10 -3 0 -8 5 -11 10
-3 6 -1 10 4 10 6 0 11 -4 11 -10z m70 -26 c0 -8 -4 -13 -9 -9 -5 3 -12 1 -16
-4 -6 -11 -35 -3 -35 9 0 8 21 16 48 19 6 0 12 -6 12 -15z m-835 -23 c3 -5 1
-12 -5 -16 -5 -3 -10 1 -10 9 0 18 6 21 15 7z m-325 -61 c0 -5 -4 -10 -10 -10
-5 0 -10 5 -10 10 0 6 5 10 10 10 6 0 10 -4 10 -10z m285 0 c8 -13 -15 -13
-35 0 -12 8 -11 10 7 10 12 0 25 -4 28 -10z m65 -39 c0 -5 -7 -11 -15 -15 -15
-5 -20 5 -8 17 9 10 23 9 23 -2z m376 -116 c1 -8 -2 -15 -7 -15 -5 0 -9 10 -9
22 0 23 12 17 16 -7z m242 -20 c10 18 11 15 12 -18 0 -31 -4 -39 -26 -48 -15
-5 -29 -8 -31 -6 -2 3 2 23 9 46 9 29 15 36 19 24 5 -15 7 -15 17 2z m-1058
-9 c0 -3 -4 -8 -10 -11 -5 -3 -10 -1 -10 4 0 6 5 11 10 11 6 0 10 -2 10 -4z
m810 -12 c0 -8 -4 -12 -10 -9 -5 3 -10 10 -10 16 0 5 5 9 10 9 6 0 10 -7 10
-16z m205 6 c-3 -5 -11 -10 -16 -10 -6 0 -7 5 -4 10 3 6 11 10 16 10 6 0 7 -4
4 -10z m-48 -22 c-3 -8 -6 -5 -6 6 -1 11 2 17 5 13 3 -3 4 -12 1 -19z m-1010
-5 c-9 -9 -20 -13 -24 -9 -4 4 -1 11 7 16 25 16 35 11 17 -7z m1056 -94 c-3
-10 -10 -19 -15 -19 -6 0 -8 7 -4 15 3 10 -1 15 -12 15 -15 1 -15 2 2 15 23
17 37 4 29 -26z"/>
<path d="M3101 1704 c0 -11 3 -14 6 -6 3 7 2 16 -1 19 -3 4 -6 -2 -5 -13z"/>
<path d="M2417 3092 c3 -14 1 -22 -7 -22 -9 0 -7 -7 5 -20 23 -26 32 -25 46 3
6 12 8 19 4 15 -4 -4 -18 4 -31 19 -21 25 -23 25 -17 5z"/>
<path d="M2385 3079 c-4 -6 -5 -12 -2 -15 2 -3 7 2 10 11 7 17 1 20 -8 4z"/>
<path d="M3131 3081 c-8 -5 -9 -11 -3 -15 5 -3 12 1 16 9 6 17 6 18 -13 6z"/>
<path d="M2345 3070 c3 -5 8 -10 11 -10 2 0 4 5 4 10 0 6 -5 10 -11 10 -5 0
-7 -4 -4 -10z"/>
<path d="M3100 3040 c0 -5 4 -10 9 -10 6 0 13 5 16 10 3 6 -1 10 -9 10 -9 0
-16 -4 -16 -10z"/>
<path d="M2386 3031 c-5 -8 -3 -17 5 -21 15 -10 29 -4 29 11 0 6 -4 8 -9 5 -5
-4 -11 -1 -13 6 -3 9 -6 9 -12 -1z"/>
<path d="M3220 3000 c0 -5 5 -10 11 -10 5 0 7 5 4 10 -3 6 -8 10 -11 10 -2 0
-4 -4 -4 -10z"/>
<path d="M3130 2926 c0 -2 7 -7 16 -10 8 -3 12 -2 9 4 -6 10 -25 14 -25 6z"/>
<path d="M2125 2840 c3 -5 11 -10 16 -10 6 0 7 5 4 10 -3 6 -11 10 -16 10 -6
0 -7 -4 -4 -10z"/>
<path d="M2095 2810 c-11 -18 11 -35 34 -24 17 8 17 11 5 22 -11 10 -14 10
-14 0 0 -10 -2 -10 -9 1 -6 10 -10 10 -16 1z"/>
<path d="M1950 2565 c0 -8 5 -15 10 -15 6 0 10 7 10 15 0 8 -4 15 -10 15 -5 0
-10 -7 -10 -15z"/>
<path d="M1890 2470 c0 -5 5 -10 10 -10 6 0 10 5 10 10 0 6 -4 10 -10 10 -5 0
-10 -4 -10 -10z"/>
<path d="M3355 2459 c-4 -6 -5 -12 -2 -15 2 -3 7 2 10 11 7 17 1 20 -8 4z"/>
<path d="M1877 2434 c6 -16 19 -18 27 -5 3 5 -3 11 -13 14 -14 3 -18 1 -14 -9z"/>
<path d="M4535 2400 c3 -5 10 -10 16 -10 5 0 9 5 9 10 0 6 -7 10 -16 10 -8 0
-12 -4 -9 -10z"/>
<path d="M4660 2350 c0 -5 6 -10 14 -10 8 0 18 5 21 10 3 6 -3 10 -14 10 -12
0 -21 -4 -21 -10z"/>
<path d="M4283 2306 c6 -48 50 -75 60 -37 3 14 0 17 -14 14 -14 -4 -19 0 -19
15 0 11 -7 23 -15 26 -12 4 -15 0 -12 -18z"/>
<path d="M4615 2320 c3 -5 8 -10 11 -10 2 0 4 5 4 10 0 6 -5 10 -11 10 -5 0
-7 -4 -4 -10z"/>
<path d="M4585 2280 c3 -5 12 -7 20 -3 21 7 19 13 -6 13 -11 0 -18 -4 -14 -10z"/>
<path d="M4875 2240 c3 -5 8 -10 11 -10 2 0 4 5 4 10 0 6 -5 10 -11 10 -5 0
-7 -4 -4 -10z"/>
<path d="M4906 2241 c-4 -7 -5 -15 -2 -18 9 -9 19 4 14 18 -4 11 -6 11 -12 0z"/>
<path d="M5020 2220 c-13 -11 -21 -23 -17 -26 3 -3 15 4 27 16 28 28 20 36
-10 10z"/>
<path d="M4965 2200 c3 -5 10 -10 16 -10 5 0 9 5 9 10 0 6 -7 10 -16 10 -8 0
-12 -4 -9 -10z"/>
<path d="M3695 2069 c-4 -6 -5 -12 -2 -15 2 -3 7 2 10 11 7 17 1 20 -8 4z"/>
<path d="M3508 2063 c7 -3 16 -2 19 1 4 3 -2 6 -13 5 -11 0 -14 -3 -6 -6z"/>
<path d="M3492 2028 c-7 -7 -12 -17 -12 -23 0 -14 50 -62 51 -49 0 5 2 19 5
31 2 13 1 22 -4 22 -21 -4 -31 3 -26 16 7 18 2 19 -14 3z"/>
<path d="M3756 2025 c4 -8 10 -15 15 -15 5 0 9 7 9 15 0 8 -7 15 -15 15 -9 0
-12 -6 -9 -15z"/>
<path d="M6285 1989 c-4 -6 -5 -12 -2 -15 2 -3 7 2 10 11 7 17 1 20 -8 4z"/>
<path d="M5108 1983 c7 -3 16 -2 19 1 4 3 -2 6 -13 5 -11 0 -14 -3 -6 -6z"/>
<path d="M6234 1955 l-22 -23 21 -6 c22 -5 47 9 47 26 0 6 -7 8 -14 5 -10 -4
-13 -1 -9 9 7 19 2 17 -23 -11z"/>
<path d="M3805 1959 c-4 -6 -4 -13 0 -17 4 -4 10 -1 12 6 3 6 10 9 15 6 7 -4
8 -2 4 4 -9 15 -23 15 -31 1z"/>
<path d="M3746 1939 c3 -6 0 -15 -7 -20 -11 -7 -10 -9 4 -9 10 0 17 8 17 20 0
11 -5 20 -11 20 -5 0 -7 -5 -3 -11z"/>
<path d="M5470 1936 c0 -9 5 -16 10 -16 6 0 10 4 10 9 0 6 -4 13 -10 16 -5 3
-10 -1 -10 -9z"/>
<path d="M3565 1930 c-3 -5 -2 -10 4 -10 5 0 13 5 16 10 3 6 2 10 -4 10 -5 0
-13 -4 -16 -10z"/>
<path d="M3866 1932 c-4 -7 -20 -10 -37 -8 -21 2 -29 0 -25 -9 3 -8 -2 -11
-15 -8 -13 4 -19 0 -19 -12 0 -11 5 -15 14 -12 10 4 13 1 9 -9 -3 -9 1 -14 12
-14 13 0 16 -6 11 -24 -4 -17 -1 -26 10 -30 25 -10 34 -7 34 10 0 8 5 12 11 8
7 -4 9 1 7 12 -2 11 -11 18 -20 16 -9 -1 -18 6 -21 18 -3 13 0 20 10 20 8 0
12 -3 10 -7 -3 -5 6 -9 19 -9 27 -2 30 10 10 45 -8 15 -16 20 -20 13z"/>
<path d="M5525 1890 c-3 -5 -1 -10 4 -10 6 0 11 5 11 10 0 6 -2 10 -4 10 -3 0
-8 -4 -11 -10z"/>
<path d="M5656 1834 c-5 -14 -4 -15 9 -4 17 14 19 20 6 20 -5 0 -12 -7 -15
-16z"/>
<path d="M5540 1830 c0 -5 5 -10 10 -10 6 0 10 5 10 10 0 6 -4 10 -10 10 -5 0
-10 -4 -10 -10z"/>
<path d="M5676 1805 c4 -8 7 -15 9 -15 2 0 5 7 9 15 3 9 0 15 -9 15 -9 0 -12
-6 -9 -15z"/>
<path d="M5690 1764 c0 -8 5 -12 10 -9 6 4 8 11 5 16 -9 14 -15 11 -15 -7z"/>
<path d="M3182 1614 l-2 -62 46 -7 c26 -3 53 -9 61 -12 11 -4 14 1 11 23 -2
20 -9 30 -23 31 -11 1 -30 5 -42 9 -17 5 -23 2 -23 -10 0 -9 -4 -16 -9 -16 -6
0 -12 24 -14 53 l-3 52 -2 -61z"/>
<path d="M1356 1618 c4 -5 16 -13 28 -18 16 -7 10 -9 -29 -10 -27 -1 -45 -4
-38 -6 12 -5 -81 -104 -98 -104 -5 0 -9 -8 -9 -17 0 -13 -3 -14 -12 -5 -9 9
-16 8 -30 -5 -18 -16 -18 -16 -12 3 4 10 10 24 13 29 8 14 -41 -39 -80 -88
-23 -27 -26 -35 -12 -30 16 6 17 5 3 -11 -8 -10 -23 -22 -35 -26 -14 -6 -3 -9
38 -9 31 -1 60 -1 63 0 4 0 11 -5 15 -13 6 -9 37 15 116 93 59 59 127 119 150
133 44 27 79 33 85 16 4 -13 68 -25 68 -13 0 5 -52 27 -115 49 -63 23 -112 37
-109 32z m-236 -252 c0 -3 -4 -8 -10 -11 -5 -3 -10 -1 -10 4 0 6 5 11 10 11 6
0 10 -2 10 -4z"/>
<path d="M7140 1600 c-12 -8 -10 -10 8 -10 13 0 20 4 17 10 -7 12 -6 12 -25 0z"/>
<path d="M7233 1586 c-45 -6 -85 -14 -88 -18 -3 -3 6 -45 20 -93 14 -48 25
-97 25 -109 1 -18 2 -19 10 -4 6 9 11 30 13 47 4 30 17 56 17 33 0 -27 28 -7
70 50 25 33 53 71 63 84 l19 24 -34 -1 c-18 -1 -70 -7 -115 -13z"/>
<path d="M5950 1561 c19 -12 42 -26 50 -31 39 -25 72 -41 77 -37 2 3 -24 21
-59 40 -71 40 -122 61 -68 28z"/>
<path d="M3320 1553 c0 -14 8 -22 25 -25 31 -6 33 9 3 15 -16 4 -13 5 7 4 19
-1 30 -7 30 -17 0 -14 39 -24 173 -45 41 -6 42 -6 42 23 0 31 6 29 -130 47
-145 19 -150 19 -150 -2z"/>
<path d="M5608 1543 c7 -3 16 -2 19 1 4 3 -2 6 -13 5 -11 0 -14 -3 -6 -6z"/>
<path d="M5568 1533 c7 -3 16 -2 19 1 4 3 -2 6 -13 5 -11 0 -14 -3 -6 -6z"/>
<path d="M1242 1292 c-6 -5 -23 -73 -37 -152 -23 -127 -35 -178 -35 -142 0 7
-7 12 -15 12 -11 0 -15 -10 -14 -37 1 -34 2 -35 9 -13 6 19 8 20 9 6 1 -15 4
-16 16 -6 8 7 15 17 15 23 0 6 6 18 14 26 13 16 61 261 55 280 -2 6 -10 7 -17
3z"/>
<path d="M2350 1123 l0 -53 70 0 c64 0 89 10 58 23 -7 3 7 5 32 6 34 0 40 -3
25 -9 -19 -8 -19 -9 3 -9 20 -1 22 4 22 47 l0 47 -105 0 -105 0 0 -52z m170
-9 c0 -2 -16 -4 -35 -4 -19 0 -35 4 -35 8 0 4 16 6 35 4 19 -2 35 -6 35 -8z"/>
<path d="M1591 993 c0 -6 -4 -20 -7 -30 -5 -14 -4 -15 5 -7 7 7 11 20 8 30 -3
11 -5 14 -6 7z"/>
<path d="M1365 900 c-3 -5 -2 -10 4 -10 5 0 13 5 16 10 3 6 2 10 -4 10 -5 0
-13 -4 -16 -10z"/>
<path d="M2861 859 c-7 -12 -10 -23 -8 -26 3 -3 11 5 17 17 15 28 8 35 -9 9z"/>
<path d="M2260 740 c0 -5 5 -10 11 -10 5 0 7 5 4 10 -3 6 -8 10 -11 10 -2 0
-4 -4 -4 -10z"/>
</g>
</svg>
