<?xml version="1.0" standalone="no"?>
<!DOCTYPE svg PUBLIC "-//W3C//DTD SVG 20010904//EN"
 "http://www.w3.org/TR/2001/REC-SVG-20010904/DTD/svg10.dtd">
<svg version="1.0" xmlns="http://www.w3.org/2000/svg"
 width="401.000000pt" height="501.000000pt" viewBox="0 0 401.000000 501.000000"
 preserveAspectRatio="xMidYMid meet">

<g transform="translate(0.000000,501.000000) scale(0.100000,-0.100000)"
fill="#000000" stroke="none">
<path d="M2565 3480 c-3 -5 -1 -18 5 -27 9 -15 10 -14 5 7 -5 22 -4 22 5 7 8
-12 18 -16 31 -12 14 5 19 2 19 -12 0 -24 -16 -48 -32 -48 -7 0 -14 -14 -16
-32 -2 -21 -9 -33 -18 -33 -17 0 -18 14 -4 41 7 13 7 19 0 19 -5 0 -10 -6 -10
-12 0 -7 -10 -24 -21 -38 -11 -14 -18 -19 -14 -12 8 15 -7 16 -22 1 -9 -9 -10
-6 -6 10 10 37 -21 20 -33 -18 -13 -43 -38 -56 -28 -15 5 19 4 25 -5 20 -6 -4
-11 -20 -11 -37 0 -22 -5 -29 -19 -29 -18 0 -18 1 2 44 13 28 25 42 34 39 7
-3 13 0 13 6 0 6 -7 11 -15 11 -19 0 -19 17 0 37 9 8 13 18 10 21 -10 11 -65
-62 -65 -87 -1 -24 -20 -61 -32 -61 -3 0 -8 9 -11 20 -3 11 -1 20 4 20 7 0 40
94 38 109 0 3 -9 -12 -20 -34 -10 -22 -19 -35 -19 -30 0 6 -4 4 -9 -4 -12 -18
-52 -5 -44 15 4 10 -2 14 -21 14 -15 0 -26 -6 -26 -14 0 -7 -7 -19 -15 -26 -9
-8 -15 -9 -15 -2 0 6 5 14 10 17 16 10 12 28 -5 21 -11 -4 -15 2 -15 22 -1 23
-2 24 -11 10 -11 -19 -39 -25 -39 -8 0 6 6 10 14 10 8 0 16 5 18 11 4 12 26
14 231 24 81 4 147 11 147 15 0 13 -34 22 -38 11 -5 -15 -32 -14 -32 0 0 8 -4
8 -13 0 -9 -6 -48 -9 -105 -7 -51 2 -92 0 -92 -3 0 -9 -77 -7 -86 2 -4 4 -12
3 -18 -2 -17 -13 -56 -20 -56 -10 0 5 -11 9 -25 9 -14 0 -25 -4 -25 -10 0 -5
-16 -10 -37 -10 -57 0 -28 -16 37 -20 23 -1 23 -2 5 -10 -19 -8 -19 -9 1 -9
12 -1 24 6 28 14 3 9 17 15 38 14 18 -1 25 -3 16 -6 -10 -2 -18 -11 -18 -18 0
-8 -9 -19 -20 -25 -11 -6 -17 -16 -14 -25 4 -8 1 -15 -5 -15 -6 0 -11 10 -11
23 0 19 -5 23 -32 22 -18 0 -38 3 -44 8 -13 8 -54 -36 -54 -58 0 -19 -50 -103
-50 -85 -1 11 -4 10 -16 -5 -16 -19 -16 -19 -10 5 6 25 6 25 -5 3 -7 -13 -16
-23 -20 -23 -4 0 8 34 27 75 20 41 34 80 31 87 -3 9 -7 6 -12 -7 -21 -58 -39
-87 -58 -94 -24 -9 -38 -4 -21 7 6 4 13 18 16 32 3 14 9 33 13 43 6 13 4 16
-9 11 -9 -3 -16 -10 -16 -16 0 -5 -7 -16 -15 -25 -9 -8 -18 -28 -21 -42 -3
-15 -15 -33 -26 -40 -11 -7 -17 -8 -13 -2 3 6 2 11 -4 11 -5 0 -13 -4 -16 -10
-12 -20 -26 -10 -15 10 6 11 17 20 25 20 16 0 18 5 19 67 1 47 -10 46 -30 -3
-8 -19 -19 -34 -25 -34 -6 0 -9 -6 -6 -13 3 -8 -1 -14 -9 -14 -17 0 -17 5 1
37 8 14 14 32 14 40 0 8 -11 -5 -25 -30 -13 -25 -22 -34 -18 -20 6 23 6 24
-11 10 -17 -14 -17 -13 -10 10 17 57 30 66 90 68 63 2 75 6 57 24 -8 8 -15 8
-24 1 -7 -6 -71 -13 -143 -15 -71 -3 -116 -2 -100 2 28 7 27 8 -12 9 -23 0
-45 -4 -50 -11 -11 -17 -146 -268 -185 -345 -18 -34 -29 -65 -26 -69 13 -13
47 8 67 42 16 27 26 34 41 29 12 -4 20 -2 20 5 0 6 5 8 10 5 6 -3 10 -16 10
-28 l1 -22 12 23 c7 12 23 29 35 38 21 14 22 14 22 -12 0 -22 2 -25 15 -14 12
10 15 10 15 -1 0 -8 12 4 27 26 21 31 28 36 31 22 2 -10 -6 -33 -17 -52 -14
-25 -16 -35 -8 -35 8 0 21 16 30 35 12 24 23 35 39 35 17 0 19 -3 10 -12 -7
-7 -12 -21 -12 -33 0 -12 -5 -26 -12 -33 -9 -9 -9 -12 -1 -12 7 0 15 9 18 21
4 11 13 18 20 15 7 -2 16 2 19 10 3 8 15 14 26 14 11 0 20 5 20 11 0 5 -5 7
-12 3 -7 -5 -8 -3 -3 6 6 10 10 10 20 -3 6 -8 20 -15 31 -14 15 2 18 -3 16
-25 -2 -16 1 -28 7 -28 6 0 11 6 11 14 0 27 72 158 80 146 5 -8 -1 -23 -15
-38 -21 -23 -53 -106 -47 -124 2 -9 1 -9 -50 -12 -36 -3 -37 -1 -32 23 l5 26
-16 -27 c-17 -31 -12 -30 -338 -32 -93 -1 -116 -4 -112 -14 3 -8 5 -16 5 -18
0 -2 18 -4 39 -4 l39 0 -4 -187 c-3 -104 -7 -230 -10 -280 l-6 -93 -46 -2
c-112 -5 -232 11 -283 37 -23 12 -71 21 -144 26 -237 16 -431 41 -565 74 -30
7 -93 16 -139 20 -46 4 -90 9 -97 12 -11 4 -14 -134 -14 -846 0 -805 1 -851
17 -851 10 0 31 -16 46 -35 27 -34 31 -35 86 -34 89 3 132 -31 110 -87 -5 -16
-7 -39 -4 -52 7 -28 -18 -62 -45 -62 -9 0 -25 8 -34 19 -15 16 -15 19 -1 24
16 7 21 32 8 40 -5 3 -23 8 -41 12 -31 6 -32 6 -32 -30 0 -31 -4 -37 -30 -46
-26 -10 -29 -14 -23 -42 3 -18 16 -40 29 -50 31 -24 34 -72 4 -64 -11 3 -29
-3 -41 -14 -12 -10 -28 -19 -36 -19 -10 0 -13 -41 -13 -215 l0 -215 2005 0
2005 0 0 110 c0 91 -3 110 -15 110 -8 0 -15 7 -15 15 0 8 7 15 15 15 13 0 15
71 15 575 l0 575 -34 0 c-40 0 -52 12 -31 30 12 10 21 10 40 2 l25 -12 0 440
c-1 275 -4 440 -10 440 -6 0 -10 -4 -10 -10 0 -6 -23 -9 -52 -8 l-53 1 45 7
c25 4 34 8 21 8 -13 1 -21 5 -17 9 4 4 23 6 42 4 l34 -3 0 51 0 51 -102 2
c-114 3 -145 3 -400 -1 -112 -2 -178 -7 -178 -13 0 -7 -16 -8 -41 -4 -58 9
-240 -4 -232 -17 4 -6 -10 -7 -39 -3 -54 8 -79 0 -70 -22 5 -15 4 -15 -13 -2
-10 8 -40 16 -66 17 -26 1 -62 9 -78 19 -24 14 -35 15 -54 7 -19 -9 -35 -8
-68 4 -33 11 -49 12 -61 4 -10 -6 -36 -11 -58 -11 l-40 0 2 203 3 202 2 -197
3 -197 35 1 c19 1 35 5 35 10 0 5 27 8 60 6 33 -1 60 -7 60 -12 0 -4 7 -3 15
4 12 10 15 47 15 216 l0 204 30 0 c22 0 30 5 30 17 0 17 -105 519 -117 558 -5
18 -6 18 -15 -5 -5 -13 -6 -36 -3 -50 3 -15 2 -20 -3 -12 -12 18 -32 -29 -32
-78 0 -56 18 -50 22 8 2 26 8 46 13 45 6 -1 22 -57 36 -125 15 -68 34 -149 42
-180 8 -32 12 -60 7 -63 -6 -4 -71 280 -70 312 0 6 -5 15 -10 18 -7 4 -10 -32
-8 -108 l3 -114 -22 15 c-21 13 -23 23 -24 101 l-1 86 -41 -122 c-38 -113 -57
-148 -57 -107 0 10 -6 14 -15 10 -8 -3 -122 -7 -252 -10 -131 -3 -231 -3 -222
0 9 3 25 26 37 52 12 26 19 38 16 27 -21 -74 -20 -75 27 -74 l44 2 -40 6 -40
7 40 8 c22 4 44 13 48 19 6 9 10 9 14 -1 2 -6 9 -9 15 -6 5 3 12 -3 15 -14 5
-20 5 -20 24 -1 10 10 19 23 19 29 0 5 9 14 20 20 18 10 20 8 20 -17 0 -24 3
-22 24 22 13 28 31 72 41 98 11 32 21 45 27 39 6 -6 4 -19 -7 -36 -11 -16 -15
-35 -11 -51 4 -14 3 -25 -2 -25 -5 0 -14 -12 -20 -26 -7 -14 -8 -23 -3 -20 5
4 11 3 14 -1 2 -5 2 -3 1 4 -3 14 20 35 29 26 12 -11 8 -43 -5 -43 -6 0 -9 -2
-6 -5 10 -11 39 8 34 22 -3 7 1 16 9 19 8 3 17 14 20 25 4 10 11 19 17 19 7 0
6 -5 -2 -14 -6 -8 -14 -30 -16 -48 -4 -30 -3 -31 9 -15 17 21 28 22 21 2 -5
-11 -2 -13 9 -9 13 5 14 10 4 32 -9 20 -9 26 1 30 6 2 12 13 12 25 0 12 7 35
15 51 8 15 15 33 15 38 0 22 33 78 46 78 8 0 14 -5 14 -12 0 -6 -3 -8 -7 -5
-9 9 -65 -104 -59 -119 3 -7 1 -14 -4 -16 -5 -2 -11 -24 -13 -51 -2 -26 -7
-50 -11 -54 -9 -10 -7 -23 4 -23 9 0 23 26 61 115 7 17 11 36 10 44 -1 7 2 10
8 6 6 -3 12 1 12 9 2 20 3 25 17 59 7 15 14 42 17 60 4 17 10 34 14 37 4 3 15
27 24 54 16 48 16 48 -4 43 -16 -4 -19 -2 -15 10 5 13 4 14 -8 4 -11 -9 -20
-10 -35 -2 -13 7 -22 8 -26 1z m-925 -96 c0 -7 -4 -16 -10 -19 -14 -9 -12 -48
3 -64 10 -10 8 -15 -7 -27 -25 -17 -31 -12 -16 15 8 16 8 21 -1 21 -11 0 -10
11 6 55 4 11 -7 -1 -24 -27 -33 -51 -59 -66 -35 -20 16 32 18 42 4 42 -5 0
-12 -11 -16 -25 -3 -14 -10 -25 -16 -25 -5 0 -7 4 -3 9 11 18 -11 19 -33 2
-15 -11 -24 -28 -24 -48 -1 -25 -6 -32 -27 -36 -36 -7 -38 -1 -10 29 23 24 23
26 6 39 -17 12 -17 14 0 46 10 19 19 35 20 37 3 6 138 18 161 14 12 -3 22 -10
22 -18z m525 -103 c-22 -43 -29 -39 -10 5 8 20 15 39 16 43 0 3 3 1 5 -6 3 -6
-2 -25 -11 -42z m135 20 c0 -9 -41 -23 -48 -16 -2 2 -1 8 3 14 8 13 45 15 45
2z m210 -5 c0 -7 -6 -19 -14 -25 -18 -15 -30 11 -13 28 15 15 27 14 27 -3z
m-456 -11 c3 -8 1 -15 -4 -15 -6 0 -10 5 -10 12 0 6 -7 3 -15 -8 -12 -15 -14
-16 -15 -3 0 30 33 41 44 14z m-401 -68 c-8 -31 -20 -54 -24 -51 -5 3 -9 -7
-9 -23 0 -20 -3 -24 -9 -14 -6 9 -3 29 9 55 10 23 23 54 29 70 19 47 22 24 4
-37z m-115 39 c15 5 15 4 0 -6 -10 -6 -18 -18 -18 -25 0 -8 -4 -15 -8 -15 -5
0 -6 15 -4 33 3 17 7 27 9 20 2 -7 12 -10 21 -7z m48 -21 c0 -19 -3 -29 -7
-23 -5 7 -11 9 -16 5 -4 -4 -2 -17 5 -27 9 -16 9 -18 -2 -14 -8 3 -17 1 -21
-5 -3 -7 3 -11 15 -11 12 0 18 -4 15 -10 -3 -5 -17 -10 -30 -10 -12 0 -25 -7
-29 -15 -3 -8 -11 -15 -17 -15 -8 0 -6 7 4 18 10 10 17 23 17 29 0 6 7 16 15
23 9 7 14 18 12 24 -5 13 20 66 31 66 5 0 8 -16 8 -35z m234 18 c0 -22 -26
-73 -37 -73 -18 0 -16 12 5 49 16 28 32 41 32 24z m670 -21 c0 -10 -7 -27 -15
-38 -14 -18 -14 -17 -5 9 6 17 6 27 0 27 -6 0 -10 -8 -11 -17 0 -12 -2 -13 -6
-5 -5 14 14 42 28 42 5 0 9 -8 9 -18z m-593 -24 c-3 -8 -6 -5 -6 6 -1 11 2 17
5 13 3 -3 4 -12 1 -19z m530 0 c-3 -8 -6 -5 -6 6 -1 11 2 17 5 13 3 -3 4 -12
1 -19z m-551 -44 c-4 -18 -10 -34 -14 -34 -10 0 -8 63 3 80 13 21 18 -3 11
-46z m444 27 c0 -12 -20 -25 -27 -18 -7 7 6 27 18 27 5 0 9 -4 9 -9z m-900 -6
c0 -10 -75 -75 -84 -72 -21 7 -17 27 7 27 16 0 28 8 35 25 10 21 42 36 42 20z
m265 -5 c3 -5 1 -10 -4 -10 -6 0 -11 5 -11 10 0 6 2 10 4 10 3 0 8 -4 11 -10z
m-185 -14 c0 -7 -9 -16 -20 -19 -11 -3 -20 -1 -20 4 0 5 7 9 15 9 8 0 15 5 15
10 0 6 2 10 5 10 3 0 5 -6 5 -14z m912 -15 c-22 -22 -27 -19 -12 8 6 12 15 19
20 16 5 -3 2 -14 -8 -24z m-972 1 c0 -4 -9 -8 -20 -9 -22 -2 -27 13 -7 20 14
5 27 -1 27 -11z m239 -20 c12 -22 11 -23 -8 -13 -12 7 -18 17 -14 27 6 17 6
17 22 -14z m78 -23 c-16 -26 -28 -13 -15 17 8 16 14 21 19 13 4 -7 2 -20 -4
-30z m-107 -4 c0 -8 -4 -15 -10 -15 -5 0 -7 7 -4 15 4 8 8 15 10 15 2 0 4 -7
4 -15z m180 -43 c0 -3 -8 -14 -17 -25 -17 -18 -16 -19 65 -15 45 1 82 6 82 11
0 4 6 7 14 7 8 0 17 6 20 13 3 6 4 1 3 -13 -2 -25 -4 -25 -105 -30 -97 -5
-127 0 -102 15 5 3 10 14 10 24 0 10 7 18 15 18 8 0 15 -3 15 -5z m70 -22 c0
-5 -5 -10 -11 -10 -5 0 -7 5 -4 10 3 6 8 10 11 10 2 0 4 -4 4 -10z m421 -285
l1 -140 -85 -3 -85 -4 9 44 c4 23 8 87 9 141 0 58 4 97 10 97 6 0 10 -27 10
-60 l0 -60 55 0 55 0 0 43 c0 41 9 91 16 85 2 -2 4 -67 5 -143z m-321 63 c0
-40 -3 -144 -7 -231 l-6 -159 -86 3 c-48 2 -92 0 -98 -4 -6 -4 -14 -4 -16 0
-2 5 -2 108 1 230 l5 222 96 4 c53 1 99 4 104 5 4 1 7 -31 7 -70z m-490 -10
c0 -26 4 -49 9 -53 6 -3 28 -3 50 1 l41 7 0 46 c0 25 5 53 10 61 7 10 10 -32
10 -127 l0 -143 -77 0 -78 0 3 127 c2 71 5 135 8 143 9 26 24 -11 24 -62z
m1155 -113 c0 -80 -1 -145 -3 -145 -1 0 -14 7 -27 16 -24 16 -25 19 -25 148 0
73 3 135 6 139 3 3 16 1 27 -4 21 -10 22 -16 22 -154z m-1905 -325 c0 -5 -4
-10 -10 -10 -5 0 -10 5 -10 10 0 6 5 10 10 10 6 0 10 -4 10 -10z m2433 3 c-18
-2 -48 -2 -65 0 -18 2 -4 4 32 4 36 0 50 -2 33 -4z m-2498 -13 c3 -5 2 -10 -4
-10 -5 0 -13 5 -16 10 -3 6 -2 10 4 10 5 0 13 -4 16 -10z m3002 4 c-3 -3 -12
-4 -19 -1 -8 3 -5 6 6 6 11 1 17 -2 13 -5z m-706 -28 c5 3 9 0 9 -6 0 -7 -7
-9 -16 -6 -9 3 -18 6 -20 6 -3 0 -2 5 2 12 6 9 9 9 12 0 2 -7 8 -10 13 -6z
m92 -3 c-7 -2 -21 -2 -30 0 -10 3 -4 5 12 5 17 0 24 -2 18 -5z m37 -18 c10
-13 9 -15 -8 -15 -15 0 -20 5 -16 15 4 8 7 15 9 15 1 0 8 -7 15 -15z m105 -13
c-3 -3 -11 0 -18 7 -9 10 -8 11 6 5 10 -3 15 -9 12 -12z m603 1 c5 -18 -19
-16 -43 3 -19 15 -19 15 9 12 16 -2 31 -9 34 -15z m56 8 c3 -5 -3 -11 -14 -14
-20 -5 -35 5 -23 17 9 9 31 7 37 -3z m-601 -18 c3 -5 -8 -8 -25 -9 -20 -1 -25
2 -16 7 16 11 35 11 41 2z m41 -21 c-8 -2 -11 -9 -8 -15 5 -9 4 -9 -6 0 -7 6
-10 19 -6 28 5 13 8 14 20 3 12 -11 12 -13 0 -16z m121 8 c3 -5 1 -10 -4 -10
-6 0 -11 5 -11 10 0 6 2 10 4 10 3 0 8 -4 11 -10z m75 -5 c14 -8 19 -14 10
-14 -8 0 -24 6 -34 14 -25 19 -9 19 24 0z m-565 -26 c2 -26 55 -61 62 -41 3 8
14 3 32 -15 14 -16 40 -38 56 -51 l30 -22 -27 2 c-15 1 -25 5 -23 9 2 3 -11
20 -29 38 -19 18 -36 28 -40 23 -3 -6 -23 -8 -43 -7 -27 3 -45 12 -60 32 -31
38 -29 52 2 23 l25 -23 0 33 c0 35 12 35 15 -1z m457 18 c7 -7 30 -12 52 -12
22 0 41 -5 43 -12 3 -7 13 -13 22 -13 14 -1 13 -3 -3 -15 -11 -8 -14 -15 -8
-15 7 0 12 -4 12 -10 0 -6 -10 -5 -25 2 -14 6 -25 17 -25 24 0 12 -53 30 -77
25 -7 -1 -23 7 -35 19 l-22 20 26 0 c15 0 33 -6 40 -13z m-178 -16 c4 -5 -3
-7 -14 -4 -23 6 -26 13 -6 13 8 0 17 -4 20 -9z m57 -8 c13 -17 13 -17 -6 -3
-11 8 -22 16 -24 17 -2 2 0 3 6 3 6 0 17 -8 24 -17z m303 8 c4 -5 -3 -7 -14
-4 -23 6 -26 13 -6 13 8 0 17 -4 20 -9z m-1474 -31 c0 -11 -3 -20 -8 -20 -4 0
-13 9 -20 20 -11 18 -10 20 8 20 13 0 20 -7 20 -20z m314 5 c8 -8 19 -15 24
-15 5 0 16 -8 23 -17 11 -13 5 -12 -24 5 -45 26 -47 26 -47 6 0 -8 -4 -13 -9
-10 -7 5 -8 23 -2 44 3 7 22 0 35 -13z m-989 -5 c3 -5 2 -10 -4 -10 -5 0 -13
5 -16 10 -3 6 -2 10 4 10 5 0 13 -4 16 -10z m436 -2 c1 -7 1 -19 0 -25 -1 -8
9 -13 23 -13 30 0 56 -9 56 -20 0 -14 -69 -7 -74 7 -3 8 -15 12 -29 9 -16 -3
-24 1 -24 10 0 9 4 10 11 5 7 -6 16 -4 23 4 10 11 7 15 -15 23 l-27 10 28 1
c15 1 28 -5 28 -11z m-316 -19 c17 -7 40 -11 52 -10 12 1 32 -3 45 -10 13 -7
58 -14 102 -14 50 -2 81 -7 86 -15 6 -9 9 -9 15 0 6 9 9 9 15 -1 9 -13 15 -14
133 -24 38 -3 77 -10 87 -15 10 -5 41 -15 69 -21 28 -6 54 -15 57 -21 4 -6 -2
-8 -17 -4 -24 6 -24 6 -2 -5 18 -9 25 -8 38 5 10 9 15 23 12 31 -5 12 0 12 35
-1 27 -9 45 -11 52 -4 7 5 22 7 34 3 12 -3 22 -1 22 5 0 15 -24 31 -58 38 -18
4 -32 11 -32 17 0 6 13 7 33 2 17 -4 38 -7 45 -8 6 0 11 -7 10 -16 -2 -12 7
-17 37 -19 22 -2 45 -8 52 -14 16 -13 36 0 29 18 -8 21 17 17 44 -6 24 -21 22
-23 -22 -20 -16 1 -28 -2 -28 -7 1 -12 30 -48 31 -37 0 5 4 -1 9 -13 10 -23
30 -32 30 -12 0 6 9 8 23 3 12 -4 44 -7 71 -6 29 0 58 -6 72 -15 15 -9 24 -11
24 -4 0 6 -8 12 -17 12 -15 1 -15 2 -2 6 20 5 74 -23 60 -32 -23 -14 -9 -24
45 -31 39 -4 58 -3 63 5 4 6 14 9 23 6 13 -5 44 -9 106 -14 7 -1 10 -6 7 -11
-4 -6 -16 -8 -27 -4 -18 5 -19 3 -13 -26 5 -23 3 -35 -6 -42 -11 -7 -9 -8 4
-4 10 3 25 6 33 6 8 0 14 4 14 10 0 5 -8 7 -17 4 -10 -3 -6 2 8 12 17 11 26
26 27 45 1 31 -17 46 -73 61 -24 6 -20 7 19 4 37 -3 54 -10 73 -30 13 -14 21
-31 18 -36 -3 -6 3 -10 14 -10 30 0 26 -16 -8 -36 -17 -10 -28 -22 -25 -26 3
-5 13 -3 21 4 8 7 33 11 56 9 23 -2 58 -5 77 -6 58 -5 114 -20 144 -40 39 -26
16 -31 -25 -6 -43 26 -159 30 -159 6 0 -8 6 -15 13 -16 76 -6 107 -11 137 -21
19 -6 45 -11 58 -10 24 2 72 -24 72 -39 0 -5 -8 -6 -17 -2 -15 5 -16 3 -5 -8
10 -11 17 -10 42 4 17 10 30 13 30 8 0 -6 18 -11 40 -11 22 0 49 -6 60 -12 15
-9 22 -10 31 -1 9 9 2 14 -27 22 -22 6 -47 11 -56 11 -10 0 -18 2 -18 4 0 2
-3 11 -6 20 -3 9 -1 16 5 16 6 0 11 -7 11 -15 0 -11 11 -15 35 -15 34 0 94
-23 105 -41 3 -5 19 -5 35 0 l30 8 -42 13 c-24 7 -43 17 -43 22 0 11 28 10 35
-2 3 -5 15 -10 26 -10 11 0 24 -11 31 -26 15 -32 -4 -48 -47 -38 -40 9 -66 9
-87 0 -13 -6 -18 -4 -18 8 0 9 -8 16 -17 16 -13 0 -14 -3 -5 -12 17 -17 15
-28 -7 -28 -11 0 -22 -6 -25 -12 -3 -7 -3 -3 0 10 3 12 1 22 -5 22 -6 0 -11 7
-11 15 0 8 -7 15 -16 15 -14 0 -14 -2 -3 -16 11 -14 9 -19 -11 -35 -28 -21
-60 -25 -60 -8 0 6 6 9 13 6 21 -8 38 8 31 27 -6 15 -15 17 -50 12 -24 -3 -43
-2 -43 2 5 28 -28 51 -95 68 -26 6 -29 5 -23 -15 4 -15 1 -21 -11 -21 -15 0
-15 -2 -2 -10 11 -7 11 -10 2 -10 -7 0 -12 -8 -10 -17 2 -10 -1 -18 -7 -18 -5
0 -16 -4 -22 -8 -9 -5 -13 -3 -13 7 0 9 -5 16 -11 16 -6 0 -8 -9 -4 -21 5 -15
4 -19 -4 -15 -6 4 -11 2 -11 -3 0 -6 -11 -11 -25 -11 -22 0 -24 2 -15 26 6 14
10 29 10 33 0 14 -44 21 -51 9 -6 -9 -23 -4 -58 16 -35 19 -51 23 -52 14 0 -7
-4 -4 -9 8 -5 13 -24 25 -53 34 -49 13 -69 8 -60 -15 6 -18 -27 -21 -45 -3 -9
9 -12 9 -12 0 0 -7 -9 -12 -21 -12 -11 0 -29 -5 -40 -10 -15 -9 -19 -7 -19 5
0 9 -4 14 -10 10 -5 -3 -7 -12 -3 -20 3 -8 0 -15 -6 -15 -6 0 -11 7 -11 15 0
8 -4 15 -9 15 -5 0 -18 3 -28 6 -16 6 -15 5 2 -9 20 -15 20 -16 -5 -25 -15 -6
-35 -6 -48 -1 -13 5 -28 7 -33 3 -5 -3 -9 -1 -9 4 0 5 9 12 20 15 11 3 20 10
20 16 0 14 -23 14 -37 0 -7 -7 -20 -8 -34 -3 -13 4 -26 9 -29 9 -14 4 -47 18
-62 26 -10 5 -18 5 -18 0 0 -8 -72 -22 -119 -23 -12 0 -28 5 -35 12 -8 9 -8
11 3 8 7 -2 16 3 18 10 6 15 -39 16 -54 1 -13 -13 -43 -5 -43 11 0 5 13 10 29
10 27 0 50 24 36 38 -3 3 -5 0 -5 -8 0 -9 -4 -9 -13 -2 -8 7 -18 6 -31 -4 -15
-10 -22 -11 -27 -3 -4 7 -24 13 -45 14 -22 1 -41 3 -44 5 -3 1 -27 3 -55 5
-27 2 -69 5 -91 7 -29 2 -40 -1 -37 -9 3 -6 12 -13 21 -15 14 -3 13 -6 -5 -16
-21 -12 -23 -11 -23 11 0 12 -5 28 -12 35 -9 9 -7 12 13 12 13 0 31 5 39 11
11 8 6 9 -22 7 -21 -2 -38 0 -38 4 0 5 -22 7 -49 5 -42 -4 -48 -2 -44 13 4 15
-2 17 -43 13 -63 -5 -65 -9 -12 -21 36 -8 30 -9 -37 -5 -80 6 -140 22 -81 23
21 0 27 4 22 15 -3 8 -1 15 4 15 6 0 10 -5 10 -11 0 -6 7 -4 15 5 8 8 12 22 9
30 -7 19 -21 21 -26 4 -3 -7 -7 -2 -11 11 -4 18 -2 21 10 17 14 -6 14 -4 2 14
-8 12 -18 21 -22 20 -4 -1 -19 6 -33 15 -17 11 -29 13 -37 6 -8 -6 -18 -5 -31
5 -23 16 -56 19 -56 4 0 -16 -40 -12 -46 5 -4 8 -10 15 -16 15 -5 0 -6 -5 -2
-11 4 -8 -2 -9 -22 -5 -16 4 -45 7 -65 8 -30 1 -35 4 -31 20 3 12 8 15 16 10
19 -16 63 -22 87 -14 16 6 19 11 10 17 -8 4 -17 2 -21 -5 -7 -11 -11 -10 -24
2 -13 14 -12 16 10 16 14 0 41 11 61 25 19 14 41 24 47 21 6 -2 25 -9 41 -15z
m223 11 c15 -1 15 -2 -1 -15 -22 -16 -44 -11 -44 11 0 9 6 13 14 9 8 -3 22 -5
31 -5z m152 0 c0 -5 -7 -10 -16 -10 -8 0 -12 5 -9 10 3 6 10 10 16 10 5 0 9
-4 9 -10z m537 -47 c-3 -2 -16 -1 -31 3 -17 4 -26 13 -26 26 0 19 1 19 31 -2
16 -12 28 -24 26 -27z m613 26 c0 -4 -7 -6 -15 -3 -8 4 -15 10 -15 15 0 4 7 6
15 3 8 -4 15 -10 15 -15z m-1020 -9 c0 -5 -4 -10 -10 -10 -5 0 -10 5 -10 10 0
6 5 10 10 10 6 0 10 -4 10 -10z m208 -13 c20 -16 7 -19 -37 -7 -49 13 -57 35
-8 25 17 -4 38 -12 45 -18z m1152 8 c11 -13 9 -15 -13 -15 -13 0 -30 7 -37 15
-11 13 -9 15 13 15 13 0 30 -7 37 -15z m-290 -5 c0 -5 -2 -10 -4 -10 -3 0 -8
5 -11 10 -3 6 -1 10 4 10 6 0 11 -4 11 -10z m193 3 c-7 -2 -21 -2 -30 0 -10 3
-4 5 12 5 17 0 24 -2 18 -5z m151 -12 c4 -5 0 -11 -6 -14 -7 -3 2 -11 21 -19
22 -10 29 -18 22 -23 -15 -9 -58 29 -58 50 0 17 13 20 21 6z m146 -6 c16 -19
3 -19 -30 0 -24 13 -24 14 -4 15 12 0 27 -7 34 -15z m-870 -26 c0 -6 -4 -7
-10 -4 -5 3 -10 11 -10 16 0 6 5 7 10 4 6 -3 10 -11 10 -16z m425 11 c3 -5 -1
-10 -9 -10 -9 0 -16 5 -16 10 0 6 4 10 9 10 6 0 13 -4 16 -10z m-237 -38 c-23
-4 -39 9 -20 15 6 3 9 10 6 16 -4 7 2 3 13 -8 20 -20 20 -20 1 -23z m42 28 c0
-5 -5 -10 -11 -10 -5 0 -7 5 -4 10 3 6 8 10 11 10 2 0 4 -4 4 -10z m825 0 c3
-6 -4 -10 -17 -10 -18 0 -20 2 -8 10 19 12 18 12 25 0z m-925 -15 c20 -24 6
-28 -15 -5 -10 11 -13 20 -8 20 6 0 16 -7 23 -15z m340 5 c0 -5 6 -10 14 -10
8 0 18 -4 21 -10 4 -6 -2 -7 -17 -1 -13 4 -31 7 -40 6 -18 -3 -24 6 -11 18 10
11 33 8 33 -3z m105 0 c13 -6 15 -9 5 -9 -8 0 -22 4 -30 9 -18 12 -2 12 25 0z
m-1165 -10 c0 -5 -2 -10 -4 -10 -3 0 -8 5 -11 10 -3 6 -1 10 4 10 6 0 11 -4
11 -10z m890 0 c0 -5 -4 -10 -10 -10 -5 0 -10 5 -10 10 0 6 5 10 10 10 6 0 10
-4 10 -10z m700 6 c0 -3 -4 -8 -10 -11 -5 -3 -10 -1 -10 4 0 6 5 11 10 11 6 0
10 -2 10 -4z m-375 -16 c3 -5 2 -10 -4 -10 -5 0 -13 5 -16 10 -3 6 -2 10 4 10
5 0 13 -4 16 -10z m75 -4 c0 -2 -9 -6 -20 -9 -11 -3 -18 -1 -14 4 5 9 34 13
34 5z m-347 -13 c-7 -2 -19 -2 -25 0 -7 3 -2 5 12 5 14 0 19 -2 13 -5z m107
-13 c0 -5 -2 -10 -4 -10 -3 0 -8 5 -11 10 -3 6 -1 10 4 10 6 0 11 -4 11 -10z
m430 -8 c0 -5 -27 -32 -32 -32 -2 0 -4 8 -5 18 -1 11 5 18 18 18 10 0 19 -2
19 -4z m-1009 -19 c12 -16 12 -17 -1 -7 -8 6 -22 14 -30 17 -13 5 -12 6 1 6 9
1 23 -7 30 -16z m879 -53 c0 -5 -7 -7 -15 -4 -8 4 -12 10 -9 15 6 11 24 2 24
-11z m-1955 0 c18 -8 18 -9 -5 -9 -25 -1 -25 -1 5 -17 16 -8 32 -18 35 -21 9
-9 -60 8 -88 23 -26 13 -26 14 -4 14 12 0 22 5 22 10 0 12 8 12 35 0z m-238
-6 c-3 -3 -12 -4 -19 -1 -8 3 -5 6 6 6 11 1 17 -2 13 -5z m1569 -9 c10 -8 14
-15 7 -15 -6 0 -15 5 -19 11 -3 6 -15 9 -25 6 -10 -3 -22 -1 -25 4 -9 15 41
10 62 -6z m308 -26 c-7 -11 -34 -12 -34 -1 0 14 11 21 26 15 8 -3 11 -9 8 -14z
m-1891 -27 c-9 -2 -19 2 -24 10 -16 24 -9 29 15 11 19 -14 21 -19 9 -21z
m1967 22 c0 -8 -5 -12 -10 -9 -6 4 -8 11 -5 16 9 14 15 11 15 -7z m-1580 -24
c0 -5 -5 -10 -11 -10 -5 0 -7 5 -4 10 3 6 8 10 11 10 2 0 4 -4 4 -10z m1585
-10 c3 -5 -3 -10 -14 -10 -11 0 -23 5 -26 10 -3 6 3 10 14 10 11 0 23 -4 26
-10z m-1245 -49 c0 -6 -9 -9 -20 -8 -11 1 -20 5 -20 9 0 4 9 8 20 8 11 0 20
-4 20 -9z m129 -17 c31 -4 48 -10 40 -14 -9 -6 -9 -12 4 -24 8 -9 21 -16 27
-16 6 0 10 -8 8 -17 -2 -13 -13 -18 -38 -18 -19 0 -40 4 -47 8 -7 5 -19 4 -28
-1 -22 -11 -67 -3 -62 12 2 6 16 10 31 9 14 -1 26 2 26 8 0 5 -7 9 -15 9 -8 0
-18 12 -21 26 -4 15 -12 23 -20 20 -7 -3 -16 -1 -19 4 -6 10 47 18 55 8 3 -4
29 -10 59 -14z m1353 -45 c16 -6 26 -14 23 -19 -7 -11 -53 0 -66 16 -6 8 -18
14 -26 14 -8 0 -12 4 -8 10 3 6 14 6 28 0 12 -6 34 -15 49 -21z m-1199 -53
c23 -18 21 -27 -5 -22 -13 1 -24 10 -26 19 -4 20 7 21 31 3z m242 4 c3 -5 1
-10 -4 -10 -6 0 -11 5 -11 10 0 6 2 10 4 10 3 0 8 -4 11 -10z m790 -10 c3 -5
-1 -10 -9 -10 -9 0 -16 5 -16 10 0 6 4 10 9 10 6 0 13 -4 16 -10z m-315 -10
c-20 -13 -33 -13 -25 0 3 6 14 10 23 10 15 0 15 -2 2 -10z m-2666 -15 c20 -9
41 -13 45 -11 5 3 44 6 88 7 62 2 87 -2 114 -17 53 -29 79 -55 79 -79 0 -32
-10 -36 -36 -16 -14 11 -33 17 -44 14 -14 -4 -23 2 -31 21 -13 29 -29 35 -29
11 0 -8 -5 -15 -11 -15 -6 0 -8 8 -4 19 8 25 -9 35 -36 21 -17 -9 -20 -18 -15
-41 4 -20 1 -31 -12 -39 -15 -9 -14 -13 13 -35 17 -14 36 -25 43 -25 18 0 36
-45 28 -74 -3 -14 -12 -26 -20 -26 -21 0 -83 54 -78 68 2 6 -3 12 -12 12 -16
0 -19 9 -17 46 1 11 -5 26 -13 33 -10 9 -13 22 -9 42 6 32 -3 38 -22 12 -10
-13 -9 -22 1 -41 14 -28 7 -55 -8 -28 -5 9 -21 22 -36 30 -23 12 -30 12 -46 0
-10 -7 -23 -11 -29 -7 -6 3 -2 12 9 20 18 13 18 14 -4 20 -13 3 -21 11 -18 18
2 7 -1 18 -7 24 -16 16 20 51 53 51 15 0 44 -7 64 -15z m2141 5 c12 -5 -8 -6
-49 -4 -38 2 -72 6 -74 9 -9 8 102 4 123 -5z m889 -26 c12 -5 14 -10 6 -19 -8
-10 -18 -10 -45 -1 -19 7 -38 15 -41 19 -9 9 59 9 80 1z m-244 -24 c0 -5 -7
-10 -16 -10 -8 0 -12 5 -9 10 3 6 10 10 16 10 5 0 9 -4 9 -10z m120 -4 c0 -3
-4 -8 -10 -11 -5 -3 -10 -1 -10 4 0 6 5 11 10 11 6 0 10 -2 10 -4z m-2613
-102 c2 -6 -8 -19 -22 -28 -24 -16 -25 -16 -25 7 0 13 3 27 7 31 10 10 36 3
40 -10z m-455 -44 c27 0 53 -57 39 -86 -6 -13 -16 -23 -23 -22 -8 2 -14 -10
-16 -33 l-3 -36 53 4 c29 3 59 6 66 9 19 6 5 24 -18 24 -26 0 -47 39 -29 51 8
5 24 9 37 9 13 0 32 5 43 11 32 17 59 -14 59 -67 0 -36 4 -44 23 -49 12 -4 32
-17 45 -28 21 -20 24 -19 26 12 1 8 9 19 18 25 29 18 60 -19 56 -68 l-3 -41
-42 3 -43 2 0 -40 c0 -33 -3 -40 -20 -40 -11 0 -20 -4 -20 -10 0 -5 20 -7 48
-3 52 6 68 -4 74 -47 2 -19 8 -24 26 -22 17 3 22 -2 22 -17 0 -12 5 -21 11
-21 7 0 9 9 5 24 -5 20 -1 26 25 35 25 8 31 8 36 -6 4 -11 -1 -22 -15 -31 -22
-15 -30 -42 -12 -42 6 0 10 -5 10 -10 0 -6 -5 -9 -12 -8 -7 2 -14 -10 -17 -27
-5 -24 -12 -31 -34 -33 -15 -2 -27 -1 -27 2 0 16 14 36 26 36 8 0 14 4 14 10
0 14 -43 6 -48 -8 -7 -21 -29 -13 -55 18 -24 28 -57 41 -57 21 0 -15 -32 -22
-46 -10 -20 16 -17 29 6 29 21 0 27 15 10 25 -6 4 -7 13 -1 23 12 23 -9 53
-29 42 -28 -15 -75 -13 -118 5 -73 31 -66 94 10 86 18 -2 30 4 38 18 8 15 21
21 47 21 41 0 35 11 -13 28 -34 11 -47 6 -57 -22 -5 -13 -13 -17 -30 -12 -12
4 -31 9 -42 10 -11 2 -22 4 -25 6 -3 1 -18 1 -35 1 -40 -2 -58 36 -45 94 5 22
10 45 10 51 0 20 -28 24 -70 9 -22 -8 -40 -10 -40 -5 0 6 9 10 20 10 15 0 20
7 20 28 0 15 4 32 8 39 11 18 54 33 77 28 11 -3 28 -5 37 -5z m3442 4 c9 -3
16 -14 16 -24 0 -26 16 -33 67 -31 46 1 93 -21 93 -45 0 -18 -18 -18 -53 1
-15 8 -41 12 -57 10 -46 -6 -70 5 -70 30 0 12 -7 28 -15 35 -28 23 -16 37 19
24z m-2801 -51 c-7 -2 -21 -2 -30 0 -10 3 -4 5 12 5 17 0 24 -2 18 -5z m152
-33 c8 -7 15 -27 15 -44 0 -20 7 -36 20 -44 28 -17 25 -35 -5 -30 -32 6 -37
-1 -26 -38 19 -69 -8 -70 -72 -4 -35 36 -56 50 -76 50 -15 0 -31 3 -34 7 -12
11 15 33 41 33 24 0 24 1 9 18 -21 23 -21 38 -1 46 10 4 14 14 11 25 -4 18 -2
18 49 6 30 -7 61 -18 69 -25z m2625 -9 c28 -17 29 -19 14 -32 -13 -11 -18 -11
-21 -1 -3 6 -13 12 -24 12 -18 0 -26 20 -12 33 9 9 8 9 43 -12z m-2070 -3 c0
-4 -9 -8 -20 -8 -11 0 -20 4 -20 8 0 4 9 8 20 8 11 0 20 -4 20 -8z m-480 -8
c0 -5 -5 -10 -11 -10 -5 0 -7 5 -4 10 3 6 8 10 11 10 2 0 4 -4 4 -10z m90 -60
c0 -8 3 -31 6 -51 6 -34 4 -36 -32 -47 -42 -13 -57 -8 -50 16 3 10 -1 30 -9
46 -14 26 -13 30 6 57 20 29 21 29 50 12 16 -10 29 -24 29 -33z m661 17 c-10
-9 -11 -8 -5 6 3 10 9 15 12 12 3 -3 0 -11 -7 -18z m1734 13 c3 -5 -1 -10 -9
-10 -9 0 -16 5 -16 10 0 6 4 10 9 10 6 0 13 -4 16 -10z m-2788 -46 c-3 -3 -12
-4 -19 -1 -8 3 -5 6 6 6 11 1 17 -2 13 -5z m1242 -28 c0 -7 -2 -6 -6 2 -2 6
-9 10 -14 6 -5 -3 -9 2 -9 12 0 13 3 14 15 4 8 -7 15 -18 14 -24z m137 -3 c4
-13 4 -27 0 -30 -3 -4 -6 1 -6 9 0 9 -7 19 -16 22 -12 5 -15 2 -10 -10 3 -8
-2 -23 -11 -32 -13 -13 -15 -13 -11 -2 3 8 1 23 -4 34 -7 13 -7 16 1 12 6 -4
14 -1 17 7 8 22 34 16 40 -10z m-1362 2 c3 -9 -1 -18 -10 -22 -19 -7 -28 2
-21 22 8 19 23 19 31 0z m94 -21 c32 -16 42 -48 26 -88 -8 -22 -74 -22 -74 -1
0 12 -10 15 -40 13 -42 -2 -67 12 -56 31 4 6 16 11 27 11 11 0 22 7 26 16 5
13 34 31 54 33 3 1 20 -6 37 -15z m502 12 c0 -3 -4 -8 -10 -11 -5 -3 -10 -1
-10 4 0 6 5 11 10 11 6 0 10 -2 10 -4z m1183 -11 c44 -18 67 -50 67 -92 0 -17
4 -43 10 -57 8 -23 15 -26 56 -26 37 0 51 -5 74 -29 25 -25 28 -34 23 -67 -3
-22 -10 -45 -16 -51 -6 -9 -2 -19 14 -33 13 -10 27 -19 32 -20 4 0 7 -6 7 -14
0 -10 12 -12 50 -8 29 3 55 0 63 -6 7 -6 31 -11 53 -11 59 2 62 1 70 -23 4
-13 13 -28 21 -33 10 -7 12 -20 8 -37 -7 -29 -43 -45 -52 -22 -3 8 -9 14 -14
14 -13 0 -11 -34 4 -49 10 -11 6 -12 -23 -6 -19 4 -37 11 -40 16 -3 5 -19 8
-35 8 -88 0 -144 28 -145 73 0 15 -3 15 -30 2 -16 -9 -30 -22 -30 -30 0 -24
-27 -27 -51 -6 -20 19 -20 22 -5 43 22 32 21 52 -4 44 -10 -3 -28 -2 -38 4
-28 15 -65 2 -59 -20 3 -10 -6 -28 -23 -44 l-27 -26 4 25 c4 17 1 27 -8 28 -8
0 -19 2 -25 2 -15 2 -44 26 -44 37 0 12 37 12 44 0 7 -10 56 -2 56 10 0 15 49
41 62 33 16 -10 78 -13 78 -4 0 3 -6 14 -13 25 -11 14 -23 17 -60 13 -43 -5
-48 -3 -60 19 -10 21 -20 26 -54 27 -52 3 -72 18 -65 52 4 25 3 25 -34 19 -22
-4 -45 -8 -51 -10 -21 -7 -15 -22 10 -29 13 -3 29 -17 35 -31 7 -15 19 -25 28
-23 9 2 21 -4 27 -14 14 -21 -9 -51 -33 -43 -11 3 -20 -1 -24 -10 -12 -32 -26
-14 -20 28 5 39 3 43 -22 55 -43 19 -79 15 -98 -10 l-15 -23 -18 20 c-26 31
-53 39 -53 16 0 -10 -11 -23 -25 -29 -14 -6 -25 -16 -25 -22 0 -5 -17 -10 -39
-10 -36 0 -39 2 -45 34 -4 19 -11 36 -16 38 -6 2 -2 19 7 41 15 32 22 37 50
37 23 0 33 -5 33 -15 0 -12 3 -13 19 -3 18 11 18 13 4 23 -40 29 39 71 85 46
30 -16 46 -14 73 12 14 12 36 29 49 39 19 12 22 19 14 28 -18 18 -49 8 -52
-18 -4 -26 -1 -26 -46 -7 -38 16 -38 17 -5 66 21 29 65 36 113 17 23 -9 31 -9
40 4 6 8 16 13 23 11 6 -2 14 1 18 6 9 16 77 13 118 -4z m1205 2 c6 -4 22 -5
34 -2 28 7 61 -23 63 -58 1 -20 27 -40 93 -73 6 -3 12 -17 12 -29 0 -32 -20
-37 -48 -12 -16 15 -34 20 -62 19 l-40 -3 0 44 0 43 -39 0 c-22 -1 -42 -4 -46
-8 -10 -10 -35 2 -35 18 0 9 -11 12 -37 9 -21 -2 -41 -4 -45 -4 -5 -1 -8 -7
-8 -15 0 -7 -7 -20 -16 -27 -13 -11 -17 -10 -25 4 -12 21 -39 22 -39 2 0 -15
-12 -20 -23 -9 -10 11 14 50 41 66 15 9 38 14 52 11 17 -3 31 2 42 14 12 13
30 18 65 17 27 0 54 -4 61 -7z m-2358 -37 c0 -5 -7 -7 -15 -4 -8 4 -15 8 -15
10 0 2 7 4 15 4 8 0 15 -4 15 -10z m140 0 c0 -5 -4 -10 -10 -10 -5 0 -10 5
-10 10 0 6 5 10 10 10 6 0 10 -4 10 -10z m1809 -35 c71 -36 82 -76 27 -99 -40
-16 -116 -10 -116 9 0 7 -11 16 -25 19 -28 7 -32 27 -10 46 8 7 15 18 15 25 0
13 17 21 48 24 7 0 34 -10 61 -24z m-504 -4 c-3 -6 -11 -11 -17 -11 -6 0 -6 6
2 15 14 17 26 13 15 -4z m43 7 c-6 -18 -28 -21 -28 -4 0 9 7 16 16 16 9 0 14
-5 12 -12z m-2698 -15 c0 -17 -48 -48 -58 -38 -14 13 19 45 56 54 1 1 2 -7 2
-16z m1313 2 c26 -11 43 -12 62 -5 22 8 28 6 43 -18 14 -23 23 -27 56 -24 l38
3 -3 -44 c-4 -42 -3 -45 21 -43 14 0 30 6 35 13 13 15 55 -1 55 -21 0 -9 15
-23 33 -32 41 -22 47 -31 47 -79 0 -37 5 -44 50 -78 27 -20 52 -37 55 -37 3 0
3 16 -1 35 -5 31 -4 35 14 35 12 0 38 -12 59 -26 21 -14 50 -28 66 -31 15 -3
30 -10 33 -14 3 -5 10 -9 15 -9 6 0 7 5 4 10 -3 6 3 10 14 10 11 0 23 5 26 10
10 16 52 12 59 -6 12 -32 6 -53 -16 -56 -15 -2 -24 -11 -26 -25 -2 -15 -10
-23 -24 -23 -21 0 -21 -9 -3 -53 6 -14 2 -20 -14 -24 -12 -3 -21 -13 -21 -24
0 -14 -7 -19 -25 -19 -15 0 -25 -6 -25 -14 0 -8 -4 -18 -10 -21 -6 -4 -9 12
-8 39 2 30 -3 51 -15 64 -9 10 -17 24 -17 30 0 17 -34 19 -46 3 -10 -13 -14
-13 -29 -1 -11 9 -19 10 -23 3 -4 -5 -22 -13 -40 -16 -30 -6 -32 -5 -22 13 5
10 19 22 30 25 16 5 18 10 10 26 -6 10 -19 19 -30 19 -10 0 -23 8 -29 17 -5
10 -13 14 -17 10 -5 -4 -3 -17 4 -27 15 -25 15 -63 0 -78 -9 -9 -9 -12 0 -12
22 0 12 -18 -13 -22 -26 -5 -45 7 -23 15 10 3 9 9 -3 23 -9 10 -19 27 -22 37
-4 9 -16 17 -27 17 -29 0 -22 34 8 38 44 7 21 22 -33 22 -47 0 -55 3 -53 17 3
18 -42 35 -99 36 -34 1 -57 -13 -35 -20 15 -6 6 -23 -12 -23 -18 0 -29 72 -13
82 6 4 9 8 7 10 -3 2 -18 14 -33 28 -34 30 -47 17 -40 -40 6 -39 -11 -85 -28
-75 -5 4 -6 17 -3 31 7 28 -10 33 -25 7 -8 -15 -12 -16 -35 -3 -30 15 -34 28
-9 26 10 0 19 7 21 18 3 14 0 17 -12 13 -9 -4 -16 -2 -16 4 0 6 -8 8 -19 4
-13 -4 -23 2 -35 19 -16 25 -7 44 14 31 6 -3 10 1 10 9 0 20 9 20 34 1 27 -20
36 -19 36 5 0 14 7 20 23 20 31 0 38 9 26 31 -6 13 -6 25 3 39 11 18 10 23 -5
31 -9 6 -15 14 -12 19 8 13 -55 24 -68 11 -26 -26 -30 3 -4 37 13 16 67 15
110 -3z m-203 -5 c0 -5 -7 -10 -15 -10 -8 0 -15 5 -15 10 0 6 7 10 15 10 8 0
15 -4 15 -10z m1690 -4 c0 -3 -4 -8 -10 -11 -5 -3 -10 -1 -10 4 0 6 5 11 10
11 6 0 10 -2 10 -4z m140 -11 c-7 -8 -16 -15 -21 -15 -5 0 -9 7 -9 15 0 9 9
15 21 15 18 0 19 -2 9 -15z m-1856 -24 c-2 -3 -12 3 -22 13 -16 17 -16 18 5 5
12 -7 20 -15 17 -18z m1723 -7 c0 -6 -9 -9 -19 -6 -10 2 -18 -1 -18 -7 0 -6
-4 -11 -10 -11 -5 0 -10 8 -10 19 0 14 7 18 28 17 16 -1 29 -6 29 -12z m-1157
-44 c0 -5 -4 -10 -10 -10 -5 0 -10 5 -10 10 0 6 5 10 10 10 6 0 10 -4 10 -10z
m-1594 -43 c1 -36 0 -38 -25 -32 -42 10 -62 34 -50 57 8 14 19 18 42 16 29 -3
31 -6 33 -41z m755 27 c10 -12 10 -20 1 -35 -16 -26 -15 -29 10 -26 15 1 23
-4 26 -17 6 -26 -13 -42 -32 -27 -9 7 -24 10 -36 6 -15 -5 -27 0 -41 16 -20
23 -20 24 -1 39 11 9 23 26 26 38 9 26 28 28 47 6z m2409 6 c0 -5 -4 -10 -10
-10 -5 0 -10 5 -10 10 0 6 5 10 10 10 6 0 10 -4 10 -10z m-2640 -36 c0 -16
-16 -19 -25 -4 -8 13 4 32 16 25 5 -4 9 -13 9 -21z m385 16 c-3 -5 -10 -10
-16 -10 -5 0 -9 5 -9 10 0 6 7 10 16 10 8 0 12 -4 9 -10z m2470 -31 c25 -22
35 -39 35 -60 0 -40 -16 -36 -37 9 -13 26 -27 40 -50 47 -18 5 -33 15 -33 22
0 24 49 13 85 -18z m145 27 c0 -3 -4 -8 -10 -11 -5 -3 -10 -1 -10 4 0 6 5 11
10 11 6 0 10 -2 10 -4z m-813 -18 c15 -7 48 -27 73 -45 79 -58 79 -57 57 -87
-12 -17 -16 -17 -79 4 -59 19 -67 25 -73 51 -6 28 -30 40 -37 18 -2 -7 -12 -7
-31 0 l-27 11 27 30 c31 33 48 36 90 18z m-2589 -11 c20 -13 14 -52 -12 -76
-15 -14 -22 -30 -19 -42 5 -16 0 -19 -31 -19 -32 0 -38 4 -53 35 -9 19 -20 35
-25 35 -4 0 -8 5 -8 11 0 7 10 9 24 7 25 -5 36 7 36 40 0 13 9 17 38 17 20 0
43 -4 50 -8z m3197 -36 c22 -14 44 -36 49 -48 6 -12 27 -26 50 -33 23 -7 54
-26 71 -44 16 -17 45 -42 63 -54 57 -41 34 -84 -24 -45 -21 14 -29 14 -46 4
-14 -9 -23 -9 -33 -1 -12 10 -178 5 -197 -6 -4 -3 -3 5 3 18 23 51 96 69 177
43 16 -5 22 -3 22 8 0 15 -47 37 -79 37 -9 0 -25 13 -34 30 -12 19 -23 27 -33
23 -8 -3 -21 2 -27 12 -7 9 -22 15 -33 13 -14 -2 -20 4 -22 25 -8 65 17 70 93
18z m-2796 15 c7 -8 23 -17 36 -20 14 -4 25 -11 25 -16 0 -6 5 -10 11 -10 6 0
22 -9 36 -20 14 -11 30 -17 35 -13 6 3 9 0 6 -7 -10 -30 -36 -35 -61 -12 -26
24 -53 29 -60 10 -4 -8 -8 -5 -12 9 -4 11 -15 23 -26 26 -10 3 -19 12 -19 21
0 10 -8 16 -21 16 -18 0 -19 2 -9 15 16 19 44 19 59 1z m-701 -7 c9 -1 1 -5
-18 -8 -40 -8 -45 -7 -35 9 4 6 14 9 22 6 8 -3 22 -7 31 -7z m1917 2 c3 -5 1
-12 -5 -16 -5 -3 -10 1 -10 9 0 18 6 21 15 7z m-70 -20 c3 -5 0 -13 -6 -17 -7
-4 -9 -3 -5 4 3 5 0 13 -6 15 -9 4 -10 6 -1 6 6 1 14 -3 18 -8z m1457 -13 c2
-6 19 -11 37 -11 27 0 33 -5 38 -29 5 -23 8 -26 20 -17 10 9 17 9 24 2 7 -7 4
-16 -12 -27 -30 -21 -36 -20 -42 4 -3 14 -14 20 -31 20 -15 0 -29 6 -32 14 -7
19 -40 26 -53 13 -8 -8 -15 -7 -23 2 -11 10 -9 15 6 27 24 17 63 18 68 2z
m-2883 -50 c1 -5 -6 -8 -15 -8 -11 0 -14 5 -10 16 3 9 6 21 7 27 0 12 17 -20
18 -35z m206 22 c3 -5 -3 -10 -14 -10 -12 0 -21 5 -21 10 0 6 6 10 14 10 8 0
18 -4 21 -10z m2205 -40 c0 -15 -58 -12 -63 3 -10 28 4 37 34 21 16 -8 29 -19
29 -24z m343 -4 c16 -11 27 -29 27 -43 0 -23 -14 -31 -24 -14 -3 4 -26 14 -52
21 -47 13 -61 28 -50 55 7 19 61 9 99 -19z m-2063 10 c0 -2 -7 -6 -15 -10 -8
-3 -15 -1 -15 4 0 6 7 10 15 10 8 0 15 -2 15 -4z m30 -12 c0 -8 -5 -12 -10 -9
-6 4 -8 11 -5 16 9 14 15 11 15 -7z m-680 -9 c0 -8 -4 -15 -10 -15 -5 0 -10 7
-10 15 0 8 5 15 10 15 6 0 10 -7 10 -15z m1889 -64 c10 -6 10 -13 3 -28 -6
-11 -9 -28 -6 -39 2 -10 0 -32 -5 -49 l-9 -30 -1 37 c-1 48 -34 63 -63 27
l-19 -24 7 50 c4 28 12 53 18 57 15 10 58 10 75 -1z m804 -31 c9 -17 11 -32 6
-36 -5 -3 -12 2 -15 10 -3 9 -12 16 -20 16 -8 0 -14 9 -14 20 0 30 27 24 43
-10z m-2010 6 c19 -14 23 -36 7 -36 -5 0 -10 5 -10 11 0 8 -17 9 -55 4 -54 -6
-66 0 -43 23 16 16 79 15 101 -2z m-518 -25 c3 -10 14 -26 25 -36 22 -20 26
-55 8 -73 -9 -9 -8 -16 5 -30 18 -19 23 -52 9 -52 -5 0 -27 9 -50 20 -32 15
-47 18 -61 10 -16 -8 -21 -5 -30 20 -8 24 -16 30 -39 30 -33 0 -102 26 -102
38 0 4 7 18 16 30 17 24 44 28 73 10 17 -10 23 -7 47 20 34 38 88 45 99 13z
m995 -1 c0 -5 -4 -10 -10 -10 -5 0 -10 5 -10 10 0 6 5 10 10 10 6 0 10 -4 10
-10z m955 -20 c3 -11 13 -20 21 -20 8 0 14 -7 14 -15 0 -8 -5 -15 -10 -15 -6
0 -13 7 -16 15 -4 10 -20 15 -50 15 -47 0 -58 15 -21 30 36 14 55 11 62 -10z
m-147 -7 c2 -8 -6 -13 -22 -13 -25 0 -33 10 -19 24 10 10 36 3 41 -11z m256
-54 c-7 -12 -41 -11 -49 1 -3 6 1 10 9 10 8 0 18 10 22 22 l7 23 8 -24 c5 -12
7 -27 3 -32z m474 39 c7 -7 12 -21 12 -32 0 -18 -1 -19 -20 -1 -20 18 -27 45
-12 45 4 0 13 -5 20 -12z m-1911 -4 c-3 -3 -12 -4 -19 -1 -8 3 -5 6 6 6 11 1
17 -2 13 -5z m2240 -55 c21 -23 44 -50 51 -60 12 -17 11 -19 -11 -19 -18 0
-29 9 -40 33 -18 37 -73 61 -111 48 -27 -10 -56 -3 -56 13 0 26 25 37 77 32
45 -4 56 -9 90 -47z m-2491 26 c4 -8 10 -12 15 -9 5 3 9 0 9 -5 0 -15 -19 -14
-36 3 -17 17 -18 26 -4 26 6 0 13 -7 16 -15z m-169 -1 c-3 -3 -12 -4 -19 -1
-8 3 -5 6 6 6 11 1 17 -2 13 -5z m126 -10 c15 -3 27 -10 27 -15 0 -12 -17 -11
-25 2 -4 5 -17 9 -28 8 -12 0 -31 -1 -42 0 -17 1 -17 3 -5 11 8 5 22 8 30 5 8
-2 27 -7 43 -11z m164 1 c19 -20 9 -32 -12 -15 -9 7 -15 8 -15 2 0 -5 -10 -8
-21 -5 -21 6 -21 7 -4 20 24 17 33 16 52 -2z m193 5 c0 -5 -4 -10 -10 -10 -5
0 -10 5 -10 10 0 6 5 10 10 10 6 0 10 -4 10 -10z m-75 -19 c-3 -6 -11 -11 -17
-11 -6 0 -6 6 2 15 14 17 26 13 15 -4z m1984 1 c5 -10 6 -24 2 -30 -5 -9 -11
-5 -19 13 -14 31 -15 35 -2 35 5 0 14 -8 19 -18z m-509 -8 c0 -17 -22 -14 -28
4 -2 7 3 12 12 12 9 0 16 -7 16 -16z m144 6 c16 -6 27 -6 31 0 10 17 54 11 75
-10 23 -23 25 -64 7 -98 l-13 -23 -23 25 c-19 20 -21 28 -12 45 14 26 1 27
-29 3 -35 -29 -33 -76 5 -99 25 -14 27 -18 12 -21 -29 -6 -87 8 -87 20 0 6 8
17 18 24 15 11 12 14 -25 20 -34 5 -43 11 -43 26 0 18 4 20 46 13 45 -6 46 -6
39 17 -10 31 -10 31 -35 18 -30 -16 -35 -7 -15 24 20 30 16 29 49 16z m196
-10 c0 -5 -5 -10 -11 -10 -5 0 -7 5 -4 10 3 6 8 10 11 10 2 0 4 -4 4 -10z
m-1227 -20 c4 0 5 5 1 12 -4 7 -3 8 4 4 19 -12 15 -93 -4 -100 -24 -9 -30 2
-16 25 10 16 9 23 -7 41 -21 21 -18 49 2 29 6 -6 15 -11 20 -11z m181 -24 c3
-13 2 -35 -3 -48 -6 -13 -10 -17 -10 -10 -1 6 -8 12 -17 12 -13 0 -14 3 -5 14
9 11 9 20 2 35 -17 31 -14 43 8 32 10 -6 21 -21 25 -35z m-761 4 c10 0 16 -4
13 -9 -4 -6 -78 -8 -94 -2 -1 1 2 10 8 21 10 19 13 19 33 5 12 -8 30 -15 40
-15z m416 20 c12 0 74 -81 67 -87 -8 -8 -57 17 -72 36 -6 8 -22 15 -35 17 -13
1 -27 3 -31 3 -5 1 -8 5 -8 9 0 13 43 31 58 26 8 -2 17 -4 21 -4z m1711 2 c0
-12 -23 -32 -37 -32 -17 0 -17 27 0 33 19 8 37 8 37 -1z m69 -16 c10 -11 8
-16 -9 -21 -24 -8 -46 7 -36 24 10 15 31 14 45 -3z m-2441 -4 c-19 -4 -25 -22
-8 -22 6 0 10 -4 10 -10 0 -5 -9 -10 -20 -10 -11 0 -20 3 -20 8 0 4 -25 7 -55
7 -59 -1 -72 16 -19 25 34 6 137 8 112 2z m56 -1 c4 -5 -3 -7 -14 -4 -23 6
-26 13 -6 13 8 0 17 -4 20 -9z m66 5 c0 -3 -4 -8 -10 -11 -5 -3 -10 -1 -10 4
0 6 5 11 10 11 6 0 10 -2 10 -4z m-640 -15 c0 -12 -29 -23 -41 -15 -5 3 -7 10
-4 15 8 12 45 12 45 0z m1750 -18 c0 -5 -5 -15 -10 -23 -8 -12 -10 -11 -10 8
0 12 5 22 10 22 6 0 10 -3 10 -7z m50 -3 c0 -5 -5 -10 -11 -10 -5 0 -7 5 -4
10 3 6 8 10 11 10 2 0 4 -4 4 -10z m-1690 -18 c0 -13 -12 -22 -22 -16 -10 6
-1 24 13 24 5 0 9 -4 9 -8z m1775 -1 c3 -5 1 -12 -5 -16 -5 -3 -10 1 -10 9 0
18 6 21 15 7z m95 -12 c0 -6 -4 -7 -10 -4 -5 3 -10 11 -10 16 0 6 5 7 10 4 6
-3 10 -11 10 -16z m-1680 1 c0 -5 -4 -10 -10 -10 -5 0 -10 5 -10 10 0 6 5 10
10 10 6 0 10 -4 10 -10z m61 -19 c58 -29 63 -93 6 -72 -20 8 -30 7 -40 -4 -8
-8 -18 -11 -21 -7 -4 3 -9 -4 -13 -16 -7 -30 -23 -28 -23 2 0 23 6 31 45 64
10 9 13 21 9 34 -3 11 -2 19 2 16 5 -2 21 -10 35 -17z m1259 -6 c0 -8 -7 -15
-15 -15 -16 0 -20 12 -8 23 11 12 23 8 23 -8z m690 -5 c0 -19 -4 -20 -37 -14
-55 10 -63 18 -23 25 57 10 60 10 60 -11z m-1090 0 c-19 -13 -30 -13 -30 0 0
6 10 10 23 10 18 0 19 -2 7 -10z m270 -54 c0 -3 -4 -8 -10 -11 -5 -3 -10 -1
-10 4 0 6 5 11 10 11 6 0 10 -2 10 -4z m670 -141 c0 -8 -4 -15 -9 -15 -12 0
-23 -29 -15 -42 4 -7 10 -4 16 6 10 18 34 21 44 5 3 -6 2 -15 -4 -21 -6 -6 -8
-17 -5 -26 8 -19 -23 -42 -54 -42 -18 0 -28 10 -42 44 -11 24 -27 46 -36 49
-20 8 -10 27 14 27 10 0 24 7 31 15 7 8 23 15 36 15 15 0 24 -6 24 -15z m901
-55 c21 -12 26 -40 7 -40 -21 1 -51 28 -43 39 8 14 11 14 36 1z m-771 -41 c0
-27 -46 -26 -53 0 -6 26 -2 29 28 23 16 -3 25 -11 25 -23z m-2696 -20 c15 -14
-1 -22 -29 -15 -14 4 -25 13 -25 22 0 11 6 14 23 9 12 -4 26 -11 31 -16z
m2636 -19 c0 -5 -4 -10 -9 -10 -6 0 -13 5 -16 10 -3 6 1 10 9 10 9 0 16 -4 16
-10z m-2130 -20 c0 -5 -9 -10 -21 -10 -11 0 -17 5 -14 10 3 6 13 10 21 10 8 0
14 -4 14 -10z m-508 -62 c-24 -9 -35 -9 -51 1 -12 8 -12 11 0 23 25 25 43 26
56 4 9 -17 9 -22 -5 -28z m615 -10 c-3 -8 -6 -5 -6 6 -1 11 2 17 5 13 3 -3 4
-12 1 -19z m2273 -48 c12 -8 9 -10 -13 -10 -16 0 -26 4 -22 10 8 12 16 12 35
0z"/>
<path d="M2210 2711 c0 -44 18 -64 52 -59 20 3 23 10 26 51 l3 47 -40 0 c-41
0 -41 0 -41 -39z"/>
<path d="M1878 2853 l-38 -4 0 -61 c0 -51 2 -59 16 -54 9 3 33 6 55 6 l39 0 0
60 c0 51 -3 60 -17 58 -10 -1 -35 -3 -55 -5z m47 -64 c0 -27 -11 -39 -37 -39
-21 0 -23 22 -6 49 16 26 43 20 43 -10z"/>
<path d="M1840 2662 l0 -57 53 1 c46 2 52 5 56 26 1 12 8 26 15 30 8 6 8 8 -1
8 -7 0 -13 11 -13 25 0 24 -3 25 -55 25 l-55 0 0 -58z m90 -7 c0 -33 -2 -35
-34 -35 -36 0 -37 1 -27 63 0 4 15 7 31 7 28 0 30 -3 30 -35z"/>
<path d="M1517 2733 c-4 -3 -7 -26 -7 -50 l0 -43 45 0 45 0 0 50 0 50 -38 0
c-21 0 -42 -3 -45 -7z"/>
<path d="M2630 2806 c0 -20 2 -36 4 -36 8 0 12 61 4 66 -4 3 -8 -11 -8 -30z"/>
<path d="M1480 2145 c0 -9 9 -15 24 -15 30 0 42 15 20 24 -27 10 -44 7 -44 -9z"/>
<path d="M1760 2140 c0 -5 7 -10 16 -10 8 0 12 5 9 10 -3 6 -10 10 -16 10 -5
0 -9 -4 -9 -10z"/>
<path d="M1670 2130 c-8 -5 -12 -11 -10 -14 3 -2 14 2 24 10 22 15 10 19 -14
4z"/>
<path d="M1800 2130 c0 -5 5 -10 10 -10 6 0 10 5 10 10 0 6 -4 10 -10 10 -5 0
-10 -4 -10 -10z"/>
<path d="M1708 2122 c-10 -2 -18 -10 -18 -17 0 -11 8 -13 33 -8 40 7 39 7 19
19 -9 5 -25 8 -34 6z"/>
<path d="M1774 2099 c-3 -5 2 -9 10 -9 9 0 16 -4 16 -10 0 -5 9 -10 19 -10 32
0 19 35 -13 36 -15 1 -29 -3 -32 -7z"/>
<path d="M1910 2106 c0 -2 7 -6 15 -10 8 -3 15 -1 15 4 0 6 -7 10 -15 10 -8 0
-15 -2 -15 -4z"/>
<path d="M2276 2083 c-3 -3 2 -12 12 -19 14 -11 14 -14 2 -14 -31 -3 26 -19
67 -19 23 -1 45 -6 48 -11 4 -6 21 -8 41 -4 25 5 38 2 47 -9 14 -17 74 -30 82
-17 3 5 -3 11 -14 15 -10 3 -33 19 -50 35 -17 17 -40 30 -51 30 -11 0 -20 5
-20 10 0 6 -8 10 -17 10 -15 0 -16 -2 -3 -10 12 -8 11 -10 -7 -10 -12 0 -23
-5 -25 -10 -4 -13 -80 -26 -77 -14 5 27 -19 52 -35 37z"/>
<path d="M2055 2071 c-3 -5 4 -12 15 -16 11 -3 20 -11 20 -16 0 -5 7 -9 15 -9
11 0 10 6 -7 25 -23 27 -33 31 -43 16z"/>
<path d="M1911 2061 c-19 -12 -5 -17 63 -26 46 -5 57 -4 54 7 -3 8 -18 12 -42
10 -20 -2 -43 1 -49 7 -7 5 -19 6 -26 2z"/>
<path d="M1739 2028 c9 -24 31 -37 31 -18 0 12 -24 40 -34 40 -3 0 -2 -10 3
-22z"/>
<path d="M2144 2025 c19 -15 14 -35 -10 -35 -25 0 -15 -21 18 -34 24 -11 38
-11 56 -3 l24 11 -21 17 c-15 12 -17 19 -9 22 7 3 -4 12 -24 21 -46 20 -59 20
-34 1z"/>
<path d="M2040 2020 c0 -5 5 -10 11 -10 5 0 7 5 4 10 -3 6 -8 10 -11 10 -2 0
-4 -4 -4 -10z"/>
<path d="M2238 2023 c7 -3 16 -2 19 1 4 3 -2 6 -13 5 -11 0 -14 -3 -6 -6z"/>
<path d="M2340 2010 c-22 -7 -21 -8 13 -9 23 -1 36 3 32 9 -7 11 -10 11 -45 0z"/>
<path d="M2426 1985 c4 -10 0 -15 -12 -15 -18 -1 -18 -1 -2 -11 22 -12 65 -2
72 17 3 8 2 12 -3 9 -5 -3 -12 -1 -16 5 -10 17 -45 12 -39 -5z"/>
<path d="M2310 1980 c0 -5 7 -10 16 -10 8 0 12 5 9 10 -3 6 -10 10 -16 10 -5
0 -9 -4 -9 -10z"/>
<path d="M2680 1980 c0 -5 6 -10 14 -10 8 0 23 -3 33 -7 16 -6 16 -5 4 10 -15
18 -51 23 -51 7z"/>
<path d="M1960 1973 c0 -5 14 -9 30 -10 17 -1 30 2 30 7 0 6 -13 10 -30 10
-16 0 -30 -3 -30 -7z"/>
<path d="M2350 1971 c0 -6 9 -9 20 -8 11 1 20 5 20 9 0 4 -9 8 -20 8 -11 0
-20 -4 -20 -9z"/>
<path d="M2010 1946 c0 -2 9 -6 20 -9 11 -3 20 -1 20 4 0 5 -9 9 -20 9 -11 0
-20 -2 -20 -4z"/>
<path d="M2230 1940 c0 -5 4 -10 9 -10 6 0 13 5 16 10 3 6 -1 10 -9 10 -9 0
-16 -4 -16 -10z"/>
<path d="M2295 1930 c10 -11 20 -18 23 -15 7 6 -18 35 -31 35 -5 0 -2 -9 8
-20z"/>
<path d="M2800 1941 c0 -5 9 -11 20 -14 24 -6 27 8 4 17 -21 8 -24 8 -24 -3z"/>
<path d="M2950 1940 c0 -5 10 -10 23 -10 18 0 19 2 7 10 -19 13 -30 13 -30 0z"/>
<path d="M2630 1929 c0 -5 10 -9 22 -9 12 0 18 3 14 7 -10 11 -36 12 -36 2z"/>
<path d="M2680 1930 c0 -5 5 -10 11 -10 5 0 7 5 4 10 -3 6 -8 10 -11 10 -2 0
-4 -4 -4 -10z"/>
<path d="M2090 1920 c0 -5 7 -10 16 -10 8 0 12 5 9 10 -3 6 -10 10 -16 10 -5
0 -9 -4 -9 -10z"/>
<path d="M2460 1920 c0 -5 5 -10 10 -10 6 0 10 5 10 10 0 6 -4 10 -10 10 -5 0
-10 -4 -10 -10z"/>
<path d="M2750 1899 c0 -5 5 -7 10 -4 6 3 10 8 10 11 0 2 -4 4 -10 4 -5 0 -10
-5 -10 -11z"/>
<path d="M2817 1877 c3 -15 9 -27 14 -27 13 0 11 13 -5 35 -13 18 -14 18 -9
-8z"/>
<path d="M2406 1851 c-10 -11 -13 -21 -7 -25 5 -4 13 -1 17 5 5 8 8 8 14 0 3
-7 14 -9 24 -5 16 6 16 8 0 25 -21 24 -27 24 -48 0z"/>
<path d="M2675 1850 c3 -5 8 -10 11 -10 2 0 4 5 4 10 0 6 -5 10 -11 10 -5 0
-7 -4 -4 -10z"/>
<path d="M2600 1830 c8 -5 20 -10 25 -10 6 0 3 5 -5 10 -8 5 -19 10 -25 10 -5
0 -3 -5 5 -10z"/>
<path d="M2873 1833 c-7 -3 -13 -8 -13 -13 0 -10 24 -7 28 4 5 11 -1 14 -15 9z"/>
<path d="M2739 1814 c-12 -14 -7 -18 24 -15 9 1 17 -3 17 -8 0 -6 5 -11 11
-11 6 0 9 10 7 23 -3 26 -41 33 -59 11z"/>
<path d="M3055 1810 c3 -5 10 -10 16 -10 5 0 9 5 9 10 0 6 -7 10 -16 10 -8 0
-12 -4 -9 -10z"/>
<path d="M3063 1793 c-13 -2 -23 -8 -23 -12 0 -9 82 -31 93 -24 7 4 -36 45
-45 42 -1 -1 -13 -4 -25 -6z"/>
<path d="M3255 1790 c3 -5 13 -10 21 -10 8 0 12 5 9 10 -3 6 -13 10 -21 10 -8
0 -12 -4 -9 -10z"/>
<path d="M365 1240 c-8 -13 -1 -24 14 -19 6 3 7 10 2 18 -6 10 -10 10 -16 1z"/>
<path d="M2484 1155 c11 -8 27 -15 35 -15 13 1 12 4 -3 15 -11 8 -27 15 -35
15 -13 -1 -12 -4 3 -15z"/>
<path d="M2733 923 c-18 -7 -16 -33 2 -33 8 0 15 9 15 20 0 11 -1 20 -2 19 -2
0 -9 -3 -15 -6z"/>
<path d="M2775 880 c4 -6 11 -8 16 -5 14 9 11 15 -7 15 -8 0 -12 -5 -9 -10z"/>
<path d="M2874 845 c6 -19 17 -35 24 -35 7 0 15 -7 18 -15 8 -19 54 -19 80 0
19 14 19 15 -3 21 -11 3 -23 14 -26 25 -3 11 -14 19 -25 19 -12 0 -24 5 -27
10 -3 6 -16 10 -29 10 -22 0 -22 -2 -12 -35z"/>
<path d="M1620 971 c0 -10 70 -21 85 -13 5 4 -1 9 -15 13 -37 10 -70 10 -70 0z"/>
<path d="M1835 920 c3 -5 10 -10 16 -10 5 0 9 5 9 10 0 6 -7 10 -16 10 -8 0
-12 -4 -9 -10z"/>
<path d="M2032 813 c2 -10 14 -19 26 -21 21 -3 22 -1 12 17 -13 26 -43 28 -38
4z"/>
<path d="M2112 778 c3 -7 24 -14 48 -16 39 -3 42 -2 31 12 -16 19 -85 22 -79
4z"/>
<path d="M2155 710 c-3 -5 -2 -10 4 -10 5 0 13 5 16 10 3 6 2 10 -4 10 -5 0
-13 -4 -16 -10z"/>
<path d="M610 754 c0 -6 39 -44 46 -44 2 0 0 10 -5 23 -8 20 -41 38 -41 21z"/>
<path d="M704 736 c-8 -22 3 -33 18 -18 9 9 9 15 0 24 -9 9 -13 7 -18 -6z"/>
<path d="M1865 3440 c4 -6 -8 -10 -29 -10 -20 0 -36 -4 -36 -10 0 -5 10 -8 23
-6 12 3 52 5 90 5 53 1 67 4 67 16 0 8 -4 15 -10 15 -5 0 -10 -4 -10 -8 0 -5
-18 -9 -40 -10 -22 -1 -40 3 -40 8 0 6 -5 10 -11 10 -5 0 -7 -4 -4 -10z"/>
<path d="M2250 3420 c-12 -7 -10 -9 7 -7 12 0 19 5 17 9 -6 10 -6 10 -24 -2z"/>
<path d="M2487 3399 c7 -27 23 -34 23 -11 0 11 -6 22 -14 25 -10 4 -12 0 -9
-14z"/>
<path d="M2315 3390 c3 -5 8 -10 11 -10 2 0 4 5 4 10 0 6 -5 10 -11 10 -5 0
-7 -4 -4 -10z"/>
<path d="M1920 3385 c-10 -53 -10 -60 1 -42 6 10 8 25 6 35 -3 9 -6 13 -7 7z"/>
<path d="M1890 3308 c0 -7 4 -19 9 -27 7 -10 9 -7 8 12 -2 26 -17 39 -17 15z"/>
<path d="M120 740 c0 -5 5 -10 11 -10 5 0 7 5 4 10 -3 6 -8 10 -11 10 -2 0 -4
-4 -4 -10z"/>
<path d="M0 697 c0 -19 8 -26 37 -35 20 -6 38 -10 39 -9 0 1 -5 17 -12 35 -11
24 -20 32 -39 32 -20 0 -25 -5 -25 -23z"/>
<path d="M2 520 c0 -14 2 -19 5 -12 2 6 2 18 0 25 -3 6 -5 1 -5 -13z"/>
</g>
</svg>
