<svg width="70" height="70" viewBox="0 0 70 70" fill="none" xmlns="http://www.w3.org/2000/svg">
<g clip-path="url(#clip0)">
<path d="M59.5666 24.6014C59.5666 10.6083 47.8055 -0.709185 33.6693 0.0348228C20.8638 0.778831 10.7339 11.3523 10.4334 24.1579C10.4334 30.5535 12.8085 36.5055 16.9864 41.127C23.8112 48.4383 22.9385 56.9085 22.9385 56.9085C22.9385 58.5396 24.2834 59.8846 25.9145 59.8846H44.0712C45.7022 59.8846 47.0472 58.5396 47.1903 56.9085C47.1903 56.9085 46.1887 48.6529 52.9992 41.2843C57.1771 36.806 59.5666 30.8539 59.5666 24.6014ZM41.2525 54.0756H28.7475C28.447 47.9661 25.7714 42.014 21.4505 37.4069C18.174 33.83 16.5429 29.2228 16.5429 24.4583C16.6859 14.6288 24.2834 6.60213 34.1129 6.0012C44.8295 5.40027 53.7576 14.0422 53.7576 24.6014C53.7576 29.2228 51.9691 33.83 48.6926 37.2495C44.2285 42.014 41.553 47.9661 41.2525 54.0756Z" fill="black"/>
<path d="M40.208 64.0481H29.6345C28.0034 64.0481 26.6585 65.393 26.6585 67.0241C26.6585 68.6552 28.0034 70.0002 29.6345 70.0002H40.208C41.8391 70.0002 43.1841 68.6552 43.1841 67.0241C43.1841 65.393 41.8534 64.0481 40.208 64.0481Z" fill="black"/>
</g>
<defs>
<clipPath id="clip0">
<rect width="70" height="70" fill="white"/>
</clipPath>
</defs>
</svg>
